G04*
G04 #@! TF.GenerationSoftware,Altium Limited,Altium Designer,20.0.2 (26)*
G04*
G04 Layer_Color=255*
%FSLAX25Y25*%
%MOIN*%
G70*
G01*
G75*
%ADD15O,0.02362X0.05976*%
%ADD16O,0.02362X0.05976*%
%ADD17R,0.15354X0.07087*%
%ADD18R,0.17717X0.05118*%
%ADD19R,0.11360X0.03920*%
%ADD20R,0.07150X0.03000*%
%ADD21R,0.03920X0.11360*%
%ADD22R,0.03000X0.07150*%
%ADD23O,0.11811X0.01575*%
%ADD24R,0.10000X0.06000*%
%ADD25R,0.06000X0.10000*%
G04:AMPARAMS|DCode=26|XSize=70mil|YSize=140mil|CornerRadius=17.5mil|HoleSize=0mil|Usage=FLASHONLY|Rotation=0.000|XOffset=0mil|YOffset=0mil|HoleType=Round|Shape=RoundedRectangle|*
%AMROUNDEDRECTD26*
21,1,0.07000,0.10500,0,0,0.0*
21,1,0.03500,0.14000,0,0,0.0*
1,1,0.03500,0.01750,-0.05250*
1,1,0.03500,-0.01750,-0.05250*
1,1,0.03500,-0.01750,0.05250*
1,1,0.03500,0.01750,0.05250*
%
%ADD26ROUNDEDRECTD26*%
%ADD27R,0.04134X0.02559*%
%ADD28R,0.08661X0.09843*%
%ADD29R,0.02362X0.05906*%
D15*
X48523Y75236D02*
D03*
X53523D02*
D03*
X58523D02*
D03*
X63523D02*
D03*
D16*
X48524Y96811D02*
D03*
X53524D02*
D03*
X58524D02*
D03*
X63524D02*
D03*
D17*
X-8675Y68606D02*
D03*
Y103802D02*
D03*
D18*
X12191Y81204D02*
D03*
Y91204D02*
D03*
D19*
X-4349Y60534D02*
D03*
X-4349Y41284D02*
D03*
X-3870Y16920D02*
D03*
X-3870Y36170D02*
D03*
D20*
X9291Y48404D02*
D03*
Y53324D02*
D03*
X9770Y28960D02*
D03*
Y24040D02*
D03*
D21*
X50284Y-6870D02*
D03*
X21114D02*
D03*
D22*
X38164Y6770D02*
D03*
X43084D02*
D03*
X33244D02*
D03*
X28324D02*
D03*
D23*
X82224Y54024D02*
D03*
Y51465D02*
D03*
Y48906D02*
D03*
Y46346D02*
D03*
Y43787D02*
D03*
Y41228D02*
D03*
Y38669D02*
D03*
Y36110D02*
D03*
Y33551D02*
D03*
Y30992D02*
D03*
Y28433D02*
D03*
Y25874D02*
D03*
Y23315D02*
D03*
Y20756D02*
D03*
Y18197D02*
D03*
D24*
X111024Y64315D02*
D03*
Y75732D02*
D03*
Y96732D02*
D03*
Y85315D02*
D03*
D25*
X87315Y66524D02*
D03*
X98732D02*
D03*
X87315Y94524D02*
D03*
X98732D02*
D03*
X87315Y80524D02*
D03*
X98732D02*
D03*
D26*
X135024Y67024D02*
D03*
X125024Y100024D02*
D03*
X135024D02*
D03*
X125024Y67024D02*
D03*
D27*
X76193Y-5744D02*
D03*
X59855Y-5744D02*
D03*
X76192Y-14209D02*
D03*
X59854Y-14209D02*
D03*
X102193Y-5744D02*
D03*
X85855Y-5744D02*
D03*
X102192Y-14209D02*
D03*
X85854Y-14209D02*
D03*
D28*
X74424Y73772D02*
D03*
Y92276D02*
D03*
X29024Y128276D02*
D03*
Y109772D02*
D03*
D29*
X48524Y105994D02*
D03*
X43524D02*
D03*
Y132053D02*
D03*
X48524D02*
D03*
X56524Y132053D02*
D03*
X61524D02*
D03*
Y105994D02*
D03*
X56524D02*
D03*
M02*
