G04*
G04 #@! TF.GenerationSoftware,Altium Limited,Altium Designer,20.0.2 (26)*
G04*
G04 Layer_Color=16711935*
%FSLAX25Y25*%
%MOIN*%
G70*
G01*
G75*
%ADD40R,0.06800X0.10800*%
%ADD45C,0.05800*%
%ADD46C,0.24422*%
%ADD74R,0.03359X0.05328*%
%ADD75O,0.07887X0.01981*%
%ADD76O,0.01981X0.07887*%
%ADD77R,0.07887X0.05249*%
%ADD78R,0.04461X0.04658*%
%ADD79R,0.16548X0.12610*%
%ADD80O,0.03162X0.07878*%
%ADD81R,0.04068X0.04737*%
%ADD82R,0.07300X0.05800*%
%ADD83R,0.04658X0.04461*%
%ADD84R,0.05131X0.03162*%
%ADD85R,0.04800X0.06300*%
%ADD86R,0.05249X0.07887*%
%ADD87O,0.07296X0.03162*%
%ADD88R,0.07296X0.03162*%
%ADD89R,0.04737X0.03950*%
G04:AMPARAMS|DCode=90|XSize=47.37mil|YSize=39.5mil|CornerRadius=0mil|HoleSize=0mil|Usage=FLASHONLY|Rotation=0.000|XOffset=0mil|YOffset=0mil|HoleType=Round|Shape=Octagon|*
%AMOCTAGOND90*
4,1,8,0.02368,-0.00987,0.02368,0.00987,0.01381,0.01975,-0.01381,0.01975,-0.02368,0.00987,-0.02368,-0.00987,-0.01381,-0.01975,0.01381,-0.01975,0.02368,-0.00987,0.0*
%
%ADD90OCTAGOND90*%

%ADD91R,0.05367X0.06587*%
%ADD92R,0.05328X0.06312*%
G36*
X83908Y77516D02*
X83977Y77503D01*
X84039Y77488D01*
X84092Y77472D01*
X84139Y77453D01*
X84158Y77444D01*
X84173Y77438D01*
X84185Y77431D01*
X84195Y77425D01*
X84198Y77422D01*
X84201D01*
X84260Y77381D01*
X84313Y77341D01*
X84357Y77294D01*
X84395Y77250D01*
X84426Y77213D01*
X84444Y77182D01*
X84454Y77169D01*
X84460Y77160D01*
X84463Y77157D01*
Y77154D01*
X84494Y77091D01*
X84516Y77032D01*
X84532Y76976D01*
X84541Y76926D01*
X84548Y76882D01*
X84554Y76851D01*
Y76839D01*
Y76829D01*
Y76826D01*
Y76823D01*
Y76776D01*
X84551Y76733D01*
X84544Y76695D01*
X84541Y76661D01*
X84535Y76630D01*
X84532Y76608D01*
X84529Y76595D01*
Y76589D01*
X84522Y76573D01*
X84516Y76555D01*
X84501Y76508D01*
X84482Y76458D01*
X84460Y76408D01*
X84438Y76361D01*
X84423Y76324D01*
X84416Y76308D01*
X84410Y76296D01*
X84407Y76289D01*
Y76286D01*
X84501Y76243D01*
X84579Y76199D01*
X84647Y76162D01*
X84703Y76127D01*
X84747Y76099D01*
X84778Y76077D01*
X84788Y76068D01*
X84797Y76065D01*
X84800Y76059D01*
X84803D01*
X84866Y76006D01*
X84919Y75950D01*
X84965Y75896D01*
X85003Y75850D01*
X85034Y75806D01*
X85056Y75772D01*
X85062Y75759D01*
X85069Y75753D01*
X85072Y75747D01*
Y75744D01*
X85100Y75675D01*
X85122Y75606D01*
X85137Y75538D01*
X85146Y75475D01*
X85153Y75419D01*
X85156Y75397D01*
X85159Y75375D01*
Y75360D01*
Y75347D01*
Y75341D01*
Y75338D01*
X85156Y75272D01*
X85150Y75213D01*
X85137Y75154D01*
X85122Y75101D01*
X85103Y75048D01*
X85084Y75001D01*
X85062Y74957D01*
X85040Y74917D01*
X85019Y74882D01*
X84997Y74848D01*
X84978Y74823D01*
X84959Y74798D01*
X84944Y74783D01*
X84931Y74767D01*
X84925Y74761D01*
X84922Y74758D01*
X84875Y74717D01*
X84825Y74683D01*
X84775Y74651D01*
X84722Y74627D01*
X84669Y74605D01*
X84616Y74586D01*
X84563Y74570D01*
X84516Y74558D01*
X84469Y74549D01*
X84426Y74542D01*
X84388Y74536D01*
X84354Y74533D01*
X84326D01*
X84307Y74530D01*
X84289D01*
X84210Y74533D01*
X84139Y74542D01*
X84073Y74552D01*
X84014Y74567D01*
X83967Y74580D01*
X83948Y74586D01*
X83933Y74589D01*
X83920Y74595D01*
X83911Y74598D01*
X83905Y74602D01*
X83902D01*
X83833Y74633D01*
X83761Y74673D01*
X83693Y74720D01*
X83624Y74764D01*
X83568Y74808D01*
X83543Y74823D01*
X83521Y74842D01*
X83505Y74854D01*
X83490Y74864D01*
X83483Y74870D01*
X83480Y74873D01*
X83430Y74808D01*
X83374Y74742D01*
X83321Y74686D01*
X83268Y74633D01*
X83222Y74586D01*
X83187Y74555D01*
X83171Y74539D01*
X83162Y74533D01*
X83156Y74527D01*
X83153Y74524D01*
X82885Y74736D01*
X82956Y74820D01*
X83022Y74898D01*
X83078Y74963D01*
X83125Y75023D01*
X83162Y75070D01*
X83178Y75088D01*
X83190Y75104D01*
X83200Y75116D01*
X83206Y75126D01*
X83212Y75129D01*
Y75132D01*
X83131Y75229D01*
X83062Y75326D01*
X83000Y75416D01*
X82950Y75497D01*
X82928Y75531D01*
X82910Y75566D01*
X82894Y75594D01*
X82881Y75619D01*
X82869Y75638D01*
X82863Y75653D01*
X82856Y75662D01*
Y75665D01*
X83165Y75825D01*
X83215Y75740D01*
X83262Y75659D01*
X83309Y75591D01*
X83353Y75531D01*
X83387Y75481D01*
X83402Y75460D01*
X83415Y75444D01*
X83424Y75432D01*
X83434Y75422D01*
X83437Y75416D01*
X83440Y75413D01*
X83483Y75472D01*
X83530Y75531D01*
X83618Y75659D01*
X83702Y75787D01*
X83739Y75850D01*
X83777Y75909D01*
X83811Y75962D01*
X83842Y76015D01*
X83867Y76062D01*
X83892Y76099D01*
X83911Y76134D01*
X83924Y76155D01*
X83933Y76171D01*
X83936Y76177D01*
X83858Y76218D01*
X83789Y76255D01*
X83724Y76293D01*
X83668Y76330D01*
X83615Y76364D01*
X83568Y76399D01*
X83527Y76430D01*
X83490Y76458D01*
X83459Y76486D01*
X83434Y76508D01*
X83412Y76530D01*
X83393Y76545D01*
X83381Y76561D01*
X83371Y76570D01*
X83368Y76577D01*
X83365Y76580D01*
X83340Y76614D01*
X83315Y76652D01*
X83281Y76720D01*
X83253Y76786D01*
X83237Y76845D01*
X83225Y76895D01*
X83222Y76917D01*
Y76932D01*
X83218Y76948D01*
Y76957D01*
Y76964D01*
Y76967D01*
X83222Y77007D01*
X83225Y77048D01*
X83246Y77123D01*
X83271Y77191D01*
X83303Y77247D01*
X83337Y77294D01*
X83349Y77313D01*
X83362Y77328D01*
X83374Y77341D01*
X83384Y77350D01*
X83387Y77354D01*
X83390Y77357D01*
X83421Y77385D01*
X83459Y77410D01*
X83493Y77431D01*
X83530Y77450D01*
X83605Y77478D01*
X83677Y77500D01*
X83739Y77509D01*
X83767Y77513D01*
X83789Y77516D01*
X83808Y77519D01*
X83836D01*
X83908Y77516D01*
D02*
G37*
G36*
X74797Y74592D02*
X74423D01*
X74061Y76346D01*
X74030Y76495D01*
X74018Y76564D01*
X74005Y76633D01*
X73993Y76698D01*
X73983Y76758D01*
X73974Y76814D01*
X73964Y76867D01*
X73958Y76913D01*
X73952Y76957D01*
X73949Y76995D01*
X73943Y77026D01*
X73940Y77048D01*
Y77066D01*
X73936Y77079D01*
Y77082D01*
X73886Y76935D01*
X73833Y76789D01*
X73783Y76652D01*
X73759Y76586D01*
X73734Y76524D01*
X73712Y76467D01*
X73690Y76414D01*
X73671Y76371D01*
X73655Y76330D01*
X73643Y76299D01*
X73634Y76274D01*
X73628Y76262D01*
X73624Y76255D01*
X72926Y74592D01*
X72542D01*
X71943Y77472D01*
X72317D01*
X72670Y75781D01*
X72698Y75638D01*
X72726Y75500D01*
X72735Y75435D01*
X72748Y75372D01*
X72757Y75316D01*
X72766Y75260D01*
X72776Y75210D01*
X72782Y75166D01*
X72788Y75126D01*
X72794Y75091D01*
X72798Y75067D01*
X72801Y75045D01*
X72804Y75032D01*
Y75029D01*
X72822Y75091D01*
X72838Y75148D01*
X72854Y75201D01*
X72869Y75254D01*
X72885Y75301D01*
X72900Y75344D01*
X72913Y75382D01*
X72926Y75419D01*
X72935Y75450D01*
X72944Y75478D01*
X72953Y75500D01*
X72960Y75522D01*
X72966Y75538D01*
X72969Y75547D01*
X72972Y75553D01*
Y75556D01*
X72997Y75622D01*
X73022Y75691D01*
X73078Y75831D01*
X73138Y75968D01*
X73166Y76037D01*
X73191Y76099D01*
X73216Y76162D01*
X73241Y76215D01*
X73262Y76265D01*
X73281Y76308D01*
X73294Y76343D01*
X73306Y76367D01*
X73312Y76383D01*
X73316Y76389D01*
X73790Y77472D01*
X74195D01*
X74797Y74592D01*
D02*
G37*
G36*
X93592D02*
X93177D01*
X91599Y77472D01*
X91995D01*
X93021Y75584D01*
X93043Y75544D01*
X93068Y75497D01*
X93115Y75403D01*
X93165Y75304D01*
X93212Y75210D01*
X93234Y75166D01*
X93255Y75126D01*
X93271Y75091D01*
X93287Y75060D01*
X93299Y75032D01*
X93308Y75014D01*
X93315Y75001D01*
X93318Y74998D01*
X93324Y75054D01*
X93333Y75113D01*
X93349Y75238D01*
X93371Y75363D01*
X93380Y75425D01*
X93389Y75485D01*
X93399Y75538D01*
X93408Y75591D01*
X93418Y75634D01*
X93424Y75675D01*
X93430Y75709D01*
X93436Y75731D01*
X93440Y75747D01*
Y75753D01*
X93770Y77472D01*
X94142D01*
X93592Y74592D01*
D02*
G37*
G36*
X95524D02*
X95143D01*
X94541Y77472D01*
X94921D01*
X95524Y74592D01*
D02*
G37*
G36*
X91786D02*
X89583D01*
X89514Y74917D01*
X91337D01*
X91128Y75921D01*
X89452D01*
X89384Y76246D01*
X91059D01*
X90872Y77148D01*
X89162D01*
X89093Y77472D01*
X91184D01*
X91786Y74592D01*
D02*
G37*
G36*
X81480D02*
X81100D01*
X80831Y75871D01*
X80385D01*
X80304Y75868D01*
X80236Y75865D01*
X80180Y75856D01*
X80133Y75850D01*
X80098Y75840D01*
X80073Y75831D01*
X80058Y75828D01*
X80055Y75825D01*
X80017Y75803D01*
X79980Y75775D01*
X79945Y75744D01*
X79917Y75709D01*
X79892Y75681D01*
X79871Y75656D01*
X79858Y75638D01*
X79855Y75634D01*
Y75631D01*
X79802Y75550D01*
X79755Y75463D01*
X79712Y75379D01*
X79674Y75301D01*
X79655Y75263D01*
X79643Y75229D01*
X79630Y75201D01*
X79618Y75176D01*
X79612Y75154D01*
X79605Y75138D01*
X79599Y75129D01*
Y75126D01*
X79393Y74592D01*
X78963D01*
X79184Y75132D01*
X79228Y75232D01*
X79275Y75329D01*
X79321Y75416D01*
X79346Y75457D01*
X79368Y75497D01*
X79390Y75531D01*
X79409Y75563D01*
X79427Y75591D01*
X79443Y75612D01*
X79453Y75631D01*
X79462Y75644D01*
X79468Y75653D01*
X79471Y75656D01*
X79505Y75700D01*
X79543Y75740D01*
X79584Y75778D01*
X79621Y75815D01*
X79655Y75843D01*
X79686Y75868D01*
X79705Y75881D01*
X79708Y75887D01*
X79712D01*
X79618Y75903D01*
X79531Y75918D01*
X79453Y75940D01*
X79378Y75962D01*
X79309Y75987D01*
X79250Y76012D01*
X79194Y76037D01*
X79147Y76062D01*
X79103Y76087D01*
X79066Y76109D01*
X79034Y76130D01*
X79009Y76149D01*
X78991Y76165D01*
X78975Y76177D01*
X78969Y76183D01*
X78966Y76187D01*
X78925Y76230D01*
X78891Y76277D01*
X78860Y76327D01*
X78832Y76374D01*
X78810Y76424D01*
X78791Y76474D01*
X78776Y76520D01*
X78763Y76564D01*
X78754Y76608D01*
X78747Y76645D01*
X78741Y76683D01*
X78738Y76711D01*
X78735Y76736D01*
Y76754D01*
Y76767D01*
Y76770D01*
X78738Y76860D01*
X78750Y76942D01*
X78769Y77010D01*
X78788Y77073D01*
X78797Y77098D01*
X78807Y77119D01*
X78816Y77138D01*
X78825Y77157D01*
X78832Y77169D01*
X78838Y77179D01*
X78841Y77182D01*
Y77185D01*
X78885Y77241D01*
X78931Y77291D01*
X78978Y77328D01*
X79025Y77360D01*
X79069Y77381D01*
X79100Y77397D01*
X79112Y77403D01*
X79122Y77407D01*
X79128Y77410D01*
X79131D01*
X79169Y77422D01*
X79206Y77431D01*
X79293Y77447D01*
X79384Y77456D01*
X79471Y77466D01*
X79512D01*
X79549Y77469D01*
X79584D01*
X79615Y77472D01*
X80878D01*
X81480Y74592D01*
D02*
G37*
G36*
X78598D02*
X76395D01*
X76326Y74917D01*
X78148D01*
X77939Y75921D01*
X76264D01*
X76195Y76246D01*
X77871D01*
X77684Y77148D01*
X75974D01*
X75905Y77472D01*
X77996D01*
X78598Y74592D01*
D02*
G37*
G36*
X75852D02*
X75471D01*
X74869Y77472D01*
X75250D01*
X75852Y74592D01*
D02*
G37*
G36*
X87736Y77516D02*
X87836Y77503D01*
X87926Y77488D01*
X87967Y77478D01*
X88004Y77472D01*
X88039Y77463D01*
X88067Y77453D01*
X88095Y77444D01*
X88117Y77438D01*
X88132Y77431D01*
X88148Y77425D01*
X88154Y77422D01*
X88157D01*
X88238Y77385D01*
X88310Y77341D01*
X88373Y77294D01*
X88423Y77250D01*
X88463Y77213D01*
X88491Y77179D01*
X88500Y77166D01*
X88507Y77160D01*
X88513Y77154D01*
Y77151D01*
X88554Y77082D01*
X88585Y77013D01*
X88604Y76945D01*
X88619Y76885D01*
X88628Y76832D01*
X88631Y76807D01*
Y76789D01*
X88635Y76773D01*
Y76761D01*
Y76754D01*
Y76751D01*
X88631Y76683D01*
X88619Y76617D01*
X88607Y76558D01*
X88588Y76508D01*
X88572Y76464D01*
X88557Y76436D01*
X88554Y76424D01*
X88547Y76414D01*
X88544Y76411D01*
Y76408D01*
X88504Y76352D01*
X88460Y76302D01*
X88413Y76255D01*
X88366Y76215D01*
X88323Y76180D01*
X88288Y76152D01*
X88276Y76143D01*
X88266Y76137D01*
X88260Y76134D01*
X88257Y76130D01*
X88232Y76115D01*
X88201Y76099D01*
X88167Y76081D01*
X88132Y76062D01*
X88054Y76024D01*
X87976Y75990D01*
X87908Y75956D01*
X87873Y75943D01*
X87848Y75931D01*
X87823Y75921D01*
X87808Y75912D01*
X87795Y75909D01*
X87792Y75906D01*
X87714Y75871D01*
X87643Y75837D01*
X87580Y75809D01*
X87524Y75778D01*
X87474Y75753D01*
X87430Y75728D01*
X87393Y75706D01*
X87359Y75684D01*
X87334Y75665D01*
X87309Y75650D01*
X87293Y75638D01*
X87278Y75625D01*
X87268Y75619D01*
X87262Y75612D01*
X87256Y75606D01*
X87224Y75563D01*
X87199Y75522D01*
X87184Y75478D01*
X87171Y75441D01*
X87165Y75410D01*
X87159Y75382D01*
Y75366D01*
Y75363D01*
Y75360D01*
X87162Y75326D01*
X87168Y75288D01*
X87174Y75257D01*
X87187Y75226D01*
X87218Y75166D01*
X87249Y75113D01*
X87284Y75073D01*
X87315Y75042D01*
X87327Y75029D01*
X87334Y75020D01*
X87340Y75017D01*
X87343Y75014D01*
X87377Y74989D01*
X87418Y74963D01*
X87502Y74926D01*
X87590Y74901D01*
X87674Y74882D01*
X87714Y74876D01*
X87752Y74873D01*
X87783Y74867D01*
X87814D01*
X87836Y74864D01*
X87870D01*
X87958Y74867D01*
X88039Y74876D01*
X88111Y74889D01*
X88173Y74901D01*
X88198Y74907D01*
X88223Y74914D01*
X88241Y74920D01*
X88260Y74926D01*
X88273Y74932D01*
X88282Y74936D01*
X88288Y74939D01*
X88292D01*
X88354Y74970D01*
X88407Y75004D01*
X88451Y75038D01*
X88485Y75073D01*
X88513Y75104D01*
X88532Y75129D01*
X88544Y75144D01*
X88547Y75151D01*
X88572Y75204D01*
X88591Y75257D01*
X88604Y75310D01*
X88613Y75357D01*
X88619Y75397D01*
X88622Y75428D01*
Y75441D01*
Y75450D01*
Y75453D01*
Y75457D01*
X88616Y75560D01*
X88994Y75525D01*
X88990Y75425D01*
X88981Y75332D01*
X88965Y75248D01*
X88943Y75173D01*
X88922Y75101D01*
X88897Y75038D01*
X88869Y74982D01*
X88837Y74932D01*
X88809Y74892D01*
X88781Y74854D01*
X88756Y74823D01*
X88731Y74798D01*
X88713Y74779D01*
X88697Y74767D01*
X88688Y74761D01*
X88685Y74758D01*
X88625Y74720D01*
X88560Y74689D01*
X88494Y74661D01*
X88429Y74636D01*
X88360Y74614D01*
X88295Y74598D01*
X88229Y74583D01*
X88167Y74573D01*
X88107Y74564D01*
X88054Y74558D01*
X88004Y74552D01*
X87964Y74549D01*
X87929Y74546D01*
X87883D01*
X87764Y74549D01*
X87655Y74561D01*
X87605Y74570D01*
X87558Y74580D01*
X87515Y74589D01*
X87474Y74598D01*
X87437Y74608D01*
X87405Y74617D01*
X87377Y74627D01*
X87352Y74636D01*
X87334Y74642D01*
X87321Y74648D01*
X87312Y74651D01*
X87309D01*
X87218Y74695D01*
X87140Y74745D01*
X87072Y74795D01*
X87015Y74845D01*
X86972Y74889D01*
X86953Y74907D01*
X86937Y74926D01*
X86928Y74939D01*
X86919Y74948D01*
X86915Y74954D01*
X86912Y74957D01*
X86888Y74995D01*
X86866Y75032D01*
X86828Y75107D01*
X86803Y75179D01*
X86788Y75248D01*
X86775Y75304D01*
X86772Y75329D01*
Y75347D01*
X86769Y75366D01*
Y75379D01*
Y75385D01*
Y75388D01*
X86772Y75457D01*
X86781Y75519D01*
X86797Y75575D01*
X86813Y75625D01*
X86828Y75665D01*
X86844Y75697D01*
X86847Y75706D01*
X86853Y75716D01*
X86856Y75719D01*
Y75722D01*
X86891Y75775D01*
X86928Y75825D01*
X86969Y75868D01*
X87009Y75906D01*
X87043Y75934D01*
X87072Y75956D01*
X87090Y75971D01*
X87093Y75974D01*
X87097D01*
X87121Y75990D01*
X87150Y76009D01*
X87215Y76043D01*
X87284Y76081D01*
X87356Y76115D01*
X87421Y76146D01*
X87452Y76158D01*
X87477Y76171D01*
X87496Y76180D01*
X87515Y76187D01*
X87524Y76193D01*
X87527D01*
X87596Y76224D01*
X87658Y76252D01*
X87714Y76277D01*
X87764Y76299D01*
X87808Y76321D01*
X87848Y76340D01*
X87883Y76355D01*
X87911Y76367D01*
X87936Y76380D01*
X87958Y76389D01*
X87976Y76399D01*
X87989Y76405D01*
X87998Y76411D01*
X88004Y76414D01*
X88011Y76417D01*
X88061Y76449D01*
X88101Y76477D01*
X88135Y76505D01*
X88164Y76530D01*
X88185Y76548D01*
X88198Y76567D01*
X88207Y76577D01*
X88210Y76580D01*
X88229Y76611D01*
X88241Y76645D01*
X88251Y76676D01*
X88257Y76708D01*
X88260Y76733D01*
X88263Y76751D01*
Y76767D01*
Y76770D01*
X88257Y76836D01*
X88241Y76892D01*
X88223Y76942D01*
X88198Y76982D01*
X88173Y77013D01*
X88154Y77038D01*
X88139Y77051D01*
X88132Y77057D01*
X88098Y77082D01*
X88061Y77104D01*
X87983Y77141D01*
X87902Y77166D01*
X87820Y77182D01*
X87786Y77188D01*
X87752Y77194D01*
X87721Y77197D01*
X87695D01*
X87674Y77201D01*
X87643D01*
X87577Y77197D01*
X87518Y77191D01*
X87462Y77185D01*
X87415Y77176D01*
X87377Y77163D01*
X87346Y77157D01*
X87327Y77151D01*
X87321Y77148D01*
X87268Y77129D01*
X87224Y77107D01*
X87184Y77085D01*
X87153Y77063D01*
X87128Y77045D01*
X87109Y77029D01*
X87097Y77020D01*
X87093Y77017D01*
X87062Y76985D01*
X87037Y76951D01*
X87015Y76917D01*
X87000Y76885D01*
X86987Y76857D01*
X86975Y76836D01*
X86972Y76820D01*
X86969Y76814D01*
X86962Y76786D01*
X86956Y76754D01*
X86953Y76723D01*
X86950Y76692D01*
X86947Y76667D01*
Y76642D01*
Y76630D01*
Y76623D01*
X86576Y76655D01*
X86572Y76679D01*
Y76698D01*
Y76711D01*
Y76714D01*
X86576Y76783D01*
X86588Y76848D01*
X86607Y76910D01*
X86625Y76967D01*
X86647Y77013D01*
X86657Y77035D01*
X86663Y77051D01*
X86672Y77066D01*
X86675Y77076D01*
X86681Y77082D01*
Y77085D01*
X86703Y77123D01*
X86728Y77154D01*
X86781Y77216D01*
X86841Y77272D01*
X86900Y77316D01*
X86950Y77354D01*
X86975Y77366D01*
X86993Y77378D01*
X87012Y77388D01*
X87025Y77394D01*
X87031Y77400D01*
X87034D01*
X87128Y77441D01*
X87227Y77469D01*
X87327Y77491D01*
X87421Y77503D01*
X87465Y77509D01*
X87502Y77513D01*
X87536Y77516D01*
X87568D01*
X87593Y77519D01*
X87627D01*
X87736Y77516D01*
D02*
G37*
%LPC*%
G36*
X83846Y77235D02*
X83839D01*
X83799Y77232D01*
X83761Y77222D01*
X83730Y77210D01*
X83699Y77194D01*
X83677Y77179D01*
X83661Y77166D01*
X83649Y77157D01*
X83646Y77154D01*
X83618Y77123D01*
X83599Y77091D01*
X83583Y77057D01*
X83574Y77026D01*
X83568Y76998D01*
X83565Y76976D01*
Y76964D01*
Y76957D01*
X83568Y76917D01*
X83577Y76876D01*
X83593Y76842D01*
X83608Y76807D01*
X83624Y76783D01*
X83640Y76761D01*
X83649Y76748D01*
X83652Y76742D01*
X83677Y76714D01*
X83705Y76686D01*
X83767Y76630D01*
X83836Y76580D01*
X83905Y76536D01*
X83967Y76495D01*
X83992Y76480D01*
X84017Y76467D01*
X84036Y76458D01*
X84051Y76449D01*
X84061Y76446D01*
X84064Y76442D01*
X84104Y76527D01*
X84136Y76605D01*
X84154Y76676D01*
X84170Y76736D01*
X84179Y76786D01*
X84182Y76807D01*
Y76826D01*
X84185Y76839D01*
Y76848D01*
Y76854D01*
Y76857D01*
X84182Y76913D01*
X84170Y76964D01*
X84154Y77007D01*
X84132Y77048D01*
X84114Y77079D01*
X84098Y77104D01*
X84086Y77116D01*
X84083Y77123D01*
X84042Y77160D01*
X83998Y77188D01*
X83958Y77207D01*
X83920Y77222D01*
X83889Y77229D01*
X83861Y77232D01*
X83846Y77235D01*
D02*
G37*
G36*
X84260Y76009D02*
X84257D01*
X84217Y75937D01*
X84173Y75862D01*
X84083Y75712D01*
X83989Y75569D01*
X83942Y75500D01*
X83895Y75435D01*
X83852Y75372D01*
X83814Y75319D01*
X83777Y75269D01*
X83746Y75226D01*
X83721Y75191D01*
X83702Y75166D01*
X83689Y75151D01*
X83686Y75144D01*
X83742Y75091D01*
X83795Y75048D01*
X83849Y75007D01*
X83902Y74976D01*
X83951Y74948D01*
X84001Y74923D01*
X84048Y74904D01*
X84092Y74889D01*
X84129Y74876D01*
X84167Y74867D01*
X84198Y74861D01*
X84226Y74857D01*
X84248Y74854D01*
X84263Y74851D01*
X84276D01*
X84317Y74854D01*
X84354Y74857D01*
X84426Y74876D01*
X84488Y74901D01*
X84544Y74929D01*
X84588Y74957D01*
X84619Y74979D01*
X84632Y74992D01*
X84641Y74998D01*
X84644Y75001D01*
X84647Y75004D01*
X84672Y75032D01*
X84697Y75063D01*
X84735Y75129D01*
X84760Y75191D01*
X84778Y75251D01*
X84788Y75304D01*
X84794Y75326D01*
Y75344D01*
X84797Y75360D01*
Y75372D01*
Y75379D01*
Y75382D01*
X84794Y75422D01*
X84791Y75460D01*
X84772Y75534D01*
X84747Y75600D01*
X84719Y75656D01*
X84691Y75703D01*
X84679Y75722D01*
X84666Y75737D01*
X84657Y75750D01*
X84647Y75759D01*
X84644Y75762D01*
X84641Y75765D01*
X84616Y75787D01*
X84591Y75809D01*
X84532Y75853D01*
X84469Y75893D01*
X84407Y75931D01*
X84348Y75962D01*
X84323Y75974D01*
X84301Y75987D01*
X84282Y75996D01*
X84270Y76003D01*
X84260Y76009D01*
D02*
G37*
G36*
X80563Y77157D02*
X79546D01*
X79481Y77151D01*
X79427Y77148D01*
X79384Y77141D01*
X79353Y77135D01*
X79331Y77129D01*
X79315Y77126D01*
X79312Y77123D01*
X79278Y77107D01*
X79250Y77088D01*
X79225Y77066D01*
X79203Y77045D01*
X79184Y77026D01*
X79172Y77010D01*
X79166Y76998D01*
X79162Y76995D01*
X79144Y76957D01*
X79128Y76920D01*
X79119Y76885D01*
X79109Y76851D01*
X79106Y76820D01*
X79103Y76798D01*
Y76783D01*
Y76776D01*
X79106Y76720D01*
X79115Y76670D01*
X79128Y76620D01*
X79141Y76580D01*
X79156Y76545D01*
X79169Y76517D01*
X79178Y76502D01*
X79181Y76495D01*
X79212Y76449D01*
X79247Y76408D01*
X79284Y76374D01*
X79318Y76346D01*
X79349Y76321D01*
X79378Y76305D01*
X79393Y76293D01*
X79396Y76289D01*
X79400D01*
X79453Y76265D01*
X79512Y76243D01*
X79571Y76224D01*
X79627Y76212D01*
X79677Y76202D01*
X79699Y76199D01*
X79718Y76196D01*
X79733D01*
X79746Y76193D01*
X79780D01*
X79808Y76190D01*
X79843D01*
X79877Y76187D01*
X79958D01*
X80036Y76183D01*
X80766D01*
X80563Y77157D01*
D02*
G37*
%LPD*%
D40*
X113232Y66524D02*
D03*
X101815D02*
D03*
X113232Y80524D02*
D03*
X101815D02*
D03*
X113232Y94524D02*
D03*
X101815D02*
D03*
D45*
X33824Y65324D02*
D03*
X26087Y65148D02*
D03*
X33924Y81204D02*
D03*
X26097Y80913D02*
D03*
X37905Y-1476D02*
D03*
X52024Y10148D02*
D03*
D46*
X122047Y122047D02*
D03*
Y0D02*
D03*
X0D02*
D03*
Y122047D02*
D03*
D74*
X-6976Y58831D02*
D03*
X-10717Y47216D02*
D03*
X-3236D02*
D03*
D75*
X90969Y38850D02*
D03*
Y36882D02*
D03*
Y34913D02*
D03*
Y32945D02*
D03*
Y30976D02*
D03*
Y29008D02*
D03*
Y27039D02*
D03*
Y25071D02*
D03*
Y23102D02*
D03*
Y21134D02*
D03*
Y19165D02*
D03*
Y17197D02*
D03*
X59079D02*
D03*
Y19165D02*
D03*
Y21134D02*
D03*
Y23102D02*
D03*
Y25071D02*
D03*
Y27039D02*
D03*
Y29008D02*
D03*
Y30976D02*
D03*
Y32945D02*
D03*
Y34913D02*
D03*
Y36882D02*
D03*
Y38850D02*
D03*
D76*
X85850Y12079D02*
D03*
X83882D02*
D03*
X81913D02*
D03*
X79945D02*
D03*
X77976D02*
D03*
X76008D02*
D03*
X74039D02*
D03*
X72071D02*
D03*
X70102D02*
D03*
X68134D02*
D03*
X66165D02*
D03*
X64197D02*
D03*
Y43968D02*
D03*
X66165D02*
D03*
X68134D02*
D03*
X70102D02*
D03*
X72071D02*
D03*
X74039D02*
D03*
X76008D02*
D03*
X77976D02*
D03*
X79945D02*
D03*
X81913D02*
D03*
X83882D02*
D03*
X85850D02*
D03*
D77*
X77024Y95890D02*
D03*
Y84158D02*
D03*
X90024D02*
D03*
Y95890D02*
D03*
X59524Y133890D02*
D03*
Y122158D02*
D03*
D78*
X81992Y54024D02*
D03*
X88055D02*
D03*
X88055Y61024D02*
D03*
X81992D02*
D03*
Y68024D02*
D03*
X88055D02*
D03*
X66555Y96024D02*
D03*
X60492D02*
D03*
X133055Y48924D02*
D03*
X126992D02*
D03*
X100992Y17924D02*
D03*
X107055D02*
D03*
X126992D02*
D03*
X133055D02*
D03*
X113992D02*
D03*
X120055D02*
D03*
X100992Y48924D02*
D03*
X107055D02*
D03*
X120055D02*
D03*
X113992D02*
D03*
X60492Y89024D02*
D03*
X66555D02*
D03*
X53555Y75024D02*
D03*
X47492D02*
D03*
X48555Y106024D02*
D03*
X42492D02*
D03*
X28492D02*
D03*
X34555D02*
D03*
X3992Y32024D02*
D03*
X10055D02*
D03*
X3992Y46024D02*
D03*
X10055D02*
D03*
X126992Y24924D02*
D03*
X133055D02*
D03*
X-3945Y93024D02*
D03*
X-10008D02*
D03*
X107055Y55924D02*
D03*
X100992D02*
D03*
X120055D02*
D03*
X113992D02*
D03*
X126992D02*
D03*
X133055D02*
D03*
X113992Y24924D02*
D03*
X120055D02*
D03*
Y34924D02*
D03*
X113992D02*
D03*
Y41924D02*
D03*
X120055D02*
D03*
X10055Y18024D02*
D03*
X3992D02*
D03*
X-10008Y32024D02*
D03*
X-3945D02*
D03*
X-10008Y84024D02*
D03*
X-3945D02*
D03*
X-10008Y39024D02*
D03*
X-3945D02*
D03*
X53555Y96024D02*
D03*
X47492D02*
D03*
X66555Y82024D02*
D03*
X60492D02*
D03*
X47492Y89024D02*
D03*
X53555D02*
D03*
X60492Y75024D02*
D03*
X66555D02*
D03*
X47492Y82024D02*
D03*
X53555D02*
D03*
X97055Y-11976D02*
D03*
X90992D02*
D03*
Y2024D02*
D03*
X97055D02*
D03*
X84055Y-11976D02*
D03*
X77992D02*
D03*
X64992Y2024D02*
D03*
X71055D02*
D03*
X64992Y-4976D02*
D03*
X71055D02*
D03*
X84055Y2024D02*
D03*
X77992D02*
D03*
X90992Y-4976D02*
D03*
X97055D02*
D03*
X77992D02*
D03*
X84055D02*
D03*
X10055Y25024D02*
D03*
X3992D02*
D03*
X10055Y53024D02*
D03*
X3992D02*
D03*
X10055Y39024D02*
D03*
X3992D02*
D03*
X133055Y41924D02*
D03*
X126992D02*
D03*
X71055Y-11976D02*
D03*
X64992D02*
D03*
X126992Y34924D02*
D03*
X133055D02*
D03*
X107055Y41924D02*
D03*
X100992D02*
D03*
D79*
X76024Y121024D02*
D03*
X97924D02*
D03*
D80*
X68524Y132724D02*
D03*
X73524D02*
D03*
X78524D02*
D03*
X83524D02*
D03*
X68524Y109324D02*
D03*
X73524D02*
D03*
X78524D02*
D03*
X83524D02*
D03*
X105424D02*
D03*
X100424D02*
D03*
X95424D02*
D03*
X90424D02*
D03*
X105424Y132724D02*
D03*
X100424D02*
D03*
X95424D02*
D03*
X90424D02*
D03*
D81*
X59524Y114669D02*
D03*
Y105378D02*
D03*
X27024Y112378D02*
D03*
Y121669D02*
D03*
D82*
X19024Y106274D02*
D03*
Y119774D02*
D03*
D83*
X50524Y120055D02*
D03*
Y113992D02*
D03*
Y127992D02*
D03*
Y134055D02*
D03*
X43024Y134055D02*
D03*
Y127992D02*
D03*
X35524Y127992D02*
D03*
Y134055D02*
D03*
X28024Y127992D02*
D03*
Y134055D02*
D03*
X20524Y127992D02*
D03*
Y134055D02*
D03*
X50024Y47055D02*
D03*
Y40992D02*
D03*
D84*
X33012Y113284D02*
D03*
Y117024D02*
D03*
Y120764D02*
D03*
X44035D02*
D03*
Y117024D02*
D03*
Y113284D02*
D03*
D85*
X14524Y84024D02*
D03*
X5524D02*
D03*
X14524Y75024D02*
D03*
X5524D02*
D03*
D86*
X6890Y103024D02*
D03*
X-4843D02*
D03*
D87*
X18606Y38524D02*
D03*
Y43524D02*
D03*
Y48524D02*
D03*
Y53524D02*
D03*
X41441Y38524D02*
D03*
Y43524D02*
D03*
Y48524D02*
D03*
X18606Y17524D02*
D03*
Y22524D02*
D03*
Y27524D02*
D03*
Y32524D02*
D03*
X41441Y17524D02*
D03*
Y22524D02*
D03*
Y27524D02*
D03*
X72441Y68524D02*
D03*
Y63524D02*
D03*
Y58524D02*
D03*
Y53524D02*
D03*
X49606Y68524D02*
D03*
Y63524D02*
D03*
Y58524D02*
D03*
D88*
X41441Y53524D02*
D03*
Y32524D02*
D03*
X49606Y53524D02*
D03*
D89*
X4512Y60024D02*
D03*
Y67024D02*
D03*
D90*
X15535Y60024D02*
D03*
Y67024D02*
D03*
D91*
X13528Y93024D02*
D03*
X6520D02*
D03*
D92*
X100874Y34254D02*
D03*
X107173Y25593D02*
D03*
X100874D02*
D03*
X107173Y34254D02*
D03*
M02*
