G04*
G04 #@! TF.GenerationSoftware,Altium Limited,Altium Designer,20.0.2 (26)*
G04*
G04 Layer_Physical_Order=3*
G04 Layer_Color=16440176*
%FSLAX25Y25*%
%MOIN*%
G70*
G01*
G75*
%ADD47C,0.02400*%
%ADD48C,0.05000*%
%ADD51O,0.04000X0.02000*%
G36*
X116253Y139498D02*
X118909Y138970D01*
X121500Y138184D01*
X124002Y137148D01*
X126390Y135871D01*
X128641Y134367D01*
X130735Y132649D01*
X132649Y130735D01*
X134367Y128641D01*
X135871Y126390D01*
X137148Y124002D01*
X138184Y121500D01*
X138970Y118909D01*
X139498Y116253D01*
X139764Y113559D01*
Y112205D01*
Y95189D01*
Y94801D01*
X139612Y94041D01*
X139316Y93324D01*
X138885Y92679D01*
X138337Y92131D01*
X137692Y91700D01*
X136975Y91403D01*
X136214Y91252D01*
X124047D01*
X123661Y91233D01*
X122904Y91082D01*
X122191Y90787D01*
X121550Y90358D01*
X121004Y89813D01*
X120575Y89171D01*
X120280Y88458D01*
X120129Y87701D01*
X120110Y87315D01*
Y79732D01*
X120129Y79346D01*
X120280Y78589D01*
X120575Y77876D01*
X121004Y77235D01*
X121550Y76689D01*
X122191Y76260D01*
X122904Y75965D01*
X123661Y75814D01*
X124047Y75795D01*
X136214D01*
X136975Y75644D01*
X137692Y75347D01*
X138337Y74916D01*
X138885Y74368D01*
X139316Y73723D01*
X139612Y73007D01*
X139764Y72246D01*
Y71858D01*
Y9843D01*
Y8489D01*
X139498Y5794D01*
X138970Y3138D01*
X138184Y547D01*
X137148Y-1955D01*
X135871Y-4343D01*
X134367Y-6594D01*
X132649Y-8687D01*
X130735Y-10602D01*
X128641Y-12320D01*
X126390Y-13824D01*
X124002Y-15101D01*
X121500Y-16137D01*
X118909Y-16923D01*
X116253Y-17451D01*
X113559Y-17717D01*
X8489D01*
X5794Y-17451D01*
X3138Y-16923D01*
X547Y-16137D01*
X-1955Y-15101D01*
X-4343Y-13824D01*
X-6594Y-12320D01*
X-8687Y-10602D01*
X-10602Y-8687D01*
X-12320Y-6594D01*
X-13824Y-4343D01*
X-15101Y-1955D01*
X-16137Y547D01*
X-16923Y3138D01*
X-17451Y5794D01*
X-17717Y8489D01*
Y9843D01*
Y112205D01*
Y113559D01*
X-17451Y116253D01*
X-16923Y118909D01*
X-16137Y121500D01*
X-15101Y124002D01*
X-13824Y126390D01*
X-12320Y128641D01*
X-10602Y130735D01*
X-8687Y132649D01*
X-6594Y134367D01*
X-4343Y135871D01*
X-1955Y137148D01*
X547Y138184D01*
X3138Y138970D01*
X5794Y139498D01*
X8489Y139764D01*
X113559D01*
X116253Y139498D01*
D02*
G37*
%LPC*%
G36*
X46924Y138582D02*
X46299Y138458D01*
X45770Y138104D01*
X45416Y137575D01*
X45292Y136951D01*
X45416Y136327D01*
X45770Y135797D01*
X46299Y135444D01*
X46924Y135319D01*
X47548Y135444D01*
X48077Y135797D01*
X48431Y136327D01*
X48555Y136951D01*
X48431Y137575D01*
X48077Y138104D01*
X47548Y138458D01*
X46924Y138582D01*
D02*
G37*
G36*
X80524Y136355D02*
X79899Y136231D01*
X79370Y135877D01*
X79016Y135348D01*
X78892Y134724D01*
X79016Y134099D01*
X79370Y133570D01*
X79899Y133217D01*
X80524Y133092D01*
X81148Y133217D01*
X81677Y133570D01*
X82031Y134099D01*
X82155Y134724D01*
X82031Y135348D01*
X81677Y135877D01*
X81148Y136231D01*
X80524Y136355D01*
D02*
G37*
G36*
X75524D02*
X74899Y136231D01*
X74370Y135877D01*
X74016Y135348D01*
X73892Y134724D01*
X74016Y134099D01*
X74370Y133570D01*
X74899Y133217D01*
X75524Y133092D01*
X76148Y133217D01*
X76677Y133570D01*
X77031Y134099D01*
X77155Y134724D01*
X77031Y135348D01*
X76677Y135877D01*
X76148Y136231D01*
X75524Y136355D01*
D02*
G37*
G36*
X107424Y134355D02*
X106799Y134231D01*
X106270Y133877D01*
X105917Y133348D01*
X105792Y132724D01*
X105917Y132099D01*
X106270Y131570D01*
X106799Y131217D01*
X107424Y131092D01*
X108048Y131217D01*
X108577Y131570D01*
X108931Y132099D01*
X109055Y132724D01*
X108931Y133348D01*
X108577Y133877D01*
X108048Y134231D01*
X107424Y134355D01*
D02*
G37*
G36*
X102424D02*
X101799Y134231D01*
X101270Y133877D01*
X100916Y133348D01*
X100792Y132724D01*
X100916Y132099D01*
X101270Y131570D01*
X101799Y131217D01*
X102424Y131092D01*
X103048Y131217D01*
X103577Y131570D01*
X103931Y132099D01*
X104055Y132724D01*
X103931Y133348D01*
X103577Y133877D01*
X103048Y134231D01*
X102424Y134355D01*
D02*
G37*
G36*
X97424D02*
X96799Y134231D01*
X96270Y133877D01*
X95916Y133348D01*
X95792Y132724D01*
X95916Y132099D01*
X96270Y131570D01*
X96799Y131217D01*
X97424Y131092D01*
X98048Y131217D01*
X98577Y131570D01*
X98931Y132099D01*
X99055Y132724D01*
X98931Y133348D01*
X98577Y133877D01*
X98048Y134231D01*
X97424Y134355D01*
D02*
G37*
G36*
X85524Y131355D02*
X84899Y131231D01*
X84370Y130877D01*
X84016Y130348D01*
X83892Y129724D01*
X84016Y129099D01*
X84370Y128570D01*
X84899Y128217D01*
X85524Y128092D01*
X86148Y128217D01*
X86677Y128570D01*
X87031Y129099D01*
X87155Y129724D01*
X87031Y130348D01*
X86677Y130877D01*
X86148Y131231D01*
X85524Y131355D01*
D02*
G37*
G36*
X59724Y131184D02*
X59099Y131060D01*
X58570Y130707D01*
X58216Y130177D01*
X58092Y129553D01*
X58216Y128929D01*
X58570Y128400D01*
X59099Y128046D01*
X59724Y127922D01*
X60348Y128046D01*
X60877Y128400D01*
X61231Y128929D01*
X61355Y129553D01*
X61231Y130177D01*
X60877Y130707D01*
X60348Y131060D01*
X59724Y131184D01*
D02*
G37*
G36*
X54724D02*
X54099Y131060D01*
X53570Y130707D01*
X53216Y130177D01*
X53092Y129553D01*
X53216Y128929D01*
X53570Y128400D01*
X54099Y128046D01*
X54724Y127922D01*
X55348Y128046D01*
X55877Y128400D01*
X56231Y128929D01*
X56355Y129553D01*
X56231Y130177D01*
X55877Y130707D01*
X55348Y131060D01*
X54724Y131184D01*
D02*
G37*
G36*
X48524Y125155D02*
X47899Y125031D01*
X47370Y124677D01*
X47016Y124148D01*
X46892Y123524D01*
X47016Y122899D01*
X47370Y122370D01*
X47899Y122017D01*
X48524Y121892D01*
X49148Y122017D01*
X49677Y122370D01*
X50031Y122899D01*
X50155Y123524D01*
X50031Y124148D01*
X49677Y124677D01*
X49148Y125031D01*
X48524Y125155D01*
D02*
G37*
G36*
X122047Y134296D02*
X120131Y134145D01*
X118262Y133696D01*
X116486Y132961D01*
X114848Y131957D01*
X113386Y130708D01*
X112138Y129247D01*
X111134Y127608D01*
X110398Y125832D01*
X109949Y123963D01*
X109799Y122047D01*
X109949Y120131D01*
X110398Y118262D01*
X111134Y116486D01*
X112138Y114848D01*
X113386Y113386D01*
X114848Y112138D01*
X116486Y111134D01*
X118262Y110398D01*
X120131Y109949D01*
X122047Y109799D01*
X123963Y109949D01*
X125832Y110398D01*
X127608Y111134D01*
X129247Y112138D01*
X130708Y113386D01*
X131957Y114848D01*
X132961Y116486D01*
X133696Y118262D01*
X134145Y120131D01*
X134296Y122047D01*
X134145Y123963D01*
X133696Y125832D01*
X132961Y127608D01*
X131957Y129247D01*
X130708Y130708D01*
X129247Y131957D01*
X127608Y132961D01*
X125832Y133696D01*
X123963Y134145D01*
X122047Y134296D01*
D02*
G37*
G36*
X0D02*
X-1916Y134145D01*
X-3785Y133696D01*
X-5561Y132961D01*
X-7200Y131957D01*
X-8661Y130708D01*
X-9910Y129247D01*
X-10914Y127608D01*
X-11649Y125832D01*
X-12098Y123963D01*
X-12249Y122047D01*
X-12098Y120131D01*
X-11649Y118262D01*
X-10914Y116486D01*
X-9910Y114848D01*
X-8661Y113386D01*
X-7200Y112138D01*
X-5561Y111134D01*
X-3785Y110398D01*
X-1916Y109949D01*
X0Y109799D01*
X1916Y109949D01*
X3785Y110398D01*
X5561Y111134D01*
X7200Y112138D01*
X8661Y113386D01*
X9910Y114848D01*
X10914Y116486D01*
X11649Y118262D01*
X12098Y120131D01*
X12249Y122047D01*
X12098Y123963D01*
X11649Y125832D01*
X10914Y127608D01*
X9910Y129247D01*
X8661Y130708D01*
X7200Y131957D01*
X5561Y132961D01*
X3785Y133696D01*
X1916Y134145D01*
X0Y134296D01*
D02*
G37*
G36*
X65024Y112655D02*
X64399Y112531D01*
X63870Y112177D01*
X63516Y111648D01*
X63392Y111024D01*
X63516Y110399D01*
X63870Y109870D01*
X64399Y109517D01*
X65024Y109392D01*
X65648Y109517D01*
X66177Y109870D01*
X66531Y110399D01*
X66655Y111024D01*
X66531Y111648D01*
X66177Y112177D01*
X65648Y112531D01*
X65024Y112655D01*
D02*
G37*
G36*
X136524Y107155D02*
X135899Y107031D01*
X135774Y106947D01*
X135648Y107031D01*
X135024Y107155D01*
X134399Y107031D01*
X134274Y106947D01*
X134148Y107031D01*
X133524Y107155D01*
X132899Y107031D01*
X132370Y106677D01*
X132017Y106148D01*
X131892Y105524D01*
X132017Y104899D01*
X132100Y104774D01*
X132017Y104648D01*
X131892Y104024D01*
X132017Y103399D01*
X132370Y102870D01*
X132899Y102516D01*
X133524Y102392D01*
X134148Y102516D01*
X134274Y102601D01*
X134399Y102516D01*
X135024Y102392D01*
X135648Y102516D01*
X135774Y102601D01*
X135899Y102516D01*
X136524Y102392D01*
X137148Y102516D01*
X137677Y102870D01*
X138031Y103399D01*
X138155Y104024D01*
X138031Y104648D01*
X137947Y104774D01*
X138031Y104899D01*
X138155Y105524D01*
X138031Y106148D01*
X137677Y106677D01*
X137148Y107031D01*
X136524Y107155D01*
D02*
G37*
G36*
X126524D02*
X125899Y107031D01*
X125774Y106947D01*
X125648Y107031D01*
X125024Y107155D01*
X124399Y107031D01*
X124274Y106947D01*
X124148Y107031D01*
X123524Y107155D01*
X122899Y107031D01*
X122370Y106677D01*
X122017Y106148D01*
X121892Y105524D01*
X122017Y104899D01*
X122100Y104774D01*
X122017Y104648D01*
X121892Y104024D01*
X122017Y103399D01*
X122370Y102870D01*
X122899Y102516D01*
X123524Y102392D01*
X124148Y102516D01*
X124274Y102601D01*
X124399Y102516D01*
X125024Y102392D01*
X125648Y102516D01*
X125774Y102601D01*
X125899Y102516D01*
X126524Y102392D01*
X127148Y102516D01*
X127677Y102870D01*
X128031Y103399D01*
X128155Y104024D01*
X128031Y104648D01*
X127947Y104774D01*
X128031Y104899D01*
X128155Y105524D01*
X128031Y106148D01*
X127677Y106677D01*
X127148Y107031D01*
X126524Y107155D01*
D02*
G37*
G36*
X106424Y107055D02*
X105799Y106931D01*
X105424Y106680D01*
X105048Y106931D01*
X104424Y107055D01*
X103799Y106931D01*
X103270Y106577D01*
X103174Y106433D01*
X102674D01*
X102577Y106577D01*
X102048Y106931D01*
X101424Y107055D01*
X100799Y106931D01*
X100424Y106680D01*
X100048Y106931D01*
X99424Y107055D01*
X98799Y106931D01*
X98270Y106577D01*
X97916Y106048D01*
X97792Y105424D01*
X97916Y104799D01*
X98168Y104424D01*
X97916Y104048D01*
X97792Y103424D01*
X97916Y102799D01*
X98168Y102424D01*
X97916Y102048D01*
X97792Y101424D01*
X97916Y100799D01*
X98270Y100270D01*
X98799Y99916D01*
X99424Y99792D01*
X100048Y99916D01*
X100424Y100168D01*
X100799Y99916D01*
X101424Y99792D01*
X102048Y99916D01*
X102577Y100270D01*
X102674Y100414D01*
X103174D01*
X103270Y100270D01*
X103799Y99916D01*
X104424Y99792D01*
X105048Y99916D01*
X105424Y100168D01*
X105799Y99916D01*
X106424Y99792D01*
X107048Y99916D01*
X107577Y100270D01*
X107931Y100799D01*
X108055Y101424D01*
X107931Y102048D01*
X107680Y102424D01*
X107931Y102799D01*
X108055Y103424D01*
X107931Y104048D01*
X107680Y104424D01*
X107931Y104799D01*
X108055Y105424D01*
X107931Y106048D01*
X107577Y106577D01*
X107048Y106931D01*
X106424Y107055D01*
D02*
G37*
G36*
X91424D02*
X90799Y106931D01*
X90424Y106680D01*
X90048Y106931D01*
X89424Y107055D01*
X88799Y106931D01*
X88270Y106577D01*
X87916Y106048D01*
X87792Y105424D01*
X87916Y104799D01*
X88168Y104424D01*
X87916Y104048D01*
X87792Y103424D01*
X87916Y102799D01*
X88168Y102424D01*
X87916Y102048D01*
X87792Y101424D01*
X87916Y100799D01*
X88270Y100270D01*
X88799Y99916D01*
X89424Y99792D01*
X90048Y99916D01*
X90424Y100168D01*
X90799Y99916D01*
X91424Y99792D01*
X92048Y99916D01*
X92577Y100270D01*
X92931Y100799D01*
X93055Y101424D01*
X92931Y102048D01*
X92680Y102424D01*
X92931Y102799D01*
X93055Y103424D01*
X92931Y104048D01*
X92680Y104424D01*
X92931Y104799D01*
X93055Y105424D01*
X92931Y106048D01*
X92577Y106577D01*
X92048Y106931D01*
X91424Y107055D01*
D02*
G37*
G36*
X84524D02*
X83899Y106931D01*
X83524Y106680D01*
X83148Y106931D01*
X82524Y107055D01*
X81899Y106931D01*
X81370Y106577D01*
X81274Y106433D01*
X80774D01*
X80677Y106577D01*
X80148Y106931D01*
X79524Y107055D01*
X78899Y106931D01*
X78524Y106680D01*
X78148Y106931D01*
X77524Y107055D01*
X76899Y106931D01*
X76370Y106577D01*
X76016Y106048D01*
X75892Y105424D01*
X76016Y104799D01*
X76267Y104424D01*
X76016Y104048D01*
X75892Y103424D01*
X76016Y102799D01*
X76267Y102424D01*
X76016Y102048D01*
X75892Y101424D01*
X76016Y100799D01*
X76370Y100270D01*
X76899Y99916D01*
X77524Y99792D01*
X78148Y99916D01*
X78524Y100168D01*
X78899Y99916D01*
X79524Y99792D01*
X80148Y99916D01*
X80677Y100270D01*
X80774Y100414D01*
X81274D01*
X81370Y100270D01*
X81899Y99916D01*
X82524Y99792D01*
X83148Y99916D01*
X83524Y100168D01*
X83899Y99916D01*
X84524Y99792D01*
X85148Y99916D01*
X85677Y100270D01*
X86031Y100799D01*
X86155Y101424D01*
X86031Y102048D01*
X85780Y102424D01*
X86031Y102799D01*
X86155Y103424D01*
X86031Y104048D01*
X85780Y104424D01*
X86031Y104799D01*
X86155Y105424D01*
X86031Y106048D01*
X85677Y106577D01*
X85148Y106931D01*
X84524Y107055D01*
D02*
G37*
G36*
X69524D02*
X68899Y106931D01*
X68524Y106680D01*
X68148Y106931D01*
X67524Y107055D01*
X66899Y106931D01*
X66370Y106577D01*
X66016Y106048D01*
X65892Y105424D01*
X66016Y104799D01*
X66268Y104424D01*
X66016Y104048D01*
X65892Y103424D01*
X66016Y102799D01*
X66268Y102424D01*
X66016Y102048D01*
X65892Y101424D01*
X66016Y100799D01*
X66370Y100270D01*
X66899Y99916D01*
X67524Y99792D01*
X68148Y99916D01*
X68524Y100168D01*
X68899Y99916D01*
X69524Y99792D01*
X70148Y99916D01*
X70677Y100270D01*
X71031Y100799D01*
X71155Y101424D01*
X71031Y102048D01*
X70780Y102424D01*
X71031Y102799D01*
X71155Y103424D01*
X71031Y104048D01*
X70780Y104424D01*
X71031Y104799D01*
X71155Y105424D01*
X71031Y106048D01*
X70677Y106577D01*
X70148Y106931D01*
X69524Y107055D01*
D02*
G37*
G36*
X52524Y107625D02*
X51899Y107501D01*
X51370Y107148D01*
X51016Y106618D01*
X50892Y105994D01*
X51016Y105370D01*
X51370Y104841D01*
X51899Y104487D01*
X52524Y104363D01*
X52731Y104404D01*
X53165Y104024D01*
X53243Y103632D01*
X52879Y103209D01*
X52858Y103199D01*
X52724Y103226D01*
X52099Y103101D01*
X51570Y102748D01*
X51216Y102218D01*
X51092Y101594D01*
X51216Y100970D01*
X51570Y100441D01*
X52099Y100087D01*
X52724Y99963D01*
X53348Y100087D01*
X53877Y100441D01*
X54231Y100970D01*
X54355Y101594D01*
X54277Y101986D01*
X54640Y102409D01*
X54662Y102419D01*
X54796Y102392D01*
X55420Y102516D01*
X55950Y102870D01*
X56303Y103399D01*
X56427Y104024D01*
X56303Y104648D01*
X55950Y105177D01*
X55420Y105531D01*
X54796Y105655D01*
X54589Y105614D01*
X54155Y105994D01*
X54031Y106618D01*
X53677Y107148D01*
X53148Y107501D01*
X52524Y107625D01*
D02*
G37*
G36*
X136524Y97655D02*
X135899Y97531D01*
X135774Y97447D01*
X135648Y97531D01*
X135024Y97655D01*
X134399Y97531D01*
X134274Y97447D01*
X134148Y97531D01*
X133524Y97655D01*
X132899Y97531D01*
X132370Y97177D01*
X132017Y96648D01*
X131892Y96024D01*
X132017Y95399D01*
X132100Y95274D01*
X132017Y95148D01*
X131892Y94524D01*
X132017Y93899D01*
X132370Y93370D01*
X132899Y93016D01*
X133524Y92892D01*
X134148Y93016D01*
X134274Y93101D01*
X134399Y93016D01*
X135024Y92892D01*
X135648Y93016D01*
X135774Y93101D01*
X135899Y93016D01*
X136524Y92892D01*
X137148Y93016D01*
X137677Y93370D01*
X138031Y93899D01*
X138155Y94524D01*
X138031Y95148D01*
X137947Y95274D01*
X138031Y95399D01*
X138155Y96024D01*
X138031Y96648D01*
X137677Y97177D01*
X137148Y97531D01*
X136524Y97655D01*
D02*
G37*
G36*
X126524D02*
X125899Y97531D01*
X125774Y97447D01*
X125648Y97531D01*
X125024Y97655D01*
X124399Y97531D01*
X124274Y97447D01*
X124148Y97531D01*
X123524Y97655D01*
X122899Y97531D01*
X122370Y97177D01*
X122017Y96648D01*
X121892Y96024D01*
X122017Y95399D01*
X122100Y95274D01*
X122017Y95148D01*
X121892Y94524D01*
X122017Y93899D01*
X122370Y93370D01*
X122899Y93016D01*
X123524Y92892D01*
X124148Y93016D01*
X124274Y93101D01*
X124399Y93016D01*
X125024Y92892D01*
X125648Y93016D01*
X125774Y93101D01*
X125899Y93016D01*
X126524Y92892D01*
X127148Y93016D01*
X127677Y93370D01*
X128031Y93899D01*
X128155Y94524D01*
X128031Y95148D01*
X127947Y95274D01*
X128031Y95399D01*
X128155Y96024D01*
X128031Y96648D01*
X127677Y97177D01*
X127148Y97531D01*
X126524Y97655D01*
D02*
G37*
G36*
X43524D02*
X42899Y97531D01*
X42370Y97177D01*
X42016Y96648D01*
X41892Y96024D01*
X42016Y95399D01*
X42370Y94870D01*
X42899Y94516D01*
X43524Y94392D01*
X44148Y94516D01*
X44677Y94870D01*
X45031Y95399D01*
X45155Y96024D01*
X45031Y96648D01*
X44677Y97177D01*
X44148Y97531D01*
X43524Y97655D01*
D02*
G37*
G36*
X63524Y93955D02*
X62899Y93831D01*
X62370Y93477D01*
X62016Y92948D01*
X61892Y92324D01*
X62016Y91699D01*
X62370Y91170D01*
X62899Y90816D01*
X63524Y90692D01*
X64148Y90816D01*
X64677Y91170D01*
X65031Y91699D01*
X65155Y92324D01*
X65031Y92948D01*
X64677Y93477D01*
X64148Y93831D01*
X63524Y93955D01*
D02*
G37*
G36*
X43524Y89655D02*
X42899Y89531D01*
X42370Y89177D01*
X42016Y88648D01*
X41892Y88024D01*
X42016Y87399D01*
X42370Y86870D01*
X42899Y86516D01*
X43524Y86392D01*
X44148Y86516D01*
X44677Y86870D01*
X45031Y87399D01*
X45155Y88024D01*
X45031Y88648D01*
X44677Y89177D01*
X44148Y89531D01*
X43524Y89655D01*
D02*
G37*
G36*
X60492Y88155D02*
X59868Y88031D01*
X59339Y87677D01*
X58985Y87148D01*
X58861Y86524D01*
X58985Y85899D01*
X59339Y85370D01*
X59868Y85016D01*
X60492Y84892D01*
X61116Y85016D01*
X61646Y85370D01*
X61999Y85899D01*
X62124Y86524D01*
X61999Y87148D01*
X61646Y87677D01*
X61116Y88031D01*
X60492Y88155D01*
D02*
G37*
G36*
X62904Y83743D02*
X62279Y83619D01*
X61750Y83266D01*
X61396Y82736D01*
X61272Y82112D01*
X61396Y81488D01*
X61750Y80959D01*
X62279Y80605D01*
X62904Y80481D01*
X63528Y80605D01*
X64057Y80959D01*
X64411Y81488D01*
X64535Y82112D01*
X64411Y82736D01*
X64057Y83266D01*
X63528Y83619D01*
X62904Y83743D01*
D02*
G37*
G36*
X43524Y83655D02*
X42899Y83531D01*
X42370Y83177D01*
X42016Y82648D01*
X41892Y82024D01*
X42016Y81399D01*
X42370Y80870D01*
X42899Y80516D01*
X43524Y80392D01*
X44148Y80516D01*
X44677Y80870D01*
X45031Y81399D01*
X45155Y82024D01*
X45031Y82648D01*
X44677Y83177D01*
X44148Y83531D01*
X43524Y83655D01*
D02*
G37*
G36*
X33924Y84129D02*
X33167Y84029D01*
X32462Y83737D01*
X31856Y83272D01*
X31391Y82666D01*
X31099Y81961D01*
X30999Y81204D01*
X31099Y80447D01*
X31391Y79742D01*
X31856Y79136D01*
X32462Y78671D01*
X33167Y78379D01*
X33924Y78279D01*
X34681Y78379D01*
X35387Y78671D01*
X35993Y79136D01*
X36457Y79742D01*
X36750Y80447D01*
X36849Y81204D01*
X36750Y81961D01*
X36457Y82666D01*
X35993Y83272D01*
X35387Y83737D01*
X34681Y84029D01*
X33924Y84129D01*
D02*
G37*
G36*
X26097Y83838D02*
X25340Y83739D01*
X24634Y83447D01*
X24028Y82982D01*
X23564Y82376D01*
X23271Y81670D01*
X23172Y80913D01*
X23271Y80156D01*
X23564Y79451D01*
X24028Y78845D01*
X24634Y78380D01*
X25340Y78088D01*
X26097Y77988D01*
X26854Y78088D01*
X27559Y78380D01*
X28165Y78845D01*
X28630Y79451D01*
X28922Y80156D01*
X29022Y80913D01*
X28922Y81670D01*
X28630Y82376D01*
X28165Y82982D01*
X27559Y83447D01*
X26854Y83739D01*
X26097Y83838D01*
D02*
G37*
G36*
X61892Y79055D02*
X61268Y78931D01*
X60739Y78577D01*
X60385Y78048D01*
X60261Y77424D01*
X60264Y77410D01*
X59946Y77024D01*
X45024D01*
Y76835D01*
X44524Y76556D01*
X44024Y76655D01*
X43399Y76531D01*
X42870Y76177D01*
X42516Y75648D01*
X42392Y75024D01*
X42516Y74399D01*
X42870Y73870D01*
X43399Y73516D01*
X44024Y73392D01*
X44524Y73492D01*
X45024Y73212D01*
Y45024D01*
X53712D01*
X53992Y44524D01*
X53892Y44024D01*
X54016Y43399D01*
X54370Y42870D01*
X54899Y42516D01*
X55524Y42392D01*
X56148Y42516D01*
X56677Y42870D01*
X57031Y43399D01*
X57155Y44024D01*
X57055Y44524D01*
X57335Y45024D01*
X77024D01*
Y77024D01*
X63838D01*
X63521Y77410D01*
X63524Y77424D01*
X63399Y78048D01*
X63046Y78577D01*
X62516Y78931D01*
X61892Y79055D01*
D02*
G37*
G36*
X136524Y74155D02*
X135899Y74031D01*
X135774Y73947D01*
X135648Y74031D01*
X135024Y74155D01*
X134399Y74031D01*
X134274Y73947D01*
X134148Y74031D01*
X133524Y74155D01*
X132899Y74031D01*
X132370Y73677D01*
X132017Y73148D01*
X131892Y72524D01*
X132017Y71899D01*
X132100Y71774D01*
X132017Y71648D01*
X131892Y71024D01*
X132017Y70399D01*
X132370Y69870D01*
X132899Y69516D01*
X133524Y69392D01*
X134148Y69516D01*
X134274Y69600D01*
X134399Y69516D01*
X135024Y69392D01*
X135648Y69516D01*
X135774Y69600D01*
X135899Y69516D01*
X136524Y69392D01*
X137148Y69516D01*
X137677Y69870D01*
X138031Y70399D01*
X138155Y71024D01*
X138031Y71648D01*
X137947Y71774D01*
X138031Y71899D01*
X138155Y72524D01*
X138031Y73148D01*
X137677Y73677D01*
X137148Y74031D01*
X136524Y74155D01*
D02*
G37*
G36*
X126524D02*
X125899Y74031D01*
X125774Y73947D01*
X125648Y74031D01*
X125024Y74155D01*
X124399Y74031D01*
X124274Y73947D01*
X124148Y74031D01*
X123524Y74155D01*
X122899Y74031D01*
X122370Y73677D01*
X122017Y73148D01*
X121892Y72524D01*
X122017Y71899D01*
X122100Y71774D01*
X122017Y71648D01*
X121892Y71024D01*
X122017Y70399D01*
X122370Y69870D01*
X122899Y69516D01*
X123524Y69392D01*
X124148Y69516D01*
X124274Y69600D01*
X124399Y69516D01*
X125024Y69392D01*
X125648Y69516D01*
X125774Y69600D01*
X125899Y69516D01*
X126524Y69392D01*
X127148Y69516D01*
X127677Y69870D01*
X128031Y70399D01*
X128155Y71024D01*
X128031Y71648D01*
X127947Y71774D01*
X128031Y71899D01*
X128155Y72524D01*
X128031Y73148D01*
X127677Y73677D01*
X127148Y74031D01*
X126524Y74155D01*
D02*
G37*
G36*
X136524Y64655D02*
X135899Y64531D01*
X135774Y64447D01*
X135648Y64531D01*
X135024Y64655D01*
X134399Y64531D01*
X134274Y64447D01*
X134148Y64531D01*
X133524Y64655D01*
X132899Y64531D01*
X132370Y64177D01*
X132017Y63648D01*
X131892Y63024D01*
X132017Y62399D01*
X132100Y62274D01*
X132017Y62148D01*
X131892Y61524D01*
X132017Y60899D01*
X132370Y60370D01*
X132899Y60016D01*
X133524Y59892D01*
X134148Y60016D01*
X134274Y60101D01*
X134399Y60016D01*
X135024Y59892D01*
X135648Y60016D01*
X135774Y60101D01*
X135899Y60016D01*
X136524Y59892D01*
X137148Y60016D01*
X137677Y60370D01*
X138031Y60899D01*
X138155Y61524D01*
X138031Y62148D01*
X137947Y62274D01*
X138031Y62399D01*
X138155Y63024D01*
X138031Y63648D01*
X137677Y64177D01*
X137148Y64531D01*
X136524Y64655D01*
D02*
G37*
G36*
X126524D02*
X125899Y64531D01*
X125774Y64447D01*
X125648Y64531D01*
X125024Y64655D01*
X124399Y64531D01*
X124274Y64447D01*
X124148Y64531D01*
X123524Y64655D01*
X122899Y64531D01*
X122370Y64177D01*
X122017Y63648D01*
X121892Y63024D01*
X122017Y62399D01*
X122100Y62274D01*
X122017Y62148D01*
X121892Y61524D01*
X122017Y60899D01*
X122370Y60370D01*
X122899Y60016D01*
X123524Y59892D01*
X124148Y60016D01*
X124274Y60101D01*
X124399Y60016D01*
X125024Y59892D01*
X125648Y60016D01*
X125774Y60101D01*
X125899Y60016D01*
X126524Y59892D01*
X127148Y60016D01*
X127677Y60370D01*
X128031Y60899D01*
X128155Y61524D01*
X128031Y62148D01*
X127947Y62274D01*
X128031Y62399D01*
X128155Y63024D01*
X128031Y63648D01*
X127677Y64177D01*
X127148Y64531D01*
X126524Y64655D01*
D02*
G37*
G36*
X118524Y63655D02*
X117899Y63531D01*
X117774Y63447D01*
X117648Y63531D01*
X117024Y63655D01*
X116399Y63531D01*
X116274Y63447D01*
X116148Y63531D01*
X115524Y63655D01*
X114899Y63531D01*
X114370Y63177D01*
X114016Y62648D01*
X113892Y62024D01*
X114016Y61399D01*
X114101Y61274D01*
X114016Y61148D01*
X113892Y60524D01*
X114016Y59899D01*
X114370Y59370D01*
X114899Y59016D01*
X115524Y58892D01*
X116148Y59016D01*
X116274Y59101D01*
X116399Y59016D01*
X117024Y58892D01*
X117648Y59016D01*
X117774Y59101D01*
X117899Y59016D01*
X118524Y58892D01*
X119148Y59016D01*
X119677Y59370D01*
X120031Y59899D01*
X120155Y60524D01*
X120031Y61148D01*
X119947Y61274D01*
X120031Y61399D01*
X120155Y62024D01*
X120031Y62648D01*
X119677Y63177D01*
X119148Y63531D01*
X118524Y63655D01*
D02*
G37*
G36*
X81992Y66155D02*
X81368Y66031D01*
X80839Y65677D01*
X80485Y65148D01*
X80361Y64524D01*
X80485Y63899D01*
X80839Y63370D01*
X81368Y63016D01*
X81992Y62892D01*
X82616Y63016D01*
X83146Y63370D01*
X83499Y63899D01*
X83623Y64524D01*
X83499Y65148D01*
X83146Y65677D01*
X82616Y66031D01*
X81992Y66155D01*
D02*
G37*
G36*
X33824Y68249D02*
X33067Y68149D01*
X32361Y67857D01*
X31755Y67392D01*
X31291Y66786D01*
X30998Y66081D01*
X30899Y65324D01*
X30998Y64567D01*
X31291Y63861D01*
X31755Y63255D01*
X32361Y62791D01*
X33067Y62498D01*
X33824Y62399D01*
X34581Y62498D01*
X35286Y62791D01*
X35892Y63255D01*
X36357Y63861D01*
X36649Y64567D01*
X36749Y65324D01*
X36649Y66081D01*
X36357Y66786D01*
X35892Y67392D01*
X35286Y67857D01*
X34581Y68149D01*
X33824Y68249D01*
D02*
G37*
G36*
X26087Y68073D02*
X25330Y67973D01*
X24624Y67681D01*
X24018Y67216D01*
X23553Y66610D01*
X23261Y65905D01*
X23162Y65148D01*
X23261Y64391D01*
X23553Y63685D01*
X24018Y63080D01*
X24624Y62615D01*
X25330Y62323D01*
X26087Y62223D01*
X26844Y62323D01*
X27549Y62615D01*
X28155Y63080D01*
X28620Y63685D01*
X28912Y64391D01*
X29012Y65148D01*
X28912Y65905D01*
X28620Y66610D01*
X28155Y67216D01*
X27549Y67681D01*
X26844Y67973D01*
X26087Y68073D01*
D02*
G37*
G36*
X96224Y58214D02*
X95599Y58090D01*
X95070Y57736D01*
X94716Y57207D01*
X94592Y56583D01*
X94694Y56071D01*
X94476Y55755D01*
X94332Y55633D01*
X94224Y55655D01*
X93599Y55531D01*
X93070Y55177D01*
X92716Y54648D01*
X92592Y54024D01*
X92716Y53399D01*
X93070Y52870D01*
X93599Y52516D01*
X94224Y52392D01*
X94332Y52414D01*
X94476Y52292D01*
X94694Y51976D01*
X94592Y51465D01*
X94694Y50953D01*
X94476Y50637D01*
X94332Y50515D01*
X94224Y50537D01*
X93599Y50413D01*
X93070Y50059D01*
X92716Y49530D01*
X92592Y48906D01*
X92716Y48281D01*
X93070Y47752D01*
X93599Y47398D01*
X94224Y47274D01*
X94332Y47296D01*
X94476Y47174D01*
X94694Y46858D01*
X94592Y46346D01*
X94694Y45835D01*
X94476Y45519D01*
X94332Y45397D01*
X94224Y45419D01*
X93599Y45295D01*
X93070Y44941D01*
X92716Y44412D01*
X92592Y43787D01*
X92716Y43163D01*
X93070Y42634D01*
X93599Y42280D01*
X94224Y42156D01*
X94848Y42280D01*
X95377Y42634D01*
X95731Y43163D01*
X95855Y43787D01*
X95753Y44299D01*
X95971Y44615D01*
X96115Y44737D01*
X96224Y44715D01*
X96848Y44839D01*
X97377Y45193D01*
X97731Y45722D01*
X97855Y46346D01*
X97731Y46971D01*
X97377Y47500D01*
X96848Y47854D01*
X96224Y47978D01*
X96115Y47956D01*
X95971Y48078D01*
X95753Y48394D01*
X95855Y48906D01*
X95753Y49417D01*
X95971Y49733D01*
X96115Y49855D01*
X96224Y49833D01*
X96848Y49957D01*
X97377Y50311D01*
X97731Y50840D01*
X97855Y51465D01*
X97731Y52089D01*
X97377Y52618D01*
X96848Y52972D01*
X96224Y53096D01*
X96115Y53074D01*
X95971Y53196D01*
X95753Y53512D01*
X95855Y54024D01*
X95753Y54535D01*
X95971Y54851D01*
X96115Y54973D01*
X96224Y54951D01*
X96848Y55076D01*
X97377Y55429D01*
X97731Y55958D01*
X97855Y56583D01*
X97731Y57207D01*
X97377Y57736D01*
X96848Y58090D01*
X96224Y58214D01*
D02*
G37*
G36*
X37441Y55155D02*
X36817Y55031D01*
X36287Y54677D01*
X35934Y54148D01*
X35810Y53524D01*
X35934Y52899D01*
X36287Y52370D01*
X36817Y52016D01*
X37441Y51892D01*
X38065Y52016D01*
X38594Y52370D01*
X38948Y52899D01*
X39072Y53524D01*
X38948Y54148D01*
X38594Y54677D01*
X38065Y55031D01*
X37441Y55155D01*
D02*
G37*
G36*
X22606D02*
X21982Y55031D01*
X21453Y54677D01*
X21099Y54148D01*
X20975Y53524D01*
X21099Y52899D01*
X21453Y52370D01*
X21982Y52016D01*
X22606Y51892D01*
X23231Y52016D01*
X23760Y52370D01*
X24114Y52899D01*
X24238Y53524D01*
X24114Y54148D01*
X23760Y54677D01*
X23231Y55031D01*
X22606Y55155D01*
D02*
G37*
G36*
X-8776Y49055D02*
X-9401Y48931D01*
X-9930Y48577D01*
X-10283Y48048D01*
X-10408Y47424D01*
X-10283Y46799D01*
X-9930Y46270D01*
X-9401Y45916D01*
X-8776Y45792D01*
X-8152Y45916D01*
X-7623Y46270D01*
X-7269Y46799D01*
X-7145Y47424D01*
X-7269Y48048D01*
X-7623Y48577D01*
X-8152Y48931D01*
X-8776Y49055D01*
D02*
G37*
G36*
X37441Y45155D02*
X36817Y45031D01*
X36287Y44677D01*
X35934Y44148D01*
X35810Y43524D01*
X35934Y42899D01*
X36287Y42370D01*
X36817Y42016D01*
X37441Y41892D01*
X38065Y42016D01*
X38594Y42370D01*
X38948Y42899D01*
X39072Y43524D01*
X38948Y44148D01*
X38594Y44677D01*
X38065Y45031D01*
X37441Y45155D01*
D02*
G37*
G36*
X23524Y42655D02*
X22899Y42531D01*
X22370Y42177D01*
X22016Y41648D01*
X21892Y41024D01*
X22016Y40399D01*
X22370Y39870D01*
X22899Y39516D01*
X23524Y39392D01*
X24148Y39516D01*
X24677Y39870D01*
X25031Y40399D01*
X25155Y41024D01*
X25031Y41648D01*
X24677Y42177D01*
X24148Y42531D01*
X23524Y42655D01*
D02*
G37*
G36*
X70524Y39655D02*
X69899Y39531D01*
X69370Y39177D01*
X69274Y39033D01*
X68774D01*
X68677Y39177D01*
X68148Y39531D01*
X67524Y39655D01*
X66899Y39531D01*
X66370Y39177D01*
X66274Y39033D01*
X65774D01*
X65677Y39177D01*
X65148Y39531D01*
X64524Y39655D01*
X63899Y39531D01*
X63370Y39177D01*
X63016Y38648D01*
X62892Y38024D01*
X63016Y37399D01*
X63370Y36870D01*
X63899Y36516D01*
X64524Y36392D01*
X65148Y36516D01*
X65677Y36870D01*
X65774Y37014D01*
X66274D01*
X66370Y36870D01*
X66899Y36516D01*
X67524Y36392D01*
X68148Y36516D01*
X68677Y36870D01*
X68774Y37014D01*
X69274D01*
X69370Y36870D01*
X69899Y36516D01*
X70524Y36392D01*
X71148Y36516D01*
X71677Y36870D01*
X72031Y37399D01*
X72155Y38024D01*
X72031Y38648D01*
X71677Y39177D01*
X71148Y39531D01*
X70524Y39655D01*
D02*
G37*
G36*
X126992Y41055D02*
X126368Y40931D01*
X125839Y40577D01*
X125485Y40048D01*
X125361Y39424D01*
X125485Y38799D01*
X125839Y38270D01*
X126368Y37916D01*
X126992Y37792D01*
X127616Y37916D01*
X128146Y38270D01*
X128499Y38799D01*
X128623Y39424D01*
X128499Y40048D01*
X128146Y40577D01*
X127616Y40931D01*
X126992Y41055D01*
D02*
G37*
G36*
X45441Y40155D02*
X44817Y40031D01*
X44287Y39677D01*
X43934Y39148D01*
X43810Y38524D01*
X43934Y37899D01*
X44287Y37370D01*
X44817Y37016D01*
X45441Y36892D01*
X46065Y37016D01*
X46595Y37370D01*
X46948Y37899D01*
X46974Y38031D01*
X47484D01*
X47516Y37868D01*
X47870Y37339D01*
X48399Y36985D01*
X49024Y36861D01*
X49648Y36985D01*
X50177Y37339D01*
X50531Y37868D01*
X50655Y38492D01*
X50531Y39116D01*
X50177Y39646D01*
X49648Y39999D01*
X49024Y40124D01*
X48399Y39999D01*
X47870Y39646D01*
X47516Y39116D01*
X47490Y38985D01*
X46981D01*
X46948Y39148D01*
X46595Y39677D01*
X46065Y40031D01*
X45441Y40155D01*
D02*
G37*
G36*
X74524Y39655D02*
X73899Y39531D01*
X73370Y39177D01*
X73016Y38648D01*
X72892Y38024D01*
X73016Y37399D01*
X73370Y36870D01*
X73899Y36516D01*
X74524Y36392D01*
X75148Y36516D01*
X75677Y36870D01*
X76031Y37399D01*
X76155Y38024D01*
X76031Y38648D01*
X75677Y39177D01*
X75148Y39531D01*
X74524Y39655D01*
D02*
G37*
G36*
X70524Y34655D02*
X69899Y34531D01*
X69370Y34177D01*
X69274Y34033D01*
X68774D01*
X68677Y34177D01*
X68148Y34531D01*
X67524Y34655D01*
X66899Y34531D01*
X66370Y34177D01*
X66016Y33648D01*
X65892Y33024D01*
X66016Y32399D01*
X66370Y31870D01*
X66899Y31516D01*
X67524Y31392D01*
X68148Y31516D01*
X68677Y31870D01*
X68774Y32014D01*
X69274D01*
X69370Y31870D01*
X69899Y31516D01*
X70524Y31392D01*
X71148Y31516D01*
X71677Y31870D01*
X72031Y32399D01*
X72155Y33024D01*
X72031Y33648D01*
X71677Y34177D01*
X71148Y34531D01*
X70524Y34655D01*
D02*
G37*
G36*
X24124Y37255D02*
X23499Y37131D01*
X22970Y36777D01*
X22616Y36248D01*
X22492Y35624D01*
X22616Y34999D01*
X22970Y34470D01*
X23499Y34116D01*
X24124Y33992D01*
X24748Y34116D01*
X25277Y34470D01*
X25631Y34999D01*
X25755Y35624D01*
X25631Y36248D01*
X25277Y36777D01*
X24748Y37131D01*
X24124Y37255D01*
D02*
G37*
G36*
X54079Y36545D02*
X53454Y36421D01*
X52925Y36067D01*
X52572Y35538D01*
X52447Y34913D01*
X52572Y34289D01*
X52925Y33760D01*
X53454Y33406D01*
X54079Y33282D01*
X54703Y33406D01*
X55232Y33760D01*
X55586Y34289D01*
X55710Y34913D01*
X55586Y35538D01*
X55232Y36067D01*
X54703Y36421D01*
X54079Y36545D01*
D02*
G37*
G36*
X45441Y34155D02*
X44817Y34031D01*
X44287Y33677D01*
X43934Y33148D01*
X43810Y32524D01*
X43934Y31899D01*
X44287Y31370D01*
X44817Y31016D01*
X45441Y30892D01*
X46065Y31016D01*
X46595Y31370D01*
X46948Y31899D01*
X47072Y32524D01*
X46948Y33148D01*
X46595Y33677D01*
X46065Y34031D01*
X45441Y34155D01*
D02*
G37*
G36*
Y29155D02*
X44817Y29031D01*
X44287Y28677D01*
X43934Y28148D01*
X43810Y27524D01*
X43934Y26899D01*
X44287Y26370D01*
X44817Y26016D01*
X45441Y25892D01*
X46065Y26016D01*
X46595Y26370D01*
X46948Y26899D01*
X47072Y27524D01*
X46948Y28148D01*
X46595Y28677D01*
X46065Y29031D01*
X45441Y29155D01*
D02*
G37*
G36*
X126992Y29055D02*
X126368Y28931D01*
X125839Y28577D01*
X125485Y28048D01*
X125361Y27424D01*
X125485Y26799D01*
X125839Y26270D01*
X126368Y25916D01*
X126992Y25792D01*
X127616Y25916D01*
X128146Y26270D01*
X128499Y26799D01*
X128623Y27424D01*
X128499Y28048D01*
X128146Y28577D01*
X127616Y28931D01*
X126992Y29055D01*
D02*
G37*
G36*
X64079Y30639D02*
X63454Y30515D01*
X62925Y30161D01*
X62572Y29632D01*
X62447Y29008D01*
X62572Y28384D01*
X62925Y27854D01*
X63454Y27501D01*
X63879Y27416D01*
X64128Y26921D01*
X64046Y26711D01*
X64008Y26688D01*
X63454Y26578D01*
X62925Y26224D01*
X62572Y25695D01*
X62447Y25071D01*
X62572Y24447D01*
X62925Y23917D01*
X63454Y23564D01*
X64079Y23439D01*
X64703Y23564D01*
X65232Y23917D01*
X65586Y24447D01*
X65691Y24975D01*
X65907Y25268D01*
X65934Y25294D01*
X66150Y25422D01*
X66703Y25532D01*
X67232Y25886D01*
X67586Y26415D01*
X67710Y27039D01*
X67586Y27664D01*
X67232Y28193D01*
X66703Y28547D01*
X66079Y28671D01*
X66053Y28666D01*
X65907Y28811D01*
X65691Y29103D01*
X65586Y29632D01*
X65232Y30161D01*
X64703Y30515D01*
X64079Y30639D01*
D02*
G37*
G36*
X48443Y26163D02*
X47818Y26039D01*
X47289Y25685D01*
X46935Y25156D01*
X46811Y24532D01*
X46935Y23908D01*
X47289Y23378D01*
X47818Y23025D01*
X48443Y22900D01*
X49067Y23025D01*
X49596Y23378D01*
X49950Y23908D01*
X50074Y24532D01*
X49950Y25156D01*
X49596Y25685D01*
X49067Y26039D01*
X48443Y26163D01*
D02*
G37*
G36*
X74125Y22811D02*
X73501Y22687D01*
X72972Y22333D01*
X72618Y21804D01*
X72515Y21285D01*
X72461Y21218D01*
X71785Y21175D01*
X71681Y21275D01*
X71585Y21759D01*
X71232Y22288D01*
X70702Y22642D01*
X70078Y22766D01*
X69454Y22642D01*
X68924Y22288D01*
X68571Y21759D01*
X68447Y21135D01*
X68356Y21044D01*
X67796Y21087D01*
X67691Y21229D01*
X67586Y21758D01*
X67232Y22287D01*
X66703Y22641D01*
X66079Y22765D01*
X65454Y22641D01*
X64925Y22287D01*
X64572Y21758D01*
X64466Y21229D01*
X64250Y20937D01*
X64105Y20791D01*
X64079Y20797D01*
X63454Y20673D01*
X62925Y20319D01*
X62572Y19790D01*
X62447Y19165D01*
X62572Y18541D01*
X62925Y18012D01*
X63454Y17658D01*
X64079Y17534D01*
X64703Y17658D01*
X65232Y18012D01*
X65586Y18541D01*
X65691Y19070D01*
X65753Y19153D01*
X65931Y19228D01*
X66227D01*
X66405Y19153D01*
X66466Y19070D01*
X66572Y18541D01*
X66925Y18012D01*
X67454Y17658D01*
X68079Y17534D01*
X68703Y17658D01*
X69232Y18012D01*
X69586Y18541D01*
X69710Y19165D01*
X70051Y19506D01*
X70314Y19400D01*
X70492Y19222D01*
X70616Y18598D01*
X70970Y18068D01*
X71499Y17715D01*
X72123Y17591D01*
X72747Y17715D01*
X73277Y18068D01*
X73630Y18598D01*
X73734Y19116D01*
X74079Y19546D01*
X74088Y19556D01*
X74125Y19548D01*
X74750Y19672D01*
X75279Y20026D01*
X75633Y20555D01*
X75757Y21179D01*
X75633Y21804D01*
X75279Y22333D01*
X74750Y22687D01*
X74125Y22811D01*
D02*
G37*
G36*
X96524Y21155D02*
X95899Y21031D01*
X95370Y20677D01*
X95016Y20148D01*
X94892Y19524D01*
X95016Y18899D01*
X95370Y18370D01*
X95514Y18274D01*
Y17774D01*
X95370Y17677D01*
X95016Y17148D01*
X94892Y16524D01*
X95016Y15899D01*
X95370Y15370D01*
X95514Y15274D01*
Y14774D01*
X95370Y14677D01*
X95016Y14148D01*
X94892Y13524D01*
X95016Y12899D01*
X95370Y12370D01*
X95899Y12016D01*
X96524Y11892D01*
X97148Y12016D01*
X97444Y12214D01*
X97994Y12013D01*
X98016Y11899D01*
X98370Y11370D01*
X98899Y11016D01*
X99524Y10892D01*
X100148Y11016D01*
X100677Y11370D01*
X101031Y11899D01*
X101155Y12524D01*
X101031Y13148D01*
X100677Y13677D01*
X100148Y14031D01*
X99524Y14155D01*
X98899Y14031D01*
X98603Y13833D01*
X98053Y14035D01*
X98031Y14148D01*
X97677Y14677D01*
X97533Y14774D01*
Y15274D01*
X97677Y15370D01*
X98031Y15899D01*
X98155Y16524D01*
X98031Y17148D01*
X97677Y17677D01*
X97533Y17774D01*
Y18274D01*
X97677Y18370D01*
X98031Y18899D01*
X98155Y19524D01*
X98031Y20148D01*
X97677Y20677D01*
X97148Y21031D01*
X96524Y21155D01*
D02*
G37*
G36*
X59079Y11155D02*
X58454Y11031D01*
X57925Y10677D01*
X57572Y10148D01*
X57447Y9524D01*
X57572Y8899D01*
X57925Y8370D01*
X58454Y8016D01*
X59079Y7892D01*
X59703Y8016D01*
X60232Y8370D01*
X60586Y8899D01*
X60710Y9524D01*
X60586Y10148D01*
X60232Y10677D01*
X59703Y11031D01*
X59079Y11155D01*
D02*
G37*
G36*
X52024Y13073D02*
X51267Y12973D01*
X50561Y12681D01*
X49955Y12216D01*
X49490Y11610D01*
X49198Y10905D01*
X49099Y10148D01*
X49198Y9391D01*
X49490Y8685D01*
X49955Y8080D01*
X50561Y7615D01*
X51267Y7323D01*
X52024Y7223D01*
X52781Y7323D01*
X53486Y7615D01*
X54092Y8080D01*
X54557Y8685D01*
X54849Y9391D01*
X54949Y10148D01*
X54849Y10905D01*
X54557Y11610D01*
X54092Y12216D01*
X53486Y12681D01*
X52781Y12973D01*
X52024Y13073D01*
D02*
G37*
G36*
X72024Y8155D02*
X71399Y8031D01*
X70870Y7677D01*
X70516Y7148D01*
X70392Y6524D01*
X70516Y5899D01*
X70870Y5370D01*
X71399Y5016D01*
X72024Y4892D01*
X72648Y5016D01*
X73177Y5370D01*
X73531Y5899D01*
X73655Y6524D01*
X73531Y7148D01*
X73177Y7677D01*
X72648Y8031D01*
X72024Y8155D01*
D02*
G37*
G36*
X90024Y11655D02*
X89399Y11531D01*
X88870Y11177D01*
X88516Y10648D01*
X88392Y10024D01*
X88516Y9399D01*
X88870Y8870D01*
X89399Y8517D01*
X90024Y8392D01*
X90648Y8517D01*
X90944Y8714D01*
X91494Y8513D01*
X91516Y8399D01*
X91870Y7870D01*
X92399Y7517D01*
X93024Y7392D01*
X93648Y7517D01*
X93944Y7714D01*
X94494Y7513D01*
X94516Y7399D01*
X94870Y6870D01*
X95399Y6516D01*
X96024Y6392D01*
X96648Y6516D01*
X96944Y6714D01*
X97494Y6513D01*
X97516Y6399D01*
X97870Y5870D01*
X98399Y5516D01*
X99024Y5392D01*
X99648Y5516D01*
X99944Y5714D01*
X100494Y5513D01*
X100516Y5399D01*
X100870Y4870D01*
X101399Y4516D01*
X102024Y4392D01*
X102648Y4516D01*
X102944Y4714D01*
X103494Y4513D01*
X103516Y4399D01*
X103870Y3870D01*
X104399Y3516D01*
X105024Y3392D01*
X105648Y3516D01*
X106177Y3870D01*
X106531Y4399D01*
X106655Y5024D01*
X106531Y5648D01*
X106177Y6177D01*
X105648Y6531D01*
X105024Y6655D01*
X104399Y6531D01*
X104103Y6333D01*
X103553Y6535D01*
X103531Y6648D01*
X103177Y7177D01*
X102648Y7531D01*
X102024Y7655D01*
X101399Y7531D01*
X101103Y7333D01*
X100553Y7535D01*
X100531Y7648D01*
X100177Y8177D01*
X99648Y8531D01*
X99024Y8655D01*
X98399Y8531D01*
X98103Y8333D01*
X97553Y8535D01*
X97531Y8648D01*
X97177Y9177D01*
X96648Y9531D01*
X96024Y9655D01*
X95399Y9531D01*
X95103Y9333D01*
X94553Y9535D01*
X94531Y9648D01*
X94177Y10177D01*
X93648Y10531D01*
X93024Y10655D01*
X92399Y10531D01*
X92103Y10333D01*
X91553Y10535D01*
X91531Y10648D01*
X91177Y11177D01*
X90648Y11531D01*
X90024Y11655D01*
D02*
G37*
G36*
X122047Y12249D02*
X120131Y12098D01*
X118262Y11649D01*
X116486Y10914D01*
X114848Y9910D01*
X113386Y8661D01*
X112138Y7200D01*
X111134Y5561D01*
X110398Y3785D01*
X109949Y1916D01*
X109799Y0D01*
X109949Y-1916D01*
X110398Y-3785D01*
X111134Y-5561D01*
X112138Y-7200D01*
X113386Y-8661D01*
X114848Y-9910D01*
X116486Y-10914D01*
X118262Y-11649D01*
X120131Y-12098D01*
X122047Y-12249D01*
X123963Y-12098D01*
X125832Y-11649D01*
X127608Y-10914D01*
X129247Y-9910D01*
X130708Y-8661D01*
X131957Y-7200D01*
X132961Y-5561D01*
X133696Y-3785D01*
X134145Y-1916D01*
X134296Y0D01*
X134145Y1916D01*
X133696Y3785D01*
X132961Y5561D01*
X131957Y7200D01*
X130708Y8661D01*
X129247Y9910D01*
X127608Y10914D01*
X125832Y11649D01*
X123963Y12098D01*
X122047Y12249D01*
D02*
G37*
G36*
X0D02*
X-1916Y12098D01*
X-3785Y11649D01*
X-5561Y10914D01*
X-7200Y9910D01*
X-8661Y8661D01*
X-9910Y7200D01*
X-10914Y5561D01*
X-11649Y3785D01*
X-12098Y1916D01*
X-12249Y0D01*
X-12098Y-1916D01*
X-11649Y-3785D01*
X-10914Y-5561D01*
X-9910Y-7200D01*
X-8661Y-8661D01*
X-7200Y-9910D01*
X-5561Y-10914D01*
X-3785Y-11649D01*
X-1916Y-12098D01*
X0Y-12249D01*
X1916Y-12098D01*
X3785Y-11649D01*
X5561Y-10914D01*
X7200Y-9910D01*
X8661Y-8661D01*
X9910Y-7200D01*
X10914Y-5561D01*
X11649Y-3785D01*
X12098Y-1916D01*
X12249Y0D01*
X12098Y1916D01*
X11649Y3785D01*
X10914Y5561D01*
X9910Y7200D01*
X8661Y8661D01*
X7200Y9910D01*
X5561Y10914D01*
X3785Y11649D01*
X1916Y12098D01*
X0Y12249D01*
D02*
G37*
G36*
X67492Y-10345D02*
X66868Y-10469D01*
X66339Y-10823D01*
X65985Y-11352D01*
X65861Y-11976D01*
X65985Y-12601D01*
X66339Y-13130D01*
X66868Y-13484D01*
X67492Y-13608D01*
X68116Y-13484D01*
X68646Y-13130D01*
X68999Y-12601D01*
X69124Y-11976D01*
X68999Y-11352D01*
X68646Y-10823D01*
X68116Y-10469D01*
X67492Y-10345D01*
D02*
G37*
%LPD*%
D47*
X-7783Y64324D02*
D03*
X-7476Y39024D02*
D03*
X72123Y23147D02*
D03*
X23024Y134055D02*
D03*
X71024Y80524D02*
D03*
X72524Y79024D02*
D03*
X71024Y82024D02*
D03*
X72524D02*
D03*
X74024Y79024D02*
D03*
Y80524D02*
D03*
X71024Y83524D02*
D03*
X72524D02*
D03*
X75524Y79024D02*
D03*
Y80524D02*
D03*
X104624Y88224D02*
D03*
Y86724D02*
D03*
X103124D02*
D03*
Y88224D02*
D03*
X98624Y86724D02*
D03*
Y88224D02*
D03*
X100124D02*
D03*
Y86724D02*
D03*
X1496Y46019D02*
D03*
X-5376Y47216D02*
D03*
X71024Y79024D02*
D03*
X72524Y80524D02*
D03*
X94390Y90024D02*
D03*
X95890D02*
D03*
Y88524D02*
D03*
X122555Y55924D02*
D03*
X101624Y88224D02*
D03*
Y86724D02*
D03*
X64524Y133890D02*
D03*
X50024Y44555D02*
D03*
X1492Y53024D02*
D03*
X492Y79524D02*
D03*
Y81524D02*
D03*
Y93524D02*
D03*
Y91524D02*
D03*
Y83524D02*
D03*
Y85524D02*
D03*
X3712Y62824D02*
D03*
X1492Y39024D02*
D03*
Y32024D02*
D03*
X51622Y36838D02*
D03*
X120055Y27424D02*
D03*
Y32424D02*
D03*
X135555Y24924D02*
D03*
Y34924D02*
D03*
Y17924D02*
D03*
X122555D02*
D03*
X96224Y41228D02*
D03*
X88992Y4024D02*
D03*
X18606Y15724D02*
D03*
X74524Y-1476D02*
D03*
X37441Y48524D02*
D03*
X492Y87524D02*
D03*
Y89524D02*
D03*
X-1008Y87524D02*
D03*
Y89524D02*
D03*
X-7008D02*
D03*
Y87524D02*
D03*
X-8508Y89524D02*
D03*
Y87524D02*
D03*
X-10008Y89524D02*
D03*
Y87524D02*
D03*
X-11508Y89524D02*
D03*
Y87524D02*
D03*
X-14508Y89524D02*
D03*
X-13008Y87524D02*
D03*
X-14508D02*
D03*
X-13008Y89524D02*
D03*
X-12508Y84024D02*
D03*
X135555Y48924D02*
D03*
X66165Y16824D02*
D03*
X57155Y-14209D02*
D03*
X88055Y57524D02*
D03*
X74441Y54524D02*
D03*
X27024Y119169D02*
D03*
X1492Y25024D02*
D03*
X99424Y-13476D02*
D03*
X83082Y-14476D02*
D03*
X73455Y-13476D02*
D03*
X-7476Y32024D02*
D03*
X-4699Y16929D02*
D03*
X-6699D02*
D03*
X-8698D02*
D03*
X-10699D02*
D03*
X-12698D02*
D03*
X-14698D02*
D03*
X24824Y121669D02*
D03*
X53024Y134055D02*
D03*
X70024Y123024D02*
D03*
X72024Y125024D02*
D03*
X70024Y121024D02*
D03*
Y119024D02*
D03*
X72024Y121024D02*
D03*
X74024Y117024D02*
D03*
X72024D02*
D03*
X76024D02*
D03*
X80024D02*
D03*
X78024D02*
D03*
X82024D02*
D03*
Y119024D02*
D03*
X74024D02*
D03*
Y121024D02*
D03*
X78024Y119024D02*
D03*
X76024Y121024D02*
D03*
X74024Y123024D02*
D03*
X76024Y125024D02*
D03*
X74024D02*
D03*
X78024Y121024D02*
D03*
Y123024D02*
D03*
X82024Y121024D02*
D03*
X80024D02*
D03*
Y125024D02*
D03*
X78024D02*
D03*
X82024Y123024D02*
D03*
Y125024D02*
D03*
X91924Y123024D02*
D03*
X93924Y125024D02*
D03*
X91924Y121024D02*
D03*
X93924Y117024D02*
D03*
X97924D02*
D03*
X95924D02*
D03*
X91924Y119024D02*
D03*
X93924Y121024D02*
D03*
X95924Y119024D02*
D03*
Y121024D02*
D03*
X99924Y117024D02*
D03*
Y119024D02*
D03*
X103924Y117024D02*
D03*
X101924D02*
D03*
Y121024D02*
D03*
X97924D02*
D03*
X103924Y119024D02*
D03*
Y121024D02*
D03*
X99924D02*
D03*
X95924Y123024D02*
D03*
X103924D02*
D03*
X99924D02*
D03*
X97924Y125024D02*
D03*
X95924D02*
D03*
X103924D02*
D03*
X99924D02*
D03*
X101924D02*
D03*
X91924D02*
D03*
X70024D02*
D03*
X50523Y78536D02*
D03*
X5212Y62824D02*
D03*
X3712Y64324D02*
D03*
X5212D02*
D03*
X-2699Y16929D02*
D03*
X43524Y91024D02*
D03*
X-3945Y63524D02*
D03*
X-12508Y93024D02*
D03*
X109555Y55924D02*
D03*
X122555Y41924D02*
D03*
X109555D02*
D03*
X109555Y17924D02*
D03*
X-10699Y105118D02*
D03*
X-8698D02*
D03*
X-12698D02*
D03*
X-14698D02*
D03*
X-6699D02*
D03*
X-4699D02*
D03*
X-2699D02*
D03*
D48*
X37905Y-1476D02*
D03*
D51*
X76024Y54524D02*
D03*
M02*
