G04*
G04 #@! TF.GenerationSoftware,Altium Limited,Altium Designer,20.0.2 (26)*
G04*
G04 Layer_Color=32768*
%FSLAX25Y25*%
%MOIN*%
G70*
G01*
G75*
%ADD10C,0.01000*%
%ADD97C,0.00394*%
%ADD98C,0.00197*%
%ADD99C,0.00300*%
D10*
X5906Y143701D02*
G03*
X-21654Y116142I0J-27559D01*
G01*
X143701D02*
G03*
X116142Y143701I-27559J0D01*
G01*
X-21654Y5906D02*
G03*
X5906Y-21654I27559J0D01*
G01*
X116142D02*
G03*
X143701Y5906I0J27559D01*
G01*
D97*
X73055Y28024D02*
X76992D01*
X75024Y26055D02*
Y29992D01*
X58342Y117504D02*
X60705D01*
X58342Y101362D02*
X60705D01*
X59524Y100181D02*
Y102543D01*
X25842Y109543D02*
X28205D01*
X25842Y125685D02*
X28205D01*
X27024Y124504D02*
Y126866D01*
X22543Y36181D02*
Y55866D01*
X37504Y36181D02*
Y55866D01*
X22543Y36181D02*
X37504D01*
X22543Y55866D02*
X37504D01*
X30024Y44055D02*
Y47992D01*
X28055Y46024D02*
X31992D01*
X22543Y15181D02*
Y34866D01*
X37504Y15181D02*
Y34866D01*
X22543Y15181D02*
X37504D01*
X22543Y34866D02*
X37504D01*
X30024Y23055D02*
Y26992D01*
X28055Y25024D02*
X31992D01*
X68504Y51181D02*
Y70866D01*
X53543Y51181D02*
Y70866D01*
X68504D01*
X53543Y51181D02*
X68504D01*
X61024Y59055D02*
Y62992D01*
X59055Y61024D02*
X62992D01*
D98*
X108902Y66524D02*
G03*
X108902Y66524I-1378J0D01*
G01*
Y80524D02*
G03*
X108902Y80524I-1378J0D01*
G01*
Y94524D02*
G03*
X108902Y94524I-1378J0D01*
G01*
X112402Y70024D02*
G03*
X112402Y70024I-1378J0D01*
G01*
Y91024D02*
G03*
X112402Y91024I-1378J0D01*
G01*
X94402Y66524D02*
G03*
X94402Y66524I-1378J0D01*
G01*
Y94524D02*
G03*
X94402Y94524I-1378J0D01*
G01*
Y80524D02*
G03*
X94402Y80524I-1378J0D01*
G01*
X75802Y83024D02*
G03*
X75802Y83024I-1378J0D01*
G01*
X30402Y119024D02*
G03*
X30402Y119024I-1378J0D01*
G01*
X11402Y60024D02*
G03*
X11402Y60024I-1378J0D01*
G01*
Y67024D02*
G03*
X11402Y67024I-1378J0D01*
G01*
X95496Y7551D02*
Y48496D01*
X54551Y7551D02*
Y48496D01*
X95496D01*
X54551Y7551D02*
X95496D01*
X107524Y64555D02*
Y68492D01*
X105555Y66524D02*
X109492D01*
X107524Y78555D02*
Y82492D01*
X105555Y80524D02*
X109492D01*
X107524Y92555D02*
Y96492D01*
X105555Y94524D02*
X109492D01*
X109055Y70024D02*
X112992D01*
X111024Y68055D02*
Y71992D01*
X109055Y91024D02*
X112992D01*
X111024Y89055D02*
Y92992D01*
X93024Y64555D02*
Y68492D01*
X91055Y66524D02*
X94992D01*
X93024Y92555D02*
Y96492D01*
X91055Y94524D02*
X94992D01*
X93024Y78555D02*
Y82492D01*
X91055Y80524D02*
X94992D01*
X72455Y83024D02*
X76392D01*
X74424Y81055D02*
Y84992D01*
X29024Y117055D02*
Y120992D01*
X27055Y119024D02*
X30992D01*
X10024Y58055D02*
Y61992D01*
X8055Y60024D02*
X11992D01*
X10024Y65055D02*
Y68992D01*
X8055Y67024D02*
X11992D01*
D99*
X19024Y112024D02*
Y114024D01*
X18024Y113024D02*
X20024D01*
X9024Y84024D02*
X11024D01*
X10024Y83024D02*
Y85024D01*
X9024Y75024D02*
X11024D01*
X10024Y74024D02*
Y76024D01*
M02*
