G04*
G04 #@! TF.GenerationSoftware,Altium Limited,Altium Designer,20.0.2 (26)*
G04*
G04 Layer_Color=128*
%FSLAX25Y25*%
%MOIN*%
G70*
G01*
G75*
%ADD100C,0.00200*%
D100*
X-8383Y64324D02*
X-7183D01*
X-7783Y63724D02*
Y64924D01*
X32424Y65324D02*
X35224D01*
X33824Y63924D02*
Y66724D01*
X24687Y65148D02*
X27487D01*
X26087Y63748D02*
Y66548D01*
X32524Y81204D02*
X35324D01*
X33924Y79804D02*
Y82604D01*
X24697Y80913D02*
X27497D01*
X26097Y79513D02*
Y82313D01*
X-9376Y47424D02*
X-8176D01*
X-8776Y46824D02*
Y48024D01*
X-8076Y39024D02*
X-6876D01*
X-7476Y38424D02*
Y39624D01*
X36505Y-1476D02*
X39305D01*
X37905Y-2876D02*
Y-76D01*
X50624Y10148D02*
X53424D01*
X52024Y8748D02*
Y11548D01*
X73924Y38024D02*
X75124D01*
X74524Y37424D02*
Y38624D01*
X71523Y23147D02*
X72723D01*
X72123Y22547D02*
Y23747D01*
X69924Y33024D02*
X71124D01*
X70524Y32424D02*
Y33624D01*
X73525Y21179D02*
X74725D01*
X74125Y20579D02*
Y21779D01*
X71523Y19222D02*
X72723D01*
X72123Y18622D02*
Y19822D01*
X69478Y21135D02*
X70678D01*
X70078Y20535D02*
Y21734D01*
X65479Y27039D02*
X66679D01*
X66079Y26439D02*
Y27639D01*
X63479Y29008D02*
X64679D01*
X64079Y28408D02*
Y29608D01*
X67479Y19165D02*
X68679D01*
X68079Y18565D02*
Y19765D01*
X114924Y60524D02*
X116124D01*
X115524Y59924D02*
Y61124D01*
X114924Y62024D02*
X116124D01*
X115524Y61424D02*
Y62624D01*
X22424Y134055D02*
X23624D01*
X23024Y133455D02*
Y134655D01*
X70424Y80524D02*
X71624D01*
X71024Y79924D02*
Y81124D01*
X71924Y79024D02*
X73124D01*
X72524Y78424D02*
Y79624D01*
X70424Y82024D02*
X71624D01*
X71024Y81424D02*
Y82624D01*
X71924Y82024D02*
X73124D01*
X72524Y81424D02*
Y82624D01*
X73424Y79024D02*
X74624D01*
X74024Y78424D02*
Y79624D01*
X73424Y80524D02*
X74624D01*
X74024Y79924D02*
Y81124D01*
X70424Y83524D02*
X71624D01*
X71024Y82924D02*
Y84124D01*
X71924Y83524D02*
X73124D01*
X72524Y82924D02*
Y84124D01*
X74924Y79024D02*
X76124D01*
X75524Y78424D02*
Y79624D01*
X74924Y80524D02*
X76124D01*
X75524Y79924D02*
Y81124D01*
X122924Y61524D02*
X124124D01*
X123524Y60924D02*
Y62124D01*
X122924Y63024D02*
X124124D01*
X123524Y62424D02*
Y63624D01*
X124424Y63024D02*
X125624D01*
X125024Y62424D02*
Y63624D01*
X125924Y63024D02*
X127124D01*
X126524Y62424D02*
Y63624D01*
X124424Y61524D02*
X125624D01*
X125024Y60924D02*
Y62124D01*
X125924Y61524D02*
X127124D01*
X126524Y60924D02*
Y62124D01*
X135924Y61524D02*
X137124D01*
X136524Y60924D02*
Y62124D01*
X134424Y61524D02*
X135624D01*
X135024Y60924D02*
Y62124D01*
X135924Y63024D02*
X137124D01*
X136524Y62424D02*
Y63624D01*
X134424Y63024D02*
X135624D01*
X135024Y62424D02*
Y63624D01*
X132924Y63024D02*
X134124D01*
X133524Y62424D02*
Y63624D01*
X132924Y61524D02*
X134124D01*
X133524Y60924D02*
Y62124D01*
X95924Y19524D02*
X97124D01*
X96524Y18924D02*
Y20124D01*
X95924Y13524D02*
X97124D01*
X96524Y12924D02*
Y14124D01*
X98924Y12524D02*
X100124D01*
X99524Y11924D02*
Y13124D01*
X95424Y8024D02*
X96624D01*
X96024Y7424D02*
Y8624D01*
X95924Y16524D02*
X97124D01*
X96524Y15924D02*
Y17124D01*
X95624Y56583D02*
X96824D01*
X96224Y55983D02*
Y57183D01*
X132924Y105524D02*
X134124D01*
X133524Y104924D02*
Y106124D01*
X132924Y104024D02*
X134124D01*
X133524Y103424D02*
Y104624D01*
X134424Y104024D02*
X135624D01*
X135024Y103424D02*
Y104624D01*
X135924Y104024D02*
X137124D01*
X136524Y103424D02*
Y104624D01*
X134424Y105524D02*
X135624D01*
X135024Y104924D02*
Y106124D01*
X135924Y105524D02*
X137124D01*
X136524Y104924D02*
Y106124D01*
X125924Y105524D02*
X127124D01*
X126524Y104924D02*
Y106124D01*
X124424Y105524D02*
X125624D01*
X125024Y104924D02*
Y106124D01*
X125924Y104024D02*
X127124D01*
X126524Y103424D02*
Y104624D01*
X124424Y104024D02*
X125624D01*
X125024Y103424D02*
Y104624D01*
X122924Y104024D02*
X124124D01*
X123524Y103424D02*
Y104624D01*
X122924Y105524D02*
X124124D01*
X123524Y104924D02*
Y106124D01*
X117924Y62024D02*
X119124D01*
X118524Y61424D02*
Y62624D01*
X117924Y60524D02*
X119124D01*
X118524Y59924D02*
Y61124D01*
X116424Y60524D02*
X117624D01*
X117024Y59924D02*
Y61124D01*
X116424Y62024D02*
X117624D01*
X117024Y61424D02*
Y62624D01*
X104024Y88224D02*
X105224D01*
X104624Y87624D02*
Y88824D01*
X104024Y86724D02*
X105224D01*
X104624Y86124D02*
Y87324D01*
X102524Y86724D02*
X103724D01*
X103124Y86124D02*
Y87324D01*
X102524Y88224D02*
X103724D01*
X103124Y87624D02*
Y88824D01*
X98024Y86724D02*
X99224D01*
X98624Y86124D02*
Y87324D01*
X98024Y88224D02*
X99224D01*
X98624Y87624D02*
Y88824D01*
X99524Y88224D02*
X100724D01*
X100124Y87624D02*
Y88824D01*
X99524Y86724D02*
X100724D01*
X100124Y86124D02*
Y87324D01*
X896Y46019D02*
X2096D01*
X1496Y45419D02*
Y46619D01*
X-5976Y47216D02*
X-4776D01*
X-5376Y46617D02*
Y47817D01*
X70424Y79024D02*
X71624D01*
X71024Y78424D02*
Y79624D01*
X71924Y80524D02*
X73124D01*
X72524Y79924D02*
Y81124D01*
X93790Y90024D02*
X94990D01*
X94390Y89424D02*
Y90624D01*
X95290Y90024D02*
X96490D01*
X95890Y89424D02*
Y90624D01*
X95290Y88524D02*
X96490D01*
X95890Y87924D02*
Y89124D01*
X121955Y55924D02*
X123155D01*
X122555Y55324D02*
Y56524D01*
X101024Y88224D02*
X102224D01*
X101624Y87624D02*
Y88824D01*
X101024Y86724D02*
X102224D01*
X101624Y86124D02*
Y87324D01*
X59892Y86524D02*
X61092D01*
X60492Y85924D02*
Y87124D01*
X62924Y92324D02*
X64124D01*
X63524Y91724D02*
Y92924D01*
X81924Y103424D02*
X83124D01*
X82524Y102824D02*
Y104024D01*
X78924Y105424D02*
X80124D01*
X79524Y104824D02*
Y106024D01*
X81924Y101424D02*
X83124D01*
X82524Y100824D02*
Y102024D01*
X78924Y101424D02*
X80124D01*
X79524Y100824D02*
Y102024D01*
X81924Y105424D02*
X83124D01*
X82524Y104824D02*
Y106024D01*
X78924Y103424D02*
X80124D01*
X79524Y102824D02*
Y104024D01*
X124424Y72524D02*
X125624D01*
X125024Y71924D02*
Y73124D01*
X124424Y71024D02*
X125624D01*
X125024Y70424D02*
Y71624D01*
X125924Y72524D02*
X127124D01*
X126524Y71924D02*
Y73124D01*
X125924Y71024D02*
X127124D01*
X126524Y70424D02*
Y71624D01*
X122924Y71024D02*
X124124D01*
X123524Y70424D02*
Y71624D01*
X122924Y72524D02*
X124124D01*
X123524Y71924D02*
Y73124D01*
X103824Y105424D02*
X105024D01*
X104424Y104824D02*
Y106024D01*
X105824Y105424D02*
X107024D01*
X106424Y104824D02*
Y106024D01*
X105824Y103424D02*
X107024D01*
X106424Y102824D02*
Y104024D01*
X105824Y101424D02*
X107024D01*
X106424Y100824D02*
Y102024D01*
X103824Y101424D02*
X105024D01*
X104424Y100824D02*
Y102024D01*
X103824Y103424D02*
X105024D01*
X104424Y102824D02*
Y104024D01*
X83924Y105424D02*
X85124D01*
X84524Y104824D02*
Y106024D01*
X83924Y103424D02*
X85124D01*
X84524Y102824D02*
Y104024D01*
X83924Y101424D02*
X85124D01*
X84524Y100824D02*
Y102024D01*
X135924Y72524D02*
X137124D01*
X136524Y71924D02*
Y73124D01*
X134424Y72524D02*
X135624D01*
X135024Y71924D02*
Y73124D01*
X132924Y72524D02*
X134124D01*
X133524Y71924D02*
Y73124D01*
X132924Y71024D02*
X134124D01*
X133524Y70424D02*
Y71624D01*
X134424Y71024D02*
X135624D01*
X135024Y70424D02*
Y71624D01*
X135924Y71024D02*
X137124D01*
X136524Y70424D02*
Y71624D01*
X132924Y94524D02*
X134124D01*
X133524Y93924D02*
Y95124D01*
X134424Y94524D02*
X135624D01*
X135024Y93924D02*
Y95124D01*
X135924Y94524D02*
X137124D01*
X136524Y93924D02*
Y95124D01*
X135924Y96024D02*
X137124D01*
X136524Y95424D02*
Y96624D01*
X134424Y96024D02*
X135624D01*
X135024Y95424D02*
Y96624D01*
X132924Y96024D02*
X134124D01*
X133524Y95424D02*
Y96624D01*
X66924Y103424D02*
X68124D01*
X67524Y102824D02*
Y104024D01*
X66924Y101424D02*
X68124D01*
X67524Y100824D02*
Y102024D01*
X68924Y101424D02*
X70124D01*
X69524Y100824D02*
Y102024D01*
X68924Y103424D02*
X70124D01*
X69524Y102824D02*
Y104024D01*
X68924Y105424D02*
X70124D01*
X69524Y104824D02*
Y106024D01*
X66924Y105424D02*
X68124D01*
X67524Y104824D02*
Y106024D01*
X98824Y103424D02*
X100024D01*
X99424Y102824D02*
Y104024D01*
X98824Y101424D02*
X100024D01*
X99424Y100824D02*
Y102024D01*
X100824Y101424D02*
X102024D01*
X101424Y100824D02*
Y102024D01*
X100824Y103424D02*
X102024D01*
X101424Y102824D02*
Y104024D01*
X100824Y105424D02*
X102024D01*
X101424Y104824D02*
Y106024D01*
X98824Y105424D02*
X100024D01*
X99424Y104824D02*
Y106024D01*
X88824Y103424D02*
X90024D01*
X89424Y102824D02*
Y104024D01*
X88824Y101424D02*
X90024D01*
X89424Y100824D02*
Y102024D01*
X90824Y101424D02*
X92024D01*
X91424Y100824D02*
Y102024D01*
X90824Y103424D02*
X92024D01*
X91424Y102824D02*
Y104024D01*
X90824Y105424D02*
X92024D01*
X91424Y104824D02*
Y106024D01*
X88824Y105424D02*
X90024D01*
X89424Y104824D02*
Y106024D01*
X84924Y129724D02*
X86124D01*
X85524Y129124D02*
Y130324D01*
X79924Y134724D02*
X81124D01*
X80524Y134124D02*
Y135324D01*
X74924Y134724D02*
X76124D01*
X75524Y134124D02*
Y135324D01*
X63924Y133890D02*
X65124D01*
X64524Y133290D02*
Y134490D01*
X64424Y111024D02*
X65624D01*
X65024Y110424D02*
Y111624D01*
X59124Y129553D02*
X60324D01*
X59724Y128953D02*
Y130153D01*
X76924Y103424D02*
X78124D01*
X77524Y102824D02*
Y104024D01*
X76924Y101424D02*
X78124D01*
X77524Y100824D02*
Y102024D01*
X76924Y105424D02*
X78124D01*
X77524Y104824D02*
Y106024D01*
X54196Y104024D02*
X55396D01*
X54796Y103424D02*
Y104624D01*
X122924Y96024D02*
X124124D01*
X123524Y95424D02*
Y96624D01*
X124424Y96024D02*
X125624D01*
X125024Y95424D02*
Y96624D01*
X125924Y96024D02*
X127124D01*
X126524Y95424D02*
Y96624D01*
X125924Y94524D02*
X127124D01*
X126524Y93924D02*
Y95124D01*
X124424Y94524D02*
X125624D01*
X125024Y93924D02*
Y95124D01*
X122924Y94524D02*
X124124D01*
X123524Y93924D02*
Y95124D01*
X49424Y44555D02*
X50624D01*
X50024Y43955D02*
Y45155D01*
X81392Y64524D02*
X82592D01*
X81992Y63924D02*
Y65124D01*
X892Y53024D02*
X2092D01*
X1492Y52424D02*
Y53624D01*
X-108Y79524D02*
X1092D01*
X492Y78924D02*
Y80124D01*
X-108Y81524D02*
X1092D01*
X492Y80924D02*
Y82124D01*
X-108Y93524D02*
X1092D01*
X492Y92924D02*
Y94124D01*
X-108Y91524D02*
X1092D01*
X492Y90924D02*
Y92124D01*
X-108Y83524D02*
X1092D01*
X492Y82924D02*
Y84124D01*
X-108Y85524D02*
X1092D01*
X492Y84924D02*
Y86124D01*
X22924Y41024D02*
X24124D01*
X23524Y40424D02*
Y41624D01*
X36841Y43524D02*
X38041D01*
X37441Y42924D02*
Y44124D01*
X22006Y53524D02*
X23206D01*
X22606Y52924D02*
Y54124D01*
X62304Y82112D02*
X63504D01*
X62904Y81512D02*
Y82712D01*
X36841Y53524D02*
X38041D01*
X37441Y52924D02*
Y54124D01*
X66892Y-11976D02*
X68092D01*
X67492Y-12576D02*
Y-11376D01*
X3112Y62824D02*
X4312D01*
X3712Y62224D02*
Y63424D01*
X23524Y35624D02*
X24724D01*
X24124Y35024D02*
Y36224D01*
X892Y39024D02*
X2092D01*
X1492Y38424D02*
Y39624D01*
X892Y32024D02*
X2092D01*
X1492Y31424D02*
Y32624D01*
X51022Y36838D02*
X52222D01*
X51622Y36238D02*
Y37438D01*
X44841Y38524D02*
X46041D01*
X45441Y37924D02*
Y39124D01*
X71424Y6524D02*
X72624D01*
X72024Y5924D02*
Y7124D01*
X51924Y105994D02*
X53124D01*
X52524Y105394D02*
Y106594D01*
X96824Y132724D02*
X98024D01*
X97424Y132124D02*
Y133324D01*
X47924Y123524D02*
X49124D01*
X48524Y122924D02*
Y124124D01*
X119455Y27424D02*
X120655D01*
X120055Y26824D02*
Y28024D01*
X119455Y32424D02*
X120655D01*
X120055Y31824D02*
Y33024D01*
X134955Y24924D02*
X136155D01*
X135555Y24324D02*
Y25524D01*
X134955Y34924D02*
X136155D01*
X135555Y34324D02*
Y35524D01*
X134955Y17924D02*
X136155D01*
X135555Y17324D02*
Y18524D01*
X121955Y17924D02*
X123155D01*
X122555Y17324D02*
Y18524D01*
X54924Y44024D02*
X56124D01*
X55524Y43424D02*
Y44624D01*
X66924Y38024D02*
X68124D01*
X67524Y37424D02*
Y38624D01*
X63924Y38024D02*
X65124D01*
X64524Y37424D02*
Y38624D01*
X69924Y38024D02*
X71124D01*
X70524Y37424D02*
Y38624D01*
X43424Y75024D02*
X44624D01*
X44024Y74424D02*
Y75624D01*
X44841Y32524D02*
X46041D01*
X45441Y31924D02*
Y33124D01*
X98424Y7024D02*
X99624D01*
X99024Y6424D02*
Y7624D01*
X89424Y10024D02*
X90624D01*
X90024Y9424D02*
Y10624D01*
X92424Y9024D02*
X93624D01*
X93024Y8424D02*
Y9624D01*
X95624Y41228D02*
X96824D01*
X96224Y40628D02*
Y41828D01*
X106824Y132724D02*
X108024D01*
X107424Y132124D02*
Y133324D01*
X88392Y4024D02*
X89592D01*
X88992Y3424D02*
Y4624D01*
X104424Y5024D02*
X105624D01*
X105024Y4424D02*
Y5624D01*
X101424Y6024D02*
X102624D01*
X102024Y5424D02*
Y6624D01*
X101824Y132724D02*
X103024D01*
X102424Y132124D02*
Y133324D01*
X18006Y15724D02*
X19206D01*
X18606Y15124D02*
Y16324D01*
X73924Y-1476D02*
X75124D01*
X74524Y-2076D02*
Y-876D01*
X36841Y48524D02*
X38041D01*
X37441Y47924D02*
Y49124D01*
X42924Y82024D02*
X44124D01*
X43524Y81424D02*
Y82624D01*
X-108Y87524D02*
X1092D01*
X492Y86924D02*
Y88124D01*
X-108Y89524D02*
X1092D01*
X492Y88924D02*
Y90124D01*
X-1608Y87524D02*
X-408D01*
X-1008Y86924D02*
Y88124D01*
X-1608Y89524D02*
X-408D01*
X-1008Y88924D02*
Y90124D01*
X-7608Y89524D02*
X-6408D01*
X-7008Y88924D02*
Y90124D01*
X-7608Y87524D02*
X-6408D01*
X-7008Y86924D02*
Y88124D01*
X-9108Y89524D02*
X-7908D01*
X-8508Y88924D02*
Y90124D01*
X-9108Y87524D02*
X-7908D01*
X-8508Y86924D02*
Y88124D01*
X-10608Y89524D02*
X-9408D01*
X-10008Y88924D02*
Y90124D01*
X-10608Y87524D02*
X-9408D01*
X-10008Y86924D02*
Y88124D01*
X-12108Y89524D02*
X-10908D01*
X-11508Y88924D02*
Y90124D01*
X-12108Y87524D02*
X-10908D01*
X-11508Y86924D02*
Y88124D01*
X-15108Y89524D02*
X-13908D01*
X-14508Y88924D02*
Y90124D01*
X-13608Y87524D02*
X-12408D01*
X-13008Y86924D02*
Y88124D01*
X-15108Y87524D02*
X-13908D01*
X-14508Y86924D02*
Y88124D01*
X-13608Y89524D02*
X-12408D01*
X-13008Y88924D02*
Y90124D01*
X-13108Y84024D02*
X-11908D01*
X-12508Y83424D02*
Y84624D01*
X134955Y48924D02*
X136155D01*
X135555Y48324D02*
Y49524D01*
X93624Y43787D02*
X94824D01*
X94224Y43187D02*
Y44387D01*
X126392Y39424D02*
X127592D01*
X126992Y38824D02*
Y40024D01*
X126392Y27424D02*
X127592D01*
X126992Y26824D02*
Y28024D01*
X65565Y16824D02*
X66765D01*
X66165Y16224D02*
Y17424D01*
X56555Y-14209D02*
X57755D01*
X57155Y-14809D02*
Y-13609D01*
X58479Y9524D02*
X59679D01*
X59079Y8924D02*
Y10124D01*
X44841Y27524D02*
X46041D01*
X45441Y26924D02*
Y28124D01*
X53479Y34913D02*
X54679D01*
X54079Y34313D02*
Y35513D01*
X87455Y57524D02*
X88655D01*
X88055Y56924D02*
Y58124D01*
X48424Y38492D02*
X49624D01*
X49024Y37892D02*
Y39092D01*
X73841Y54524D02*
X75041D01*
X74441Y53924D02*
Y55124D01*
X54124Y129553D02*
X55324D01*
X54724Y128953D02*
Y130153D01*
X26424Y119169D02*
X27624D01*
X27024Y118569D02*
Y119769D01*
X892Y25024D02*
X2092D01*
X1492Y24424D02*
Y25624D01*
X46324Y136951D02*
X47524D01*
X46924Y136351D02*
Y137551D01*
X98824Y-13476D02*
X100024D01*
X99424Y-14076D02*
Y-12876D01*
X82482Y-14476D02*
X83682D01*
X83082Y-15076D02*
Y-13876D01*
X72855Y-13476D02*
X74055D01*
X73455Y-14076D02*
Y-12876D01*
X66924Y33024D02*
X68124D01*
X67524Y32424D02*
Y33624D01*
X47842Y24532D02*
X49042D01*
X48443Y23932D02*
Y25132D01*
X-8076Y32024D02*
X-6876D01*
X-7476Y31424D02*
Y32624D01*
X-5299Y16929D02*
X-4098D01*
X-4699Y16329D02*
Y17529D01*
X-7299Y16929D02*
X-6098D01*
X-6699Y16329D02*
Y17529D01*
X-9298Y16929D02*
X-8099D01*
X-8698Y16329D02*
Y17529D01*
X-11299Y16929D02*
X-10098D01*
X-10699Y16329D02*
Y17529D01*
X-13298Y16929D02*
X-12099D01*
X-12698Y16329D02*
Y17529D01*
X-15299Y16929D02*
X-14098D01*
X-14698Y16329D02*
Y17529D01*
X24224Y121669D02*
X25424D01*
X24824Y121069D02*
Y122269D01*
X52424Y134055D02*
X53624D01*
X53024Y133455D02*
Y134655D01*
X69424Y123024D02*
X70624D01*
X70024Y122424D02*
Y123624D01*
X71424Y125024D02*
X72624D01*
X72024Y124424D02*
Y125624D01*
X69424Y121024D02*
X70624D01*
X70024Y120424D02*
Y121624D01*
X69424Y119024D02*
X70624D01*
X70024Y118424D02*
Y119624D01*
X71424Y121024D02*
X72624D01*
X72024Y120424D02*
Y121624D01*
X73424Y117024D02*
X74624D01*
X74024Y116424D02*
Y117624D01*
X71424Y117024D02*
X72624D01*
X72024Y116424D02*
Y117624D01*
X75424Y117024D02*
X76624D01*
X76024Y116424D02*
Y117624D01*
X79424Y117024D02*
X80624D01*
X80024Y116424D02*
Y117624D01*
X77424Y117024D02*
X78624D01*
X78024Y116424D02*
Y117624D01*
X81424Y117024D02*
X82624D01*
X82024Y116424D02*
Y117624D01*
X81424Y119024D02*
X82624D01*
X82024Y118424D02*
Y119624D01*
X73424Y119024D02*
X74624D01*
X74024Y118424D02*
Y119624D01*
X73424Y121024D02*
X74624D01*
X74024Y120424D02*
Y121624D01*
X77424Y119024D02*
X78624D01*
X78024Y118424D02*
Y119624D01*
X75424Y121024D02*
X76624D01*
X76024Y120424D02*
Y121624D01*
X73424Y123024D02*
X74624D01*
X74024Y122424D02*
Y123624D01*
X75424Y125024D02*
X76624D01*
X76024Y124424D02*
Y125624D01*
X73424Y125024D02*
X74624D01*
X74024Y124424D02*
Y125624D01*
X77424Y121024D02*
X78624D01*
X78024Y120424D02*
Y121624D01*
X77424Y123024D02*
X78624D01*
X78024Y122424D02*
Y123624D01*
X81424Y121024D02*
X82624D01*
X82024Y120424D02*
Y121624D01*
X79424Y121024D02*
X80624D01*
X80024Y120424D02*
Y121624D01*
X79424Y125024D02*
X80624D01*
X80024Y124424D02*
Y125624D01*
X77424Y125024D02*
X78624D01*
X78024Y124424D02*
Y125624D01*
X81424Y123024D02*
X82624D01*
X82024Y122424D02*
Y123624D01*
X81424Y125024D02*
X82624D01*
X82024Y124424D02*
Y125624D01*
X91324Y123024D02*
X92524D01*
X91924Y122424D02*
Y123624D01*
X93324Y125024D02*
X94524D01*
X93924Y124424D02*
Y125624D01*
X91324Y121024D02*
X92524D01*
X91924Y120424D02*
Y121624D01*
X93324Y117024D02*
X94524D01*
X93924Y116424D02*
Y117624D01*
X97324Y117024D02*
X98524D01*
X97924Y116424D02*
Y117624D01*
X95324Y117024D02*
X96524D01*
X95924Y116424D02*
Y117624D01*
X91324Y119024D02*
X92524D01*
X91924Y118424D02*
Y119624D01*
X93324Y121024D02*
X94524D01*
X93924Y120424D02*
Y121624D01*
X95324Y119024D02*
X96524D01*
X95924Y118424D02*
Y119624D01*
X95324Y121024D02*
X96524D01*
X95924Y120424D02*
Y121624D01*
X99324Y117024D02*
X100524D01*
X99924Y116424D02*
Y117624D01*
X99324Y119024D02*
X100524D01*
X99924Y118424D02*
Y119624D01*
X103324Y117024D02*
X104524D01*
X103924Y116424D02*
Y117624D01*
X101324Y117024D02*
X102524D01*
X101924Y116424D02*
Y117624D01*
X101324Y121024D02*
X102524D01*
X101924Y120424D02*
Y121624D01*
X97324Y121024D02*
X98524D01*
X97924Y120424D02*
Y121624D01*
X103324Y119024D02*
X104524D01*
X103924Y118424D02*
Y119624D01*
X103324Y121024D02*
X104524D01*
X103924Y120424D02*
Y121624D01*
X99324Y121024D02*
X100524D01*
X99924Y120424D02*
Y121624D01*
X95324Y123024D02*
X96524D01*
X95924Y122424D02*
Y123624D01*
X103324Y123024D02*
X104524D01*
X103924Y122424D02*
Y123624D01*
X99324Y123024D02*
X100524D01*
X99924Y122424D02*
Y123624D01*
X97324Y125024D02*
X98524D01*
X97924Y124424D02*
Y125624D01*
X95324Y125024D02*
X96524D01*
X95924Y124424D02*
Y125624D01*
X103324Y125024D02*
X104524D01*
X103924Y124424D02*
Y125624D01*
X99324Y125024D02*
X100524D01*
X99924Y124424D02*
Y125624D01*
X101324Y125024D02*
X102524D01*
X101924Y124424D02*
Y125624D01*
X91324Y125024D02*
X92524D01*
X91924Y124424D02*
Y125624D01*
X69424Y125024D02*
X70624D01*
X70024Y124424D02*
Y125624D01*
X49923Y78536D02*
X51123D01*
X50523Y77936D02*
Y79136D01*
X63479Y19165D02*
X64679D01*
X64079Y18565D02*
Y19765D01*
X63479Y25071D02*
X64679D01*
X64079Y24471D02*
Y25671D01*
X93624Y48906D02*
X94824D01*
X94224Y48305D02*
Y49505D01*
X95624Y46346D02*
X96824D01*
X96224Y45746D02*
Y46946D01*
X65479Y21134D02*
X66679D01*
X66079Y20534D02*
Y21734D01*
X93624Y54024D02*
X94824D01*
X94224Y53424D02*
Y54624D01*
X95624Y51465D02*
X96824D01*
X96224Y50865D02*
Y52065D01*
X4612Y62824D02*
X5812D01*
X5212Y62224D02*
Y63424D01*
X3112Y64324D02*
X4312D01*
X3712Y63724D02*
Y64924D01*
X4612Y64324D02*
X5812D01*
X5212Y63724D02*
Y64924D01*
X-3299Y16929D02*
X-2098D01*
X-2699Y16329D02*
Y17529D01*
X61292Y77424D02*
X62492D01*
X61892Y76824D02*
Y78024D01*
X52124Y101594D02*
X53324D01*
X52724Y100994D02*
Y102194D01*
X42924Y91024D02*
X44124D01*
X43524Y90424D02*
Y91624D01*
X42924Y88024D02*
X44124D01*
X43524Y87424D02*
Y88624D01*
X-4545Y63524D02*
X-3345D01*
X-3945Y62924D02*
Y64124D01*
X-13108Y93024D02*
X-11908D01*
X-12508Y92424D02*
Y93624D01*
X108955Y55924D02*
X110155D01*
X109555Y55324D02*
Y56524D01*
X121955Y41924D02*
X123155D01*
X122555Y41324D02*
Y42524D01*
X108955Y41924D02*
X110155D01*
X109555Y41324D02*
Y42524D01*
X108955Y17924D02*
X110155D01*
X109555Y17324D02*
Y18524D01*
X42924Y96024D02*
X44124D01*
X43524Y95424D02*
Y96624D01*
X-11299Y105118D02*
X-10098D01*
X-10699Y104518D02*
Y105718D01*
X-9298Y105118D02*
X-8099D01*
X-8698Y104518D02*
Y105718D01*
X-13298Y105118D02*
X-12099D01*
X-12698Y104518D02*
Y105718D01*
X-15299Y105118D02*
X-14098D01*
X-14698Y104518D02*
Y105718D01*
X-7299Y105118D02*
X-6098D01*
X-6699Y104518D02*
Y105718D01*
X-5299Y105118D02*
X-4098D01*
X-4699Y104518D02*
Y105718D01*
X-3299Y105118D02*
X-2098D01*
X-2699Y104518D02*
Y105718D01*
X116142Y122047D02*
X127953D01*
X122047Y116142D02*
Y127953D01*
X116142Y0D02*
X127953D01*
X122047Y-5906D02*
Y5906D01*
X-5906Y0D02*
X5906D01*
X0Y-5906D02*
Y5906D01*
X-5906Y122047D02*
X5906D01*
X0Y116142D02*
Y127953D01*
M02*
