G04*
G04 #@! TF.GenerationSoftware,Altium Limited,Altium Designer,20.0.2 (26)*
G04*
G04 Layer_Physical_Order=4*
G04 Layer_Color=16711680*
%FSLAX25Y25*%
%MOIN*%
G70*
G01*
G75*
%ADD10C,0.01000*%
%ADD11C,0.00600*%
%ADD25R,0.06000X0.10000*%
%ADD47C,0.02400*%
%ADD48C,0.05000*%
%ADD49C,0.23622*%
%ADD50C,0.02000*%
%ADD52R,0.02559X0.04528*%
%ADD53O,0.07087X0.01181*%
%ADD54O,0.01181X0.07087*%
%ADD55R,0.07087X0.04449*%
%ADD56R,0.03661X0.03858*%
%ADD57R,0.15748X0.11810*%
%ADD58O,0.02362X0.07079*%
%ADD59R,0.03268X0.03937*%
%ADD60R,0.06500X0.05000*%
%ADD61R,0.03858X0.03661*%
%ADD62R,0.04331X0.02362*%
%ADD63R,0.04000X0.05500*%
%ADD64R,0.04449X0.07087*%
%ADD65O,0.06496X0.02362*%
%ADD66R,0.06496X0.02362*%
%ADD67R,0.03937X0.03150*%
G04:AMPARAMS|DCode=68|XSize=39.37mil|YSize=31.5mil|CornerRadius=0mil|HoleSize=0mil|Usage=FLASHONLY|Rotation=0.000|XOffset=0mil|YOffset=0mil|HoleType=Round|Shape=Octagon|*
%AMOCTAGOND68*
4,1,8,0.01968,-0.00787,0.01968,0.00787,0.01181,0.01575,-0.01181,0.01575,-0.01968,0.00787,-0.01968,-0.00787,-0.01181,-0.01575,0.01181,-0.01575,0.01968,-0.00787,0.0*
%
%ADD68OCTAGOND68*%

%ADD69R,0.04567X0.05787*%
%ADD70R,0.04528X0.05512*%
%ADD71C,0.03000*%
%ADD72C,0.04000*%
%ADD73R,0.03996X0.10200*%
G36*
X106624Y106924D02*
X106924Y106624D01*
X112190Y106624D01*
X118124Y100690D01*
X118124Y65724D01*
X119724Y64124D01*
Y60024D01*
X119024Y59324D01*
X113024Y59324D01*
X111024Y61324D01*
Y61424D01*
X110224D01*
X110224Y96424D01*
X106424Y100224D01*
X103924D01*
X103224Y100924D01*
X103224Y105924D01*
X103924Y106624D01*
X103924D01*
X104224Y106924D01*
Y109324D01*
X106624D01*
Y106924D01*
D02*
G37*
G36*
X101624D02*
X102624Y105924D01*
Y100924D01*
X101924Y100224D01*
X98924D01*
X98224Y100924D01*
Y105924D01*
X99224Y106924D01*
Y109324D01*
X101624D01*
Y106924D01*
D02*
G37*
G36*
X91624D02*
X92624Y105924D01*
Y100924D01*
X91924Y100224D01*
X88924D01*
X88224Y100924D01*
Y105924D01*
X89224Y106924D01*
Y109324D01*
X91624D01*
Y106924D01*
D02*
G37*
G36*
X84724D02*
X85724Y105924D01*
Y100924D01*
X85024Y100224D01*
X82024D01*
X81324Y100924D01*
Y105924D01*
X82324Y106924D01*
Y109324D01*
X84724D01*
Y106924D01*
D02*
G37*
G36*
X79724D02*
X80724Y105924D01*
Y100924D01*
X80024Y100224D01*
X77024D01*
X76324Y100924D01*
Y105924D01*
X77324Y106924D01*
Y109324D01*
X79724D01*
Y106924D01*
D02*
G37*
G36*
X69724D02*
X70724Y105924D01*
Y100924D01*
X70024Y100224D01*
X67024D01*
X66324Y100924D01*
Y105924D01*
X67324Y106924D01*
Y109324D01*
X69724D01*
Y106924D01*
D02*
G37*
G36*
X106124Y98224D02*
X106124Y62771D01*
X104876Y61524D01*
X93024Y61524D01*
X93024Y69024D01*
X91224Y70824D01*
X81200Y70824D01*
X79100Y72924D01*
X70724Y72924D01*
X70724Y77623D01*
X69824Y78524D01*
X69824Y89556D01*
X71991Y91724D01*
X94968D01*
X98224Y94979D01*
X98224Y99524D01*
X104824D01*
X106124Y98224D01*
D02*
G37*
D10*
X123690Y38524D02*
X126992Y41825D01*
X-10717Y47216D02*
X-9937Y46437D01*
Y45332D02*
Y46437D01*
X49606Y68524D02*
X51825D01*
X47539D02*
X49606D01*
X-3945Y32024D02*
Y39024D01*
X72123Y23147D02*
X74047Y25071D01*
X43492Y91024D02*
X45591D01*
X47492Y89122D01*
X21824Y35624D02*
X24124D01*
X18606Y38524D02*
X20065D01*
X20694Y37894D01*
Y36753D02*
Y37894D01*
Y36753D02*
X21824Y35624D01*
X66555Y75122D02*
X67886Y76453D01*
X68453D01*
X66555Y75024D02*
Y75122D01*
X68453Y76453D02*
X71024Y79024D01*
Y79024D01*
X44554Y61510D02*
X47539Y58524D01*
X44554Y65538D02*
X47539Y68524D01*
X44554Y61510D02*
Y65538D01*
X54738Y71436D02*
X78501D01*
X51825Y68524D02*
X54738Y71436D01*
X100992Y41924D02*
Y42022D01*
X99661Y43353D02*
X100992Y42022D01*
X99563Y43353D02*
X99661D01*
X99128Y43787D02*
X99563Y43353D01*
X94224Y43787D02*
X99128D01*
X88055Y54122D02*
X89386Y55453D01*
X88026Y54093D02*
X88055Y54122D01*
Y57524D02*
Y61024D01*
Y54122D02*
Y57524D01*
Y54024D02*
Y54122D01*
X88026Y53896D02*
Y54093D01*
X78501Y71436D02*
X81913Y68024D01*
X81992Y64524D02*
Y68024D01*
Y61024D02*
Y64524D01*
X86568Y52595D02*
X86724D01*
X83916Y49943D02*
X86568Y52595D01*
X86724D02*
X88026Y53896D01*
X83916Y44003D02*
Y49943D01*
X88055Y61024D02*
Y68024D01*
X83882Y43968D02*
X83916Y44003D01*
X59524Y133890D02*
X64524D01*
X65224Y97453D02*
X66555Y96122D01*
Y96024D02*
Y96122D01*
X10055Y39024D02*
Y45925D01*
X5754Y57424D02*
X10055Y53122D01*
Y32024D02*
Y39024D01*
X-6976Y58203D02*
X-6197Y57424D01*
X-6976Y58203D02*
Y58831D01*
X-6197Y57424D02*
X5754D01*
X86055Y4024D02*
X88992D01*
X85386Y3453D02*
X85484D01*
X86055Y4024D01*
X84055Y2024D02*
Y2122D01*
X85386Y3453D01*
X66555Y81925D02*
Y82024D01*
X62054Y77424D02*
X66555Y81925D01*
X61892Y77424D02*
X62054D01*
X66165Y12079D02*
Y16824D01*
Y11824D02*
Y12079D01*
X90969Y38850D02*
Y40532D01*
X94224Y43787D01*
X85850Y43871D02*
Y43968D01*
Y43871D02*
X85934Y43787D01*
X94224D01*
X126992Y41924D02*
Y48924D01*
X126992Y48924D01*
X74047Y25071D02*
X90969D01*
X60124Y-7009D02*
X64992Y-11878D01*
X60124Y-7009D02*
Y5053D01*
X64197Y9126D02*
Y12079D01*
X60124Y5053D02*
X64197Y9126D01*
X56126Y38850D02*
X59079D01*
X53984Y40992D02*
X56126Y38850D01*
X50024Y40992D02*
X53984D01*
X59044Y38885D02*
X59079Y38850D01*
X66555Y89024D02*
Y96024D01*
Y82024D02*
Y89024D01*
X47539Y58524D02*
X49606D01*
X-5276Y40354D02*
Y40671D01*
X-9937Y45332D02*
X-5276Y40671D01*
X20524Y134055D02*
X28024D01*
X-5276Y40354D02*
X-3945Y39024D01*
X71055Y-12075D02*
Y-11976D01*
X84055Y-12075D02*
Y-11976D01*
X47492Y89024D02*
Y89122D01*
X113992Y41825D02*
X117294Y38524D01*
X126992Y41825D02*
Y41924D01*
X117294Y38524D02*
X123690D01*
X84055Y-12075D02*
X85386Y-13406D01*
X97055Y-12075D02*
Y-11976D01*
X100992Y41825D02*
X104294Y38524D01*
X110592D02*
X112563Y40494D01*
X104294Y38524D02*
X110592D01*
X100992Y41825D02*
Y41924D01*
X113992Y41825D02*
Y41924D01*
X112661Y40494D02*
X113992Y41825D01*
X112563Y40494D02*
X112661D01*
X10055Y31925D02*
Y32024D01*
X7124Y28994D02*
X10055Y31925D01*
X7124Y21254D02*
Y28994D01*
X3992Y18024D02*
Y18122D01*
X7124Y21254D01*
X10055Y32024D02*
X10555Y32524D01*
X18606D01*
X10055Y46024D02*
Y53024D01*
X97055Y2024D02*
X97055Y2024D01*
X84055Y-5075D02*
Y-4976D01*
X89528Y-10547D02*
X89661D01*
X90992Y-11878D01*
X77992Y-11976D02*
X77992Y-11976D01*
X90992Y-4976D02*
Y-4878D01*
X89661Y-3547D02*
X90992Y-4878D01*
X89563Y-3547D02*
X89661D01*
X77992Y1925D02*
Y2024D01*
X10055Y53024D02*
Y53122D01*
D11*
X26087Y65148D02*
Y65276D01*
Y50587D02*
Y65148D01*
X38724Y58981D02*
Y82324D01*
X72009Y38309D02*
X74039Y40339D01*
Y43968D02*
X74039Y43968D01*
X74039Y40339D02*
Y43968D01*
X74524Y38024D02*
X76008Y39508D01*
Y43968D01*
X70809Y38309D02*
X72009D01*
X70524Y38024D02*
X70809Y38309D01*
X74125Y21179D02*
X75924D01*
X79945Y12079D02*
Y17159D01*
X75924Y21179D02*
X79945Y17159D01*
X75425Y19222D02*
X77976Y16671D01*
X72123Y19222D02*
X75425D01*
X77976Y12079D02*
Y16671D01*
X71336Y17322D02*
X75025D01*
X76008Y16339D01*
X70078Y18580D02*
X71336Y17322D01*
X70922Y16322D02*
X72749D01*
X74039Y15032D01*
X70078Y18580D02*
Y21135D01*
X68079Y19165D02*
X70922Y16322D01*
X74039Y12079D02*
Y15032D01*
X76008Y12079D02*
Y16339D01*
X59079Y27039D02*
X66079D01*
X59079Y29008D02*
X64079D01*
X118524Y60524D02*
X119824Y59224D01*
X129853D02*
X133055Y56022D01*
X119824Y59224D02*
X129853D01*
X43724Y22524D02*
X45441Y24241D01*
Y27524D01*
X41441Y22524D02*
X43724D01*
X68134Y55884D02*
X70774Y58524D01*
X68134Y43968D02*
Y55884D01*
X70774Y58524D02*
X72441D01*
X52574Y52643D02*
X55993Y49224D01*
X65224D02*
X66165Y48282D01*
X55993Y49224D02*
X65224D01*
X50487Y52643D02*
X52574D01*
X49606Y53524D02*
X50487Y52643D01*
X90969Y17197D02*
X90969Y17197D01*
X90969Y11275D02*
Y17197D01*
X90024Y10330D02*
X90969Y11275D01*
X90024Y10024D02*
Y10330D01*
X97924Y14924D02*
X110992D01*
X96524Y13524D02*
X97924Y14924D01*
X101024Y13924D02*
X122992D01*
X100024Y12924D02*
X101024Y13924D01*
X90969Y21134D02*
X94913D01*
X96524Y19524D01*
Y19524D02*
Y19524D01*
X95102Y7102D02*
X96024Y8024D01*
X98220Y20824D02*
X122892D01*
X125363Y23294D01*
X125461D02*
X126992Y24825D01*
X125363Y23294D02*
X125461D01*
X126992Y24825D02*
Y24924D01*
X123524Y23155D02*
Y31357D01*
X98634Y21824D02*
X122192D01*
X123524Y23155D01*
X95941Y23102D02*
X98220Y20824D01*
X97224Y23234D02*
X98634Y21824D01*
X90969Y23102D02*
X95941D01*
X97224Y23234D02*
Y25424D01*
X97224Y30124D02*
X103182D01*
X91080Y30865D02*
X96482D01*
X97224Y30124D01*
X104857Y31798D02*
X105209D01*
X103182Y30124D02*
X104857Y31798D01*
X105209D02*
X107173Y33762D01*
Y34254D01*
X103267Y28049D02*
X105095Y29876D01*
X102838Y28049D02*
X103267D01*
X105095Y29876D02*
X112621D01*
X113992Y28505D01*
Y24924D02*
Y28505D01*
X100874Y26085D02*
X102838Y28049D01*
X90969Y30976D02*
X91080Y30865D01*
X100874Y25593D02*
Y26085D01*
X90969Y29008D02*
X97951D01*
X100874Y26085D01*
X97024Y16524D02*
X99592D01*
X100992Y17924D01*
X99653Y3653D02*
X102024Y6024D01*
X98586Y3653D02*
X99653D01*
X97055Y2024D02*
Y2122D01*
X98586Y3653D01*
X100228Y228D02*
X105024Y5024D01*
X100228Y-7576D02*
Y228D01*
X84937Y6102D02*
X98102D01*
X99024Y7024D01*
X85905Y7102D02*
X95102D01*
X92102Y8102D02*
X93024Y9024D01*
X86935Y8102D02*
X92102D01*
X103555Y45424D02*
X105426Y47295D01*
X96224Y46346D02*
X96552D01*
X97475Y45424D01*
X103555D01*
X100974Y48906D02*
X100992Y48924D01*
X94224Y48906D02*
X100974D01*
X115955Y53024D02*
X118426Y50553D01*
X98146Y53024D02*
X115955D01*
X94224Y54024D02*
X97146D01*
X98146Y53024D01*
X96568Y51809D02*
X97360D01*
X96224Y51465D02*
X96568Y51809D01*
X97360D02*
X97475Y51924D01*
X110992D01*
X100333Y56583D02*
X100992Y55924D01*
X96224Y56583D02*
X100333D01*
X133055Y55924D02*
Y56022D01*
X110992Y51924D02*
X112363Y50553D01*
X126992Y55825D02*
Y55924D01*
X123591Y52424D02*
X126992Y55825D01*
X118594Y52424D02*
X123591D01*
X113992Y55825D02*
Y55924D01*
Y55825D02*
X115523Y54295D01*
X116723D01*
X118594Y52424D01*
X118426Y50553D02*
X118524D01*
X100992Y56022D02*
X104004Y59034D01*
X110882D02*
X112363Y57553D01*
X104004Y59034D02*
X110882D01*
X113232Y64524D02*
Y66524D01*
X126992Y55924D02*
Y56022D01*
X125461Y57553D02*
X126992Y56022D01*
X113992D02*
X115523Y57553D01*
X115390Y62705D02*
Y64024D01*
X58579Y92324D02*
X63524D01*
X57079Y90824D02*
X58579Y92324D01*
X57079Y78646D02*
Y90824D01*
X74524Y68524D02*
X78824Y64224D01*
X75925Y49324D02*
X78824Y52222D01*
Y64224D01*
X75511Y50324D02*
X77824Y52636D01*
Y60424D01*
X74724Y63524D02*
X77824Y60424D01*
X73269Y49324D02*
X75925D01*
X72324Y50324D02*
X75511D01*
X77976Y47875D02*
X81724Y51622D01*
Y53024D02*
X81992Y53292D01*
X81724Y51622D02*
Y53024D01*
X77976Y43968D02*
Y47875D01*
X58961Y97554D02*
Y97653D01*
X54796Y104024D02*
X60318Y98501D01*
X58961Y97554D02*
X60492Y96024D01*
X60318Y96197D02*
X60492Y96024D01*
X60318Y96197D02*
Y98501D01*
X44024Y75024D02*
X47492D01*
X112363Y57553D02*
X112461D01*
X113992Y56022D01*
X15055Y41024D02*
X23524D01*
X10055Y45925D02*
Y46024D01*
Y45925D02*
X11586Y44394D01*
X11684D01*
X15055Y41024D01*
X24524Y47609D02*
X33961Y57046D01*
X24524Y45504D02*
Y47609D01*
X22543Y43524D02*
X24524Y45504D01*
X26024Y30779D02*
Y47695D01*
X22768Y27524D02*
X26024Y30779D01*
X18606Y27524D02*
X22768D01*
X26024Y47695D02*
X37724Y59395D01*
X27024Y26779D02*
Y47281D01*
X22768Y22524D02*
X27024Y26779D01*
X18606Y22524D02*
X22768D01*
X27024Y47281D02*
X38724Y58981D01*
X59057Y36860D02*
X59079Y36882D01*
X51644Y36860D02*
X59057D01*
X51622Y36838D02*
X51644Y36860D01*
X72071Y6079D02*
Y12079D01*
X61424Y-1309D02*
Y3627D01*
X66165Y43968D02*
Y48282D01*
X125461Y16295D02*
X126992Y17825D01*
X122992Y13924D02*
X125363Y16295D01*
X125461D01*
X55524Y44024D02*
X64142D01*
X64197Y43968D01*
Y43326D02*
Y43968D01*
X80742Y34913D02*
X90969D01*
X76952Y31124D02*
X80742Y34913D01*
X69424Y31124D02*
X76952D01*
X67524Y33024D02*
X69424Y31124D01*
X77438Y33024D02*
X81296Y36882D01*
X70524Y33024D02*
X77438D01*
X64524Y38024D02*
X67424Y35124D01*
X67524Y38024D02*
X69424Y36124D01*
X77709D01*
X24024Y48524D02*
X26087Y50587D01*
X18606Y48524D02*
X24024D01*
X37724Y59395D02*
Y77261D01*
X33961Y57046D02*
Y65276D01*
X14457Y22524D02*
X18606D01*
X12555Y27524D02*
X18606D01*
X99228Y-8576D02*
X100228Y-7576D01*
X94392Y-8576D02*
X99228D01*
X90992Y-11976D02*
Y-11878D01*
X92523Y-10347D01*
X92621D01*
X94392Y-8576D01*
X81913Y9126D02*
Y12079D01*
Y9126D02*
X84937Y6102D01*
X83882Y9126D02*
Y12079D01*
Y9126D02*
X85905Y7102D01*
X85850Y9187D02*
Y12079D01*
Y9187D02*
X86935Y8102D01*
X43992Y82024D02*
X47492D01*
X5425Y84122D02*
X5524Y84024D01*
X110992Y14924D02*
X112363Y16295D01*
X128523Y36454D02*
Y36884D01*
X131524Y39885D01*
Y40393D01*
X133055Y41924D01*
X66122Y12122D02*
X66165Y12079D01*
X61424Y3627D02*
X63421Y5624D01*
X65624D02*
X68134Y8134D01*
X63421Y5624D02*
X65624D01*
X61424Y-1309D02*
X64992Y-4878D01*
X59079Y9524D02*
Y17197D01*
X59079Y17197D01*
X58969Y34913D02*
X59024Y34969D01*
X59079Y34913D01*
X54079D02*
X58969D01*
X52894Y101424D02*
X54523D01*
X57079Y92646D02*
Y98869D01*
X54523Y101424D02*
X57079Y98869D01*
X52724Y101594D02*
X52894Y101424D01*
X81913Y38913D02*
Y43968D01*
X67424Y35124D02*
X78124D01*
X81913Y38913D01*
X79945Y38359D02*
Y43968D01*
X77709Y36124D02*
X79945Y38359D01*
X81296Y36882D02*
X90969D01*
X41441Y17524D02*
X43508D01*
X48416Y22432D01*
Y24505D01*
X48443Y24532D01*
X9224Y69135D02*
X15535Y62824D01*
Y60024D02*
Y62824D01*
X9224Y69135D02*
Y89710D01*
X6520Y92413D02*
X9224Y89710D01*
X70102Y48102D02*
X72324Y50324D01*
X72071Y48126D02*
X73269Y49324D01*
X70102Y43968D02*
Y48102D01*
X72071Y43968D02*
Y48126D01*
X14524Y83312D02*
Y84024D01*
Y83312D02*
X16224Y81612D01*
X59079Y23102D02*
X64110D01*
X66079Y21134D01*
Y21134D02*
Y21134D01*
X64992Y2024D02*
X66523Y3554D01*
Y4523D02*
X70102Y8102D01*
X66523Y3554D02*
Y4523D01*
X70102Y8102D02*
Y12079D01*
X68134Y8134D02*
Y12079D01*
X59079Y19165D02*
X64079D01*
X59079Y25071D02*
X64079D01*
X53555Y89122D02*
X57079Y92646D01*
X53555Y89024D02*
Y89122D01*
Y75024D02*
Y75122D01*
X57079Y78646D01*
X126992Y34924D02*
X128523Y36454D01*
X53555Y82024D02*
Y82122D01*
X50054Y85624D02*
X53555Y82122D01*
X45224Y85624D02*
X50054D01*
X43524Y87324D02*
X45224Y85624D01*
X53555Y96024D02*
Y96122D01*
X43524Y96024D02*
X47492D01*
X100992Y55924D02*
Y56022D01*
X113992Y55924D02*
Y56022D01*
X126992Y17825D02*
Y17924D01*
X113992Y17825D02*
Y17924D01*
X112461Y16295D02*
X113992Y17825D01*
X112363Y16295D02*
X112461D01*
X95608Y27039D02*
X97224Y25424D01*
X107173Y34254D02*
X113323D01*
X113992Y34924D01*
X13528Y93024D02*
X13728Y92824D01*
X6520Y92413D02*
Y93024D01*
X10055Y25024D02*
Y25122D01*
X11586Y26653D01*
X11684D01*
X12555Y27524D01*
X10055Y18024D02*
Y18122D01*
X14457Y22524D01*
X126992Y34825D02*
Y34924D01*
X123524Y31357D02*
X126992Y34825D01*
X90969Y27039D02*
X95608D01*
X64992Y-4976D02*
Y-4878D01*
X97055Y-4976D02*
Y2024D01*
X84055Y-5075D02*
X89528Y-10547D01*
X77992Y-11976D02*
Y-4976D01*
X71055D02*
X77992D01*
X87492Y-1476D02*
X89563Y-3547D01*
X77992Y1925D02*
X81394Y-1476D01*
X87492D01*
X71055Y2024D02*
X77992D01*
X120055Y48924D02*
Y49022D01*
X118524Y50553D02*
X120055Y49022D01*
X113992Y48924D02*
Y49022D01*
X112461Y50553D02*
X113992Y49022D01*
X112363Y50553D02*
X112461D01*
X107055Y48825D02*
Y48924D01*
X105524Y47295D02*
X107055Y48825D01*
X105426Y47295D02*
X105524D01*
X18606Y43524D02*
X22543D01*
X36124Y84924D02*
X38724Y82324D01*
X33961Y81024D02*
X37724Y77261D01*
X26087Y81024D02*
X29987Y84924D01*
X36124D01*
X72441Y63524D02*
X74724D01*
X72441Y68524D02*
X74524D01*
D25*
X113232Y66524D02*
D03*
X101815D02*
D03*
X113232Y80524D02*
D03*
X101815D02*
D03*
X113232Y94524D02*
D03*
X101815D02*
D03*
D47*
X-7783Y64324D02*
D03*
X-8776Y47424D02*
D03*
X-7476Y39024D02*
D03*
X74524Y38024D02*
D03*
X72123Y23147D02*
D03*
X70524Y33024D02*
D03*
X74125Y21179D02*
D03*
X72123Y19222D02*
D03*
X70078Y21135D02*
D03*
X66079Y27039D02*
D03*
X64079Y29008D02*
D03*
X68079Y19165D02*
D03*
X115524Y60524D02*
D03*
Y62024D02*
D03*
X23024Y134055D02*
D03*
X71024Y80524D02*
D03*
X72524Y79024D02*
D03*
X71024Y82024D02*
D03*
X72524D02*
D03*
X74024Y79024D02*
D03*
Y80524D02*
D03*
X71024Y83524D02*
D03*
X72524D02*
D03*
X75524Y79024D02*
D03*
Y80524D02*
D03*
X123524Y61524D02*
D03*
Y63024D02*
D03*
X125024D02*
D03*
X126524D02*
D03*
X125024Y61524D02*
D03*
X126524D02*
D03*
X136524D02*
D03*
X135024D02*
D03*
X136524Y63024D02*
D03*
X135024D02*
D03*
X133524D02*
D03*
Y61524D02*
D03*
X96524Y19524D02*
D03*
Y13524D02*
D03*
X99524Y12524D02*
D03*
X96024Y8024D02*
D03*
X96524Y16524D02*
D03*
X96224Y56583D02*
D03*
X133524Y105524D02*
D03*
Y104024D02*
D03*
X135024D02*
D03*
X136524D02*
D03*
X135024Y105524D02*
D03*
X136524D02*
D03*
X126524D02*
D03*
X125024D02*
D03*
X126524Y104024D02*
D03*
X125024D02*
D03*
X123524D02*
D03*
Y105524D02*
D03*
X118524Y62024D02*
D03*
Y60524D02*
D03*
X117024D02*
D03*
Y62024D02*
D03*
X104624Y88224D02*
D03*
Y86724D02*
D03*
X103124D02*
D03*
Y88224D02*
D03*
X98624Y86724D02*
D03*
Y88224D02*
D03*
X100124D02*
D03*
Y86724D02*
D03*
X1496Y46019D02*
D03*
X-5376Y47216D02*
D03*
X71024Y79024D02*
D03*
X72524Y80524D02*
D03*
X94390Y90024D02*
D03*
X95890D02*
D03*
Y88524D02*
D03*
X122555Y55924D02*
D03*
X101624Y88224D02*
D03*
Y86724D02*
D03*
X60492Y86524D02*
D03*
X63524Y92324D02*
D03*
X82524Y103424D02*
D03*
X79524Y105424D02*
D03*
X82524Y101424D02*
D03*
X79524D02*
D03*
X82524Y105424D02*
D03*
X79524Y103424D02*
D03*
X125024Y72524D02*
D03*
Y71024D02*
D03*
X126524Y72524D02*
D03*
Y71024D02*
D03*
X123524D02*
D03*
Y72524D02*
D03*
X104424Y105424D02*
D03*
X106424D02*
D03*
Y103424D02*
D03*
Y101424D02*
D03*
X104424D02*
D03*
Y103424D02*
D03*
X84524Y105424D02*
D03*
Y103424D02*
D03*
Y101424D02*
D03*
X136524Y72524D02*
D03*
X135024D02*
D03*
X133524D02*
D03*
Y71024D02*
D03*
X135024D02*
D03*
X136524D02*
D03*
X133524Y94524D02*
D03*
X135024D02*
D03*
X136524D02*
D03*
Y96024D02*
D03*
X135024D02*
D03*
X133524D02*
D03*
X67524Y103424D02*
D03*
Y101424D02*
D03*
X69524D02*
D03*
Y103424D02*
D03*
Y105424D02*
D03*
X67524D02*
D03*
X99424Y103424D02*
D03*
Y101424D02*
D03*
X101424D02*
D03*
Y103424D02*
D03*
Y105424D02*
D03*
X99424D02*
D03*
X89424Y103424D02*
D03*
Y101424D02*
D03*
X91424D02*
D03*
Y103424D02*
D03*
Y105424D02*
D03*
X89424D02*
D03*
X85524Y129724D02*
D03*
X80524Y134724D02*
D03*
X75524D02*
D03*
X64524Y133890D02*
D03*
X65024Y111024D02*
D03*
X59724Y129553D02*
D03*
X77524Y103424D02*
D03*
Y101424D02*
D03*
Y105424D02*
D03*
X54796Y104024D02*
D03*
X123524Y96024D02*
D03*
X125024D02*
D03*
X126524D02*
D03*
Y94524D02*
D03*
X125024D02*
D03*
X123524D02*
D03*
X50024Y44555D02*
D03*
X81992Y64524D02*
D03*
X1492Y53024D02*
D03*
X492Y79524D02*
D03*
Y81524D02*
D03*
Y93524D02*
D03*
Y91524D02*
D03*
Y83524D02*
D03*
Y85524D02*
D03*
X23524Y41024D02*
D03*
X37441Y43524D02*
D03*
X22606Y53524D02*
D03*
X62904Y82112D02*
D03*
X37441Y53524D02*
D03*
X67492Y-11976D02*
D03*
X3712Y62824D02*
D03*
X24124Y35624D02*
D03*
X1492Y39024D02*
D03*
Y32024D02*
D03*
X51622Y36838D02*
D03*
X45441Y38524D02*
D03*
X72024Y6524D02*
D03*
X52524Y105994D02*
D03*
X97424Y132724D02*
D03*
X48524Y123524D02*
D03*
X120055Y27424D02*
D03*
Y32424D02*
D03*
X135555Y24924D02*
D03*
Y34924D02*
D03*
Y17924D02*
D03*
X122555D02*
D03*
X55524Y44024D02*
D03*
X67524Y38024D02*
D03*
X64524D02*
D03*
X70524D02*
D03*
X44024Y75024D02*
D03*
X45441Y32524D02*
D03*
X99024Y7024D02*
D03*
X90024Y10024D02*
D03*
X93024Y9024D02*
D03*
X96224Y41228D02*
D03*
X107424Y132724D02*
D03*
X88992Y4024D02*
D03*
X105024Y5024D02*
D03*
X102024Y6024D02*
D03*
X102424Y132724D02*
D03*
X18606Y15724D02*
D03*
X74524Y-1476D02*
D03*
X37441Y48524D02*
D03*
X43524Y82024D02*
D03*
X492Y87524D02*
D03*
Y89524D02*
D03*
X-1008Y87524D02*
D03*
Y89524D02*
D03*
X-7008D02*
D03*
Y87524D02*
D03*
X-8508Y89524D02*
D03*
Y87524D02*
D03*
X-10008Y89524D02*
D03*
Y87524D02*
D03*
X-11508Y89524D02*
D03*
Y87524D02*
D03*
X-14508Y89524D02*
D03*
X-13008Y87524D02*
D03*
X-14508D02*
D03*
X-13008Y89524D02*
D03*
X-12508Y84024D02*
D03*
X135555Y48924D02*
D03*
X94224Y43787D02*
D03*
X126992Y39424D02*
D03*
X126992Y27424D02*
D03*
X66165Y16824D02*
D03*
X57155Y-14209D02*
D03*
X59079Y9524D02*
D03*
X45441Y27524D02*
D03*
X54079Y34913D02*
D03*
X88055Y57524D02*
D03*
X49024Y38492D02*
D03*
X74441Y54524D02*
D03*
X54724Y129553D02*
D03*
X27024Y119169D02*
D03*
X1492Y25024D02*
D03*
X46924Y136951D02*
D03*
X99424Y-13476D02*
D03*
X83082Y-14476D02*
D03*
X73455Y-13476D02*
D03*
X67524Y33024D02*
D03*
X48443Y24532D02*
D03*
X-7476Y32024D02*
D03*
X-4699Y16929D02*
D03*
X-6699D02*
D03*
X-8698D02*
D03*
X-10699D02*
D03*
X-12698D02*
D03*
X-14698D02*
D03*
X24824Y121669D02*
D03*
X53024Y134055D02*
D03*
X70024Y123024D02*
D03*
X72024Y125024D02*
D03*
X70024Y121024D02*
D03*
Y119024D02*
D03*
X72024Y121024D02*
D03*
X74024Y117024D02*
D03*
X72024D02*
D03*
X76024D02*
D03*
X80024D02*
D03*
X78024D02*
D03*
X82024D02*
D03*
Y119024D02*
D03*
X74024D02*
D03*
Y121024D02*
D03*
X78024Y119024D02*
D03*
X76024Y121024D02*
D03*
X74024Y123024D02*
D03*
X76024Y125024D02*
D03*
X74024D02*
D03*
X78024Y121024D02*
D03*
Y123024D02*
D03*
X82024Y121024D02*
D03*
X80024D02*
D03*
Y125024D02*
D03*
X78024D02*
D03*
X82024Y123024D02*
D03*
Y125024D02*
D03*
X91924Y123024D02*
D03*
X93924Y125024D02*
D03*
X91924Y121024D02*
D03*
X93924Y117024D02*
D03*
X97924D02*
D03*
X95924D02*
D03*
X91924Y119024D02*
D03*
X93924Y121024D02*
D03*
X95924Y119024D02*
D03*
Y121024D02*
D03*
X99924Y117024D02*
D03*
Y119024D02*
D03*
X103924Y117024D02*
D03*
X101924D02*
D03*
Y121024D02*
D03*
X97924D02*
D03*
X103924Y119024D02*
D03*
Y121024D02*
D03*
X99924D02*
D03*
X95924Y123024D02*
D03*
X103924D02*
D03*
X99924D02*
D03*
X97924Y125024D02*
D03*
X95924D02*
D03*
X103924D02*
D03*
X99924D02*
D03*
X101924D02*
D03*
X91924D02*
D03*
X70024D02*
D03*
X50523Y78536D02*
D03*
X64079Y19165D02*
D03*
Y25071D02*
D03*
X94224Y48906D02*
D03*
X96224Y46346D02*
D03*
X66079Y21134D02*
D03*
X94224Y54024D02*
D03*
X96224Y51465D02*
D03*
X5212Y62824D02*
D03*
X3712Y64324D02*
D03*
X5212D02*
D03*
X-2699Y16929D02*
D03*
X61892Y77424D02*
D03*
X52724Y101594D02*
D03*
X43524Y91024D02*
D03*
Y88024D02*
D03*
X-3945Y63524D02*
D03*
X-12508Y93024D02*
D03*
X109555Y55924D02*
D03*
X122555Y41924D02*
D03*
X109555D02*
D03*
X109555Y17924D02*
D03*
X43524Y96024D02*
D03*
X-10699Y105118D02*
D03*
X-8698D02*
D03*
X-12698D02*
D03*
X-14698D02*
D03*
X-6699D02*
D03*
X-4699D02*
D03*
X-2699D02*
D03*
D48*
X33824Y65324D02*
D03*
X26087Y65148D02*
D03*
X33924Y81204D02*
D03*
X26097Y80913D02*
D03*
X37905Y-1476D02*
D03*
X52024Y10148D02*
D03*
D49*
X122047Y122047D02*
D03*
Y0D02*
D03*
X0D02*
D03*
Y122047D02*
D03*
D50*
X27024Y119169D02*
X27132D01*
X59524Y105713D02*
X60158Y106346D01*
X60347D01*
X65024Y111024D01*
X59524Y105378D02*
Y105713D01*
X32831Y117205D02*
X33012Y117024D01*
X29096Y117205D02*
X32831D01*
X27132Y119169D02*
X29096Y117205D01*
X27624Y127992D02*
X28454Y128823D01*
X90424Y126524D02*
Y132724D01*
Y126524D02*
X91924Y125024D01*
X68524Y126524D02*
X70024Y125024D01*
X68524Y126524D02*
Y132724D01*
X15929Y60024D02*
X19824Y63918D01*
X6890Y101705D02*
Y103024D01*
X59524Y114669D02*
Y122158D01*
X59524Y122158D01*
X50524Y113992D02*
X50862Y114331D01*
X59185D01*
X59524Y114669D01*
X44035Y117024D02*
X44216Y116842D01*
X47575D01*
X50425Y113992D01*
X50524D01*
X49996Y120583D02*
X50524Y120055D01*
X44216Y120583D02*
X49996D01*
X44035Y120764D02*
X44216Y120583D01*
X35524Y127992D02*
X50524D01*
X35524Y127992D02*
X35524Y127992D01*
X33012Y120764D02*
Y125579D01*
X35425Y127992D01*
X35524D01*
X33012Y107665D02*
Y113284D01*
Y107665D02*
X34555Y106122D01*
Y106024D02*
Y106122D01*
Y106024D02*
X42492D01*
X28492Y105925D02*
Y106024D01*
Y105925D02*
X32494Y101924D01*
X48555Y105925D02*
Y106024D01*
X44554Y101924D02*
X48555Y105925D01*
X32494Y101924D02*
X44554D01*
X44035Y113284D02*
X45020D01*
X45201Y113102D01*
Y109476D02*
Y113102D01*
Y109476D02*
X48555Y106122D01*
Y106024D02*
Y106122D01*
X28492Y106024D02*
Y110575D01*
X27024Y112043D02*
X28492Y110575D01*
X27024Y112043D02*
Y112378D01*
X19024Y106274D02*
X19149Y106149D01*
X28367D01*
X28492Y106024D01*
X33924Y133224D02*
X34693D01*
X28454Y128823D02*
X29523D01*
X33924Y133224D01*
X34693D02*
X35524Y134055D01*
X43024D01*
X8114Y107135D02*
X16774Y115795D01*
X8114Y104248D02*
Y107135D01*
X16774Y115795D02*
Y118274D01*
X18274Y119774D02*
X19024D01*
X16774Y118274D02*
X18274Y119774D01*
X6890Y103024D02*
X8114Y104248D01*
X20524Y121274D02*
Y127992D01*
X19024Y119774D02*
X20524Y121274D01*
X27624Y127992D02*
X28024D01*
X20524D02*
X27624D01*
X43024Y134055D02*
X43024Y134055D01*
X35525Y127992D02*
X35624D01*
X10924Y79674D02*
X14524Y83274D01*
X10924Y71242D02*
Y79674D01*
Y71242D02*
X15142Y67024D01*
X-6976Y59815D02*
X-6697Y60094D01*
X-2706D02*
X424Y63224D01*
X-6697Y60094D02*
X-2706D01*
X-6976Y58831D02*
Y59815D01*
X424Y63224D02*
Y72224D01*
X-3945Y76592D02*
X424Y72224D01*
X15142Y67024D02*
X15535D01*
X14524Y74274D02*
X19824Y68974D01*
X15535Y60024D02*
X15929D01*
X19824Y63918D02*
Y68974D01*
X14524Y74274D02*
Y75024D01*
X-3945Y76592D02*
Y84024D01*
Y93024D01*
Y93122D01*
X3413Y100480D01*
X5665D01*
X6890Y101705D01*
D52*
X-6976Y58831D02*
D03*
X-10717Y47216D02*
D03*
X-3236D02*
D03*
D53*
X90969Y38850D02*
D03*
Y36882D02*
D03*
Y34913D02*
D03*
Y32945D02*
D03*
Y30976D02*
D03*
Y29008D02*
D03*
Y27039D02*
D03*
Y25071D02*
D03*
Y23102D02*
D03*
Y21134D02*
D03*
Y19165D02*
D03*
Y17197D02*
D03*
X59079D02*
D03*
Y19165D02*
D03*
Y21134D02*
D03*
Y23102D02*
D03*
Y25071D02*
D03*
Y27039D02*
D03*
Y29008D02*
D03*
Y30976D02*
D03*
Y32945D02*
D03*
Y34913D02*
D03*
Y36882D02*
D03*
Y38850D02*
D03*
D54*
X85850Y12079D02*
D03*
X83882D02*
D03*
X81913D02*
D03*
X79945D02*
D03*
X77976D02*
D03*
X76008D02*
D03*
X74039D02*
D03*
X72071D02*
D03*
X70102D02*
D03*
X68134D02*
D03*
X66165D02*
D03*
X64197D02*
D03*
Y43968D02*
D03*
X66165D02*
D03*
X68134D02*
D03*
X70102D02*
D03*
X72071D02*
D03*
X74039D02*
D03*
X76008D02*
D03*
X77976D02*
D03*
X79945D02*
D03*
X81913D02*
D03*
X83882D02*
D03*
X85850D02*
D03*
D55*
X77024Y95890D02*
D03*
Y84158D02*
D03*
X90024D02*
D03*
Y95890D02*
D03*
X59524Y133890D02*
D03*
Y122158D02*
D03*
D56*
X81992Y54024D02*
D03*
X88055D02*
D03*
X88055Y61024D02*
D03*
X81992D02*
D03*
Y68024D02*
D03*
X88055D02*
D03*
X66555Y96024D02*
D03*
X60492D02*
D03*
X133055Y48924D02*
D03*
X126992D02*
D03*
X100992Y17924D02*
D03*
X107055D02*
D03*
X126992D02*
D03*
X133055D02*
D03*
X113992D02*
D03*
X120055D02*
D03*
X100992Y48924D02*
D03*
X107055D02*
D03*
X120055D02*
D03*
X113992D02*
D03*
X60492Y89024D02*
D03*
X66555D02*
D03*
X53555Y75024D02*
D03*
X47492D02*
D03*
X48555Y106024D02*
D03*
X42492D02*
D03*
X28492D02*
D03*
X34555D02*
D03*
X3992Y32024D02*
D03*
X10055D02*
D03*
X3992Y46024D02*
D03*
X10055D02*
D03*
X126992Y24924D02*
D03*
X133055D02*
D03*
X-3945Y93024D02*
D03*
X-10008D02*
D03*
X107055Y55924D02*
D03*
X100992D02*
D03*
X120055D02*
D03*
X113992D02*
D03*
X126992D02*
D03*
X133055D02*
D03*
X113992Y24924D02*
D03*
X120055D02*
D03*
Y34924D02*
D03*
X113992D02*
D03*
Y41924D02*
D03*
X120055D02*
D03*
X10055Y18024D02*
D03*
X3992D02*
D03*
X-10008Y32024D02*
D03*
X-3945D02*
D03*
X-10008Y84024D02*
D03*
X-3945D02*
D03*
X-10008Y39024D02*
D03*
X-3945D02*
D03*
X53555Y96024D02*
D03*
X47492D02*
D03*
X66555Y82024D02*
D03*
X60492D02*
D03*
X47492Y89024D02*
D03*
X53555D02*
D03*
X60492Y75024D02*
D03*
X66555D02*
D03*
X47492Y82024D02*
D03*
X53555D02*
D03*
X97055Y-11976D02*
D03*
X90992D02*
D03*
Y2024D02*
D03*
X97055D02*
D03*
X84055Y-11976D02*
D03*
X77992D02*
D03*
X64992Y2024D02*
D03*
X71055D02*
D03*
X64992Y-4976D02*
D03*
X71055D02*
D03*
X84055Y2024D02*
D03*
X77992D02*
D03*
X90992Y-4976D02*
D03*
X97055D02*
D03*
X77992D02*
D03*
X84055D02*
D03*
X10055Y25024D02*
D03*
X3992D02*
D03*
X10055Y53024D02*
D03*
X3992D02*
D03*
X10055Y39024D02*
D03*
X3992D02*
D03*
X133055Y41924D02*
D03*
X126992D02*
D03*
X71055Y-11976D02*
D03*
X64992D02*
D03*
X126992Y34924D02*
D03*
X133055D02*
D03*
X107055Y41924D02*
D03*
X100992D02*
D03*
D57*
X76024Y121024D02*
D03*
X97924D02*
D03*
D58*
X68524Y132724D02*
D03*
X73524D02*
D03*
X78524D02*
D03*
X83524D02*
D03*
X68524Y109324D02*
D03*
X73524D02*
D03*
X78524D02*
D03*
X83524D02*
D03*
X105424D02*
D03*
X100424D02*
D03*
X95424D02*
D03*
X90424D02*
D03*
X105424Y132724D02*
D03*
X100424D02*
D03*
X95424D02*
D03*
X90424D02*
D03*
D59*
X59524Y114669D02*
D03*
Y105378D02*
D03*
X27024Y112378D02*
D03*
Y121669D02*
D03*
D60*
X19024Y106274D02*
D03*
Y119774D02*
D03*
D61*
X50524Y120055D02*
D03*
Y113992D02*
D03*
Y127992D02*
D03*
Y134055D02*
D03*
X43024Y134055D02*
D03*
Y127992D02*
D03*
X35524Y127992D02*
D03*
Y134055D02*
D03*
X28024Y127992D02*
D03*
Y134055D02*
D03*
X20524Y127992D02*
D03*
Y134055D02*
D03*
X50024Y47055D02*
D03*
Y40992D02*
D03*
D62*
X33012Y113284D02*
D03*
Y117024D02*
D03*
Y120764D02*
D03*
X44035D02*
D03*
Y117024D02*
D03*
Y113284D02*
D03*
D63*
X14524Y84024D02*
D03*
X5524D02*
D03*
X14524Y75024D02*
D03*
X5524D02*
D03*
D64*
X6890Y103024D02*
D03*
X-4843D02*
D03*
D65*
X18606Y38524D02*
D03*
Y43524D02*
D03*
Y48524D02*
D03*
Y53524D02*
D03*
X41441Y38524D02*
D03*
Y43524D02*
D03*
Y48524D02*
D03*
X18606Y17524D02*
D03*
Y22524D02*
D03*
Y27524D02*
D03*
Y32524D02*
D03*
X41441Y17524D02*
D03*
Y22524D02*
D03*
Y27524D02*
D03*
X72441Y68524D02*
D03*
Y63524D02*
D03*
Y58524D02*
D03*
Y53524D02*
D03*
X49606Y68524D02*
D03*
Y63524D02*
D03*
Y58524D02*
D03*
D66*
X41441Y53524D02*
D03*
Y32524D02*
D03*
X49606Y53524D02*
D03*
D67*
X4512Y60024D02*
D03*
Y67024D02*
D03*
D68*
X15535Y60024D02*
D03*
Y67024D02*
D03*
D69*
X13528Y93024D02*
D03*
X6520D02*
D03*
D70*
X100874Y34254D02*
D03*
X107173Y25593D02*
D03*
X100874D02*
D03*
X107173Y34254D02*
D03*
D71*
X90748Y95614D02*
X92114D01*
X95424Y98924D01*
Y109324D01*
D72*
X75705Y95890D02*
X77024D01*
X73524Y98071D02*
X75705Y95890D01*
X73524Y98071D02*
Y109324D01*
D73*
X4522Y63524D02*
D03*
M02*
