G04*
G04 #@! TF.GenerationSoftware,Altium Limited,Altium Designer,20.0.2 (26)*
G04*
G04 Layer_Color=2752767*
%FSLAX25Y25*%
%MOIN*%
G70*
G01*
G75*
%ADD100C,0.00200*%
%ADD101C,0.00267*%
D100*
X-8583Y63524D02*
Y65124D01*
X-6983D01*
Y63524D01*
X-8583D01*
X-9576Y46624D02*
Y48224D01*
X-7976D01*
Y46624D01*
X-9576D01*
X-8276Y38224D02*
Y39824D01*
X-6676D01*
Y38224D01*
X-8276D01*
X73724Y37224D02*
Y38824D01*
X75324D01*
Y37224D01*
X73724D01*
X71323Y22347D02*
Y23947D01*
X72923D01*
Y22347D01*
X71323D01*
X69724Y32224D02*
Y33824D01*
X71324D01*
Y32224D01*
X69724D01*
X73325Y20379D02*
Y21979D01*
X74925D01*
Y20379D01*
X73325D01*
X71323Y18422D02*
Y20022D01*
X72923D01*
Y18422D01*
X71323D01*
X69278Y20335D02*
Y21935D01*
X70878D01*
Y20335D01*
X69278D01*
X65279Y26239D02*
Y27839D01*
X66879D01*
Y26239D01*
X65279D01*
X63279Y28208D02*
Y29808D01*
X64879D01*
Y28208D01*
X63279D01*
X67279Y18365D02*
Y19965D01*
X68879D01*
Y18365D01*
X67279D01*
X114724Y59724D02*
Y61324D01*
X116324D01*
Y59724D01*
X114724D01*
Y61224D02*
Y62824D01*
X116324D01*
Y61224D01*
X114724D01*
X22224Y133255D02*
Y134855D01*
X23824D01*
Y133255D01*
X22224D01*
X70224Y79724D02*
Y81324D01*
X71824D01*
Y79724D01*
X70224D01*
X71724Y78224D02*
Y79824D01*
X73324D01*
Y78224D01*
X71724D01*
X70224Y81224D02*
Y82824D01*
X71824D01*
Y81224D01*
X70224D01*
X71724D02*
Y82824D01*
X73324D01*
Y81224D01*
X71724D01*
X73224Y78224D02*
Y79824D01*
X74824D01*
Y78224D01*
X73224D01*
Y79724D02*
Y81324D01*
X74824D01*
Y79724D01*
X73224D01*
X70224Y82724D02*
Y84324D01*
X71824D01*
Y82724D01*
X70224D01*
X71724D02*
Y84324D01*
X73324D01*
Y82724D01*
X71724D01*
X74724Y78224D02*
Y79824D01*
X76324D01*
Y78224D01*
X74724D01*
Y79724D02*
Y81324D01*
X76324D01*
Y79724D01*
X74724D01*
X122724Y60724D02*
Y62324D01*
X124324D01*
Y60724D01*
X122724D01*
Y62224D02*
Y63824D01*
X124324D01*
Y62224D01*
X122724D01*
X124224D02*
Y63824D01*
X125824D01*
Y62224D01*
X124224D01*
X125724D02*
Y63824D01*
X127324D01*
Y62224D01*
X125724D01*
X124224Y60724D02*
Y62324D01*
X125824D01*
Y60724D01*
X124224D01*
X125724D02*
Y62324D01*
X127324D01*
Y60724D01*
X125724D01*
X135724D02*
Y62324D01*
X137324D01*
Y60724D01*
X135724D01*
X134224D02*
Y62324D01*
X135824D01*
Y60724D01*
X134224D01*
X135724Y62224D02*
Y63824D01*
X137324D01*
Y62224D01*
X135724D01*
X134224D02*
Y63824D01*
X135824D01*
Y62224D01*
X134224D01*
X132724D02*
Y63824D01*
X134324D01*
Y62224D01*
X132724D01*
Y60724D02*
Y62324D01*
X134324D01*
Y60724D01*
X132724D01*
X95724Y18724D02*
Y20324D01*
X97324D01*
Y18724D01*
X95724D01*
Y12724D02*
Y14324D01*
X97324D01*
Y12724D01*
X95724D01*
X98724Y11724D02*
Y13324D01*
X100324D01*
Y11724D01*
X98724D01*
X95224Y7224D02*
Y8824D01*
X96824D01*
Y7224D01*
X95224D01*
X95724Y15724D02*
Y17324D01*
X97324D01*
Y15724D01*
X95724D01*
X95424Y55783D02*
Y57383D01*
X97024D01*
Y55783D01*
X95424D01*
X132724Y104724D02*
Y106324D01*
X134324D01*
Y104724D01*
X132724D01*
Y103224D02*
Y104824D01*
X134324D01*
Y103224D01*
X132724D01*
X134224D02*
Y104824D01*
X135824D01*
Y103224D01*
X134224D01*
X135724D02*
Y104824D01*
X137324D01*
Y103224D01*
X135724D01*
X134224Y104724D02*
Y106324D01*
X135824D01*
Y104724D01*
X134224D01*
X135724D02*
Y106324D01*
X137324D01*
Y104724D01*
X135724D01*
X125724D02*
Y106324D01*
X127324D01*
Y104724D01*
X125724D01*
X124224D02*
Y106324D01*
X125824D01*
Y104724D01*
X124224D01*
X125724Y103224D02*
Y104824D01*
X127324D01*
Y103224D01*
X125724D01*
X124224D02*
Y104824D01*
X125824D01*
Y103224D01*
X124224D01*
X122724D02*
Y104824D01*
X124324D01*
Y103224D01*
X122724D01*
Y104724D02*
Y106324D01*
X124324D01*
Y104724D01*
X122724D01*
X117724Y61224D02*
Y62824D01*
X119324D01*
Y61224D01*
X117724D01*
Y59724D02*
Y61324D01*
X119324D01*
Y59724D01*
X117724D01*
X116224D02*
Y61324D01*
X117824D01*
Y59724D01*
X116224D01*
Y61224D02*
Y62824D01*
X117824D01*
Y61224D01*
X116224D01*
X103824Y87424D02*
Y89024D01*
X105424D01*
Y87424D01*
X103824D01*
Y85924D02*
Y87524D01*
X105424D01*
Y85924D01*
X103824D01*
X102324D02*
Y87524D01*
X103924D01*
Y85924D01*
X102324D01*
Y87424D02*
Y89024D01*
X103924D01*
Y87424D01*
X102324D01*
X97824Y85924D02*
Y87524D01*
X99424D01*
Y85924D01*
X97824D01*
Y87424D02*
Y89024D01*
X99424D01*
Y87424D01*
X97824D01*
X99324D02*
Y89024D01*
X100924D01*
Y87424D01*
X99324D01*
Y85924D02*
Y87524D01*
X100924D01*
Y85924D01*
X99324D01*
X696Y45219D02*
Y46819D01*
X2296D01*
Y45219D01*
X696D01*
X-6176Y46417D02*
Y48017D01*
X-4576D01*
Y46417D01*
X-6176D01*
X70224Y78224D02*
Y79824D01*
X71824D01*
Y78224D01*
X70224D01*
X71724Y79724D02*
Y81324D01*
X73324D01*
Y79724D01*
X71724D01*
X93590Y89224D02*
Y90824D01*
X95190D01*
Y89224D01*
X93590D01*
X95090D02*
Y90824D01*
X96690D01*
Y89224D01*
X95090D01*
Y87724D02*
Y89324D01*
X96690D01*
Y87724D01*
X95090D01*
X121755Y55124D02*
Y56724D01*
X123355D01*
Y55124D01*
X121755D01*
X100824Y87424D02*
Y89024D01*
X102424D01*
Y87424D01*
X100824D01*
Y85924D02*
Y87524D01*
X102424D01*
Y85924D01*
X100824D01*
X59692Y85724D02*
Y87324D01*
X61292D01*
Y85724D01*
X59692D01*
X62724Y91524D02*
Y93124D01*
X64324D01*
Y91524D01*
X62724D01*
X81724Y102624D02*
Y104224D01*
X83324D01*
Y102624D01*
X81724D01*
X78724Y104624D02*
Y106224D01*
X80324D01*
Y104624D01*
X78724D01*
X81724Y100624D02*
Y102224D01*
X83324D01*
Y100624D01*
X81724D01*
X78724D02*
Y102224D01*
X80324D01*
Y100624D01*
X78724D01*
X81724Y104624D02*
Y106224D01*
X83324D01*
Y104624D01*
X81724D01*
X78724Y102624D02*
Y104224D01*
X80324D01*
Y102624D01*
X78724D01*
X124224Y71724D02*
Y73324D01*
X125824D01*
Y71724D01*
X124224D01*
Y70224D02*
Y71824D01*
X125824D01*
Y70224D01*
X124224D01*
X125724Y71724D02*
Y73324D01*
X127324D01*
Y71724D01*
X125724D01*
Y70224D02*
Y71824D01*
X127324D01*
Y70224D01*
X125724D01*
X122724D02*
Y71824D01*
X124324D01*
Y70224D01*
X122724D01*
Y71724D02*
Y73324D01*
X124324D01*
Y71724D01*
X122724D01*
X103624Y104624D02*
Y106224D01*
X105224D01*
Y104624D01*
X103624D01*
X105624D02*
Y106224D01*
X107224D01*
Y104624D01*
X105624D01*
Y102624D02*
Y104224D01*
X107224D01*
Y102624D01*
X105624D01*
Y100624D02*
Y102224D01*
X107224D01*
Y100624D01*
X105624D01*
X103624D02*
Y102224D01*
X105224D01*
Y100624D01*
X103624D01*
Y102624D02*
Y104224D01*
X105224D01*
Y102624D01*
X103624D01*
X83724Y104624D02*
Y106224D01*
X85324D01*
Y104624D01*
X83724D01*
Y102624D02*
Y104224D01*
X85324D01*
Y102624D01*
X83724D01*
Y100624D02*
Y102224D01*
X85324D01*
Y100624D01*
X83724D01*
X135724Y71724D02*
Y73324D01*
X137324D01*
Y71724D01*
X135724D01*
X134224D02*
Y73324D01*
X135824D01*
Y71724D01*
X134224D01*
X132724D02*
Y73324D01*
X134324D01*
Y71724D01*
X132724D01*
Y70224D02*
Y71824D01*
X134324D01*
Y70224D01*
X132724D01*
X134224D02*
Y71824D01*
X135824D01*
Y70224D01*
X134224D01*
X135724D02*
Y71824D01*
X137324D01*
Y70224D01*
X135724D01*
X132724Y93724D02*
Y95324D01*
X134324D01*
Y93724D01*
X132724D01*
X134224D02*
Y95324D01*
X135824D01*
Y93724D01*
X134224D01*
X135724D02*
Y95324D01*
X137324D01*
Y93724D01*
X135724D01*
Y95224D02*
Y96824D01*
X137324D01*
Y95224D01*
X135724D01*
X134224D02*
Y96824D01*
X135824D01*
Y95224D01*
X134224D01*
X132724D02*
Y96824D01*
X134324D01*
Y95224D01*
X132724D01*
X66724Y102624D02*
Y104224D01*
X68324D01*
Y102624D01*
X66724D01*
Y100624D02*
Y102224D01*
X68324D01*
Y100624D01*
X66724D01*
X68724D02*
Y102224D01*
X70324D01*
Y100624D01*
X68724D01*
Y102624D02*
Y104224D01*
X70324D01*
Y102624D01*
X68724D01*
Y104624D02*
Y106224D01*
X70324D01*
Y104624D01*
X68724D01*
X66724D02*
Y106224D01*
X68324D01*
Y104624D01*
X66724D01*
X98624Y102624D02*
Y104224D01*
X100224D01*
Y102624D01*
X98624D01*
Y100624D02*
Y102224D01*
X100224D01*
Y100624D01*
X98624D01*
X100624D02*
Y102224D01*
X102224D01*
Y100624D01*
X100624D01*
Y102624D02*
Y104224D01*
X102224D01*
Y102624D01*
X100624D01*
Y104624D02*
Y106224D01*
X102224D01*
Y104624D01*
X100624D01*
X98624D02*
Y106224D01*
X100224D01*
Y104624D01*
X98624D01*
X88624Y102624D02*
Y104224D01*
X90224D01*
Y102624D01*
X88624D01*
Y100624D02*
Y102224D01*
X90224D01*
Y100624D01*
X88624D01*
X90624D02*
Y102224D01*
X92224D01*
Y100624D01*
X90624D01*
Y102624D02*
Y104224D01*
X92224D01*
Y102624D01*
X90624D01*
Y104624D02*
Y106224D01*
X92224D01*
Y104624D01*
X90624D01*
X88624D02*
Y106224D01*
X90224D01*
Y104624D01*
X88624D01*
X84724Y128924D02*
Y130524D01*
X86324D01*
Y128924D01*
X84724D01*
X79724Y133924D02*
Y135524D01*
X81324D01*
Y133924D01*
X79724D01*
X74724D02*
Y135524D01*
X76324D01*
Y133924D01*
X74724D01*
X63724Y133090D02*
Y134690D01*
X65324D01*
Y133090D01*
X63724D01*
X64224Y110224D02*
Y111824D01*
X65824D01*
Y110224D01*
X64224D01*
X58924Y128753D02*
Y130353D01*
X60524D01*
Y128753D01*
X58924D01*
X76724Y102624D02*
Y104224D01*
X78324D01*
Y102624D01*
X76724D01*
Y100624D02*
Y102224D01*
X78324D01*
Y100624D01*
X76724D01*
Y104624D02*
Y106224D01*
X78324D01*
Y104624D01*
X76724D01*
X53996Y103224D02*
Y104824D01*
X55596D01*
Y103224D01*
X53996D01*
X122724Y95224D02*
Y96824D01*
X124324D01*
Y95224D01*
X122724D01*
X124224D02*
Y96824D01*
X125824D01*
Y95224D01*
X124224D01*
X125724D02*
Y96824D01*
X127324D01*
Y95224D01*
X125724D01*
Y93724D02*
Y95324D01*
X127324D01*
Y93724D01*
X125724D01*
X124224D02*
Y95324D01*
X125824D01*
Y93724D01*
X124224D01*
X122724D02*
Y95324D01*
X124324D01*
Y93724D01*
X122724D01*
X49224Y43755D02*
Y45355D01*
X50824D01*
Y43755D01*
X49224D01*
X81192Y63724D02*
Y65324D01*
X82792D01*
Y63724D01*
X81192D01*
X692Y52224D02*
Y53824D01*
X2292D01*
Y52224D01*
X692D01*
X-308Y78724D02*
Y80324D01*
X1292D01*
Y78724D01*
X-308D01*
Y80724D02*
Y82324D01*
X1292D01*
Y80724D01*
X-308D01*
Y92724D02*
Y94324D01*
X1292D01*
Y92724D01*
X-308D01*
Y90724D02*
Y92324D01*
X1292D01*
Y90724D01*
X-308D01*
Y82724D02*
Y84324D01*
X1292D01*
Y82724D01*
X-308D01*
Y84724D02*
Y86324D01*
X1292D01*
Y84724D01*
X-308D01*
X22724Y40224D02*
Y41824D01*
X24324D01*
Y40224D01*
X22724D01*
X36641Y42724D02*
Y44324D01*
X38241D01*
Y42724D01*
X36641D01*
X21806Y52724D02*
Y54324D01*
X23406D01*
Y52724D01*
X21806D01*
X62104Y81312D02*
Y82912D01*
X63704D01*
Y81312D01*
X62104D01*
X36641Y52724D02*
Y54324D01*
X38241D01*
Y52724D01*
X36641D01*
X66692Y-12776D02*
Y-11176D01*
X68292D01*
Y-12776D01*
X66692D01*
X2912Y62024D02*
Y63624D01*
X4512D01*
Y62024D01*
X2912D01*
X23324Y34824D02*
Y36424D01*
X24924D01*
Y34824D01*
X23324D01*
X692Y38224D02*
Y39824D01*
X2292D01*
Y38224D01*
X692D01*
Y31224D02*
Y32824D01*
X2292D01*
Y31224D01*
X692D01*
X50822Y36038D02*
Y37638D01*
X52422D01*
Y36038D01*
X50822D01*
X44641Y37724D02*
Y39324D01*
X46241D01*
Y37724D01*
X44641D01*
X71224Y5724D02*
Y7324D01*
X72824D01*
Y5724D01*
X71224D01*
X51724Y105194D02*
Y106794D01*
X53324D01*
Y105194D01*
X51724D01*
X96624Y131924D02*
Y133524D01*
X98224D01*
Y131924D01*
X96624D01*
X47724Y122724D02*
Y124324D01*
X49324D01*
Y122724D01*
X47724D01*
X119255Y26624D02*
Y28224D01*
X120855D01*
Y26624D01*
X119255D01*
Y31624D02*
Y33224D01*
X120855D01*
Y31624D01*
X119255D01*
X134755Y24124D02*
Y25724D01*
X136355D01*
Y24124D01*
X134755D01*
Y34124D02*
Y35724D01*
X136355D01*
Y34124D01*
X134755D01*
Y17124D02*
Y18724D01*
X136355D01*
Y17124D01*
X134755D01*
X121755D02*
Y18724D01*
X123355D01*
Y17124D01*
X121755D01*
X54724Y43224D02*
Y44824D01*
X56324D01*
Y43224D01*
X54724D01*
X66724Y37224D02*
Y38824D01*
X68324D01*
Y37224D01*
X66724D01*
X63724D02*
Y38824D01*
X65324D01*
Y37224D01*
X63724D01*
X69724D02*
Y38824D01*
X71324D01*
Y37224D01*
X69724D01*
X43224Y74224D02*
Y75824D01*
X44824D01*
Y74224D01*
X43224D01*
X44641Y31724D02*
Y33324D01*
X46241D01*
Y31724D01*
X44641D01*
X98224Y6224D02*
Y7824D01*
X99824D01*
Y6224D01*
X98224D01*
X89224Y9224D02*
Y10824D01*
X90824D01*
Y9224D01*
X89224D01*
X92224Y8224D02*
Y9824D01*
X93824D01*
Y8224D01*
X92224D01*
X95424Y40428D02*
Y42028D01*
X97024D01*
Y40428D01*
X95424D01*
X106624Y131924D02*
Y133524D01*
X108224D01*
Y131924D01*
X106624D01*
X88192Y3224D02*
Y4824D01*
X89792D01*
Y3224D01*
X88192D01*
X104224Y4224D02*
Y5824D01*
X105824D01*
Y4224D01*
X104224D01*
X101224Y5224D02*
Y6824D01*
X102824D01*
Y5224D01*
X101224D01*
X101624Y131924D02*
Y133524D01*
X103224D01*
Y131924D01*
X101624D01*
X17806Y14924D02*
Y16524D01*
X19406D01*
Y14924D01*
X17806D01*
X73724Y-2276D02*
Y-676D01*
X75324D01*
Y-2276D01*
X73724D01*
X36641Y47724D02*
Y49324D01*
X38241D01*
Y47724D01*
X36641D01*
X42724Y81224D02*
Y82824D01*
X44324D01*
Y81224D01*
X42724D01*
X-308Y86724D02*
Y88324D01*
X1292D01*
Y86724D01*
X-308D01*
Y88724D02*
Y90324D01*
X1292D01*
Y88724D01*
X-308D01*
X-1808Y86724D02*
Y88324D01*
X-208D01*
Y86724D01*
X-1808D01*
Y88724D02*
Y90324D01*
X-208D01*
Y88724D01*
X-1808D01*
X-7808D02*
Y90324D01*
X-6208D01*
Y88724D01*
X-7808D01*
Y86724D02*
Y88324D01*
X-6208D01*
Y86724D01*
X-7808D01*
X-9308Y88724D02*
Y90324D01*
X-7708D01*
Y88724D01*
X-9308D01*
Y86724D02*
Y88324D01*
X-7708D01*
Y86724D01*
X-9308D01*
X-10808Y88724D02*
Y90324D01*
X-9208D01*
Y88724D01*
X-10808D01*
Y86724D02*
Y88324D01*
X-9208D01*
Y86724D01*
X-10808D01*
X-12308Y88724D02*
Y90324D01*
X-10708D01*
Y88724D01*
X-12308D01*
Y86724D02*
Y88324D01*
X-10708D01*
Y86724D01*
X-12308D01*
X-15308Y88724D02*
Y90324D01*
X-13708D01*
Y88724D01*
X-15308D01*
X-13808Y86724D02*
Y88324D01*
X-12208D01*
Y86724D01*
X-13808D01*
X-15308D02*
Y88324D01*
X-13708D01*
Y86724D01*
X-15308D01*
X-13808Y88724D02*
Y90324D01*
X-12208D01*
Y88724D01*
X-13808D01*
X-13308Y83224D02*
Y84824D01*
X-11708D01*
Y83224D01*
X-13308D01*
X134755Y48124D02*
Y49724D01*
X136355D01*
Y48124D01*
X134755D01*
X93424Y42987D02*
Y44587D01*
X95024D01*
Y42987D01*
X93424D01*
X126192Y38624D02*
Y40224D01*
X127792D01*
Y38624D01*
X126192D01*
X126192Y26624D02*
Y28224D01*
X127792D01*
Y26624D01*
X126192D01*
X65365Y16024D02*
Y17624D01*
X66965D01*
Y16024D01*
X65365D01*
X56355Y-15009D02*
Y-13409D01*
X57955D01*
Y-15009D01*
X56355D01*
X58279Y8724D02*
Y10324D01*
X59879D01*
Y8724D01*
X58279D01*
X44641Y26724D02*
Y28324D01*
X46241D01*
Y26724D01*
X44641D01*
X53279Y34113D02*
Y35713D01*
X54879D01*
Y34113D01*
X53279D01*
X87255Y56724D02*
Y58324D01*
X88855D01*
Y56724D01*
X87255D01*
X48224Y37692D02*
Y39292D01*
X49824D01*
Y37692D01*
X48224D01*
X73641Y53724D02*
Y55324D01*
X75241D01*
Y53724D01*
X73641D01*
X53924Y128753D02*
Y130353D01*
X55524D01*
Y128753D01*
X53924D01*
X26224Y118369D02*
Y119969D01*
X27824D01*
Y118369D01*
X26224D01*
X692Y24224D02*
Y25824D01*
X2292D01*
Y24224D01*
X692D01*
X46124Y136151D02*
Y137751D01*
X47724D01*
Y136151D01*
X46124D01*
X98624Y-14276D02*
Y-12676D01*
X100224D01*
Y-14276D01*
X98624D01*
X82282Y-15276D02*
Y-13676D01*
X83882D01*
Y-15276D01*
X82282D01*
X72655Y-14276D02*
Y-12676D01*
X74255D01*
Y-14276D01*
X72655D01*
X66724Y32224D02*
Y33824D01*
X68324D01*
Y32224D01*
X66724D01*
X47642Y23732D02*
Y25332D01*
X49242D01*
Y23732D01*
X47642D01*
X-8276Y31224D02*
Y32824D01*
X-6676D01*
Y31224D01*
X-8276D01*
X-5499Y16129D02*
Y17729D01*
X-3898D01*
Y16129D01*
X-5499D01*
X-7498D02*
Y17729D01*
X-5898D01*
Y16129D01*
X-7498D01*
X-9499D02*
Y17729D01*
X-7898D01*
Y16129D01*
X-9499D01*
X-11498D02*
Y17729D01*
X-9899D01*
Y16129D01*
X-11498D01*
X-13498D02*
Y17729D01*
X-11898D01*
Y16129D01*
X-13498D01*
X-15498D02*
Y17729D01*
X-13898D01*
Y16129D01*
X-15498D01*
X24024Y120869D02*
Y122469D01*
X25624D01*
Y120869D01*
X24024D01*
X52224Y133255D02*
Y134855D01*
X53824D01*
Y133255D01*
X52224D01*
X69224Y122224D02*
Y123824D01*
X70824D01*
Y122224D01*
X69224D01*
X71224Y124224D02*
Y125824D01*
X72824D01*
Y124224D01*
X71224D01*
X69224Y120224D02*
Y121824D01*
X70824D01*
Y120224D01*
X69224D01*
Y118224D02*
Y119824D01*
X70824D01*
Y118224D01*
X69224D01*
X71224Y120224D02*
Y121824D01*
X72824D01*
Y120224D01*
X71224D01*
X73224Y116224D02*
Y117824D01*
X74824D01*
Y116224D01*
X73224D01*
X71224D02*
Y117824D01*
X72824D01*
Y116224D01*
X71224D01*
X75224D02*
Y117824D01*
X76824D01*
Y116224D01*
X75224D01*
X79224D02*
Y117824D01*
X80824D01*
Y116224D01*
X79224D01*
X77224D02*
Y117824D01*
X78824D01*
Y116224D01*
X77224D01*
X81224D02*
Y117824D01*
X82824D01*
Y116224D01*
X81224D01*
Y118224D02*
Y119824D01*
X82824D01*
Y118224D01*
X81224D01*
X73224D02*
Y119824D01*
X74824D01*
Y118224D01*
X73224D01*
Y120224D02*
Y121824D01*
X74824D01*
Y120224D01*
X73224D01*
X77224Y118224D02*
Y119824D01*
X78824D01*
Y118224D01*
X77224D01*
X75224Y120224D02*
Y121824D01*
X76824D01*
Y120224D01*
X75224D01*
X73224Y122224D02*
Y123824D01*
X74824D01*
Y122224D01*
X73224D01*
X75224Y124224D02*
Y125824D01*
X76824D01*
Y124224D01*
X75224D01*
X73224D02*
Y125824D01*
X74824D01*
Y124224D01*
X73224D01*
X77224Y120224D02*
Y121824D01*
X78824D01*
Y120224D01*
X77224D01*
Y122224D02*
Y123824D01*
X78824D01*
Y122224D01*
X77224D01*
X81224Y120224D02*
Y121824D01*
X82824D01*
Y120224D01*
X81224D01*
X79224D02*
Y121824D01*
X80824D01*
Y120224D01*
X79224D01*
Y124224D02*
Y125824D01*
X80824D01*
Y124224D01*
X79224D01*
X77224D02*
Y125824D01*
X78824D01*
Y124224D01*
X77224D01*
X81224Y122224D02*
Y123824D01*
X82824D01*
Y122224D01*
X81224D01*
Y124224D02*
Y125824D01*
X82824D01*
Y124224D01*
X81224D01*
X91124Y122224D02*
Y123824D01*
X92724D01*
Y122224D01*
X91124D01*
X93124Y124224D02*
Y125824D01*
X94724D01*
Y124224D01*
X93124D01*
X91124Y120224D02*
Y121824D01*
X92724D01*
Y120224D01*
X91124D01*
X93124Y116224D02*
Y117824D01*
X94724D01*
Y116224D01*
X93124D01*
X97124D02*
Y117824D01*
X98724D01*
Y116224D01*
X97124D01*
X95124D02*
Y117824D01*
X96724D01*
Y116224D01*
X95124D01*
X91124Y118224D02*
Y119824D01*
X92724D01*
Y118224D01*
X91124D01*
X93124Y120224D02*
Y121824D01*
X94724D01*
Y120224D01*
X93124D01*
X95124Y118224D02*
Y119824D01*
X96724D01*
Y118224D01*
X95124D01*
Y120224D02*
Y121824D01*
X96724D01*
Y120224D01*
X95124D01*
X99124Y116224D02*
Y117824D01*
X100724D01*
Y116224D01*
X99124D01*
Y118224D02*
Y119824D01*
X100724D01*
Y118224D01*
X99124D01*
X103124Y116224D02*
Y117824D01*
X104724D01*
Y116224D01*
X103124D01*
X101124D02*
Y117824D01*
X102724D01*
Y116224D01*
X101124D01*
Y120224D02*
Y121824D01*
X102724D01*
Y120224D01*
X101124D01*
X97124D02*
Y121824D01*
X98724D01*
Y120224D01*
X97124D01*
X103124Y118224D02*
Y119824D01*
X104724D01*
Y118224D01*
X103124D01*
Y120224D02*
Y121824D01*
X104724D01*
Y120224D01*
X103124D01*
X99124D02*
Y121824D01*
X100724D01*
Y120224D01*
X99124D01*
X95124Y122224D02*
Y123824D01*
X96724D01*
Y122224D01*
X95124D01*
X103124D02*
Y123824D01*
X104724D01*
Y122224D01*
X103124D01*
X99124D02*
Y123824D01*
X100724D01*
Y122224D01*
X99124D01*
X97124Y124224D02*
Y125824D01*
X98724D01*
Y124224D01*
X97124D01*
X95124D02*
Y125824D01*
X96724D01*
Y124224D01*
X95124D01*
X103124D02*
Y125824D01*
X104724D01*
Y124224D01*
X103124D01*
X99124D02*
Y125824D01*
X100724D01*
Y124224D01*
X99124D01*
X101124D02*
Y125824D01*
X102724D01*
Y124224D01*
X101124D01*
X91124D02*
Y125824D01*
X92724D01*
Y124224D01*
X91124D01*
X69224D02*
Y125824D01*
X70824D01*
Y124224D01*
X69224D01*
X49723Y77736D02*
Y79336D01*
X51323D01*
Y77736D01*
X49723D01*
X63279Y18365D02*
Y19965D01*
X64879D01*
Y18365D01*
X63279D01*
Y24271D02*
Y25871D01*
X64879D01*
Y24271D01*
X63279D01*
X93424Y48105D02*
Y49705D01*
X95024D01*
Y48105D01*
X93424D01*
X95424Y45546D02*
Y47146D01*
X97024D01*
Y45546D01*
X95424D01*
X65279Y20334D02*
Y21934D01*
X66879D01*
Y20334D01*
X65279D01*
X93424Y53224D02*
Y54824D01*
X95024D01*
Y53224D01*
X93424D01*
X95424Y50665D02*
Y52265D01*
X97024D01*
Y50665D01*
X95424D01*
X4412Y62024D02*
Y63624D01*
X6012D01*
Y62024D01*
X4412D01*
X2912Y63524D02*
Y65124D01*
X4512D01*
Y63524D01*
X2912D01*
X4412D02*
Y65124D01*
X6012D01*
Y63524D01*
X4412D01*
X-3498Y16129D02*
Y17729D01*
X-1898D01*
Y16129D01*
X-3498D01*
X61092Y76624D02*
Y78224D01*
X62692D01*
Y76624D01*
X61092D01*
X51924Y100794D02*
Y102394D01*
X53524D01*
Y100794D01*
X51924D01*
X42724Y90224D02*
Y91824D01*
X44324D01*
Y90224D01*
X42724D01*
Y87224D02*
Y88824D01*
X44324D01*
Y87224D01*
X42724D01*
X-4745Y62724D02*
Y64324D01*
X-3145D01*
Y62724D01*
X-4745D01*
X-13308Y92224D02*
Y93824D01*
X-11708D01*
Y92224D01*
X-13308D01*
X108755Y55124D02*
Y56724D01*
X110355D01*
Y55124D01*
X108755D01*
X121755Y41124D02*
Y42724D01*
X123355D01*
Y41124D01*
X121755D01*
X108755D02*
Y42724D01*
X110355D01*
Y41124D01*
X108755D01*
X108755Y17124D02*
Y18724D01*
X110355D01*
Y17124D01*
X108755D01*
X42724Y95224D02*
Y96824D01*
X44324D01*
Y95224D01*
X42724D01*
X-11498Y104318D02*
Y105918D01*
X-9899D01*
Y104318D01*
X-11498D01*
X-9499D02*
Y105918D01*
X-7898D01*
Y104318D01*
X-9499D01*
X-13498D02*
Y105918D01*
X-11898D01*
Y104318D01*
X-13498D01*
X-15498D02*
Y105918D01*
X-13898D01*
Y104318D01*
X-15498D01*
X-7498D02*
Y105918D01*
X-5898D01*
Y104318D01*
X-7498D01*
X-5499D02*
Y105918D01*
X-3898D01*
Y104318D01*
X-5499D01*
X-3498D02*
Y105918D01*
X-1898D01*
Y104318D01*
X-3498D01*
X122047Y121247D02*
X121247Y122847D01*
X122847D01*
X122047Y121247D01*
Y-800D02*
X121247Y800D01*
X122847D01*
X122047Y-800D01*
X0D02*
X-800Y800D01*
X800D01*
X0Y-800D01*
Y121247D02*
X-800Y122847D01*
X800D01*
X0Y121247D01*
D101*
X34624Y65324D02*
G03*
X34624Y65324I-800J0D01*
G01*
X26887Y65148D02*
G03*
X26887Y65148I-800J0D01*
G01*
X34724Y81204D02*
G03*
X34724Y81204I-800J0D01*
G01*
X26897Y80913D02*
G03*
X26897Y80913I-800J0D01*
G01*
X38705Y-1476D02*
G03*
X38705Y-1476I-800J0D01*
G01*
X52824Y10148D02*
G03*
X52824Y10148I-800J0D01*
G01*
M02*
