G04*
G04 #@! TF.GenerationSoftware,Altium Limited,Altium Designer,20.0.2 (26)*
G04*
G04 Layer_Physical_Order=1*
G04 Layer_Color=255*
%FSLAX25Y25*%
%MOIN*%
G70*
G01*
G75*
%ADD10C,0.01000*%
%ADD11C,0.00600*%
%ADD15O,0.02362X0.05976*%
%ADD16O,0.02362X0.05976*%
%ADD17R,0.15354X0.07087*%
%ADD18R,0.17717X0.05118*%
%ADD19R,0.11360X0.03920*%
%ADD20R,0.07150X0.03000*%
%ADD21R,0.03920X0.11360*%
%ADD22R,0.03000X0.07150*%
%ADD23O,0.11811X0.01575*%
%ADD24R,0.10000X0.06000*%
%ADD25R,0.06000X0.10000*%
G04:AMPARAMS|DCode=26|XSize=70mil|YSize=140mil|CornerRadius=17.5mil|HoleSize=0mil|Usage=FLASHONLY|Rotation=0.000|XOffset=0mil|YOffset=0mil|HoleType=Round|Shape=RoundedRectangle|*
%AMROUNDEDRECTD26*
21,1,0.07000,0.10500,0,0,0.0*
21,1,0.03500,0.14000,0,0,0.0*
1,1,0.03500,0.01750,-0.05250*
1,1,0.03500,-0.01750,-0.05250*
1,1,0.03500,-0.01750,0.05250*
1,1,0.03500,0.01750,0.05250*
%
%ADD26ROUNDEDRECTD26*%
%ADD27R,0.04134X0.02559*%
%ADD28R,0.08661X0.09843*%
%ADD29R,0.02362X0.05906*%
%ADD47C,0.02400*%
%ADD48C,0.05000*%
%ADD49C,0.23622*%
G36*
X105224Y137724D02*
Y115824D01*
X71424Y115824D01*
X68824Y118424D01*
X68824Y137724D01*
X105224Y137724D01*
D02*
G37*
G36*
X33424Y106818D02*
X28818D01*
X21224Y99224D01*
Y93724D01*
X6724D01*
Y101971D01*
X21476Y116724D01*
X33424Y116724D01*
Y106818D01*
D02*
G37*
G36*
X47747Y121624D02*
X64702D01*
X71202Y115124D01*
X105724D01*
X110124Y110724D01*
Y103498D01*
X113798Y99824D01*
X116124Y99824D01*
Y93624D01*
X105924D01*
Y98224D01*
X103924Y100224D01*
X103924D01*
X103224Y100924D01*
X103224Y105924D01*
X102024Y107124D01*
X88724Y107124D01*
X87624Y106024D01*
X87624Y102824D01*
X87624Y102824D01*
X87624Y100724D01*
X88724Y99624D01*
X90424D01*
X90424Y61424D01*
X84224Y61424D01*
X84224Y82424D01*
X79424Y87224D01*
X70024D01*
Y97224D01*
X77624D01*
X81324Y100924D01*
D01*
X81324Y105924D01*
X80124Y107124D01*
X66024Y107124D01*
X63124Y110024D01*
X43361D01*
X30061Y123324D01*
X24561D01*
Y133324D01*
X36047D01*
X47747Y121624D01*
D02*
G37*
G36*
X76724Y81024D02*
X76724Y78524D01*
X76024Y77824D01*
X70524Y77824D01*
X69824Y78524D01*
X69824Y84024D01*
X70624Y84824D01*
X72924Y84824D01*
X76724Y81024D01*
D02*
G37*
G36*
X101824Y92824D02*
X106224Y88424D01*
X116124Y88424D01*
Y72624D01*
X106424Y72624D01*
X101824Y68024D01*
X101824Y61424D01*
X93124Y61424D01*
X93124Y99624D01*
X95729D01*
X101824Y99624D01*
X101824Y92824D01*
D02*
G37*
G36*
X1524Y104724D02*
Y86012D01*
X3874Y83661D01*
X7024Y80524D01*
X7316Y80231D01*
Y61324D01*
X-15876D01*
X-17076Y62524D01*
Y107324D01*
X-16652Y107748D01*
X-1501D01*
X1524Y104724D01*
D02*
G37*
G36*
X119724Y64124D02*
Y60024D01*
X119024Y59324D01*
X113024Y59324D01*
X111024Y61324D01*
Y67352D01*
X116495Y67352D01*
X119724Y64124D01*
D02*
G37*
G36*
X17376Y135600D02*
X17426D01*
X17481Y135594D01*
X17548Y135588D01*
X17687Y135572D01*
X17836Y135544D01*
X17997Y135511D01*
X18153Y135466D01*
X18158D01*
X18169Y135461D01*
X18192Y135450D01*
X18219Y135444D01*
X18253Y135427D01*
X18297Y135411D01*
X18391Y135372D01*
X18497Y135322D01*
X18613Y135266D01*
X18724Y135200D01*
X18835Y135128D01*
X18841D01*
X18846Y135117D01*
X18880Y135094D01*
X18930Y135056D01*
X18996Y135000D01*
X19063Y134939D01*
X19141Y134867D01*
X19213Y134789D01*
X19279Y134712D01*
X19285Y134700D01*
X19307Y134673D01*
X19335Y134634D01*
X19374Y134573D01*
X19413Y134506D01*
X19452Y134434D01*
X19490Y134351D01*
X19524Y134267D01*
X19529Y134256D01*
X19535Y134229D01*
X19551Y134184D01*
X19563Y134129D01*
X19579Y134062D01*
X19596Y133990D01*
X19601Y133912D01*
X19607Y133835D01*
Y133801D01*
X19601Y133774D01*
Y133746D01*
X19596Y133707D01*
X19585Y133624D01*
X19563Y133524D01*
X19529Y133418D01*
X19479Y133307D01*
X19418Y133202D01*
Y133196D01*
X19407Y133191D01*
X19379Y133158D01*
X19335Y133107D01*
X19274Y133046D01*
X19191Y132980D01*
X19085Y132908D01*
X18969Y132841D01*
X18830Y132780D01*
X19524Y132630D01*
Y132075D01*
X14401Y133146D01*
Y133774D01*
X16232Y133391D01*
X16227Y133396D01*
X16221Y133402D01*
X16205Y133418D01*
X16188Y133440D01*
X16138Y133496D01*
X16083Y133568D01*
X16016Y133651D01*
X15955Y133740D01*
X15894Y133835D01*
X15844Y133923D01*
Y133929D01*
X15838Y133934D01*
X15827Y133962D01*
X15805Y134012D01*
X15783Y134073D01*
X15766Y134151D01*
X15744Y134234D01*
X15733Y134323D01*
X15727Y134417D01*
Y134467D01*
X15733Y134501D01*
X15739Y134545D01*
X15750Y134595D01*
X15761Y134656D01*
X15777Y134717D01*
X15794Y134778D01*
X15822Y134850D01*
X15855Y134922D01*
X15888Y134989D01*
X15938Y135061D01*
X15988Y135133D01*
X16049Y135200D01*
X16116Y135266D01*
X16122Y135272D01*
X16133Y135283D01*
X16155Y135300D01*
X16188Y135322D01*
X16227Y135344D01*
X16277Y135372D01*
X16338Y135405D01*
X16405Y135439D01*
X16477Y135466D01*
X16566Y135500D01*
X16654Y135527D01*
X16760Y135555D01*
X16865Y135572D01*
X16987Y135588D01*
X17115Y135600D01*
X17248Y135605D01*
X17254D01*
X17270D01*
X17298D01*
X17331D01*
X17376Y135600D01*
D02*
G37*
G36*
X19524Y130205D02*
Y129578D01*
X15661Y130388D01*
X15666Y130383D01*
X15677Y130366D01*
X15700Y130333D01*
X15727Y130294D01*
X15761Y130238D01*
X15805Y130172D01*
X15849Y130094D01*
X15894Y130005D01*
X15949Y129905D01*
X15999Y129794D01*
X16055Y129672D01*
X16110Y129544D01*
X16166Y129400D01*
X16216Y129250D01*
X16266Y129084D01*
X16316Y128912D01*
X15744Y129028D01*
Y129034D01*
X15733Y129051D01*
X15727Y129073D01*
X15711Y129112D01*
X15694Y129150D01*
X15672Y129200D01*
X15644Y129261D01*
X15616Y129322D01*
X15544Y129461D01*
X15461Y129622D01*
X15367Y129789D01*
X15256Y129961D01*
X15250Y129966D01*
X15245Y129983D01*
X15228Y130005D01*
X15206Y130038D01*
X15178Y130077D01*
X15145Y130116D01*
X15073Y130221D01*
X14989Y130333D01*
X14900Y130444D01*
X14812Y130554D01*
X14723Y130649D01*
X14717Y130654D01*
X14695Y130671D01*
X14667Y130699D01*
X14628Y130732D01*
X14579Y130771D01*
X14523Y130815D01*
X14457Y130865D01*
X14384Y130910D01*
Y131276D01*
X19524Y130205D01*
D02*
G37*
G36*
Y126986D02*
Y126270D01*
X18808Y126425D01*
Y127141D01*
X19524Y126986D01*
D02*
G37*
G36*
Y124239D02*
Y123611D01*
X15661Y124422D01*
X15666Y124416D01*
X15677Y124400D01*
X15700Y124366D01*
X15727Y124327D01*
X15761Y124272D01*
X15805Y124205D01*
X15849Y124128D01*
X15894Y124039D01*
X15949Y123939D01*
X15999Y123828D01*
X16055Y123706D01*
X16110Y123578D01*
X16166Y123434D01*
X16216Y123284D01*
X16266Y123117D01*
X16316Y122945D01*
X15744Y123062D01*
Y123068D01*
X15733Y123084D01*
X15727Y123106D01*
X15711Y123145D01*
X15694Y123184D01*
X15672Y123234D01*
X15644Y123295D01*
X15616Y123356D01*
X15544Y123495D01*
X15461Y123656D01*
X15367Y123822D01*
X15256Y123994D01*
X15250Y124000D01*
X15245Y124017D01*
X15228Y124039D01*
X15206Y124072D01*
X15178Y124111D01*
X15145Y124150D01*
X15073Y124255D01*
X14989Y124366D01*
X14900Y124477D01*
X14812Y124588D01*
X14723Y124683D01*
X14717Y124688D01*
X14695Y124705D01*
X14667Y124733D01*
X14628Y124766D01*
X14579Y124805D01*
X14523Y124849D01*
X14457Y124899D01*
X14384Y124943D01*
Y125310D01*
X19524Y124239D01*
D02*
G37*
G36*
Y121058D02*
Y120381D01*
X17109Y120881D01*
Y118206D01*
X19524Y117701D01*
Y117024D01*
X14401Y118095D01*
Y118772D01*
X16532Y118328D01*
Y121003D01*
X14401Y121452D01*
Y122130D01*
X19524Y121058D01*
D02*
G37*
G36*
X68913Y66534D02*
X68129D01*
X68316Y67429D01*
X69100D01*
X68913Y66534D01*
D02*
G37*
G36*
X52083Y64126D02*
X53846Y61024D01*
X52916D01*
X51875Y62897D01*
X51868Y62911D01*
X51848Y62946D01*
X51820Y63008D01*
X51778Y63092D01*
X51730Y63196D01*
X51667Y63314D01*
X51605Y63453D01*
X51528Y63605D01*
Y63598D01*
X51514Y63591D01*
X51487Y63550D01*
X51431Y63480D01*
X51362Y63397D01*
X51279Y63293D01*
X51181Y63175D01*
X51070Y63050D01*
X50945Y62918D01*
X49162Y61024D01*
X48031D01*
X51077Y64265D01*
X49273Y67429D01*
X50217D01*
X51036Y65972D01*
X51042Y65965D01*
X51050Y65944D01*
X51063Y65916D01*
X51091Y65882D01*
X51112Y65840D01*
X51140Y65785D01*
X51209Y65673D01*
X51271Y65562D01*
X51334Y65451D01*
X51362Y65403D01*
X51383Y65361D01*
X51403Y65326D01*
X51417Y65306D01*
X51424Y65299D01*
X51438Y65271D01*
X51459Y65222D01*
X51487Y65167D01*
X51521Y65091D01*
X51563Y65007D01*
X51605Y64910D01*
X51653Y64806D01*
X51660Y64813D01*
X51667Y64827D01*
X51688Y64848D01*
X51716Y64882D01*
X51750Y64931D01*
X51792Y64979D01*
X51841Y65042D01*
X51903Y65111D01*
X51965Y65188D01*
X52042Y65271D01*
X52125Y65368D01*
X52215Y65465D01*
X52312Y65576D01*
X52424Y65694D01*
X52535Y65812D01*
X52659Y65944D01*
X54054Y67429D01*
X55186D01*
X52083Y64126D01*
D02*
G37*
G36*
X66991Y65764D02*
X67060Y65750D01*
X67143Y65729D01*
X67247Y65694D01*
X67358Y65653D01*
X67483Y65597D01*
X67157Y64861D01*
X67150Y64868D01*
X67123Y64882D01*
X67081Y64910D01*
X67025Y64938D01*
X66963Y64965D01*
X66887Y64993D01*
X66803Y65007D01*
X66713Y65014D01*
X66671D01*
X66644Y65007D01*
X66602Y65000D01*
X66560Y64986D01*
X66449Y64959D01*
X66317Y64903D01*
X66248Y64861D01*
X66172Y64820D01*
X66095Y64764D01*
X66019Y64702D01*
X65936Y64632D01*
X65852Y64549D01*
X65846Y64542D01*
X65832Y64528D01*
X65811Y64501D01*
X65783Y64459D01*
X65741Y64403D01*
X65700Y64341D01*
X65651Y64258D01*
X65603Y64167D01*
X65547Y64056D01*
X65492Y63938D01*
X65436Y63800D01*
X65374Y63647D01*
X65318Y63480D01*
X65263Y63293D01*
X65207Y63092D01*
X65158Y62877D01*
X64770Y61024D01*
X64020D01*
X64992Y65667D01*
X65700D01*
X65499Y64716D01*
X65505Y64723D01*
X65512Y64736D01*
X65533Y64764D01*
X65561Y64806D01*
X65596Y64848D01*
X65630Y64896D01*
X65721Y65014D01*
X65832Y65146D01*
X65950Y65278D01*
X66075Y65403D01*
X66199Y65507D01*
X66206D01*
X66213Y65521D01*
X66234Y65535D01*
X66262Y65548D01*
X66331Y65590D01*
X66415Y65639D01*
X66526Y65687D01*
X66644Y65729D01*
X66769Y65757D01*
X66900Y65771D01*
X66942D01*
X66991Y65764D01*
D02*
G37*
G36*
X57108Y62946D02*
X54693D01*
X54860Y63737D01*
X57268D01*
X57108Y62946D01*
D02*
G37*
G36*
X71023Y61024D02*
X70141D01*
X69385Y65667D01*
X70148D01*
X70551Y63113D01*
Y63106D01*
Y63092D01*
X70558Y63071D01*
X70565Y63029D01*
X70572Y62988D01*
X70579Y62932D01*
X70586Y62863D01*
X70599Y62786D01*
X70606Y62696D01*
X70620Y62592D01*
X70634Y62481D01*
X70648Y62356D01*
X70669Y62224D01*
X70683Y62078D01*
X70697Y61919D01*
X70717Y61745D01*
Y61752D01*
X70731Y61766D01*
X70738Y61794D01*
X70759Y61836D01*
X70780Y61877D01*
X70808Y61933D01*
X70835Y62002D01*
X70870Y62072D01*
X70912Y62155D01*
X70953Y62238D01*
X71057Y62432D01*
X71169Y62648D01*
X71293Y62877D01*
X72848Y65667D01*
X73681D01*
X71023Y61024D01*
D02*
G37*
G36*
X67761D02*
X66977D01*
X67941Y65667D01*
X68733D01*
X67761Y61024D01*
D02*
G37*
G36*
X61154Y67422D02*
X61230D01*
X61314Y67415D01*
X61480Y67401D01*
X61661Y67388D01*
X61827Y67360D01*
X61911Y67346D01*
X61980Y67325D01*
X61987D01*
X62001Y67318D01*
X62028Y67311D01*
X62070Y67297D01*
X62112Y67283D01*
X62167Y67263D01*
X62285Y67214D01*
X62424Y67152D01*
X62577Y67061D01*
X62722Y66964D01*
X62868Y66839D01*
X62875Y66832D01*
X62882Y66825D01*
X62903Y66805D01*
X62931Y66777D01*
X62959Y66742D01*
X63000Y66701D01*
X63077Y66603D01*
X63174Y66479D01*
X63264Y66326D01*
X63354Y66159D01*
X63430Y65972D01*
Y65965D01*
X63437Y65951D01*
X63451Y65923D01*
X63458Y65882D01*
X63479Y65833D01*
X63493Y65777D01*
X63507Y65708D01*
X63528Y65632D01*
X63548Y65548D01*
X63562Y65458D01*
X63597Y65264D01*
X63618Y65042D01*
X63625Y64806D01*
Y64799D01*
Y64771D01*
Y64730D01*
Y64674D01*
X63618Y64605D01*
X63611Y64528D01*
X63604Y64438D01*
X63597Y64341D01*
X63583Y64237D01*
X63569Y64126D01*
X63528Y63890D01*
X63465Y63640D01*
X63389Y63397D01*
Y63390D01*
X63375Y63369D01*
X63368Y63335D01*
X63347Y63293D01*
X63319Y63238D01*
X63292Y63175D01*
X63264Y63099D01*
X63222Y63022D01*
X63132Y62849D01*
X63028Y62661D01*
X62910Y62467D01*
X62771Y62280D01*
X62764Y62273D01*
X62757Y62259D01*
X62736Y62231D01*
X62709Y62203D01*
X62674Y62162D01*
X62632Y62113D01*
X62535Y62009D01*
X62410Y61884D01*
X62278Y61759D01*
X62133Y61634D01*
X61980Y61523D01*
X61973D01*
X61959Y61509D01*
X61938Y61496D01*
X61911Y61482D01*
X61869Y61454D01*
X61820Y61433D01*
X61765Y61405D01*
X61702Y61371D01*
X61564Y61308D01*
X61397Y61239D01*
X61210Y61176D01*
X61008Y61121D01*
X61001D01*
X60988Y61114D01*
X60967D01*
X60932Y61107D01*
X60890Y61100D01*
X60842Y61093D01*
X60779Y61079D01*
X60717Y61072D01*
X60641Y61065D01*
X60564Y61051D01*
X60384Y61037D01*
X60176Y61031D01*
X59953Y61024D01*
X57649D01*
X58982Y67429D01*
X61092D01*
X61154Y67422D01*
D02*
G37*
G36*
X76228Y65764D02*
X76297Y65757D01*
X76380Y65743D01*
X76471Y65729D01*
X76568Y65708D01*
X76672Y65680D01*
X76783Y65646D01*
X76894Y65604D01*
X77005Y65548D01*
X77116Y65493D01*
X77220Y65424D01*
X77324Y65340D01*
X77421Y65250D01*
X77428Y65243D01*
X77442Y65229D01*
X77470Y65195D01*
X77498Y65153D01*
X77539Y65104D01*
X77581Y65042D01*
X77623Y64965D01*
X77671Y64882D01*
X77720Y64785D01*
X77762Y64681D01*
X77803Y64563D01*
X77845Y64438D01*
X77873Y64306D01*
X77900Y64161D01*
X77914Y64008D01*
X77921Y63841D01*
Y63834D01*
Y63827D01*
Y63807D01*
Y63786D01*
Y63716D01*
X77914Y63626D01*
X77907Y63522D01*
X77893Y63404D01*
X77880Y63279D01*
X77859Y63147D01*
X74437Y63147D01*
Y63140D01*
Y63126D01*
X74430Y63099D01*
Y63064D01*
X74423Y62981D01*
X74416Y62897D01*
Y62890D01*
Y62870D01*
Y62835D01*
X74423Y62793D01*
Y62738D01*
X74430Y62675D01*
X74451Y62530D01*
X74493Y62370D01*
X74541Y62203D01*
X74618Y62044D01*
X74659Y61974D01*
X74715Y61905D01*
X74722Y61898D01*
X74729Y61891D01*
X74770Y61849D01*
X74833Y61801D01*
X74916Y61738D01*
X75027Y61676D01*
X75152Y61620D01*
X75291Y61579D01*
X75367Y61572D01*
X75450Y61565D01*
X75492D01*
X75520Y61572D01*
X75555D01*
X75596Y61579D01*
X75700Y61600D01*
X75825Y61627D01*
X75957Y61676D01*
X76103Y61738D01*
X76249Y61822D01*
X76256D01*
X76269Y61836D01*
X76290Y61849D01*
X76311Y61870D01*
X76387Y61933D01*
X76478Y62016D01*
X76575Y62127D01*
X76679Y62252D01*
X76776Y62412D01*
X76866Y62585D01*
X77637Y62516D01*
Y62509D01*
X77630Y62488D01*
X77616Y62460D01*
X77602Y62419D01*
X77581Y62370D01*
X77553Y62308D01*
X77519Y62238D01*
X77477Y62162D01*
X77428Y62085D01*
X77373Y61995D01*
X77310Y61905D01*
X77241Y61815D01*
X77165Y61718D01*
X77074Y61620D01*
X76977Y61523D01*
X76866Y61426D01*
X76859Y61419D01*
X76838Y61405D01*
X76804Y61378D01*
X76762Y61350D01*
X76700Y61308D01*
X76637Y61266D01*
X76554Y61218D01*
X76464Y61176D01*
X76367Y61128D01*
X76256Y61079D01*
X76138Y61037D01*
X76013Y60996D01*
X75881Y60968D01*
X75742Y60940D01*
X75596Y60927D01*
X75444Y60919D01*
X75395D01*
X75353Y60927D01*
X75312D01*
X75256Y60933D01*
X75131Y60947D01*
X74985Y60975D01*
X74826Y61017D01*
X74659Y61079D01*
X74493Y61155D01*
X74486D01*
X74472Y61169D01*
X74451Y61183D01*
X74423Y61197D01*
X74347Y61253D01*
X74250Y61329D01*
X74146Y61426D01*
X74035Y61544D01*
X73931Y61683D01*
X73840Y61843D01*
Y61849D01*
X73834Y61863D01*
X73820Y61891D01*
X73806Y61926D01*
X73792Y61967D01*
X73771Y62016D01*
X73750Y62078D01*
X73729Y62148D01*
X73688Y62301D01*
X73653Y62474D01*
X73625Y62668D01*
X73618Y62884D01*
Y62890D01*
Y62918D01*
Y62960D01*
X73625Y63015D01*
X73632Y63078D01*
X73639Y63161D01*
X73646Y63251D01*
X73660Y63349D01*
X73681Y63460D01*
X73702Y63578D01*
X73764Y63820D01*
X73806Y63952D01*
X73854Y64084D01*
X73903Y64223D01*
X73965Y64355D01*
X73972Y64362D01*
X73979Y64389D01*
X74000Y64424D01*
X74028Y64473D01*
X74063Y64528D01*
X74104Y64598D01*
X74160Y64674D01*
X74215Y64757D01*
X74347Y64931D01*
X74500Y65104D01*
X74680Y65271D01*
X74777Y65347D01*
X74881Y65417D01*
X74888Y65424D01*
X74909Y65430D01*
X74937Y65451D01*
X74979Y65472D01*
X75034Y65500D01*
X75097Y65528D01*
X75166Y65562D01*
X75242Y65597D01*
X75332Y65625D01*
X75423Y65659D01*
X75631Y65715D01*
X75853Y65757D01*
X75971Y65764D01*
X76089Y65771D01*
X76172D01*
X76228Y65764D01*
D02*
G37*
%LPC*%
G36*
X80524Y136355D02*
X79899Y136231D01*
X79370Y135877D01*
X79016Y135348D01*
X78892Y134724D01*
X79016Y134099D01*
X79370Y133570D01*
X79899Y133217D01*
X80524Y133092D01*
X81148Y133217D01*
X81677Y133570D01*
X82031Y134099D01*
X82155Y134724D01*
X82031Y135348D01*
X81677Y135877D01*
X81148Y136231D01*
X80524Y136355D01*
D02*
G37*
G36*
X75524D02*
X74899Y136231D01*
X74370Y135877D01*
X74016Y135348D01*
X73892Y134724D01*
X74016Y134099D01*
X74370Y133570D01*
X74899Y133217D01*
X75524Y133092D01*
X76148Y133217D01*
X76677Y133570D01*
X77031Y134099D01*
X77155Y134724D01*
X77031Y135348D01*
X76677Y135877D01*
X76148Y136231D01*
X75524Y136355D01*
D02*
G37*
G36*
X102424Y134355D02*
X101799Y134231D01*
X101270Y133877D01*
X100916Y133348D01*
X100792Y132724D01*
X100916Y132099D01*
X101270Y131570D01*
X101799Y131217D01*
X102424Y131092D01*
X103048Y131217D01*
X103577Y131570D01*
X103931Y132099D01*
X104055Y132724D01*
X103931Y133348D01*
X103577Y133877D01*
X103048Y134231D01*
X102424Y134355D01*
D02*
G37*
G36*
X97424D02*
X96799Y134231D01*
X96270Y133877D01*
X95916Y133348D01*
X95792Y132724D01*
X95916Y132099D01*
X96270Y131570D01*
X96799Y131217D01*
X97424Y131092D01*
X98048Y131217D01*
X98577Y131570D01*
X98931Y132099D01*
X99055Y132724D01*
X98931Y133348D01*
X98577Y133877D01*
X98048Y134231D01*
X97424Y134355D01*
D02*
G37*
G36*
X85524Y131355D02*
X84899Y131231D01*
X84370Y130877D01*
X84016Y130348D01*
X83892Y129724D01*
X84016Y129099D01*
X84370Y128570D01*
X84899Y128217D01*
X85524Y128092D01*
X86148Y128217D01*
X86677Y128570D01*
X87031Y129099D01*
X87155Y129724D01*
X87031Y130348D01*
X86677Y130877D01*
X86148Y131231D01*
X85524Y131355D01*
D02*
G37*
G36*
X17226Y134978D02*
X17220D01*
X17204D01*
X17181D01*
X17148Y134972D01*
X17109D01*
X17065Y134967D01*
X16960Y134950D01*
X16843Y134922D01*
X16721Y134883D01*
X16604Y134828D01*
X16499Y134756D01*
X16493D01*
X16488Y134745D01*
X16460Y134717D01*
X16416Y134673D01*
X16366Y134606D01*
X16321Y134528D01*
X16277Y134440D01*
X16249Y134334D01*
X16238Y134279D01*
Y134184D01*
X16244Y134162D01*
X16249Y134101D01*
X16271Y134018D01*
X16305Y133923D01*
X16349Y133824D01*
X16416Y133718D01*
X16460Y133662D01*
X16504Y133613D01*
X16510Y133607D01*
X16515Y133601D01*
X16532Y133585D01*
X16554Y133568D01*
X16582Y133540D01*
X16615Y133513D01*
X16660Y133485D01*
X16704Y133452D01*
X16760Y133413D01*
X16821Y133379D01*
X16887Y133341D01*
X16960Y133302D01*
X17043Y133263D01*
X17126Y133224D01*
X17220Y133185D01*
X17320Y133152D01*
X17326D01*
X17337Y133146D01*
X17359Y133141D01*
X17387Y133130D01*
X17426Y133119D01*
X17465Y133102D01*
X17559Y133080D01*
X17670Y133052D01*
X17781Y133024D01*
X17898Y133008D01*
X18009Y133002D01*
X18125Y132996D01*
X18131D01*
X18147D01*
X18169D01*
X18203Y133002D01*
X18242D01*
X18286Y133008D01*
X18391Y133024D01*
X18508Y133052D01*
X18630Y133091D01*
X18747Y133146D01*
X18846Y133219D01*
X18858Y133230D01*
X18885Y133257D01*
X18924Y133307D01*
X18969Y133368D01*
X19013Y133452D01*
X19052Y133546D01*
X19080Y133651D01*
X19085Y133707D01*
X19091Y133768D01*
Y133801D01*
X19085Y133824D01*
X19080Y133885D01*
X19063Y133962D01*
X19035Y134051D01*
X18996Y134151D01*
X18941Y134256D01*
X18863Y134356D01*
X18858Y134362D01*
X18852Y134367D01*
X18841Y134384D01*
X18819Y134401D01*
X18797Y134423D01*
X18763Y134451D01*
X18724Y134484D01*
X18686Y134512D01*
X18636Y134550D01*
X18586Y134584D01*
X18525Y134623D01*
X18458Y134656D01*
X18386Y134695D01*
X18308Y134734D01*
X18225Y134767D01*
X18136Y134800D01*
X18131D01*
X18114Y134806D01*
X18086Y134817D01*
X18053Y134828D01*
X18009Y134839D01*
X17958Y134856D01*
X17898Y134872D01*
X17836Y134889D01*
X17698Y134922D01*
X17542Y134950D01*
X17387Y134972D01*
X17226Y134978D01*
D02*
G37*
G36*
X60939Y66707D02*
X59683D01*
X58649Y61745D01*
X59780D01*
X59835Y61752D01*
X59905D01*
X59988Y61759D01*
X60071D01*
X60266Y61773D01*
X60467Y61801D01*
X60675Y61829D01*
X60883Y61870D01*
X60890D01*
X60897Y61877D01*
X60939Y61884D01*
X61001Y61905D01*
X61078Y61926D01*
X61168Y61961D01*
X61265Y62002D01*
X61362Y62044D01*
X61459Y62099D01*
X61466D01*
X61473Y62106D01*
X61508Y62134D01*
X61571Y62176D01*
X61647Y62238D01*
X61730Y62314D01*
X61827Y62398D01*
X61924Y62502D01*
X62022Y62620D01*
X62028Y62627D01*
X62036Y62641D01*
X62056Y62661D01*
X62077Y62696D01*
X62105Y62738D01*
X62140Y62786D01*
X62174Y62842D01*
X62216Y62904D01*
X62299Y63050D01*
X62389Y63217D01*
X62473Y63397D01*
X62556Y63598D01*
Y63605D01*
X62563Y63626D01*
X62577Y63654D01*
X62591Y63696D01*
X62605Y63744D01*
X62618Y63807D01*
X62639Y63883D01*
X62660Y63959D01*
X62674Y64050D01*
X62695Y64147D01*
X62709Y64251D01*
X62730Y64355D01*
X62750Y64591D01*
X62757Y64848D01*
Y64855D01*
Y64882D01*
Y64924D01*
X62750Y64979D01*
Y65042D01*
X62743Y65118D01*
X62736Y65201D01*
X62722Y65292D01*
X62688Y65486D01*
X62639Y65687D01*
X62570Y65875D01*
X62528Y65965D01*
X62480Y66048D01*
Y66055D01*
X62466Y66069D01*
X62452Y66090D01*
X62431Y66118D01*
X62375Y66187D01*
X62292Y66277D01*
X62195Y66367D01*
X62077Y66458D01*
X61945Y66541D01*
X61793Y66603D01*
X61779Y66610D01*
X61758D01*
X61737Y66617D01*
X61702Y66631D01*
X61661Y66638D01*
X61612Y66645D01*
X61557Y66659D01*
X61487Y66666D01*
X61418Y66673D01*
X61342Y66687D01*
X61251Y66694D01*
X61154Y66701D01*
X61050D01*
X60939Y66707D01*
D02*
G37*
G36*
X76193Y65160D02*
X76061D01*
X76026Y65153D01*
X75978Y65146D01*
X75929Y65139D01*
X75804Y65118D01*
X75659Y65077D01*
X75506Y65014D01*
X75423Y64973D01*
X75340Y64924D01*
X75263Y64868D01*
X75180Y64806D01*
X75173Y64799D01*
X75159Y64792D01*
X75138Y64771D01*
X75110Y64736D01*
X75076Y64702D01*
X75041Y64660D01*
X74993Y64605D01*
X74944Y64542D01*
X74895Y64473D01*
X74847Y64397D01*
X74798Y64306D01*
X74743Y64209D01*
X74694Y64112D01*
X74646Y64001D01*
X74604Y63876D01*
X74562Y63751D01*
X77172Y63751D01*
Y63758D01*
Y63772D01*
X77179Y63820D01*
Y63876D01*
Y63924D01*
Y63932D01*
Y63952D01*
Y63980D01*
X77172Y64022D01*
Y64070D01*
X77165Y64133D01*
X77144Y64265D01*
X77109Y64410D01*
X77054Y64563D01*
X76977Y64709D01*
X76936Y64778D01*
X76880Y64841D01*
Y64848D01*
X76866Y64855D01*
X76825Y64889D01*
X76762Y64945D01*
X76672Y65000D01*
X76561Y65056D01*
X76429Y65111D01*
X76276Y65146D01*
X76193Y65160D01*
D02*
G37*
%LPD*%
D10*
X82224Y43677D02*
X85114D01*
X82224Y38723D02*
X85170D01*
X43084Y9333D02*
X50756D01*
X37905Y-395D02*
Y6177D01*
X28492Y6655D02*
Y28636D01*
X43019Y43163D01*
X47177D01*
X48948Y41392D01*
X53354D01*
X55420Y43458D01*
Y43871D01*
X33424Y7924D02*
Y13079D01*
X39414Y19070D01*
X49153D01*
X54155Y24072D01*
Y35024D01*
X74824Y40792D02*
X76659Y38957D01*
X74824Y42824D02*
X75787Y43787D01*
X74824Y40792D02*
Y42824D01*
X76663Y38957D02*
X76950Y38669D01*
X82224D01*
X76659Y38957D02*
X76663D01*
X75787Y43787D02*
X82224D01*
X67492Y-11976D02*
Y-11976D01*
X48524Y105994D02*
X52524D01*
X85224Y41228D02*
X96224D01*
X48524Y76790D02*
X50270Y78536D01*
X48524Y75236D02*
Y76790D01*
X50270Y78536D02*
X50523D01*
X85170Y38723D02*
X85224Y38669D01*
X85114Y43677D02*
X85224Y43787D01*
X94224D01*
X43524Y132053D02*
Y133551D01*
D11*
X33824Y64788D02*
Y65324D01*
X29559Y60524D02*
X33824Y64788D01*
X19524Y57736D02*
X22311Y60524D01*
X29559D01*
X19524Y48139D02*
Y57736D01*
X16224Y44839D02*
X19524Y48139D01*
X16224Y28419D02*
Y44839D01*
X9770Y24040D02*
X11845D01*
X16224Y28419D01*
X25651Y64713D02*
X26087Y65148D01*
X22687Y64713D02*
X25651D01*
X17469Y59495D02*
X22687Y64713D01*
X9770Y28960D02*
X11845D01*
X13045Y30160D01*
Y46093D01*
X17469Y50516D01*
Y59495D01*
X25542Y75274D02*
X29185D01*
X33924Y80013D02*
Y81204D01*
X29185Y75274D02*
X33924Y80013D01*
X15324Y65055D02*
X25542Y75274D01*
X9291Y48404D02*
X11366D01*
X15324Y52361D01*
Y65055D01*
X9291Y53324D02*
X11366D01*
X12566Y54524D01*
Y67383D01*
X26097Y80913D01*
X70824Y27424D02*
X72555D01*
X73565Y28433D02*
X85224D01*
X72555Y27424D02*
X73565Y28433D01*
X74492Y30992D02*
X85224D01*
X70817Y28888D02*
X72388D01*
X74492Y30992D01*
X71924Y29924D02*
X75551Y33551D01*
X68963Y29924D02*
X71924D01*
X75551Y33551D02*
X85224D01*
X66063Y30992D02*
X71424D01*
X76542Y36110D02*
X85224D01*
X71424Y30992D02*
X76542Y36110D01*
X63960Y11244D02*
X68152D01*
X74125Y17217D02*
Y21179D01*
X68152Y11244D02*
X74125Y17217D01*
X72123Y16630D02*
Y19222D01*
X67738Y12244D02*
X72123Y16630D01*
X64374Y12244D02*
X67738D01*
X64788Y13244D02*
X67324D01*
X65203Y14244D02*
X66909D01*
X68079Y15413D02*
Y19165D01*
X66909Y14244D02*
X68079Y15413D01*
X70078Y15999D02*
Y21135D01*
X67324Y13244D02*
X70078Y15999D01*
X67324Y23924D02*
X70824Y27424D01*
X70819Y25874D02*
X85224D01*
X66079Y21134D02*
X70819Y25874D01*
X65924Y23924D02*
X67324D01*
X64079Y25071D02*
X67000D01*
X70817Y28888D01*
X66079Y27039D02*
X68963Y29924D01*
X64079Y29008D02*
X66063Y30992D01*
X2156Y49905D02*
X4156D01*
X96524Y19524D02*
Y37524D01*
X98492Y39492D01*
X93924Y17432D02*
Y19824D01*
X96485Y16563D02*
X96524Y16524D01*
X94793Y16563D02*
X96485D01*
X93924Y17432D02*
X94793Y16563D01*
X96679Y17368D02*
X97024Y17024D01*
X90448Y20756D02*
X92924Y18281D01*
Y15038D02*
Y18281D01*
X90432Y23315D02*
X93924Y19824D01*
X85224Y23315D02*
X90432D01*
X91924Y14624D02*
Y16722D01*
Y14624D02*
X95561Y10986D01*
X97986D01*
X96509Y13538D02*
X96524Y13524D01*
X94424Y13538D02*
X96509D01*
X92924Y15038D02*
X94424Y13538D01*
X90448Y18197D02*
X91924Y16722D01*
X85224Y18197D02*
X90448D01*
X85224Y20756D02*
X90448D01*
X97986Y10986D02*
X99524Y12524D01*
X96224Y54724D02*
Y56583D01*
X60405Y89328D02*
Y99756D01*
X52724Y101594D02*
X58567D01*
X60405Y99756D01*
X47724Y68424D02*
X63424D01*
X44824Y53734D02*
Y66938D01*
X42824Y67766D02*
X46481Y71424D01*
X44824Y66938D02*
X47309Y69424D01*
X43824Y67352D02*
X46895Y70424D01*
X45824Y66524D02*
X47724Y68424D01*
X45824Y54148D02*
Y66524D01*
X46895Y70424D02*
X55324D01*
X46481Y71424D02*
X51041D01*
X43824Y53320D02*
Y67352D01*
X47309Y69424D02*
X62987D01*
X42824Y52905D02*
Y67766D01*
X45824Y54148D02*
X49448Y50524D01*
X43824Y53320D02*
X48620Y48524D01*
X42824Y52905D02*
X48206Y47524D01*
X44824Y53734D02*
X49034Y49524D01*
X63524Y96811D02*
X63524Y96811D01*
Y92324D02*
Y96811D01*
X63524Y92324D02*
X63524Y92324D01*
X61524Y89624D02*
X66724Y84424D01*
X61524Y89624D02*
Y105994D01*
X66724Y71724D02*
Y84424D01*
X65724Y72160D02*
Y84009D01*
X60405Y89328D02*
X65724Y84009D01*
X60492Y83902D02*
Y86524D01*
X63424Y68424D02*
X66724Y71724D01*
X58524Y73624D02*
Y80024D01*
X60524Y82024D02*
X62815D01*
X58524Y80024D02*
X60524Y82024D01*
X53524Y76934D02*
X60492Y83902D01*
X53524Y73906D02*
Y76934D01*
X62987Y69424D02*
X65724Y72160D01*
X55324Y70424D02*
X58524Y73624D01*
X51041Y71424D02*
X53524Y73906D01*
X48206Y47524D02*
X55724D01*
X49034Y49524D02*
X56552D01*
X48620Y48524D02*
X56138D01*
X49448Y50524D02*
X56966D01*
X60524Y18923D02*
X65203Y14244D01*
X59524Y18509D02*
X64788Y13244D01*
X57524Y17681D02*
Y45724D01*
Y17681D02*
X63960Y11244D01*
X58524Y18095D02*
Y46138D01*
X59524Y18509D02*
Y46552D01*
X58524Y18095D02*
X64374Y12244D01*
X60524Y18923D02*
Y46966D01*
X98492Y39492D02*
Y52455D01*
X23524Y41024D02*
X26024Y43524D01*
X37441D01*
X62815Y82024D02*
X62904Y82112D01*
X72024Y6524D02*
X79500D01*
X48524Y123524D02*
Y132053D01*
X96224Y54724D02*
X98492Y52455D01*
X56966Y50524D02*
X60524Y46966D01*
X55724Y47524D02*
X57524Y45724D01*
X56138Y48524D02*
X58524Y46138D01*
X56552Y49524D02*
X59524Y46552D01*
X43524Y88024D02*
X46424D01*
X48524Y90124D02*
Y96811D01*
X46424Y88024D02*
X48524Y90124D01*
X82291Y-5744D02*
X85855D01*
X81024Y-4476D02*
Y5000D01*
Y-4476D02*
X82291Y-5744D01*
X79500Y6524D02*
X81024Y5000D01*
X59079Y-4968D02*
Y9524D01*
Y-4968D02*
X59855Y-5744D01*
X46152Y101594D02*
X52724D01*
X43524Y133551D02*
Y133825D01*
X44405Y134706D01*
X44679D02*
X46924Y136951D01*
X44405Y134706D02*
X44679D01*
X64079Y19165D02*
Y22079D01*
X65924Y23924D01*
X85224Y54024D02*
X94224D01*
X85224Y48906D02*
X94224D01*
X85224Y51465D02*
X96224D01*
X85224Y46346D02*
X96224D01*
X43524Y104222D02*
X46152Y101594D01*
X43524Y104222D02*
Y105994D01*
X60642Y134706D02*
X60642D01*
X61524Y132053D02*
Y133825D01*
X60642Y134706D02*
X61524Y133825D01*
D15*
X48523Y75236D02*
D03*
X53523D02*
D03*
X58523D02*
D03*
X63523D02*
D03*
D16*
X48524Y96811D02*
D03*
X53524D02*
D03*
X58524D02*
D03*
X63524D02*
D03*
D17*
X-8675Y68606D02*
D03*
Y103802D02*
D03*
D18*
X12191Y81204D02*
D03*
Y91204D02*
D03*
D19*
X-4349Y60534D02*
D03*
X-4349Y41284D02*
D03*
X-3870Y16920D02*
D03*
X-3870Y36170D02*
D03*
D20*
X9291Y48404D02*
D03*
Y53324D02*
D03*
X9770Y28960D02*
D03*
Y24040D02*
D03*
D21*
X50284Y-6870D02*
D03*
X21114D02*
D03*
D22*
X38164Y6770D02*
D03*
X43084D02*
D03*
X33244D02*
D03*
X28324D02*
D03*
D23*
X82224Y54024D02*
D03*
Y51465D02*
D03*
Y48906D02*
D03*
Y46346D02*
D03*
Y43787D02*
D03*
Y41228D02*
D03*
Y38669D02*
D03*
Y36110D02*
D03*
Y33551D02*
D03*
Y30992D02*
D03*
Y28433D02*
D03*
Y25874D02*
D03*
Y23315D02*
D03*
Y20756D02*
D03*
Y18197D02*
D03*
D24*
X111024Y64315D02*
D03*
Y75732D02*
D03*
Y96732D02*
D03*
Y85315D02*
D03*
D25*
X87315Y66524D02*
D03*
X98732D02*
D03*
X87315Y94524D02*
D03*
X98732D02*
D03*
X87315Y80524D02*
D03*
X98732D02*
D03*
D26*
X135024Y67024D02*
D03*
X125024Y100024D02*
D03*
X135024D02*
D03*
X125024Y67024D02*
D03*
D27*
X76193Y-5744D02*
D03*
X59855Y-5744D02*
D03*
X76192Y-14209D02*
D03*
X59854Y-14209D02*
D03*
X102193Y-5744D02*
D03*
X85855Y-5744D02*
D03*
X102192Y-14209D02*
D03*
X85854Y-14209D02*
D03*
D28*
X74424Y73772D02*
D03*
Y92276D02*
D03*
X29024Y128276D02*
D03*
Y109772D02*
D03*
D29*
X48524Y105994D02*
D03*
X43524D02*
D03*
Y132053D02*
D03*
X48524D02*
D03*
X56524Y132053D02*
D03*
X61524D02*
D03*
Y105994D02*
D03*
X56524D02*
D03*
D47*
X-7783Y64324D02*
D03*
X-8776Y47424D02*
D03*
X-7476Y39024D02*
D03*
X74524Y38024D02*
D03*
X72123Y23147D02*
D03*
X70524Y33024D02*
D03*
X74125Y21179D02*
D03*
X72123Y19222D02*
D03*
X70078Y21135D02*
D03*
X66079Y27039D02*
D03*
X64079Y29008D02*
D03*
X68079Y19165D02*
D03*
X115524Y60524D02*
D03*
Y62024D02*
D03*
X23024Y134055D02*
D03*
X71024Y80524D02*
D03*
X72524Y79024D02*
D03*
X71024Y82024D02*
D03*
X72524D02*
D03*
X74024Y79024D02*
D03*
Y80524D02*
D03*
X71024Y83524D02*
D03*
X72524D02*
D03*
X75524Y79024D02*
D03*
Y80524D02*
D03*
X123524Y61524D02*
D03*
Y63024D02*
D03*
X125024D02*
D03*
X126524D02*
D03*
X125024Y61524D02*
D03*
X126524D02*
D03*
X136524D02*
D03*
X135024D02*
D03*
X136524Y63024D02*
D03*
X135024D02*
D03*
X133524D02*
D03*
Y61524D02*
D03*
X96524Y19524D02*
D03*
Y13524D02*
D03*
X99524Y12524D02*
D03*
X96024Y8024D02*
D03*
X96524Y16524D02*
D03*
X96224Y56583D02*
D03*
X133524Y105524D02*
D03*
Y104024D02*
D03*
X135024D02*
D03*
X136524D02*
D03*
X135024Y105524D02*
D03*
X136524D02*
D03*
X126524D02*
D03*
X125024D02*
D03*
X126524Y104024D02*
D03*
X125024D02*
D03*
X123524D02*
D03*
Y105524D02*
D03*
X118524Y62024D02*
D03*
Y60524D02*
D03*
X117024D02*
D03*
Y62024D02*
D03*
X104624Y88224D02*
D03*
Y86724D02*
D03*
X103124D02*
D03*
Y88224D02*
D03*
X98624Y86724D02*
D03*
Y88224D02*
D03*
X100124D02*
D03*
Y86724D02*
D03*
X1496Y46019D02*
D03*
X-5376Y47216D02*
D03*
X71024Y79024D02*
D03*
X72524Y80524D02*
D03*
X94390Y90024D02*
D03*
X95890D02*
D03*
Y88524D02*
D03*
X122555Y55924D02*
D03*
X101624Y88224D02*
D03*
Y86724D02*
D03*
X60492Y86524D02*
D03*
X63524Y92324D02*
D03*
X82524Y103424D02*
D03*
X79524Y105424D02*
D03*
X82524Y101424D02*
D03*
X79524D02*
D03*
X82524Y105424D02*
D03*
X79524Y103424D02*
D03*
X125024Y72524D02*
D03*
Y71024D02*
D03*
X126524Y72524D02*
D03*
Y71024D02*
D03*
X123524D02*
D03*
Y72524D02*
D03*
X104424Y105424D02*
D03*
X106424D02*
D03*
Y103424D02*
D03*
Y101424D02*
D03*
X104424D02*
D03*
Y103424D02*
D03*
X84524Y105424D02*
D03*
Y103424D02*
D03*
Y101424D02*
D03*
X136524Y72524D02*
D03*
X135024D02*
D03*
X133524D02*
D03*
Y71024D02*
D03*
X135024D02*
D03*
X136524D02*
D03*
X133524Y94524D02*
D03*
X135024D02*
D03*
X136524D02*
D03*
Y96024D02*
D03*
X135024D02*
D03*
X133524D02*
D03*
X67524Y103424D02*
D03*
Y101424D02*
D03*
X69524D02*
D03*
Y103424D02*
D03*
Y105424D02*
D03*
X67524D02*
D03*
X99424Y103424D02*
D03*
Y101424D02*
D03*
X101424D02*
D03*
Y103424D02*
D03*
Y105424D02*
D03*
X99424D02*
D03*
X89424Y103424D02*
D03*
Y101424D02*
D03*
X91424D02*
D03*
Y103424D02*
D03*
Y105424D02*
D03*
X89424D02*
D03*
X85524Y129724D02*
D03*
X80524Y134724D02*
D03*
X75524D02*
D03*
X64524Y133890D02*
D03*
X65024Y111024D02*
D03*
X59724Y129553D02*
D03*
X77524Y103424D02*
D03*
Y101424D02*
D03*
Y105424D02*
D03*
X54796Y104024D02*
D03*
X123524Y96024D02*
D03*
X125024D02*
D03*
X126524D02*
D03*
Y94524D02*
D03*
X125024D02*
D03*
X123524D02*
D03*
X50024Y44555D02*
D03*
X81992Y64524D02*
D03*
X1492Y53024D02*
D03*
X492Y79524D02*
D03*
Y81524D02*
D03*
Y93524D02*
D03*
Y91524D02*
D03*
Y83524D02*
D03*
Y85524D02*
D03*
X23524Y41024D02*
D03*
X37441Y43524D02*
D03*
X22606Y53524D02*
D03*
X62904Y82112D02*
D03*
X37441Y53524D02*
D03*
X67492Y-11976D02*
D03*
X3712Y62824D02*
D03*
X24124Y35624D02*
D03*
X1492Y39024D02*
D03*
Y32024D02*
D03*
X51622Y36838D02*
D03*
X45441Y38524D02*
D03*
X72024Y6524D02*
D03*
X52524Y105994D02*
D03*
X97424Y132724D02*
D03*
X48524Y123524D02*
D03*
X120055Y27424D02*
D03*
Y32424D02*
D03*
X135555Y24924D02*
D03*
Y34924D02*
D03*
Y17924D02*
D03*
X122555D02*
D03*
X55524Y44024D02*
D03*
X67524Y38024D02*
D03*
X64524D02*
D03*
X70524D02*
D03*
X44024Y75024D02*
D03*
X45441Y32524D02*
D03*
X99024Y7024D02*
D03*
X90024Y10024D02*
D03*
X93024Y9024D02*
D03*
X96224Y41228D02*
D03*
X107424Y132724D02*
D03*
X88992Y4024D02*
D03*
X105024Y5024D02*
D03*
X102024Y6024D02*
D03*
X102424Y132724D02*
D03*
X18606Y15724D02*
D03*
X74524Y-1476D02*
D03*
X37441Y48524D02*
D03*
X43524Y82024D02*
D03*
X492Y87524D02*
D03*
Y89524D02*
D03*
X-1008Y87524D02*
D03*
Y89524D02*
D03*
X-7008D02*
D03*
Y87524D02*
D03*
X-8508Y89524D02*
D03*
Y87524D02*
D03*
X-10008Y89524D02*
D03*
Y87524D02*
D03*
X-11508Y89524D02*
D03*
Y87524D02*
D03*
X-14508Y89524D02*
D03*
X-13008Y87524D02*
D03*
X-14508D02*
D03*
X-13008Y89524D02*
D03*
X-12508Y84024D02*
D03*
X135555Y48924D02*
D03*
X94224Y43787D02*
D03*
X126992Y39424D02*
D03*
X126992Y27424D02*
D03*
X66165Y16824D02*
D03*
X57155Y-14209D02*
D03*
X59079Y9524D02*
D03*
X45441Y27524D02*
D03*
X54079Y34913D02*
D03*
X88055Y57524D02*
D03*
X49024Y38492D02*
D03*
X74441Y54524D02*
D03*
X54724Y129553D02*
D03*
X27024Y119169D02*
D03*
X1492Y25024D02*
D03*
X46924Y136951D02*
D03*
X99424Y-13476D02*
D03*
X83082Y-14476D02*
D03*
X73455Y-13476D02*
D03*
X67524Y33024D02*
D03*
X48443Y24532D02*
D03*
X-7476Y32024D02*
D03*
X-4699Y16929D02*
D03*
X-6699D02*
D03*
X-8698D02*
D03*
X-10699D02*
D03*
X-12698D02*
D03*
X-14698D02*
D03*
X24824Y121669D02*
D03*
X53024Y134055D02*
D03*
X70024Y123024D02*
D03*
X72024Y125024D02*
D03*
X70024Y121024D02*
D03*
Y119024D02*
D03*
X72024Y121024D02*
D03*
X74024Y117024D02*
D03*
X72024D02*
D03*
X76024D02*
D03*
X80024D02*
D03*
X78024D02*
D03*
X82024D02*
D03*
Y119024D02*
D03*
X74024D02*
D03*
Y121024D02*
D03*
X78024Y119024D02*
D03*
X76024Y121024D02*
D03*
X74024Y123024D02*
D03*
X76024Y125024D02*
D03*
X74024D02*
D03*
X78024Y121024D02*
D03*
Y123024D02*
D03*
X82024Y121024D02*
D03*
X80024D02*
D03*
Y125024D02*
D03*
X78024D02*
D03*
X82024Y123024D02*
D03*
Y125024D02*
D03*
X91924Y123024D02*
D03*
X93924Y125024D02*
D03*
X91924Y121024D02*
D03*
X93924Y117024D02*
D03*
X97924D02*
D03*
X95924D02*
D03*
X91924Y119024D02*
D03*
X93924Y121024D02*
D03*
X95924Y119024D02*
D03*
Y121024D02*
D03*
X99924Y117024D02*
D03*
Y119024D02*
D03*
X103924Y117024D02*
D03*
X101924D02*
D03*
Y121024D02*
D03*
X97924D02*
D03*
X103924Y119024D02*
D03*
Y121024D02*
D03*
X99924D02*
D03*
X95924Y123024D02*
D03*
X103924D02*
D03*
X99924D02*
D03*
X97924Y125024D02*
D03*
X95924D02*
D03*
X103924D02*
D03*
X99924D02*
D03*
X101924D02*
D03*
X91924D02*
D03*
X70024D02*
D03*
X50523Y78536D02*
D03*
X64079Y19165D02*
D03*
Y25071D02*
D03*
X94224Y48906D02*
D03*
X96224Y46346D02*
D03*
X66079Y21134D02*
D03*
X94224Y54024D02*
D03*
X96224Y51465D02*
D03*
X5212Y62824D02*
D03*
X3712Y64324D02*
D03*
X5212D02*
D03*
X-2699Y16929D02*
D03*
X61892Y77424D02*
D03*
X52724Y101594D02*
D03*
X43524Y91024D02*
D03*
Y88024D02*
D03*
X-3945Y63524D02*
D03*
X-12508Y93024D02*
D03*
X109555Y55924D02*
D03*
X122555Y41924D02*
D03*
X109555D02*
D03*
X109555Y17924D02*
D03*
X43524Y96024D02*
D03*
X-10699Y105118D02*
D03*
X-8698D02*
D03*
X-12698D02*
D03*
X-14698D02*
D03*
X-6699D02*
D03*
X-4699D02*
D03*
X-2699D02*
D03*
D48*
X33824Y65324D02*
D03*
X26087Y65148D02*
D03*
X33924Y81204D02*
D03*
X26097Y80913D02*
D03*
X37905Y-1476D02*
D03*
X52024Y10148D02*
D03*
D49*
X122047Y122047D02*
D03*
Y0D02*
D03*
X0D02*
D03*
Y122047D02*
D03*
M02*
