G04*
G04 #@! TF.GenerationSoftware,Altium Limited,Altium Designer,20.0.2 (26)*
G04*
G04 Layer_Physical_Order=2*
G04 Layer_Color=36540*
%FSLAX25Y25*%
%MOIN*%
G70*
G01*
G75*
%ADD11C,0.00600*%
%ADD47C,0.02400*%
%ADD48C,0.05000*%
%ADD50C,0.02000*%
G36*
X105124Y125524D02*
Y116524D01*
X104424Y115824D01*
X93424D01*
X90724Y118524D01*
X90724Y125524D01*
X91424Y126224D01*
X104424D01*
X105124Y125524D01*
D02*
G37*
G36*
X83224D02*
Y116524D01*
X82524Y115824D01*
X71524D01*
X68824Y118524D01*
X68824Y125524D01*
X69524Y126224D01*
X82524D01*
X83224Y125524D01*
D02*
G37*
G36*
X120424Y102024D02*
X132224D01*
X137724Y96524D01*
Y94024D01*
X137024Y93324D01*
X133024D01*
X132324Y94024D01*
Y95324D01*
X129724Y97924D01*
X117824Y97924D01*
X107824Y107924D01*
X103824D01*
X102624Y106724D01*
X102624Y100924D01*
X101924Y100224D01*
X98924D01*
X98224Y100924D01*
X98224Y108424D01*
X101524Y111724D01*
X110724Y111724D01*
X120424Y102024D01*
D02*
G37*
G36*
X92624Y105924D02*
Y103840D01*
X99240Y97224D01*
X127024D01*
X127724Y96524D01*
Y94024D01*
X126624Y92924D01*
X96224D01*
X88224Y100924D01*
Y105924D01*
X88924Y106624D01*
X91924D01*
X92624Y105924D01*
D02*
G37*
G36*
X80724D02*
Y100924D01*
X107324Y74324D01*
X126424Y74324D01*
X127724Y73024D01*
X127724Y70524D01*
X127024Y69824D01*
X104824D01*
X76324Y98324D01*
Y105924D01*
X77024Y106624D01*
X80024D01*
X80724Y105924D01*
D02*
G37*
G36*
X70724D02*
X70724Y103124D01*
X104524Y69324D01*
X129924D01*
X132324Y71724D01*
X132324Y73024D01*
X133074Y73774D01*
X136974Y73774D01*
X137724Y73024D01*
X137724Y70392D01*
X131955Y64624D01*
X102623Y64624D01*
X66324Y100924D01*
X66324Y105924D01*
X67024Y106624D01*
X70024D01*
X70724Y105924D01*
D02*
G37*
D11*
X-3945Y43524D02*
Y43701D01*
Y44555D02*
Y44746D01*
X-4122Y44924D02*
X-3945Y44746D01*
X-6276Y44924D02*
X-4122D01*
X-8776Y47424D02*
X-6276Y44924D01*
X73524Y37024D02*
X74524Y38024D01*
X70524Y33024D02*
X72524Y35024D01*
X73524Y33124D02*
Y37024D01*
X93024Y13824D02*
Y29781D01*
X98679Y7368D02*
X99024Y7024D01*
X98679Y7368D02*
Y8168D01*
X93024Y13824D02*
X98679Y8168D01*
X95689Y8359D02*
X96024Y8024D01*
X95689Y8359D02*
Y9459D01*
X92024Y13124D02*
Y30195D01*
X92679Y9368D02*
X93024Y9024D01*
X92024Y13124D02*
X95689Y9459D01*
X92679Y9368D02*
Y11054D01*
X91024Y12709D02*
X92679Y11054D01*
X91024Y12709D02*
Y30609D01*
X105024Y5024D02*
Y8309D01*
X104068Y9264D02*
Y61751D01*
Y9264D02*
X105024Y8309D01*
X102024Y6024D02*
Y8224D01*
X103024Y9224D02*
Y61380D01*
X102024Y8224D02*
X103024Y9224D01*
X101024Y39195D02*
Y60552D01*
X77895Y87924D02*
X104068Y61751D01*
X102024Y38781D02*
Y60966D01*
X83224Y75524D02*
X99024Y59724D01*
X83224Y75524D02*
Y75524D01*
X100024Y39609D02*
Y60138D01*
X99024Y40024D02*
Y59724D01*
X77066Y85924D02*
X102024Y60966D01*
X77481Y86924D02*
X103024Y61380D01*
X76652Y84924D02*
X101024Y60552D01*
X76238Y83924D02*
X100024Y60138D01*
X77066Y85924D02*
X77066D01*
X77481Y86924D02*
X77481D01*
X76652Y84924D02*
X76652D01*
X75824Y82924D02*
X75824D01*
X76238Y83924D02*
X76238D01*
X75824Y82924D02*
X83224Y75524D01*
X77895Y87924D02*
X77895D01*
X58924Y102652D02*
X76652Y84924D01*
X61924Y103895D02*
X77895Y87924D01*
X60924Y103481D02*
X77481Y86924D01*
X59196Y100965D02*
X76238Y83924D01*
X59924Y103066D02*
X77066Y85924D01*
X83124Y127624D02*
X87824D01*
X88924Y128724D02*
X103424D01*
X87824Y127624D02*
X88924Y128724D01*
X88824Y130724D02*
X100424D01*
X87824Y131724D02*
X88824Y130724D01*
X100424D02*
X102424Y132724D01*
X103424Y128724D02*
X107424Y132724D01*
X83038Y131724D02*
X87824D01*
X69995Y128724D02*
X82024D01*
X83124Y127624D01*
X68752Y131724D02*
X81624D01*
X82624Y132724D01*
X97424D01*
X69166Y130724D02*
X82038D01*
X83038Y131724D01*
X60924Y121067D02*
X69581Y129724D01*
X60924Y103481D02*
Y121067D01*
X59196Y100965D02*
X59196D01*
X56924Y101824D02*
X75824Y82924D01*
X57924Y102238D02*
X59196Y100965D01*
X57924Y102238D02*
Y122309D01*
X56924Y101824D02*
Y122724D01*
X58924Y102652D02*
Y121895D01*
X59924Y121481D02*
X69166Y130724D01*
X57924Y122309D02*
X68338Y132724D01*
X56924Y122724D02*
X68924Y134724D01*
X59924Y103066D02*
Y121481D01*
X58924Y121895D02*
X68752Y131724D01*
X61924Y103895D02*
Y120653D01*
X69581Y129724D02*
X85524D01*
X61924Y120653D02*
X69995Y128724D01*
X78524Y132724D02*
X80524Y134724D01*
X68338Y132724D02*
X78524D01*
X68924Y134724D02*
X75524D01*
X91024Y30609D02*
X100024Y39609D01*
X92024Y30195D02*
X101024Y39195D01*
X90024Y31024D02*
X99024Y40024D01*
X93024Y29781D02*
X102024Y38781D01*
X71524Y31124D02*
X73524Y33124D01*
X72524Y35024D02*
Y39024D01*
X71524Y40024D02*
X72524Y39024D01*
X59952Y31124D02*
X71524D01*
X22606Y53524D02*
X24606Y55524D01*
X37441Y53524D02*
X40324D01*
X39738Y55524D02*
X42524Y52738D01*
X24606Y55524D02*
X39738D01*
X45441Y38524D02*
X47309Y40392D01*
X50756D01*
X43524Y96024D02*
Y121609D01*
X45438Y123524D01*
X48524D01*
X54424Y39024D02*
X55424Y38024D01*
X43755Y41392D02*
X52055D01*
X50756Y40392D02*
X53124Y38024D01*
X44045Y42516D02*
X52345D01*
X42524Y44038D02*
X44045Y42516D01*
X53124Y38024D02*
X54009D01*
X54424Y39024D02*
X54424D01*
X52055Y41392D02*
X54424Y39024D01*
X54009Y38024D02*
X56009Y36024D01*
X41524Y43624D02*
X43755Y41392D01*
X41524Y43624D02*
Y52324D01*
X52345Y42516D02*
X54838Y40024D01*
X40324Y53524D02*
X41524Y52324D01*
X42524Y44038D02*
Y52738D01*
X54838Y40024D02*
X71524D01*
X65524Y36024D02*
X67524Y38024D01*
X56009Y36024D02*
X65524D01*
X61024Y35024D02*
X67524D01*
X70524Y38024D01*
X55424D02*
X64524D01*
X50542Y24543D02*
X61024Y35024D01*
X60438Y33024D02*
X67524D01*
X50038Y22624D02*
X60438Y33024D01*
X43524Y30606D02*
X45441Y32524D01*
X90024Y10024D02*
Y31024D01*
X45441Y24806D02*
Y27524D01*
X50452Y21624D02*
X59952Y31124D01*
X48443Y24532D02*
X48453Y24543D01*
X50542D01*
X47209Y21624D02*
X50452D01*
X43524Y25309D02*
X47209Y21624D01*
X43524Y25309D02*
Y30606D01*
X45441Y24806D02*
X47624Y22624D01*
X50038D01*
D47*
X-8776Y47424D02*
D03*
X74524Y38024D02*
D03*
X70524Y33024D02*
D03*
X96024Y8024D02*
D03*
X79524Y105424D02*
D03*
Y101424D02*
D03*
Y103424D02*
D03*
X125024Y72524D02*
D03*
Y71024D02*
D03*
X126524Y72524D02*
D03*
Y71024D02*
D03*
X123524D02*
D03*
Y72524D02*
D03*
X136524D02*
D03*
X135024D02*
D03*
X133524D02*
D03*
Y71024D02*
D03*
X135024D02*
D03*
X136524D02*
D03*
X133524Y94524D02*
D03*
X135024D02*
D03*
X136524D02*
D03*
Y96024D02*
D03*
X135024D02*
D03*
X133524D02*
D03*
X67524Y103424D02*
D03*
Y101424D02*
D03*
X69524D02*
D03*
Y103424D02*
D03*
Y105424D02*
D03*
X67524D02*
D03*
X99424Y103424D02*
D03*
Y101424D02*
D03*
X101424D02*
D03*
Y103424D02*
D03*
Y105424D02*
D03*
X99424D02*
D03*
X89424Y103424D02*
D03*
Y101424D02*
D03*
X91424D02*
D03*
Y103424D02*
D03*
Y105424D02*
D03*
X89424D02*
D03*
X85524Y129724D02*
D03*
X80524Y134724D02*
D03*
X75524D02*
D03*
X77524Y103424D02*
D03*
Y101424D02*
D03*
Y105424D02*
D03*
X123524Y96024D02*
D03*
X125024D02*
D03*
X126524D02*
D03*
Y94524D02*
D03*
X125024D02*
D03*
X123524D02*
D03*
X81992Y64524D02*
D03*
X22606Y53524D02*
D03*
X37441D02*
D03*
X67492Y-11976D02*
D03*
X24124Y35624D02*
D03*
X45441Y38524D02*
D03*
X52524Y105994D02*
D03*
X97424Y132724D02*
D03*
X48524Y123524D02*
D03*
X67524Y38024D02*
D03*
X64524D02*
D03*
X70524D02*
D03*
X45441Y32524D02*
D03*
X99024Y7024D02*
D03*
X90024Y10024D02*
D03*
X93024Y9024D02*
D03*
X107424Y132724D02*
D03*
X105024Y5024D02*
D03*
X102024Y6024D02*
D03*
X102424Y132724D02*
D03*
X126992Y39424D02*
D03*
X126992Y27424D02*
D03*
X45441Y27524D02*
D03*
X49024Y38492D02*
D03*
X67524Y33024D02*
D03*
X48443Y24532D02*
D03*
X70024Y123024D02*
D03*
X72024Y125024D02*
D03*
X70024Y121024D02*
D03*
Y119024D02*
D03*
X72024Y121024D02*
D03*
X74024Y117024D02*
D03*
X72024D02*
D03*
X76024D02*
D03*
X80024D02*
D03*
X78024D02*
D03*
X82024D02*
D03*
Y119024D02*
D03*
X74024D02*
D03*
Y121024D02*
D03*
X78024Y119024D02*
D03*
X76024Y121024D02*
D03*
X74024Y123024D02*
D03*
X76024Y125024D02*
D03*
X74024D02*
D03*
X78024Y121024D02*
D03*
Y123024D02*
D03*
X82024Y121024D02*
D03*
X80024D02*
D03*
Y125024D02*
D03*
X78024D02*
D03*
X82024Y123024D02*
D03*
Y125024D02*
D03*
X91924Y123024D02*
D03*
X93924Y125024D02*
D03*
X91924Y121024D02*
D03*
X93924Y117024D02*
D03*
X97924D02*
D03*
X95924D02*
D03*
X91924Y119024D02*
D03*
X93924Y121024D02*
D03*
X95924Y119024D02*
D03*
Y121024D02*
D03*
X99924Y117024D02*
D03*
Y119024D02*
D03*
X103924Y117024D02*
D03*
X101924D02*
D03*
Y121024D02*
D03*
X97924D02*
D03*
X103924Y119024D02*
D03*
Y121024D02*
D03*
X99924D02*
D03*
X95924Y123024D02*
D03*
X103924D02*
D03*
X99924D02*
D03*
X97924Y125024D02*
D03*
X95924D02*
D03*
X103924D02*
D03*
X99924D02*
D03*
X101924D02*
D03*
X91924D02*
D03*
X70024D02*
D03*
X61892Y77424D02*
D03*
X43524Y96024D02*
D03*
D48*
X52024Y10148D02*
D03*
D50*
X45524Y16824D02*
X54724Y7624D01*
X1524Y49724D02*
X7924D01*
X-3945Y44255D02*
X1524Y49724D01*
X-3945Y43701D02*
Y44255D01*
Y38885D02*
Y43524D01*
Y38885D02*
X-684Y35624D01*
X24124D01*
X35974Y58624D02*
X54774Y77424D01*
X49524Y91638D02*
Y102994D01*
X61845Y77471D02*
X61892Y77424D01*
X61845Y77471D02*
Y79316D01*
X49524Y91638D02*
X61845Y79316D01*
X61892Y77424D02*
X65392Y73924D01*
X72592D02*
X81992Y64524D01*
X65392Y73924D02*
X72592D01*
X126992Y27424D02*
Y28524D01*
X126992Y28524D02*
Y39424D01*
X54774Y77424D02*
X61892D01*
X126992Y17792D02*
Y27424D01*
X16824Y58624D02*
X35974D01*
X54724Y-4976D02*
Y7624D01*
X34324Y16824D02*
X45524D01*
X24124Y27024D02*
Y35624D01*
Y27024D02*
X34324Y16824D01*
X7924Y49724D02*
X16824Y58624D01*
X67492Y-11976D02*
X70224D01*
X61724D02*
X67492D01*
X54724Y-4976D02*
X61724Y-11976D01*
X73524Y-8676D02*
X103324D01*
X70224Y-11976D02*
X73524Y-8676D01*
X116024Y14424D02*
X123624D01*
X126992Y17792D01*
X107624Y-4376D02*
Y6024D01*
X103324Y-8676D02*
X107624Y-4376D01*
X24124Y35624D02*
X47652D01*
X48947Y36919D01*
Y38416D01*
X49024Y38492D01*
X49524Y102994D02*
X52524Y105994D01*
X107624Y6024D02*
X116024Y14424D01*
M02*
