G04*
G04 #@! TF.GenerationSoftware,Altium Limited,Altium Designer,20.0.2 (26)*
G04*
G04 Layer_Color=255*
%FSLAX25Y25*%
%MOIN*%
G70*
G01*
G75*
%ADD25R,0.06000X0.10000*%
%ADD52R,0.02559X0.04528*%
%ADD53O,0.07087X0.01181*%
%ADD54O,0.01181X0.07087*%
%ADD55R,0.07087X0.04449*%
%ADD56R,0.03661X0.03858*%
%ADD57R,0.15748X0.11810*%
%ADD58O,0.02362X0.07079*%
%ADD59R,0.03268X0.03937*%
%ADD60R,0.06500X0.05000*%
%ADD61R,0.03858X0.03661*%
%ADD62R,0.04331X0.02362*%
%ADD63R,0.04000X0.05500*%
%ADD64R,0.04449X0.07087*%
%ADD65O,0.06496X0.02362*%
%ADD66R,0.06496X0.02362*%
%ADD67R,0.03937X0.03150*%
G04:AMPARAMS|DCode=68|XSize=39.37mil|YSize=31.5mil|CornerRadius=0mil|HoleSize=0mil|Usage=FLASHONLY|Rotation=0.000|XOffset=0mil|YOffset=0mil|HoleType=Round|Shape=Octagon|*
%AMOCTAGOND68*
4,1,8,0.01968,-0.00787,0.01968,0.00787,0.01181,0.01575,-0.01181,0.01575,-0.01968,0.00787,-0.01968,-0.00787,-0.01181,-0.01575,0.01181,-0.01575,0.01968,-0.00787,0.0*
%
%ADD68OCTAGOND68*%

%ADD69R,0.04567X0.05787*%
%ADD70R,0.04528X0.05512*%
D25*
X113232Y66524D02*
D03*
X101815D02*
D03*
X113232Y80524D02*
D03*
X101815D02*
D03*
X113232Y94524D02*
D03*
X101815D02*
D03*
D52*
X-6976Y58831D02*
D03*
X-10717Y47216D02*
D03*
X-3236D02*
D03*
D53*
X90969Y38850D02*
D03*
Y36882D02*
D03*
Y34913D02*
D03*
Y32945D02*
D03*
Y30976D02*
D03*
Y29008D02*
D03*
Y27039D02*
D03*
Y25071D02*
D03*
Y23102D02*
D03*
Y21134D02*
D03*
Y19165D02*
D03*
Y17197D02*
D03*
X59079D02*
D03*
Y19165D02*
D03*
Y21134D02*
D03*
Y23102D02*
D03*
Y25071D02*
D03*
Y27039D02*
D03*
Y29008D02*
D03*
Y30976D02*
D03*
Y32945D02*
D03*
Y34913D02*
D03*
Y36882D02*
D03*
Y38850D02*
D03*
D54*
X85850Y12079D02*
D03*
X83882D02*
D03*
X81913D02*
D03*
X79945D02*
D03*
X77976D02*
D03*
X76008D02*
D03*
X74039D02*
D03*
X72071D02*
D03*
X70102D02*
D03*
X68134D02*
D03*
X66165D02*
D03*
X64197D02*
D03*
Y43968D02*
D03*
X66165D02*
D03*
X68134D02*
D03*
X70102D02*
D03*
X72071D02*
D03*
X74039D02*
D03*
X76008D02*
D03*
X77976D02*
D03*
X79945D02*
D03*
X81913D02*
D03*
X83882D02*
D03*
X85850D02*
D03*
D55*
X77024Y95890D02*
D03*
Y84158D02*
D03*
X90024D02*
D03*
Y95890D02*
D03*
X59524Y133890D02*
D03*
Y122158D02*
D03*
D56*
X81992Y54024D02*
D03*
X88055D02*
D03*
X88055Y61024D02*
D03*
X81992D02*
D03*
Y68024D02*
D03*
X88055D02*
D03*
X66555Y96024D02*
D03*
X60492D02*
D03*
X133055Y48924D02*
D03*
X126992D02*
D03*
X100992Y17924D02*
D03*
X107055D02*
D03*
X126992D02*
D03*
X133055D02*
D03*
X113992D02*
D03*
X120055D02*
D03*
X100992Y48924D02*
D03*
X107055D02*
D03*
X120055D02*
D03*
X113992D02*
D03*
X60492Y89024D02*
D03*
X66555D02*
D03*
X53555Y75024D02*
D03*
X47492D02*
D03*
X48555Y106024D02*
D03*
X42492D02*
D03*
X28492D02*
D03*
X34555D02*
D03*
X3992Y32024D02*
D03*
X10055D02*
D03*
X3992Y46024D02*
D03*
X10055D02*
D03*
X126992Y24924D02*
D03*
X133055D02*
D03*
X-3945Y93024D02*
D03*
X-10008D02*
D03*
X107055Y55924D02*
D03*
X100992D02*
D03*
X120055D02*
D03*
X113992D02*
D03*
X126992D02*
D03*
X133055D02*
D03*
X113992Y24924D02*
D03*
X120055D02*
D03*
Y34924D02*
D03*
X113992D02*
D03*
Y41924D02*
D03*
X120055D02*
D03*
X10055Y18024D02*
D03*
X3992D02*
D03*
X-10008Y32024D02*
D03*
X-3945D02*
D03*
X-10008Y84024D02*
D03*
X-3945D02*
D03*
X-10008Y39024D02*
D03*
X-3945D02*
D03*
X53555Y96024D02*
D03*
X47492D02*
D03*
X66555Y82024D02*
D03*
X60492D02*
D03*
X47492Y89024D02*
D03*
X53555D02*
D03*
X60492Y75024D02*
D03*
X66555D02*
D03*
X47492Y82024D02*
D03*
X53555D02*
D03*
X97055Y-11976D02*
D03*
X90992D02*
D03*
Y2024D02*
D03*
X97055D02*
D03*
X84055Y-11976D02*
D03*
X77992D02*
D03*
X64992Y2024D02*
D03*
X71055D02*
D03*
X64992Y-4976D02*
D03*
X71055D02*
D03*
X84055Y2024D02*
D03*
X77992D02*
D03*
X90992Y-4976D02*
D03*
X97055D02*
D03*
X77992D02*
D03*
X84055D02*
D03*
X10055Y25024D02*
D03*
X3992D02*
D03*
X10055Y53024D02*
D03*
X3992D02*
D03*
X10055Y39024D02*
D03*
X3992D02*
D03*
X133055Y41924D02*
D03*
X126992D02*
D03*
X71055Y-11976D02*
D03*
X64992D02*
D03*
X126992Y34924D02*
D03*
X133055D02*
D03*
X107055Y41924D02*
D03*
X100992D02*
D03*
D57*
X76024Y121024D02*
D03*
X97924D02*
D03*
D58*
X68524Y132724D02*
D03*
X73524D02*
D03*
X78524D02*
D03*
X83524D02*
D03*
X68524Y109324D02*
D03*
X73524D02*
D03*
X78524D02*
D03*
X83524D02*
D03*
X105424D02*
D03*
X100424D02*
D03*
X95424D02*
D03*
X90424D02*
D03*
X105424Y132724D02*
D03*
X100424D02*
D03*
X95424D02*
D03*
X90424D02*
D03*
D59*
X59524Y114669D02*
D03*
Y105378D02*
D03*
X27024Y112378D02*
D03*
Y121669D02*
D03*
D60*
X19024Y106274D02*
D03*
Y119774D02*
D03*
D61*
X50524Y120055D02*
D03*
Y113992D02*
D03*
Y127992D02*
D03*
Y134055D02*
D03*
X43024Y134055D02*
D03*
Y127992D02*
D03*
X35524Y127992D02*
D03*
Y134055D02*
D03*
X28024Y127992D02*
D03*
Y134055D02*
D03*
X20524Y127992D02*
D03*
Y134055D02*
D03*
X50024Y47055D02*
D03*
Y40992D02*
D03*
D62*
X33012Y113284D02*
D03*
Y117024D02*
D03*
Y120764D02*
D03*
X44035D02*
D03*
Y117024D02*
D03*
Y113284D02*
D03*
D63*
X14524Y84024D02*
D03*
X5524D02*
D03*
X14524Y75024D02*
D03*
X5524D02*
D03*
D64*
X6890Y103024D02*
D03*
X-4843D02*
D03*
D65*
X18606Y38524D02*
D03*
Y43524D02*
D03*
Y48524D02*
D03*
Y53524D02*
D03*
X41441Y38524D02*
D03*
Y43524D02*
D03*
Y48524D02*
D03*
X18606Y17524D02*
D03*
Y22524D02*
D03*
Y27524D02*
D03*
Y32524D02*
D03*
X41441Y17524D02*
D03*
Y22524D02*
D03*
Y27524D02*
D03*
X72441Y68524D02*
D03*
Y63524D02*
D03*
Y58524D02*
D03*
Y53524D02*
D03*
X49606Y68524D02*
D03*
Y63524D02*
D03*
Y58524D02*
D03*
D66*
X41441Y53524D02*
D03*
Y32524D02*
D03*
X49606Y53524D02*
D03*
D67*
X4512Y60024D02*
D03*
Y67024D02*
D03*
D68*
X15535Y60024D02*
D03*
Y67024D02*
D03*
D69*
X13528Y93024D02*
D03*
X6520D02*
D03*
D70*
X100874Y34254D02*
D03*
X107173Y25593D02*
D03*
X100874D02*
D03*
X107173Y34254D02*
D03*
M02*
