G04*
G04 #@! TF.GenerationSoftware,Altium Limited,Altium Designer,20.0.2 (26)*
G04*
G04 Layer_Color=32768*
%FSLAX25Y25*%
%MOIN*%
G70*
G01*
G75*
%ADD10C,0.01000*%
%ADD97C,0.00394*%
%ADD98C,0.00197*%
%ADD99C,0.00300*%
D10*
X29105Y164101D02*
G03*
X1546Y136542I0J-27559D01*
G01*
X166901D02*
G03*
X139342Y164101I-27559J0D01*
G01*
X1546Y26305D02*
G03*
X29105Y-1254I27559J0D01*
G01*
X139342D02*
G03*
X166901Y26305I0J27559D01*
G01*
D97*
X96255Y48424D02*
X100192D01*
X98224Y46455D02*
Y50392D01*
X81542Y137904D02*
X83905D01*
X81542Y121762D02*
X83905D01*
X82724Y120581D02*
Y122943D01*
X49042Y129943D02*
X51405D01*
X49042Y146085D02*
X51405D01*
X50224Y144904D02*
Y147266D01*
X45743Y56581D02*
Y76266D01*
X60704Y56581D02*
Y76266D01*
X45743Y56581D02*
X60704D01*
X45743Y76266D02*
X60704D01*
X53224Y64455D02*
Y68392D01*
X51255Y66424D02*
X55192D01*
X45743Y35581D02*
Y55266D01*
X60704Y35581D02*
Y55266D01*
X45743Y35581D02*
X60704D01*
X45743Y55266D02*
X60704D01*
X53224Y43455D02*
Y47392D01*
X51255Y45424D02*
X55192D01*
X91704Y71581D02*
Y91266D01*
X76743Y71581D02*
Y91266D01*
X91704D01*
X76743Y71581D02*
X91704D01*
X84224Y79455D02*
Y83392D01*
X82255Y81424D02*
X86192D01*
D98*
X132102Y86924D02*
G03*
X132102Y86924I-1378J0D01*
G01*
Y100924D02*
G03*
X132102Y100924I-1378J0D01*
G01*
Y114924D02*
G03*
X132102Y114924I-1378J0D01*
G01*
X135602Y90424D02*
G03*
X135602Y90424I-1378J0D01*
G01*
Y111424D02*
G03*
X135602Y111424I-1378J0D01*
G01*
X117602Y86924D02*
G03*
X117602Y86924I-1378J0D01*
G01*
Y114924D02*
G03*
X117602Y114924I-1378J0D01*
G01*
Y100924D02*
G03*
X117602Y100924I-1378J0D01*
G01*
X99002Y103424D02*
G03*
X99002Y103424I-1378J0D01*
G01*
X53602Y139424D02*
G03*
X53602Y139424I-1378J0D01*
G01*
X34602Y80424D02*
G03*
X34602Y80424I-1378J0D01*
G01*
Y87424D02*
G03*
X34602Y87424I-1378J0D01*
G01*
X118696Y27951D02*
Y68896D01*
X77751Y27951D02*
Y68896D01*
X118696D01*
X77751Y27951D02*
X118696D01*
X130724Y84955D02*
Y88892D01*
X128755Y86924D02*
X132692D01*
X130724Y98955D02*
Y102892D01*
X128755Y100924D02*
X132692D01*
X130724Y112955D02*
Y116892D01*
X128755Y114924D02*
X132692D01*
X132255Y90424D02*
X136192D01*
X134224Y88455D02*
Y92392D01*
X132255Y111424D02*
X136192D01*
X134224Y109455D02*
Y113392D01*
X116224Y84955D02*
Y88892D01*
X114255Y86924D02*
X118192D01*
X116224Y112955D02*
Y116892D01*
X114255Y114924D02*
X118192D01*
X116224Y98955D02*
Y102892D01*
X114255Y100924D02*
X118192D01*
X95655Y103424D02*
X99592D01*
X97624Y101455D02*
Y105392D01*
X52224Y137455D02*
Y141392D01*
X50255Y139424D02*
X54192D01*
X33224Y78455D02*
Y82392D01*
X31255Y80424D02*
X35192D01*
X33224Y85455D02*
Y89392D01*
X31255Y87424D02*
X35192D01*
D99*
X42224Y132424D02*
Y134424D01*
X41224Y133424D02*
X43224D01*
X32224Y104424D02*
X34224D01*
X33224Y103424D02*
Y105424D01*
X32224Y95424D02*
X34224D01*
X33224Y94424D02*
Y96424D01*
M02*
