G04*
G04 #@! TF.GenerationSoftware,Altium Limited,Altium Designer,20.0.2 (26)*
G04*
G04 Layer_Physical_Order=2*
G04 Layer_Color=36540*
%FSLAX25Y25*%
%MOIN*%
G70*
G01*
G75*
%ADD11C,0.00600*%
%ADD47C,0.02400*%
%ADD48C,0.05000*%
%ADD50C,0.02000*%
G36*
X128324Y145924D02*
Y136924D01*
X127624Y136224D01*
X116624D01*
X113924Y138924D01*
X113924Y145924D01*
X114624Y146624D01*
X127624D01*
X128324Y145924D01*
D02*
G37*
G36*
X106424D02*
Y136924D01*
X105724Y136224D01*
X94724D01*
X92024Y138924D01*
X92024Y145924D01*
X92724Y146624D01*
X105724D01*
X106424Y145924D01*
D02*
G37*
G36*
X143624Y122424D02*
X155424D01*
X160924Y116924D01*
Y114424D01*
X160224Y113724D01*
X156224D01*
X155524Y114424D01*
Y115724D01*
X152924Y118324D01*
X141024Y118324D01*
X131024Y128324D01*
X127024D01*
X125824Y127124D01*
X125824Y121324D01*
X125124Y120624D01*
X122124D01*
X121424Y121324D01*
X121424Y128824D01*
X124724Y132124D01*
X133924Y132124D01*
X143624Y122424D01*
D02*
G37*
G36*
X115824Y126324D02*
Y124240D01*
X122440Y117624D01*
X150224D01*
X150924Y116924D01*
Y114424D01*
X149824Y113324D01*
X119424D01*
X111424Y121324D01*
Y126324D01*
X112124Y127024D01*
X115124D01*
X115824Y126324D01*
D02*
G37*
G36*
X103924D02*
Y121324D01*
X130524Y94724D01*
X149624Y94724D01*
X150924Y93424D01*
X150924Y90924D01*
X150224Y90224D01*
X128024D01*
X99524Y118724D01*
Y126324D01*
X100224Y127024D01*
X103224D01*
X103924Y126324D01*
D02*
G37*
G36*
X93924D02*
X93924Y123524D01*
X127724Y89724D01*
X153124D01*
X155524Y92124D01*
X155524Y93424D01*
X156274Y94174D01*
X160174Y94174D01*
X160924Y93424D01*
X160924Y90792D01*
X155155Y85024D01*
X125823Y85024D01*
X89524Y121324D01*
X89524Y126324D01*
X90224Y127024D01*
X93224D01*
X93924Y126324D01*
D02*
G37*
D11*
X19255Y63924D02*
Y64101D01*
Y64955D02*
Y65146D01*
X19078Y65324D02*
X19255Y65146D01*
X16924Y65324D02*
X19078D01*
X14424Y67824D02*
X16924Y65324D01*
X96724Y57424D02*
X97724Y58424D01*
X93724Y53424D02*
X95724Y55424D01*
X96724Y53524D02*
Y57424D01*
X116224Y34224D02*
Y50181D01*
X121879Y27768D02*
X122224Y27424D01*
X121879Y27768D02*
Y28568D01*
X116224Y34224D02*
X121879Y28568D01*
X118889Y28758D02*
X119224Y28424D01*
X118889Y28758D02*
Y29858D01*
X115224Y33524D02*
Y50595D01*
X115879Y29768D02*
X116224Y29424D01*
X115224Y33524D02*
X118889Y29858D01*
X115879Y29768D02*
Y31454D01*
X114224Y33109D02*
X115879Y31454D01*
X114224Y33109D02*
Y51009D01*
X128224Y25424D02*
Y28708D01*
X127268Y29664D02*
Y82151D01*
Y29664D02*
X128224Y28708D01*
X125224Y26424D02*
Y28624D01*
X126224Y29624D02*
Y81780D01*
X125224Y28624D02*
X126224Y29624D01*
X124224Y59595D02*
Y80952D01*
X101095Y108324D02*
X127268Y82151D01*
X125224Y59181D02*
Y81366D01*
X106424Y95924D02*
X122224Y80124D01*
X106424Y95924D02*
Y95924D01*
X123224Y60009D02*
Y80538D01*
X122224Y60424D02*
Y80124D01*
X100266Y106324D02*
X125224Y81366D01*
X100680Y107324D02*
X126224Y81780D01*
X99852Y105324D02*
X124224Y80952D01*
X99438Y104324D02*
X123224Y80538D01*
X100266Y106324D02*
X100266D01*
X100680Y107324D02*
X100680D01*
X99852Y105324D02*
X99852D01*
X99024Y103324D02*
X99024D01*
X99438Y104324D02*
X99438D01*
X99024Y103324D02*
X106424Y95924D01*
X101095Y108324D02*
X101095D01*
X82124Y123052D02*
X99852Y105324D01*
X85124Y124295D02*
X101095Y108324D01*
X84124Y123881D02*
X100680Y107324D01*
X82396Y121365D02*
X99438Y104324D01*
X83124Y123466D02*
X100266Y106324D01*
X106324Y148024D02*
X111024D01*
X112124Y149124D02*
X126624D01*
X111024Y148024D02*
X112124Y149124D01*
X112024Y151124D02*
X123624D01*
X111024Y152124D02*
X112024Y151124D01*
X123624D02*
X125624Y153124D01*
X126624Y149124D02*
X130624Y153124D01*
X106238Y152124D02*
X111024D01*
X93195Y149124D02*
X105224D01*
X106324Y148024D01*
X91952Y152124D02*
X104824D01*
X105824Y153124D01*
X120624D01*
X92366Y151124D02*
X105238D01*
X106238Y152124D01*
X84124Y141467D02*
X92781Y150124D01*
X84124Y123881D02*
Y141467D01*
X82396Y121365D02*
X82396D01*
X80124Y122224D02*
X99024Y103324D01*
X81124Y122638D02*
X82396Y121365D01*
X81124Y122638D02*
Y142709D01*
X80124Y122224D02*
Y143124D01*
X82124Y123052D02*
Y142295D01*
X83124Y141881D02*
X92366Y151124D01*
X81124Y142709D02*
X91538Y153124D01*
X80124Y143124D02*
X92124Y155124D01*
X83124Y123466D02*
Y141881D01*
X82124Y142295D02*
X91952Y152124D01*
X85124Y124295D02*
Y141053D01*
X92781Y150124D02*
X108724D01*
X85124Y141053D02*
X93195Y149124D01*
X101724Y153124D02*
X103724Y155124D01*
X91538Y153124D02*
X101724D01*
X92124Y155124D02*
X98724D01*
X114224Y51009D02*
X123224Y60009D01*
X115224Y50595D02*
X124224Y59595D01*
X113224Y51424D02*
X122224Y60424D01*
X116224Y50181D02*
X125224Y59181D01*
X94724Y51524D02*
X96724Y53524D01*
X95724Y55424D02*
Y59424D01*
X94724Y60424D02*
X95724Y59424D01*
X83152Y51524D02*
X94724D01*
X45806Y73924D02*
X47806Y75924D01*
X60641Y73924D02*
X63524D01*
X62938Y75924D02*
X65724Y73138D01*
X47806Y75924D02*
X62938D01*
X68641Y58924D02*
X70509Y60792D01*
X73956D01*
X66724Y116424D02*
Y142009D01*
X68638Y143924D01*
X71724D01*
X77624Y59424D02*
X78624Y58424D01*
X66955Y61792D02*
X75255D01*
X73956Y60792D02*
X76324Y58424D01*
X67245Y62916D02*
X75545D01*
X65724Y64438D02*
X67245Y62916D01*
X76324Y58424D02*
X77209D01*
X77624Y59424D02*
X77624D01*
X75255Y61792D02*
X77624Y59424D01*
X77209Y58424D02*
X79209Y56424D01*
X64724Y64024D02*
X66955Y61792D01*
X64724Y64024D02*
Y72724D01*
X75545Y62916D02*
X78038Y60424D01*
X63524Y73924D02*
X64724Y72724D01*
X65724Y64438D02*
Y73138D01*
X78038Y60424D02*
X94724D01*
X88724Y56424D02*
X90724Y58424D01*
X79209Y56424D02*
X88724D01*
X84224Y55424D02*
X90724D01*
X93724Y58424D01*
X78624D02*
X87724D01*
X73743Y44943D02*
X84224Y55424D01*
X83638Y53424D02*
X90724D01*
X73238Y43024D02*
X83638Y53424D01*
X66724Y51006D02*
X68641Y52924D01*
X113224Y30424D02*
Y51424D01*
X68641Y45206D02*
Y47924D01*
X73652Y42024D02*
X83152Y51524D01*
X71643Y44932D02*
X71653Y44943D01*
X73743D01*
X70409Y42024D02*
X73652D01*
X66724Y45709D02*
X70409Y42024D01*
X66724Y45709D02*
Y51006D01*
X68641Y45206D02*
X70824Y43024D01*
X73238D01*
D47*
X14424Y67824D02*
D03*
X97724Y58424D02*
D03*
X93724Y53424D02*
D03*
X119224Y28424D02*
D03*
X102724Y125824D02*
D03*
Y121824D02*
D03*
Y123824D02*
D03*
X148224Y92924D02*
D03*
Y91424D02*
D03*
X149724Y92924D02*
D03*
Y91424D02*
D03*
X146724D02*
D03*
Y92924D02*
D03*
X159724D02*
D03*
X158224D02*
D03*
X156724D02*
D03*
Y91424D02*
D03*
X158224D02*
D03*
X159724D02*
D03*
X156724Y114924D02*
D03*
X158224D02*
D03*
X159724D02*
D03*
Y116424D02*
D03*
X158224D02*
D03*
X156724D02*
D03*
X90724Y123824D02*
D03*
Y121824D02*
D03*
X92724D02*
D03*
Y123824D02*
D03*
Y125824D02*
D03*
X90724D02*
D03*
X122624Y123824D02*
D03*
Y121824D02*
D03*
X124624D02*
D03*
Y123824D02*
D03*
Y125824D02*
D03*
X122624D02*
D03*
X112624Y123824D02*
D03*
Y121824D02*
D03*
X114624D02*
D03*
Y123824D02*
D03*
Y125824D02*
D03*
X112624D02*
D03*
X108724Y150124D02*
D03*
X103724Y155124D02*
D03*
X98724D02*
D03*
X100724Y123824D02*
D03*
Y121824D02*
D03*
Y125824D02*
D03*
X146724Y116424D02*
D03*
X148224D02*
D03*
X149724D02*
D03*
Y114924D02*
D03*
X148224D02*
D03*
X146724D02*
D03*
X105192Y84924D02*
D03*
X45806Y73924D02*
D03*
X60641D02*
D03*
X90692Y8424D02*
D03*
X47324Y56024D02*
D03*
X68641Y58924D02*
D03*
X75724Y126394D02*
D03*
X120624Y153124D02*
D03*
X71724Y143924D02*
D03*
X90724Y58424D02*
D03*
X87724D02*
D03*
X93724D02*
D03*
X68641Y52924D02*
D03*
X122224Y27424D02*
D03*
X113224Y30424D02*
D03*
X116224Y29424D02*
D03*
X130624Y153124D02*
D03*
X128224Y25424D02*
D03*
X125224Y26424D02*
D03*
X125624Y153124D02*
D03*
X150192Y59824D02*
D03*
X150192Y47824D02*
D03*
X68641Y47924D02*
D03*
X72224Y58892D02*
D03*
X90724Y53424D02*
D03*
X71643Y44932D02*
D03*
X93224Y143424D02*
D03*
X95224Y145424D02*
D03*
X93224Y141424D02*
D03*
Y139424D02*
D03*
X95224Y141424D02*
D03*
X97224Y137424D02*
D03*
X95224D02*
D03*
X99224D02*
D03*
X103224D02*
D03*
X101224D02*
D03*
X105224D02*
D03*
Y139424D02*
D03*
X97224D02*
D03*
Y141424D02*
D03*
X101224Y139424D02*
D03*
X99224Y141424D02*
D03*
X97224Y143424D02*
D03*
X99224Y145424D02*
D03*
X97224D02*
D03*
X101224Y141424D02*
D03*
Y143424D02*
D03*
X105224Y141424D02*
D03*
X103224D02*
D03*
Y145424D02*
D03*
X101224D02*
D03*
X105224Y143424D02*
D03*
Y145424D02*
D03*
X115124Y143424D02*
D03*
X117124Y145424D02*
D03*
X115124Y141424D02*
D03*
X117124Y137424D02*
D03*
X121124D02*
D03*
X119124D02*
D03*
X115124Y139424D02*
D03*
X117124Y141424D02*
D03*
X119124Y139424D02*
D03*
Y141424D02*
D03*
X123124Y137424D02*
D03*
Y139424D02*
D03*
X127124Y137424D02*
D03*
X125124D02*
D03*
Y141424D02*
D03*
X121124D02*
D03*
X127124Y139424D02*
D03*
Y141424D02*
D03*
X123124D02*
D03*
X119124Y143424D02*
D03*
X127124D02*
D03*
X123124D02*
D03*
X121124Y145424D02*
D03*
X119124D02*
D03*
X127124D02*
D03*
X123124D02*
D03*
X125124D02*
D03*
X115124D02*
D03*
X93224D02*
D03*
X85092Y97824D02*
D03*
X66724Y116424D02*
D03*
D48*
X75224Y30548D02*
D03*
D50*
X68724Y37224D02*
X77924Y28024D01*
X24724Y70124D02*
X31124D01*
X19255Y64655D02*
X24724Y70124D01*
X19255Y64101D02*
Y64655D01*
Y59285D02*
Y63924D01*
Y59285D02*
X22516Y56024D01*
X47324D01*
X59174Y79024D02*
X77974Y97824D01*
X72724Y112038D02*
Y123394D01*
X85045Y97871D02*
X85092Y97824D01*
X85045Y97871D02*
Y99716D01*
X72724Y112038D02*
X85045Y99716D01*
X85092Y97824D02*
X88592Y94324D01*
X95792D02*
X105192Y84924D01*
X88592Y94324D02*
X95792D01*
X150192Y47824D02*
Y48924D01*
X150192Y48924D02*
Y59824D01*
X77974Y97824D02*
X85092D01*
X150192Y38192D02*
Y47824D01*
X40024Y79024D02*
X59174D01*
X77924Y15424D02*
Y28024D01*
X57524Y37224D02*
X68724D01*
X47324Y47424D02*
Y56024D01*
Y47424D02*
X57524Y37224D01*
X31124Y70124D02*
X40024Y79024D01*
X90692Y8424D02*
X93424D01*
X84924D02*
X90692D01*
X77924Y15424D02*
X84924Y8424D01*
X96724Y11724D02*
X126524D01*
X93424Y8424D02*
X96724Y11724D01*
X139224Y34824D02*
X146824D01*
X150192Y38192D01*
X130824Y16024D02*
Y26424D01*
X126524Y11724D02*
X130824Y16024D01*
X47324Y56024D02*
X70852D01*
X72147Y57319D01*
Y58816D01*
X72224Y58892D01*
X72724Y123394D02*
X75724Y126394D01*
X130824Y26424D02*
X139224Y34824D01*
M02*
