G04*
G04 #@! TF.GenerationSoftware,Altium Limited,Altium Designer,20.0.2 (26)*
G04*
G04 Layer_Color=16711935*
%FSLAX25Y25*%
%MOIN*%
G70*
G01*
G75*
%ADD40R,0.06800X0.10800*%
%ADD45C,0.05800*%
%ADD46C,0.24422*%
%ADD74R,0.03359X0.05328*%
%ADD75O,0.07887X0.01981*%
%ADD76O,0.01981X0.07887*%
%ADD77R,0.07887X0.05249*%
%ADD78R,0.04461X0.04658*%
%ADD79R,0.16548X0.12610*%
%ADD80O,0.03162X0.07878*%
%ADD81R,0.04068X0.04737*%
%ADD82R,0.07300X0.05800*%
%ADD83R,0.04658X0.04461*%
%ADD84R,0.05131X0.03162*%
%ADD85R,0.04800X0.06300*%
%ADD86R,0.05249X0.07887*%
%ADD87O,0.07296X0.03162*%
%ADD88R,0.07296X0.03162*%
%ADD89R,0.04737X0.03950*%
G04:AMPARAMS|DCode=90|XSize=47.37mil|YSize=39.5mil|CornerRadius=0mil|HoleSize=0mil|Usage=FLASHONLY|Rotation=0.000|XOffset=0mil|YOffset=0mil|HoleType=Round|Shape=Octagon|*
%AMOCTAGOND90*
4,1,8,0.02368,-0.00987,0.02368,0.00987,0.01381,0.01975,-0.01381,0.01975,-0.02368,0.00987,-0.02368,-0.00987,-0.01381,-0.01975,0.01381,-0.01975,0.02368,-0.00987,0.0*
%
%ADD90OCTAGOND90*%

%ADD91R,0.05367X0.06587*%
%ADD92R,0.05328X0.06312*%
G36*
X107108Y97916D02*
X107176Y97903D01*
X107239Y97888D01*
X107292Y97872D01*
X107339Y97853D01*
X107358Y97844D01*
X107373Y97838D01*
X107386Y97831D01*
X107395Y97825D01*
X107398Y97822D01*
X107401D01*
X107460Y97781D01*
X107513Y97741D01*
X107557Y97694D01*
X107595Y97650D01*
X107626Y97613D01*
X107644Y97582D01*
X107654Y97569D01*
X107660Y97560D01*
X107663Y97557D01*
Y97554D01*
X107694Y97491D01*
X107716Y97432D01*
X107732Y97376D01*
X107741Y97326D01*
X107747Y97282D01*
X107754Y97251D01*
Y97239D01*
Y97229D01*
Y97226D01*
Y97223D01*
Y97176D01*
X107751Y97133D01*
X107744Y97095D01*
X107741Y97061D01*
X107735Y97030D01*
X107732Y97008D01*
X107729Y96995D01*
Y96989D01*
X107722Y96974D01*
X107716Y96955D01*
X107701Y96908D01*
X107682Y96858D01*
X107660Y96808D01*
X107638Y96761D01*
X107623Y96724D01*
X107616Y96708D01*
X107610Y96696D01*
X107607Y96689D01*
Y96686D01*
X107701Y96643D01*
X107779Y96599D01*
X107847Y96562D01*
X107904Y96527D01*
X107947Y96499D01*
X107978Y96477D01*
X107988Y96468D01*
X107997Y96465D01*
X108000Y96459D01*
X108003D01*
X108066Y96406D01*
X108119Y96350D01*
X108166Y96296D01*
X108203Y96250D01*
X108234Y96206D01*
X108256Y96172D01*
X108262Y96159D01*
X108268Y96153D01*
X108272Y96147D01*
Y96144D01*
X108300Y96075D01*
X108321Y96006D01*
X108337Y95938D01*
X108346Y95875D01*
X108353Y95819D01*
X108356Y95797D01*
X108359Y95775D01*
Y95760D01*
Y95747D01*
Y95741D01*
Y95738D01*
X108356Y95672D01*
X108350Y95613D01*
X108337Y95554D01*
X108321Y95501D01*
X108303Y95448D01*
X108284Y95401D01*
X108262Y95357D01*
X108240Y95317D01*
X108219Y95282D01*
X108197Y95248D01*
X108178Y95223D01*
X108159Y95198D01*
X108144Y95183D01*
X108131Y95167D01*
X108125Y95161D01*
X108122Y95158D01*
X108075Y95117D01*
X108025Y95083D01*
X107975Y95051D01*
X107922Y95027D01*
X107869Y95005D01*
X107816Y94986D01*
X107763Y94970D01*
X107716Y94958D01*
X107669Y94949D01*
X107626Y94942D01*
X107588Y94936D01*
X107554Y94933D01*
X107526D01*
X107507Y94930D01*
X107489D01*
X107411Y94933D01*
X107339Y94942D01*
X107273Y94952D01*
X107214Y94967D01*
X107167Y94980D01*
X107148Y94986D01*
X107133Y94989D01*
X107120Y94995D01*
X107111Y94999D01*
X107105Y95002D01*
X107102D01*
X107033Y95033D01*
X106961Y95073D01*
X106893Y95120D01*
X106824Y95164D01*
X106768Y95208D01*
X106743Y95223D01*
X106721Y95242D01*
X106705Y95254D01*
X106690Y95264D01*
X106684Y95270D01*
X106680Y95273D01*
X106631Y95208D01*
X106574Y95142D01*
X106521Y95086D01*
X106468Y95033D01*
X106421Y94986D01*
X106387Y94955D01*
X106371Y94939D01*
X106362Y94933D01*
X106356Y94927D01*
X106353Y94924D01*
X106085Y95136D01*
X106156Y95220D01*
X106222Y95298D01*
X106278Y95363D01*
X106325Y95423D01*
X106362Y95470D01*
X106378Y95488D01*
X106390Y95504D01*
X106400Y95516D01*
X106406Y95526D01*
X106412Y95529D01*
Y95532D01*
X106331Y95629D01*
X106262Y95726D01*
X106200Y95816D01*
X106150Y95897D01*
X106128Y95931D01*
X106109Y95966D01*
X106094Y95994D01*
X106081Y96019D01*
X106069Y96038D01*
X106063Y96053D01*
X106056Y96062D01*
Y96065D01*
X106365Y96225D01*
X106415Y96140D01*
X106462Y96059D01*
X106509Y95991D01*
X106553Y95931D01*
X106587Y95881D01*
X106602Y95860D01*
X106615Y95844D01*
X106624Y95832D01*
X106634Y95822D01*
X106637Y95816D01*
X106640Y95813D01*
X106684Y95872D01*
X106730Y95931D01*
X106818Y96059D01*
X106902Y96187D01*
X106939Y96250D01*
X106977Y96309D01*
X107011Y96362D01*
X107042Y96415D01*
X107067Y96462D01*
X107092Y96499D01*
X107111Y96534D01*
X107123Y96555D01*
X107133Y96571D01*
X107136Y96577D01*
X107058Y96618D01*
X106989Y96655D01*
X106924Y96693D01*
X106868Y96730D01*
X106815Y96764D01*
X106768Y96799D01*
X106727Y96830D01*
X106690Y96858D01*
X106659Y96886D01*
X106634Y96908D01*
X106612Y96930D01*
X106593Y96945D01*
X106581Y96961D01*
X106571Y96970D01*
X106568Y96977D01*
X106565Y96980D01*
X106540Y97014D01*
X106515Y97052D01*
X106481Y97120D01*
X106453Y97186D01*
X106437Y97245D01*
X106425Y97295D01*
X106421Y97317D01*
Y97332D01*
X106418Y97348D01*
Y97357D01*
Y97364D01*
Y97367D01*
X106421Y97407D01*
X106425Y97448D01*
X106446Y97523D01*
X106471Y97591D01*
X106503Y97647D01*
X106537Y97694D01*
X106549Y97713D01*
X106562Y97729D01*
X106574Y97741D01*
X106584Y97750D01*
X106587Y97754D01*
X106590Y97757D01*
X106621Y97785D01*
X106659Y97810D01*
X106693Y97831D01*
X106730Y97850D01*
X106805Y97878D01*
X106877Y97900D01*
X106939Y97909D01*
X106967Y97913D01*
X106989Y97916D01*
X107008Y97919D01*
X107036D01*
X107108Y97916D01*
D02*
G37*
G36*
X97997Y94992D02*
X97623D01*
X97261Y96746D01*
X97230Y96895D01*
X97218Y96964D01*
X97205Y97033D01*
X97193Y97098D01*
X97183Y97158D01*
X97174Y97214D01*
X97164Y97267D01*
X97158Y97313D01*
X97152Y97357D01*
X97149Y97395D01*
X97143Y97426D01*
X97140Y97448D01*
Y97466D01*
X97136Y97479D01*
Y97482D01*
X97086Y97335D01*
X97033Y97189D01*
X96983Y97052D01*
X96959Y96986D01*
X96934Y96924D01*
X96912Y96867D01*
X96890Y96814D01*
X96871Y96771D01*
X96855Y96730D01*
X96843Y96699D01*
X96834Y96674D01*
X96828Y96662D01*
X96824Y96655D01*
X96126Y94992D01*
X95742D01*
X95143Y97872D01*
X95517D01*
X95870Y96181D01*
X95898Y96038D01*
X95926Y95900D01*
X95935Y95835D01*
X95948Y95772D01*
X95957Y95716D01*
X95966Y95660D01*
X95976Y95610D01*
X95982Y95566D01*
X95988Y95526D01*
X95994Y95491D01*
X95998Y95467D01*
X96001Y95445D01*
X96004Y95432D01*
Y95429D01*
X96022Y95491D01*
X96038Y95548D01*
X96054Y95601D01*
X96069Y95654D01*
X96085Y95701D01*
X96100Y95744D01*
X96113Y95782D01*
X96126Y95819D01*
X96135Y95850D01*
X96144Y95878D01*
X96153Y95900D01*
X96160Y95922D01*
X96166Y95938D01*
X96169Y95947D01*
X96172Y95953D01*
Y95956D01*
X96197Y96022D01*
X96222Y96091D01*
X96278Y96231D01*
X96338Y96368D01*
X96366Y96437D01*
X96391Y96499D01*
X96416Y96562D01*
X96441Y96615D01*
X96462Y96665D01*
X96481Y96708D01*
X96494Y96743D01*
X96506Y96767D01*
X96512Y96783D01*
X96516Y96789D01*
X96990Y97872D01*
X97395D01*
X97997Y94992D01*
D02*
G37*
G36*
X116792D02*
X116377D01*
X114799Y97872D01*
X115195D01*
X116221Y95984D01*
X116243Y95944D01*
X116268Y95897D01*
X116315Y95803D01*
X116365Y95704D01*
X116412Y95610D01*
X116434Y95566D01*
X116455Y95526D01*
X116471Y95491D01*
X116487Y95460D01*
X116499Y95432D01*
X116508Y95414D01*
X116515Y95401D01*
X116518Y95398D01*
X116524Y95454D01*
X116533Y95513D01*
X116549Y95638D01*
X116571Y95763D01*
X116580Y95825D01*
X116589Y95885D01*
X116599Y95938D01*
X116608Y95991D01*
X116618Y96034D01*
X116624Y96075D01*
X116630Y96109D01*
X116636Y96131D01*
X116639Y96147D01*
Y96153D01*
X116970Y97872D01*
X117341D01*
X116792Y94992D01*
D02*
G37*
G36*
X118724D02*
X118343D01*
X117741Y97872D01*
X118122D01*
X118724Y94992D01*
D02*
G37*
G36*
X114986D02*
X112783D01*
X112715Y95317D01*
X114537D01*
X114328Y96321D01*
X112652D01*
X112583Y96646D01*
X114259D01*
X114072Y97548D01*
X112362D01*
X112293Y97872D01*
X114384D01*
X114986Y94992D01*
D02*
G37*
G36*
X104681D02*
X104300D01*
X104032Y96272D01*
X103585D01*
X103504Y96268D01*
X103436Y96265D01*
X103379Y96256D01*
X103333Y96250D01*
X103298Y96240D01*
X103273Y96231D01*
X103258Y96228D01*
X103255Y96225D01*
X103217Y96203D01*
X103180Y96175D01*
X103146Y96144D01*
X103117Y96109D01*
X103092Y96081D01*
X103071Y96056D01*
X103058Y96038D01*
X103055Y96034D01*
Y96031D01*
X103002Y95950D01*
X102955Y95863D01*
X102911Y95779D01*
X102874Y95701D01*
X102855Y95663D01*
X102843Y95629D01*
X102830Y95601D01*
X102818Y95576D01*
X102812Y95554D01*
X102805Y95538D01*
X102799Y95529D01*
Y95526D01*
X102593Y94992D01*
X102163D01*
X102384Y95532D01*
X102428Y95632D01*
X102475Y95729D01*
X102522Y95816D01*
X102546Y95856D01*
X102568Y95897D01*
X102590Y95931D01*
X102609Y95963D01*
X102628Y95991D01*
X102643Y96013D01*
X102653Y96031D01*
X102662Y96044D01*
X102668Y96053D01*
X102671Y96056D01*
X102706Y96100D01*
X102743Y96140D01*
X102784Y96178D01*
X102821Y96215D01*
X102855Y96243D01*
X102886Y96268D01*
X102905Y96281D01*
X102908Y96287D01*
X102911D01*
X102818Y96303D01*
X102731Y96318D01*
X102653Y96340D01*
X102578Y96362D01*
X102509Y96387D01*
X102450Y96412D01*
X102393Y96437D01*
X102347Y96462D01*
X102303Y96487D01*
X102266Y96509D01*
X102234Y96530D01*
X102209Y96549D01*
X102191Y96565D01*
X102175Y96577D01*
X102169Y96583D01*
X102166Y96587D01*
X102125Y96630D01*
X102091Y96677D01*
X102060Y96727D01*
X102032Y96774D01*
X102010Y96824D01*
X101991Y96874D01*
X101976Y96920D01*
X101963Y96964D01*
X101954Y97008D01*
X101947Y97045D01*
X101941Y97083D01*
X101938Y97111D01*
X101935Y97136D01*
Y97154D01*
Y97167D01*
Y97170D01*
X101938Y97260D01*
X101951Y97342D01*
X101969Y97410D01*
X101988Y97473D01*
X101997Y97498D01*
X102007Y97519D01*
X102016Y97538D01*
X102025Y97557D01*
X102032Y97569D01*
X102038Y97579D01*
X102041Y97582D01*
Y97585D01*
X102085Y97641D01*
X102131Y97691D01*
X102178Y97729D01*
X102225Y97760D01*
X102269Y97781D01*
X102300Y97797D01*
X102312Y97803D01*
X102322Y97807D01*
X102328Y97810D01*
X102331D01*
X102369Y97822D01*
X102406Y97831D01*
X102493Y97847D01*
X102584Y97856D01*
X102671Y97866D01*
X102712D01*
X102749Y97869D01*
X102784D01*
X102815Y97872D01*
X104078D01*
X104681Y94992D01*
D02*
G37*
G36*
X101798D02*
X99595D01*
X99526Y95317D01*
X101348D01*
X101139Y96321D01*
X99464D01*
X99395Y96646D01*
X101071D01*
X100883Y97548D01*
X99174D01*
X99105Y97872D01*
X101196D01*
X101798Y94992D01*
D02*
G37*
G36*
X99052D02*
X98671D01*
X98069Y97872D01*
X98450D01*
X99052Y94992D01*
D02*
G37*
G36*
X110936Y97916D02*
X111036Y97903D01*
X111126Y97888D01*
X111167Y97878D01*
X111204Y97872D01*
X111239Y97863D01*
X111267Y97853D01*
X111295Y97844D01*
X111317Y97838D01*
X111332Y97831D01*
X111348Y97825D01*
X111354Y97822D01*
X111357D01*
X111438Y97785D01*
X111510Y97741D01*
X111573Y97694D01*
X111623Y97650D01*
X111663Y97613D01*
X111691Y97579D01*
X111700Y97566D01*
X111707Y97560D01*
X111713Y97554D01*
Y97551D01*
X111753Y97482D01*
X111785Y97413D01*
X111803Y97345D01*
X111819Y97285D01*
X111828Y97232D01*
X111831Y97207D01*
Y97189D01*
X111835Y97173D01*
Y97161D01*
Y97154D01*
Y97151D01*
X111831Y97083D01*
X111819Y97017D01*
X111807Y96958D01*
X111788Y96908D01*
X111772Y96864D01*
X111757Y96836D01*
X111753Y96824D01*
X111747Y96814D01*
X111744Y96811D01*
Y96808D01*
X111704Y96752D01*
X111660Y96702D01*
X111613Y96655D01*
X111566Y96615D01*
X111523Y96580D01*
X111488Y96552D01*
X111476Y96543D01*
X111467Y96537D01*
X111460Y96534D01*
X111457Y96530D01*
X111432Y96515D01*
X111401Y96499D01*
X111367Y96481D01*
X111332Y96462D01*
X111254Y96424D01*
X111176Y96390D01*
X111108Y96356D01*
X111073Y96343D01*
X111048Y96331D01*
X111023Y96321D01*
X111008Y96312D01*
X110995Y96309D01*
X110992Y96306D01*
X110914Y96272D01*
X110843Y96237D01*
X110780Y96209D01*
X110724Y96178D01*
X110674Y96153D01*
X110630Y96128D01*
X110593Y96106D01*
X110559Y96084D01*
X110534Y96065D01*
X110509Y96050D01*
X110493Y96038D01*
X110477Y96025D01*
X110468Y96019D01*
X110462Y96013D01*
X110456Y96006D01*
X110424Y95963D01*
X110399Y95922D01*
X110384Y95878D01*
X110371Y95841D01*
X110365Y95810D01*
X110359Y95782D01*
Y95766D01*
Y95763D01*
Y95760D01*
X110362Y95726D01*
X110368Y95688D01*
X110374Y95657D01*
X110387Y95626D01*
X110418Y95566D01*
X110449Y95513D01*
X110484Y95473D01*
X110515Y95442D01*
X110527Y95429D01*
X110534Y95420D01*
X110540Y95417D01*
X110543Y95414D01*
X110577Y95389D01*
X110618Y95363D01*
X110702Y95326D01*
X110790Y95301D01*
X110874Y95282D01*
X110914Y95276D01*
X110952Y95273D01*
X110983Y95267D01*
X111014D01*
X111036Y95264D01*
X111070D01*
X111158Y95267D01*
X111239Y95276D01*
X111311Y95289D01*
X111373Y95301D01*
X111398Y95307D01*
X111423Y95314D01*
X111442Y95320D01*
X111460Y95326D01*
X111473Y95332D01*
X111482Y95336D01*
X111488Y95339D01*
X111492D01*
X111554Y95370D01*
X111607Y95404D01*
X111651Y95438D01*
X111685Y95473D01*
X111713Y95504D01*
X111732Y95529D01*
X111744Y95544D01*
X111747Y95551D01*
X111772Y95604D01*
X111791Y95657D01*
X111803Y95710D01*
X111813Y95757D01*
X111819Y95797D01*
X111822Y95828D01*
Y95841D01*
Y95850D01*
Y95853D01*
Y95856D01*
X111816Y95960D01*
X112194Y95925D01*
X112190Y95825D01*
X112181Y95732D01*
X112165Y95648D01*
X112144Y95573D01*
X112122Y95501D01*
X112097Y95438D01*
X112069Y95382D01*
X112038Y95332D01*
X112009Y95292D01*
X111981Y95254D01*
X111956Y95223D01*
X111931Y95198D01*
X111913Y95179D01*
X111897Y95167D01*
X111888Y95161D01*
X111885Y95158D01*
X111825Y95120D01*
X111760Y95089D01*
X111694Y95061D01*
X111629Y95036D01*
X111560Y95014D01*
X111495Y94999D01*
X111429Y94983D01*
X111367Y94973D01*
X111307Y94964D01*
X111254Y94958D01*
X111204Y94952D01*
X111164Y94949D01*
X111129Y94946D01*
X111083D01*
X110964Y94949D01*
X110855Y94961D01*
X110805Y94970D01*
X110758Y94980D01*
X110715Y94989D01*
X110674Y94999D01*
X110637Y95008D01*
X110605Y95017D01*
X110577Y95027D01*
X110552Y95036D01*
X110534Y95042D01*
X110521Y95048D01*
X110512Y95051D01*
X110509D01*
X110418Y95095D01*
X110340Y95145D01*
X110272Y95195D01*
X110215Y95245D01*
X110172Y95289D01*
X110153Y95307D01*
X110137Y95326D01*
X110128Y95339D01*
X110119Y95348D01*
X110116Y95354D01*
X110112Y95357D01*
X110088Y95395D01*
X110066Y95432D01*
X110028Y95507D01*
X110003Y95579D01*
X109988Y95648D01*
X109975Y95704D01*
X109972Y95729D01*
Y95747D01*
X109969Y95766D01*
Y95779D01*
Y95785D01*
Y95788D01*
X109972Y95856D01*
X109981Y95919D01*
X109997Y95975D01*
X110013Y96025D01*
X110028Y96065D01*
X110044Y96097D01*
X110047Y96106D01*
X110053Y96115D01*
X110056Y96119D01*
Y96122D01*
X110091Y96175D01*
X110128Y96225D01*
X110169Y96268D01*
X110209Y96306D01*
X110243Y96334D01*
X110272Y96356D01*
X110290Y96371D01*
X110293Y96374D01*
X110296D01*
X110321Y96390D01*
X110350Y96409D01*
X110415Y96443D01*
X110484Y96481D01*
X110556Y96515D01*
X110621Y96546D01*
X110652Y96558D01*
X110677Y96571D01*
X110696Y96580D01*
X110715Y96587D01*
X110724Y96593D01*
X110727D01*
X110796Y96624D01*
X110858Y96652D01*
X110914Y96677D01*
X110964Y96699D01*
X111008Y96721D01*
X111048Y96740D01*
X111083Y96755D01*
X111111Y96767D01*
X111136Y96780D01*
X111158Y96789D01*
X111176Y96799D01*
X111189Y96805D01*
X111198Y96811D01*
X111204Y96814D01*
X111211Y96817D01*
X111261Y96849D01*
X111301Y96877D01*
X111336Y96905D01*
X111363Y96930D01*
X111385Y96948D01*
X111398Y96967D01*
X111407Y96977D01*
X111410Y96980D01*
X111429Y97011D01*
X111442Y97045D01*
X111451Y97076D01*
X111457Y97108D01*
X111460Y97133D01*
X111463Y97151D01*
Y97167D01*
Y97170D01*
X111457Y97236D01*
X111442Y97292D01*
X111423Y97342D01*
X111398Y97382D01*
X111373Y97413D01*
X111354Y97438D01*
X111339Y97451D01*
X111332Y97457D01*
X111298Y97482D01*
X111261Y97504D01*
X111183Y97541D01*
X111101Y97566D01*
X111020Y97582D01*
X110986Y97588D01*
X110952Y97594D01*
X110921Y97597D01*
X110896D01*
X110874Y97601D01*
X110843D01*
X110777Y97597D01*
X110718Y97591D01*
X110661Y97585D01*
X110615Y97576D01*
X110577Y97563D01*
X110546Y97557D01*
X110527Y97551D01*
X110521Y97548D01*
X110468Y97529D01*
X110424Y97507D01*
X110384Y97485D01*
X110353Y97463D01*
X110328Y97445D01*
X110309Y97429D01*
X110296Y97420D01*
X110293Y97417D01*
X110262Y97385D01*
X110237Y97351D01*
X110215Y97317D01*
X110200Y97285D01*
X110187Y97257D01*
X110175Y97236D01*
X110172Y97220D01*
X110169Y97214D01*
X110162Y97186D01*
X110156Y97154D01*
X110153Y97123D01*
X110150Y97092D01*
X110147Y97067D01*
Y97042D01*
Y97030D01*
Y97023D01*
X109775Y97055D01*
X109772Y97079D01*
Y97098D01*
Y97111D01*
Y97114D01*
X109775Y97183D01*
X109788Y97248D01*
X109807Y97310D01*
X109825Y97367D01*
X109847Y97413D01*
X109857Y97435D01*
X109863Y97451D01*
X109872Y97466D01*
X109875Y97476D01*
X109881Y97482D01*
Y97485D01*
X109903Y97523D01*
X109928Y97554D01*
X109981Y97616D01*
X110041Y97672D01*
X110100Y97716D01*
X110150Y97754D01*
X110175Y97766D01*
X110194Y97778D01*
X110212Y97788D01*
X110225Y97794D01*
X110231Y97800D01*
X110234D01*
X110328Y97841D01*
X110427Y97869D01*
X110527Y97891D01*
X110621Y97903D01*
X110665Y97909D01*
X110702Y97913D01*
X110736Y97916D01*
X110768D01*
X110793Y97919D01*
X110827D01*
X110936Y97916D01*
D02*
G37*
%LPC*%
G36*
X107045Y97635D02*
X107039D01*
X106999Y97632D01*
X106961Y97622D01*
X106930Y97610D01*
X106899Y97594D01*
X106877Y97579D01*
X106861Y97566D01*
X106849Y97557D01*
X106846Y97554D01*
X106818Y97523D01*
X106799Y97491D01*
X106783Y97457D01*
X106774Y97426D01*
X106768Y97398D01*
X106765Y97376D01*
Y97364D01*
Y97357D01*
X106768Y97317D01*
X106777Y97276D01*
X106793Y97242D01*
X106808Y97207D01*
X106824Y97183D01*
X106840Y97161D01*
X106849Y97148D01*
X106852Y97142D01*
X106877Y97114D01*
X106905Y97086D01*
X106967Y97030D01*
X107036Y96980D01*
X107105Y96936D01*
X107167Y96895D01*
X107192Y96880D01*
X107217Y96867D01*
X107236Y96858D01*
X107251Y96849D01*
X107261Y96846D01*
X107264Y96842D01*
X107304Y96927D01*
X107336Y97005D01*
X107354Y97076D01*
X107370Y97136D01*
X107379Y97186D01*
X107382Y97207D01*
Y97226D01*
X107386Y97239D01*
Y97248D01*
Y97254D01*
Y97257D01*
X107382Y97313D01*
X107370Y97364D01*
X107354Y97407D01*
X107333Y97448D01*
X107314Y97479D01*
X107298Y97504D01*
X107286Y97516D01*
X107283Y97523D01*
X107242Y97560D01*
X107198Y97588D01*
X107158Y97607D01*
X107120Y97622D01*
X107089Y97629D01*
X107061Y97632D01*
X107045Y97635D01*
D02*
G37*
G36*
X107460Y96409D02*
X107457D01*
X107417Y96337D01*
X107373Y96262D01*
X107283Y96112D01*
X107189Y95969D01*
X107142Y95900D01*
X107095Y95835D01*
X107052Y95772D01*
X107014Y95719D01*
X106977Y95669D01*
X106946Y95626D01*
X106921Y95591D01*
X106902Y95566D01*
X106889Y95551D01*
X106886Y95544D01*
X106942Y95491D01*
X106995Y95448D01*
X107049Y95407D01*
X107102Y95376D01*
X107151Y95348D01*
X107202Y95323D01*
X107248Y95304D01*
X107292Y95289D01*
X107329Y95276D01*
X107367Y95267D01*
X107398Y95261D01*
X107426Y95258D01*
X107448Y95254D01*
X107464Y95251D01*
X107476D01*
X107517Y95254D01*
X107554Y95258D01*
X107626Y95276D01*
X107688Y95301D01*
X107744Y95329D01*
X107788Y95357D01*
X107819Y95379D01*
X107832Y95392D01*
X107841Y95398D01*
X107844Y95401D01*
X107847Y95404D01*
X107872Y95432D01*
X107897Y95463D01*
X107935Y95529D01*
X107960Y95591D01*
X107978Y95651D01*
X107988Y95704D01*
X107994Y95726D01*
Y95744D01*
X107997Y95760D01*
Y95772D01*
Y95779D01*
Y95782D01*
X107994Y95822D01*
X107991Y95860D01*
X107972Y95934D01*
X107947Y96000D01*
X107919Y96056D01*
X107891Y96103D01*
X107878Y96122D01*
X107866Y96137D01*
X107857Y96150D01*
X107847Y96159D01*
X107844Y96162D01*
X107841Y96165D01*
X107816Y96187D01*
X107791Y96209D01*
X107732Y96253D01*
X107669Y96293D01*
X107607Y96331D01*
X107548Y96362D01*
X107523Y96374D01*
X107501Y96387D01*
X107482Y96396D01*
X107470Y96403D01*
X107460Y96409D01*
D02*
G37*
G36*
X103763Y97557D02*
X102746D01*
X102681Y97551D01*
X102628Y97548D01*
X102584Y97541D01*
X102553Y97535D01*
X102531Y97529D01*
X102515Y97526D01*
X102512Y97523D01*
X102478Y97507D01*
X102450Y97488D01*
X102425Y97466D01*
X102403Y97445D01*
X102384Y97426D01*
X102372Y97410D01*
X102366Y97398D01*
X102362Y97395D01*
X102344Y97357D01*
X102328Y97320D01*
X102319Y97285D01*
X102309Y97251D01*
X102306Y97220D01*
X102303Y97198D01*
Y97183D01*
Y97176D01*
X102306Y97120D01*
X102315Y97070D01*
X102328Y97020D01*
X102340Y96980D01*
X102356Y96945D01*
X102369Y96917D01*
X102378Y96902D01*
X102381Y96895D01*
X102412Y96849D01*
X102447Y96808D01*
X102484Y96774D01*
X102518Y96746D01*
X102550Y96721D01*
X102578Y96705D01*
X102593Y96693D01*
X102596Y96689D01*
X102600D01*
X102653Y96665D01*
X102712Y96643D01*
X102771Y96624D01*
X102827Y96611D01*
X102877Y96602D01*
X102899Y96599D01*
X102918Y96596D01*
X102933D01*
X102946Y96593D01*
X102980D01*
X103008Y96590D01*
X103042D01*
X103077Y96587D01*
X103158D01*
X103236Y96583D01*
X103966D01*
X103763Y97557D01*
D02*
G37*
%LPD*%
D40*
X136432Y86924D02*
D03*
X125015D02*
D03*
X136432Y100924D02*
D03*
X125015D02*
D03*
X136432Y114924D02*
D03*
X125015D02*
D03*
D45*
X57024Y85724D02*
D03*
X49287Y85548D02*
D03*
X57124Y101604D02*
D03*
X49297Y101313D02*
D03*
X61105Y18924D02*
D03*
X75224Y30548D02*
D03*
D46*
X145247Y142447D02*
D03*
Y20400D02*
D03*
X23200D02*
D03*
Y142447D02*
D03*
D74*
X16224Y79231D02*
D03*
X12483Y67616D02*
D03*
X19964D02*
D03*
D75*
X114169Y59250D02*
D03*
Y57282D02*
D03*
Y55313D02*
D03*
Y53345D02*
D03*
Y51376D02*
D03*
Y49408D02*
D03*
Y47439D02*
D03*
Y45471D02*
D03*
Y43502D02*
D03*
Y41534D02*
D03*
Y39565D02*
D03*
Y37597D02*
D03*
X82279D02*
D03*
Y39565D02*
D03*
Y41534D02*
D03*
Y43502D02*
D03*
Y45471D02*
D03*
Y47439D02*
D03*
Y49408D02*
D03*
Y51376D02*
D03*
Y53345D02*
D03*
Y55313D02*
D03*
Y57282D02*
D03*
Y59250D02*
D03*
D76*
X109050Y32479D02*
D03*
X107082D02*
D03*
X105113D02*
D03*
X103145D02*
D03*
X101176D02*
D03*
X99208D02*
D03*
X97239D02*
D03*
X95271D02*
D03*
X93302D02*
D03*
X91334D02*
D03*
X89365D02*
D03*
X87397D02*
D03*
Y64368D02*
D03*
X89365D02*
D03*
X91334D02*
D03*
X93302D02*
D03*
X95271D02*
D03*
X97239D02*
D03*
X99208D02*
D03*
X101176D02*
D03*
X103145D02*
D03*
X105113D02*
D03*
X107082D02*
D03*
X109050D02*
D03*
D77*
X100224Y116290D02*
D03*
Y104558D02*
D03*
X113224D02*
D03*
Y116290D02*
D03*
X82724Y154290D02*
D03*
Y142558D02*
D03*
D78*
X105192Y74424D02*
D03*
X111255D02*
D03*
X111255Y81424D02*
D03*
X105192D02*
D03*
Y88424D02*
D03*
X111255D02*
D03*
X89755Y116424D02*
D03*
X83692D02*
D03*
X156255Y69324D02*
D03*
X150192D02*
D03*
X124192Y38324D02*
D03*
X130255D02*
D03*
X150192D02*
D03*
X156255D02*
D03*
X137192D02*
D03*
X143255D02*
D03*
X124192Y69324D02*
D03*
X130255D02*
D03*
X143255D02*
D03*
X137192D02*
D03*
X83692Y109424D02*
D03*
X89755D02*
D03*
X76755Y95424D02*
D03*
X70692D02*
D03*
X71755Y126424D02*
D03*
X65692D02*
D03*
X51692D02*
D03*
X57755D02*
D03*
X27192Y52424D02*
D03*
X33255D02*
D03*
X27192Y66424D02*
D03*
X33255D02*
D03*
X150192Y45324D02*
D03*
X156255D02*
D03*
X19255Y113424D02*
D03*
X13192D02*
D03*
X130255Y76324D02*
D03*
X124192D02*
D03*
X143255D02*
D03*
X137192D02*
D03*
X150192D02*
D03*
X156255D02*
D03*
X137192Y45324D02*
D03*
X143255D02*
D03*
Y55324D02*
D03*
X137192D02*
D03*
Y62324D02*
D03*
X143255D02*
D03*
X33255Y38424D02*
D03*
X27192D02*
D03*
X13192Y52424D02*
D03*
X19255D02*
D03*
X13192Y104424D02*
D03*
X19255D02*
D03*
X13192Y59424D02*
D03*
X19255D02*
D03*
X76755Y116424D02*
D03*
X70692D02*
D03*
X89755Y102424D02*
D03*
X83692D02*
D03*
X70692Y109424D02*
D03*
X76755D02*
D03*
X83692Y95424D02*
D03*
X89755D02*
D03*
X70692Y102424D02*
D03*
X76755D02*
D03*
X120255Y8424D02*
D03*
X114192D02*
D03*
Y22424D02*
D03*
X120255D02*
D03*
X107255Y8424D02*
D03*
X101192D02*
D03*
X88192Y22424D02*
D03*
X94255D02*
D03*
X88192Y15424D02*
D03*
X94255D02*
D03*
X107255Y22424D02*
D03*
X101192D02*
D03*
X114192Y15424D02*
D03*
X120255D02*
D03*
X101192D02*
D03*
X107255D02*
D03*
X33255Y45424D02*
D03*
X27192D02*
D03*
X33255Y73424D02*
D03*
X27192D02*
D03*
X33255Y59424D02*
D03*
X27192D02*
D03*
X156255Y62324D02*
D03*
X150192D02*
D03*
X94255Y8424D02*
D03*
X88192D02*
D03*
X150192Y55324D02*
D03*
X156255D02*
D03*
X130255Y62324D02*
D03*
X124192D02*
D03*
D79*
X99224Y141424D02*
D03*
X121124D02*
D03*
D80*
X91724Y153124D02*
D03*
X96724D02*
D03*
X101724D02*
D03*
X106724D02*
D03*
X91724Y129724D02*
D03*
X96724D02*
D03*
X101724D02*
D03*
X106724D02*
D03*
X128624D02*
D03*
X123624D02*
D03*
X118624D02*
D03*
X113624D02*
D03*
X128624Y153124D02*
D03*
X123624D02*
D03*
X118624D02*
D03*
X113624D02*
D03*
D81*
X82724Y135069D02*
D03*
Y125778D02*
D03*
X50224Y132778D02*
D03*
Y142069D02*
D03*
D82*
X42224Y126674D02*
D03*
Y140174D02*
D03*
D83*
X73724Y140455D02*
D03*
Y134392D02*
D03*
Y148392D02*
D03*
Y154455D02*
D03*
X66224Y154455D02*
D03*
Y148392D02*
D03*
X58724Y148392D02*
D03*
Y154455D02*
D03*
X51224Y148392D02*
D03*
Y154455D02*
D03*
X43724Y148392D02*
D03*
Y154455D02*
D03*
X73224Y67455D02*
D03*
Y61392D02*
D03*
D84*
X56212Y133684D02*
D03*
Y137424D02*
D03*
Y141164D02*
D03*
X67235D02*
D03*
Y137424D02*
D03*
Y133684D02*
D03*
D85*
X37724Y104424D02*
D03*
X28724D02*
D03*
X37724Y95424D02*
D03*
X28724D02*
D03*
D86*
X30090Y123424D02*
D03*
X18358D02*
D03*
D87*
X41806Y58924D02*
D03*
Y63924D02*
D03*
Y68924D02*
D03*
Y73924D02*
D03*
X64641Y58924D02*
D03*
Y63924D02*
D03*
Y68924D02*
D03*
X41806Y37924D02*
D03*
Y42924D02*
D03*
Y47924D02*
D03*
Y52924D02*
D03*
X64641Y37924D02*
D03*
Y42924D02*
D03*
Y47924D02*
D03*
X95641Y88924D02*
D03*
Y83924D02*
D03*
Y78924D02*
D03*
Y73924D02*
D03*
X72806Y88924D02*
D03*
Y83924D02*
D03*
Y78924D02*
D03*
D88*
X64641Y73924D02*
D03*
Y52924D02*
D03*
X72806Y73924D02*
D03*
D89*
X27712Y80424D02*
D03*
Y87424D02*
D03*
D90*
X38735Y80424D02*
D03*
Y87424D02*
D03*
D91*
X36728Y113424D02*
D03*
X29720D02*
D03*
D92*
X124074Y54654D02*
D03*
X130373Y45993D02*
D03*
X124074D02*
D03*
X130373Y54654D02*
D03*
M02*
