G04*
G04 #@! TF.GenerationSoftware,Altium Limited,Altium Designer,20.0.2 (26)*
G04*
G04 Layer_Physical_Order=4*
G04 Layer_Color=16711680*
%FSLAX25Y25*%
%MOIN*%
G70*
G01*
G75*
%ADD10C,0.01000*%
%ADD11C,0.00600*%
%ADD25R,0.06000X0.10000*%
%ADD47C,0.02400*%
%ADD48C,0.05000*%
%ADD49C,0.23622*%
%ADD50C,0.02000*%
%ADD52R,0.02559X0.04528*%
%ADD53O,0.07087X0.01181*%
%ADD54O,0.01181X0.07087*%
%ADD55R,0.07087X0.04449*%
%ADD56R,0.03661X0.03858*%
%ADD57R,0.15748X0.11810*%
%ADD58O,0.02362X0.07079*%
%ADD59R,0.03268X0.03937*%
%ADD60R,0.06500X0.05000*%
%ADD61R,0.03858X0.03661*%
%ADD62R,0.04331X0.02362*%
%ADD63R,0.04000X0.05500*%
%ADD64R,0.04449X0.07087*%
%ADD65O,0.06496X0.02362*%
%ADD66R,0.06496X0.02362*%
%ADD67R,0.03937X0.03150*%
G04:AMPARAMS|DCode=68|XSize=39.37mil|YSize=31.5mil|CornerRadius=0mil|HoleSize=0mil|Usage=FLASHONLY|Rotation=0.000|XOffset=0mil|YOffset=0mil|HoleType=Round|Shape=Octagon|*
%AMOCTAGOND68*
4,1,8,0.01968,-0.00787,0.01968,0.00787,0.01181,0.01575,-0.01181,0.01575,-0.01968,0.00787,-0.01968,-0.00787,-0.01181,-0.01575,0.01181,-0.01575,0.01968,-0.00787,0.0*
%
%ADD68OCTAGOND68*%

%ADD69R,0.04567X0.05787*%
%ADD70R,0.04528X0.05512*%
%ADD71C,0.03000*%
%ADD72C,0.04000*%
%ADD73R,0.03996X0.10200*%
G36*
X129824Y127324D02*
X130124Y127024D01*
X135390Y127024D01*
X141324Y121090D01*
X141324Y86124D01*
X142924Y84524D01*
Y80424D01*
X142224Y79724D01*
X136224Y79724D01*
X134224Y81724D01*
Y81824D01*
X133424D01*
X133424Y116824D01*
X129624Y120624D01*
X127124D01*
X126424Y121324D01*
X126424Y126324D01*
X127124Y127024D01*
X127124D01*
X127424Y127324D01*
Y129724D01*
X129824D01*
Y127324D01*
D02*
G37*
G36*
X124824D02*
X125824Y126324D01*
Y121324D01*
X125124Y120624D01*
X122124D01*
X121424Y121324D01*
Y126324D01*
X122424Y127324D01*
Y129724D01*
X124824D01*
Y127324D01*
D02*
G37*
G36*
X114824D02*
X115824Y126324D01*
Y121324D01*
X115124Y120624D01*
X112124D01*
X111424Y121324D01*
Y126324D01*
X112424Y127324D01*
Y129724D01*
X114824D01*
Y127324D01*
D02*
G37*
G36*
X107924D02*
X108924Y126324D01*
Y121324D01*
X108224Y120624D01*
X105224D01*
X104524Y121324D01*
Y126324D01*
X105524Y127324D01*
Y129724D01*
X107924D01*
Y127324D01*
D02*
G37*
G36*
X102924D02*
X103924Y126324D01*
Y121324D01*
X103224Y120624D01*
X100224D01*
X99524Y121324D01*
Y126324D01*
X100524Y127324D01*
Y129724D01*
X102924D01*
Y127324D01*
D02*
G37*
G36*
X92924D02*
X93924Y126324D01*
Y121324D01*
X93224Y120624D01*
X90224D01*
X89524Y121324D01*
Y126324D01*
X90524Y127324D01*
Y129724D01*
X92924D01*
Y127324D01*
D02*
G37*
G36*
X129324Y118624D02*
X129324Y83171D01*
X128076Y81924D01*
X116224Y81924D01*
X116224Y89424D01*
X114424Y91224D01*
X104400Y91224D01*
X102300Y93324D01*
X93924Y93324D01*
X93924Y98023D01*
X93024Y98924D01*
X93024Y109956D01*
X95192Y112124D01*
X118168D01*
X121424Y115379D01*
X121424Y119924D01*
X128024D01*
X129324Y118624D01*
D02*
G37*
D10*
X146890Y58924D02*
X150192Y62225D01*
X12483Y67616D02*
X13263Y66837D01*
Y65732D02*
Y66837D01*
X72806Y88924D02*
X75025D01*
X70739D02*
X72806D01*
X19255Y52424D02*
Y59424D01*
X95323Y43547D02*
X97247Y45471D01*
X66692Y111424D02*
X68791D01*
X70692Y109522D01*
X45024Y56024D02*
X47324D01*
X41806Y58924D02*
X43265D01*
X43894Y58294D01*
Y57153D02*
Y58294D01*
Y57153D02*
X45024Y56024D01*
X89755Y95522D02*
X91086Y96853D01*
X91653D01*
X89755Y95424D02*
Y95522D01*
X91653Y96853D02*
X94224Y99424D01*
Y99424D01*
X67753Y81910D02*
X70739Y78924D01*
X67753Y85938D02*
X70739Y88924D01*
X67753Y81910D02*
Y85938D01*
X77938Y91836D02*
X101701D01*
X75025Y88924D02*
X77938Y91836D01*
X124192Y62324D02*
Y62422D01*
X122861Y63753D02*
X124192Y62422D01*
X122763Y63753D02*
X122861D01*
X122328Y64187D02*
X122763Y63753D01*
X117424Y64187D02*
X122328D01*
X111255Y74522D02*
X112586Y75853D01*
X111226Y74493D02*
X111255Y74522D01*
Y77924D02*
Y81424D01*
Y74522D02*
Y77924D01*
Y74424D02*
Y74522D01*
X111226Y74296D02*
Y74493D01*
X101701Y91836D02*
X105113Y88424D01*
X105192Y84924D02*
Y88424D01*
Y81424D02*
Y84924D01*
X109768Y72995D02*
X109924D01*
X107116Y70343D02*
X109768Y72995D01*
X109924D02*
X111226Y74296D01*
X107116Y64403D02*
Y70343D01*
X111255Y81424D02*
Y88424D01*
X107082Y64368D02*
X107116Y64403D01*
X82724Y154290D02*
X87724D01*
X88424Y117853D02*
X89755Y116522D01*
Y116424D02*
Y116522D01*
X33255Y59424D02*
Y66325D01*
X28954Y77824D02*
X33255Y73522D01*
Y52424D02*
Y59424D01*
X16224Y78603D02*
X17003Y77824D01*
X16224Y78603D02*
Y79231D01*
X17003Y77824D02*
X28954D01*
X109255Y24424D02*
X112192D01*
X108586Y23853D02*
X108684D01*
X109255Y24424D01*
X107255Y22424D02*
Y22522D01*
X108586Y23853D01*
X89755Y102325D02*
Y102424D01*
X85254Y97824D02*
X89755Y102325D01*
X85092Y97824D02*
X85254D01*
X89365Y32479D02*
Y37224D01*
Y32224D02*
Y32479D01*
X114169Y59250D02*
Y60932D01*
X117424Y64187D01*
X109050Y64271D02*
Y64368D01*
Y64271D02*
X109134Y64187D01*
X117424D01*
X150192Y62324D02*
Y69324D01*
X150192Y69324D01*
X97247Y45471D02*
X114169D01*
X83324Y13390D02*
X88192Y8522D01*
X83324Y13390D02*
Y25453D01*
X87397Y29526D02*
Y32479D01*
X83324Y25453D02*
X87397Y29526D01*
X79326Y59250D02*
X82279D01*
X77184Y61392D02*
X79326Y59250D01*
X73224Y61392D02*
X77184D01*
X82244Y59285D02*
X82279Y59250D01*
X89755Y109424D02*
Y116424D01*
Y102424D02*
Y109424D01*
X70739Y78924D02*
X72806D01*
X17924Y60754D02*
Y61071D01*
X13263Y65732D02*
X17924Y61071D01*
X43724Y154455D02*
X51224D01*
X17924Y60754D02*
X19255Y59424D01*
X94255Y8325D02*
Y8424D01*
X107255Y8325D02*
Y8424D01*
X70692Y109424D02*
Y109522D01*
X137192Y62225D02*
X140494Y58924D01*
X150192Y62225D02*
Y62324D01*
X140494Y58924D02*
X146890D01*
X107255Y8325D02*
X108586Y6995D01*
X120255Y8325D02*
Y8424D01*
X124192Y62225D02*
X127494Y58924D01*
X133792D02*
X135763Y60895D01*
X127494Y58924D02*
X133792D01*
X124192Y62225D02*
Y62324D01*
X137192Y62225D02*
Y62324D01*
X135861Y60895D02*
X137192Y62225D01*
X135763Y60895D02*
X135861D01*
X33255Y52325D02*
Y52424D01*
X30324Y49394D02*
X33255Y52325D01*
X30324Y41654D02*
Y49394D01*
X27192Y38424D02*
Y38522D01*
X30324Y41654D01*
X33255Y52424D02*
X33755Y52924D01*
X41806D01*
X33255Y66424D02*
Y73424D01*
X120255Y22424D02*
X120255Y22424D01*
X107255Y15325D02*
Y15424D01*
X112728Y9853D02*
X112861D01*
X114192Y8522D01*
X101192Y8424D02*
X101192Y8424D01*
X114192Y15424D02*
Y15522D01*
X112861Y16853D02*
X114192Y15522D01*
X112763Y16853D02*
X112861D01*
X101192Y22325D02*
Y22424D01*
X33255Y73424D02*
Y73522D01*
D11*
X49287Y85548D02*
Y85676D01*
Y70987D02*
Y85548D01*
X61924Y79381D02*
Y102724D01*
X95209Y58709D02*
X97239Y60739D01*
Y64368D02*
X97239Y64368D01*
X97239Y60739D02*
Y64368D01*
X97724Y58424D02*
X99208Y59908D01*
Y64368D01*
X94008Y58709D02*
X95209D01*
X93724Y58424D02*
X94008Y58709D01*
X97325Y41579D02*
X99124D01*
X103145Y32479D02*
Y37559D01*
X99124Y41579D02*
X103145Y37559D01*
X98625Y39622D02*
X101176Y37071D01*
X95323Y39622D02*
X98625D01*
X101176Y32479D02*
Y37071D01*
X94536Y37722D02*
X98225D01*
X99208Y36739D01*
X93278Y38980D02*
X94536Y37722D01*
X94122Y36722D02*
X95949D01*
X97239Y35432D01*
X93278Y38980D02*
Y41534D01*
X91279Y39565D02*
X94122Y36722D01*
X97239Y32479D02*
Y35432D01*
X99208Y32479D02*
Y36739D01*
X82279Y47439D02*
X89279D01*
X82279Y49408D02*
X87279D01*
X141724Y80924D02*
X143024Y79624D01*
X153053D02*
X156255Y76422D01*
X143024Y79624D02*
X153053D01*
X66924Y42924D02*
X68641Y44641D01*
Y47924D01*
X64641Y42924D02*
X66924D01*
X91334Y76284D02*
X93974Y78924D01*
X91334Y64368D02*
Y76284D01*
X93974Y78924D02*
X95641D01*
X75775Y73043D02*
X79193Y69624D01*
X88424D02*
X89365Y68682D01*
X79193Y69624D02*
X88424D01*
X73687Y73043D02*
X75775D01*
X72806Y73924D02*
X73687Y73043D01*
X114169Y37597D02*
X114169Y37597D01*
X114169Y31675D02*
Y37597D01*
X113224Y30730D02*
X114169Y31675D01*
X113224Y30424D02*
Y30730D01*
X121124Y35324D02*
X134192D01*
X119724Y33924D02*
X121124Y35324D01*
X124224Y34324D02*
X146192D01*
X123224Y33324D02*
X124224Y34324D01*
X114169Y41534D02*
X118113D01*
X119724Y39924D01*
Y39924D02*
Y39924D01*
X118302Y27502D02*
X119224Y28424D01*
X121420Y41224D02*
X146092D01*
X148563Y43694D01*
X148661D02*
X150192Y45225D01*
X148563Y43694D02*
X148661D01*
X150192Y45225D02*
Y45324D01*
X146724Y43555D02*
Y51757D01*
X121834Y42224D02*
X145392D01*
X146724Y43555D01*
X119141Y43502D02*
X121420Y41224D01*
X120424Y43634D02*
X121834Y42224D01*
X114169Y43502D02*
X119141D01*
X120424Y43634D02*
Y45824D01*
X120424Y50524D02*
X126382D01*
X114280Y51265D02*
X119682D01*
X120424Y50524D01*
X128057Y52198D02*
X128409D01*
X126382Y50524D02*
X128057Y52198D01*
X128409D02*
X130373Y54162D01*
Y54654D01*
X126467Y48449D02*
X128295Y50276D01*
X126038Y48449D02*
X126467D01*
X128295Y50276D02*
X135821D01*
X137192Y48905D01*
Y45324D02*
Y48905D01*
X124074Y46485D02*
X126038Y48449D01*
X114169Y51376D02*
X114280Y51265D01*
X124074Y45993D02*
Y46485D01*
X114169Y49408D02*
X121151D01*
X124074Y46485D01*
X120224Y36924D02*
X122792D01*
X124192Y38324D01*
X122853Y24053D02*
X125224Y26424D01*
X121786Y24053D02*
X122853D01*
X120255Y22424D02*
Y22522D01*
X121786Y24053D01*
X123428Y20628D02*
X128224Y25424D01*
X123428Y12824D02*
Y20628D01*
X108137Y26502D02*
X121302D01*
X122224Y27424D01*
X109106Y27502D02*
X118302D01*
X115302Y28502D02*
X116224Y29424D01*
X110135Y28502D02*
X115302D01*
X126755Y65824D02*
X128626Y67694D01*
X119424Y66746D02*
X119752D01*
X120675Y65824D01*
X126755D01*
X124174Y69305D02*
X124192Y69324D01*
X117424Y69305D02*
X124174D01*
X139155Y73424D02*
X141626Y70953D01*
X121346Y73424D02*
X139155D01*
X117424Y74424D02*
X120346D01*
X121346Y73424D01*
X119768Y72209D02*
X120560D01*
X119424Y71865D02*
X119768Y72209D01*
X120560D02*
X120675Y72324D01*
X134192D01*
X123533Y76983D02*
X124192Y76324D01*
X119424Y76983D02*
X123533D01*
X156255Y76324D02*
Y76422D01*
X134192Y72324D02*
X135563Y70953D01*
X150192Y76225D02*
Y76324D01*
X146791Y72824D02*
X150192Y76225D01*
X141794Y72824D02*
X146791D01*
X137192Y76225D02*
Y76324D01*
Y76225D02*
X138723Y74695D01*
X139923D01*
X141794Y72824D01*
X141626Y70953D02*
X141724D01*
X124192Y76422D02*
X127204Y79434D01*
X134082D02*
X135563Y77953D01*
X127204Y79434D02*
X134082D01*
X136432Y84924D02*
Y86924D01*
X150192Y76324D02*
Y76422D01*
X148661Y77953D02*
X150192Y76422D01*
X137192D02*
X138723Y77953D01*
X138590Y83105D02*
Y84424D01*
X81779Y112724D02*
X86724D01*
X80279Y111224D02*
X81779Y112724D01*
X80279Y99046D02*
Y111224D01*
X97724Y88924D02*
X102024Y84624D01*
X99125Y69724D02*
X102024Y72622D01*
Y84624D01*
X98711Y70724D02*
X101024Y73036D01*
Y80824D01*
X97924Y83924D02*
X101024Y80824D01*
X96469Y69724D02*
X99125D01*
X95524Y70724D02*
X98711D01*
X101176Y68275D02*
X104924Y72022D01*
Y73424D02*
X105192Y73692D01*
X104924Y72022D02*
Y73424D01*
X101176Y64368D02*
Y68275D01*
X82161Y117954D02*
Y118053D01*
X77996Y124424D02*
X83518Y118901D01*
X82161Y117954D02*
X83692Y116424D01*
X83518Y116597D02*
X83692Y116424D01*
X83518Y116597D02*
Y118901D01*
X67224Y95424D02*
X70692D01*
X135563Y77953D02*
X135661D01*
X137192Y76422D01*
X38255Y61424D02*
X46724D01*
X33255Y66325D02*
Y66424D01*
Y66325D02*
X34786Y64794D01*
X34884D01*
X38255Y61424D01*
X47724Y68009D02*
X57161Y77446D01*
X47724Y65904D02*
Y68009D01*
X45743Y63924D02*
X47724Y65904D01*
X49224Y51179D02*
Y68095D01*
X45968Y47924D02*
X49224Y51179D01*
X41806Y47924D02*
X45968D01*
X49224Y68095D02*
X60924Y79795D01*
X50224Y47179D02*
Y67681D01*
X45968Y42924D02*
X50224Y47179D01*
X41806Y42924D02*
X45968D01*
X50224Y67681D02*
X61924Y79381D01*
X82257Y57260D02*
X82279Y57282D01*
X74844Y57260D02*
X82257D01*
X74822Y57238D02*
X74844Y57260D01*
X95271Y26479D02*
Y32479D01*
X84624Y19091D02*
Y24027D01*
X89365Y64368D02*
Y68682D01*
X148661Y36694D02*
X150192Y38225D01*
X146192Y34324D02*
X148563Y36694D01*
X148661D01*
X78724Y64424D02*
X87342D01*
X87397Y64368D01*
Y63726D02*
Y64368D01*
X103942Y55313D02*
X114169D01*
X100152Y51524D02*
X103942Y55313D01*
X92624Y51524D02*
X100152D01*
X90724Y53424D02*
X92624Y51524D01*
X100638Y53424D02*
X104496Y57282D01*
X93724Y53424D02*
X100638D01*
X87724Y58424D02*
X90624Y55524D01*
X90724Y58424D02*
X92624Y56524D01*
X100909D01*
X47224Y68924D02*
X49287Y70987D01*
X41806Y68924D02*
X47224D01*
X60924Y79795D02*
Y97661D01*
X57161Y77446D02*
Y85676D01*
X37657Y42924D02*
X41806D01*
X35755Y47924D02*
X41806D01*
X122428Y11824D02*
X123428Y12824D01*
X117592Y11824D02*
X122428D01*
X114192Y8424D02*
Y8522D01*
X115723Y10053D01*
X115821D01*
X117592Y11824D01*
X105113Y29526D02*
Y32479D01*
Y29526D02*
X108137Y26502D01*
X107082Y29526D02*
Y32479D01*
Y29526D02*
X109106Y27502D01*
X109050Y29587D02*
Y32479D01*
Y29587D02*
X110135Y28502D01*
X67192Y102424D02*
X70692D01*
X28625Y104522D02*
X28724Y104424D01*
X134192Y35324D02*
X135563Y36694D01*
X151723Y56854D02*
Y57284D01*
X154724Y60285D01*
Y60793D01*
X156255Y62324D01*
X89322Y32522D02*
X89365Y32479D01*
X84624Y24027D02*
X86621Y26024D01*
X88824D02*
X91334Y28534D01*
X86621Y26024D02*
X88824D01*
X84624Y19091D02*
X88192Y15522D01*
X82279Y29924D02*
Y37597D01*
X82279Y37597D01*
X82169Y55313D02*
X82224Y55369D01*
X82279Y55313D01*
X77279D02*
X82169D01*
X76094Y121824D02*
X77723D01*
X80279Y113046D02*
Y119269D01*
X77723Y121824D02*
X80279Y119269D01*
X75924Y121994D02*
X76094Y121824D01*
X105113Y59313D02*
Y64368D01*
X90624Y55524D02*
X101324D01*
X105113Y59313D01*
X103145Y58759D02*
Y64368D01*
X100909Y56524D02*
X103145Y58759D01*
X104496Y57282D02*
X114169D01*
X64641Y37924D02*
X66708D01*
X71616Y42832D01*
Y44905D01*
X71643Y44932D01*
X32424Y89535D02*
X38735Y83224D01*
Y80424D02*
Y83224D01*
X32424Y89535D02*
Y110109D01*
X29720Y112813D02*
X32424Y110109D01*
X93302Y68502D02*
X95524Y70724D01*
X95271Y68526D02*
X96469Y69724D01*
X93302Y64368D02*
Y68502D01*
X95271Y64368D02*
Y68526D01*
X37724Y103712D02*
Y104424D01*
Y103712D02*
X39424Y102012D01*
X82279Y43502D02*
X87310D01*
X89279Y41534D01*
Y41534D02*
Y41534D01*
X88192Y22424D02*
X89723Y23954D01*
Y24923D02*
X93302Y28502D01*
X89723Y23954D02*
Y24923D01*
X93302Y28502D02*
Y32479D01*
X91334Y28534D02*
Y32479D01*
X82279Y39565D02*
X87279D01*
X82279Y45471D02*
X87279D01*
X76755Y109522D02*
X80279Y113046D01*
X76755Y109424D02*
Y109522D01*
Y95424D02*
Y95522D01*
X80279Y99046D01*
X150192Y55324D02*
X151723Y56854D01*
X76755Y102424D02*
Y102522D01*
X73254Y106024D02*
X76755Y102522D01*
X68424Y106024D02*
X73254D01*
X66724Y107724D02*
X68424Y106024D01*
X76755Y116424D02*
Y116522D01*
X66724Y116424D02*
X70692D01*
X124192Y76324D02*
Y76422D01*
X137192Y76324D02*
Y76422D01*
X150192Y38225D02*
Y38324D01*
X137192Y38225D02*
Y38324D01*
X135661Y36694D02*
X137192Y38225D01*
X135563Y36694D02*
X135661D01*
X118808Y47439D02*
X120424Y45824D01*
X130373Y54654D02*
X136523D01*
X137192Y55324D01*
X36728Y113424D02*
X36928Y113224D01*
X29720Y112813D02*
Y113424D01*
X33255Y45424D02*
Y45522D01*
X34786Y47053D01*
X34884D01*
X35755Y47924D01*
X33255Y38424D02*
Y38522D01*
X37657Y42924D01*
X150192Y55225D02*
Y55324D01*
X146724Y51757D02*
X150192Y55225D01*
X114169Y47439D02*
X118808D01*
X88192Y15424D02*
Y15522D01*
X120255Y15424D02*
Y22424D01*
X107255Y15325D02*
X112728Y9853D01*
X101192Y8424D02*
Y15424D01*
X94255D02*
X101192D01*
X110692Y18924D02*
X112763Y16853D01*
X101192Y22325D02*
X104594Y18924D01*
X110692D01*
X94255Y22424D02*
X101192D01*
X143255Y69324D02*
Y69422D01*
X141724Y70953D02*
X143255Y69422D01*
X137192Y69324D02*
Y69422D01*
X135661Y70953D02*
X137192Y69422D01*
X135563Y70953D02*
X135661D01*
X130255Y69225D02*
Y69324D01*
X128724Y67694D02*
X130255Y69225D01*
X128626Y67694D02*
X128724D01*
X41806Y63924D02*
X45743D01*
X59324Y105324D02*
X61924Y102724D01*
X57161Y101424D02*
X60924Y97661D01*
X49287Y101424D02*
X53187Y105324D01*
X59324D01*
X95641Y83924D02*
X97924D01*
X95641Y88924D02*
X97724D01*
D25*
X136432Y86924D02*
D03*
X125015D02*
D03*
X136432Y100924D02*
D03*
X125015D02*
D03*
X136432Y114924D02*
D03*
X125015D02*
D03*
D47*
X15417Y84724D02*
D03*
X14424Y67824D02*
D03*
X15724Y59424D02*
D03*
X97724Y58424D02*
D03*
X95323Y43547D02*
D03*
X93724Y53424D02*
D03*
X97325Y41579D02*
D03*
X95323Y39622D02*
D03*
X93278Y41534D02*
D03*
X89279Y47439D02*
D03*
X87279Y49408D02*
D03*
X91279Y39565D02*
D03*
X138724Y80924D02*
D03*
Y82424D02*
D03*
X46224Y154455D02*
D03*
X94224Y100924D02*
D03*
X95724Y99424D02*
D03*
X94224Y102424D02*
D03*
X95724D02*
D03*
X97224Y99424D02*
D03*
Y100924D02*
D03*
X94224Y103924D02*
D03*
X95724D02*
D03*
X98724Y99424D02*
D03*
Y100924D02*
D03*
X146724Y81924D02*
D03*
Y83424D02*
D03*
X148224D02*
D03*
X149724D02*
D03*
X148224Y81924D02*
D03*
X149724D02*
D03*
X159724D02*
D03*
X158224D02*
D03*
X159724Y83424D02*
D03*
X158224D02*
D03*
X156724D02*
D03*
Y81924D02*
D03*
X119724Y39924D02*
D03*
Y33924D02*
D03*
X122724Y32924D02*
D03*
X119224Y28424D02*
D03*
X119724Y36924D02*
D03*
X119424Y76983D02*
D03*
X156724Y125924D02*
D03*
Y124424D02*
D03*
X158224D02*
D03*
X159724D02*
D03*
X158224Y125924D02*
D03*
X159724D02*
D03*
X149724D02*
D03*
X148224D02*
D03*
X149724Y124424D02*
D03*
X148224D02*
D03*
X146724D02*
D03*
Y125924D02*
D03*
X141724Y82424D02*
D03*
Y80924D02*
D03*
X140224D02*
D03*
Y82424D02*
D03*
X127824Y108624D02*
D03*
Y107124D02*
D03*
X126324D02*
D03*
Y108624D02*
D03*
X121824Y107124D02*
D03*
Y108624D02*
D03*
X123324D02*
D03*
Y107124D02*
D03*
X24696Y66419D02*
D03*
X17824Y67616D02*
D03*
X94224Y99424D02*
D03*
X95724Y100924D02*
D03*
X117590Y110424D02*
D03*
X119090D02*
D03*
Y108924D02*
D03*
X145755Y76324D02*
D03*
X124824Y108624D02*
D03*
Y107124D02*
D03*
X83692Y106924D02*
D03*
X86724Y112724D02*
D03*
X105724Y123824D02*
D03*
X102724Y125824D02*
D03*
X105724Y121824D02*
D03*
X102724D02*
D03*
X105724Y125824D02*
D03*
X102724Y123824D02*
D03*
X148224Y92924D02*
D03*
Y91424D02*
D03*
X149724Y92924D02*
D03*
Y91424D02*
D03*
X146724D02*
D03*
Y92924D02*
D03*
X127624Y125824D02*
D03*
X129624D02*
D03*
Y123824D02*
D03*
Y121824D02*
D03*
X127624D02*
D03*
Y123824D02*
D03*
X107724Y125824D02*
D03*
Y123824D02*
D03*
Y121824D02*
D03*
X159724Y92924D02*
D03*
X158224D02*
D03*
X156724D02*
D03*
Y91424D02*
D03*
X158224D02*
D03*
X159724D02*
D03*
X156724Y114924D02*
D03*
X158224D02*
D03*
X159724D02*
D03*
Y116424D02*
D03*
X158224D02*
D03*
X156724D02*
D03*
X90724Y123824D02*
D03*
Y121824D02*
D03*
X92724D02*
D03*
Y123824D02*
D03*
Y125824D02*
D03*
X90724D02*
D03*
X122624Y123824D02*
D03*
Y121824D02*
D03*
X124624D02*
D03*
Y123824D02*
D03*
Y125824D02*
D03*
X122624D02*
D03*
X112624Y123824D02*
D03*
Y121824D02*
D03*
X114624D02*
D03*
Y123824D02*
D03*
Y125824D02*
D03*
X112624D02*
D03*
X108724Y150124D02*
D03*
X103724Y155124D02*
D03*
X98724D02*
D03*
X87724Y154290D02*
D03*
X88224Y131424D02*
D03*
X82924Y149953D02*
D03*
X100724Y123824D02*
D03*
Y121824D02*
D03*
Y125824D02*
D03*
X77996Y124424D02*
D03*
X146724Y116424D02*
D03*
X148224D02*
D03*
X149724D02*
D03*
Y114924D02*
D03*
X148224D02*
D03*
X146724D02*
D03*
X73224Y64955D02*
D03*
X105192Y84924D02*
D03*
X24692Y73424D02*
D03*
X23692Y99924D02*
D03*
Y101924D02*
D03*
Y113924D02*
D03*
Y111924D02*
D03*
Y103924D02*
D03*
Y105924D02*
D03*
X46724Y61424D02*
D03*
X60641Y63924D02*
D03*
X45806Y73924D02*
D03*
X86104Y102512D02*
D03*
X60641Y73924D02*
D03*
X90692Y8424D02*
D03*
X26912Y83224D02*
D03*
X47324Y56024D02*
D03*
X24692Y59424D02*
D03*
Y52424D02*
D03*
X74822Y57238D02*
D03*
X68641Y58924D02*
D03*
X95224Y26924D02*
D03*
X75724Y126394D02*
D03*
X120624Y153124D02*
D03*
X71724Y143924D02*
D03*
X143255Y47824D02*
D03*
Y52824D02*
D03*
X158755Y45324D02*
D03*
Y55324D02*
D03*
Y38324D02*
D03*
X145755D02*
D03*
X78724Y64424D02*
D03*
X90724Y58424D02*
D03*
X87724D02*
D03*
X93724D02*
D03*
X67224Y95424D02*
D03*
X68641Y52924D02*
D03*
X122224Y27424D02*
D03*
X113224Y30424D02*
D03*
X116224Y29424D02*
D03*
X119424Y61628D02*
D03*
X130624Y153124D02*
D03*
X112192Y24424D02*
D03*
X128224Y25424D02*
D03*
X125224Y26424D02*
D03*
X125624Y153124D02*
D03*
X41806Y36124D02*
D03*
X97724Y18924D02*
D03*
X60641Y68924D02*
D03*
X66724Y102424D02*
D03*
X23692Y107924D02*
D03*
Y109924D02*
D03*
X22192Y107924D02*
D03*
Y109924D02*
D03*
X16192D02*
D03*
Y107924D02*
D03*
X14692Y109924D02*
D03*
Y107924D02*
D03*
X13192Y109924D02*
D03*
Y107924D02*
D03*
X11692Y109924D02*
D03*
Y107924D02*
D03*
X8692Y109924D02*
D03*
X10192Y107924D02*
D03*
X8692D02*
D03*
X10192Y109924D02*
D03*
X10692Y104424D02*
D03*
X158755Y69324D02*
D03*
X117424Y64187D02*
D03*
X150192Y59824D02*
D03*
X150192Y47824D02*
D03*
X89365Y37224D02*
D03*
X80355Y6191D02*
D03*
X82279Y29924D02*
D03*
X68641Y47924D02*
D03*
X77279Y55313D02*
D03*
X111255Y77924D02*
D03*
X72224Y58892D02*
D03*
X97641Y74924D02*
D03*
X77924Y149953D02*
D03*
X50224Y139569D02*
D03*
X24692Y45424D02*
D03*
X70124Y157351D02*
D03*
X122624Y6924D02*
D03*
X106282Y5924D02*
D03*
X96655Y6924D02*
D03*
X90724Y53424D02*
D03*
X71643Y44932D02*
D03*
X15724Y52424D02*
D03*
X18501Y37329D02*
D03*
X16501D02*
D03*
X14502D02*
D03*
X12502D02*
D03*
X10502D02*
D03*
X8501D02*
D03*
X48024Y142069D02*
D03*
X76224Y154455D02*
D03*
X93224Y143424D02*
D03*
X95224Y145424D02*
D03*
X93224Y141424D02*
D03*
Y139424D02*
D03*
X95224Y141424D02*
D03*
X97224Y137424D02*
D03*
X95224D02*
D03*
X99224D02*
D03*
X103224D02*
D03*
X101224D02*
D03*
X105224D02*
D03*
Y139424D02*
D03*
X97224D02*
D03*
Y141424D02*
D03*
X101224Y139424D02*
D03*
X99224Y141424D02*
D03*
X97224Y143424D02*
D03*
X99224Y145424D02*
D03*
X97224D02*
D03*
X101224Y141424D02*
D03*
Y143424D02*
D03*
X105224Y141424D02*
D03*
X103224D02*
D03*
Y145424D02*
D03*
X101224D02*
D03*
X105224Y143424D02*
D03*
Y145424D02*
D03*
X115124Y143424D02*
D03*
X117124Y145424D02*
D03*
X115124Y141424D02*
D03*
X117124Y137424D02*
D03*
X121124D02*
D03*
X119124D02*
D03*
X115124Y139424D02*
D03*
X117124Y141424D02*
D03*
X119124Y139424D02*
D03*
Y141424D02*
D03*
X123124Y137424D02*
D03*
Y139424D02*
D03*
X127124Y137424D02*
D03*
X125124D02*
D03*
Y141424D02*
D03*
X121124D02*
D03*
X127124Y139424D02*
D03*
Y141424D02*
D03*
X123124D02*
D03*
X119124Y143424D02*
D03*
X127124D02*
D03*
X123124D02*
D03*
X121124Y145424D02*
D03*
X119124D02*
D03*
X127124D02*
D03*
X123124D02*
D03*
X125124D02*
D03*
X115124D02*
D03*
X93224D02*
D03*
X73723Y98936D02*
D03*
X87279Y39565D02*
D03*
Y45471D02*
D03*
X117424Y69305D02*
D03*
X119424Y66746D02*
D03*
X89279Y41534D02*
D03*
X117424Y74424D02*
D03*
X119424Y71865D02*
D03*
X28412Y83224D02*
D03*
X26912Y84724D02*
D03*
X28412D02*
D03*
X20502Y37329D02*
D03*
X85092Y97824D02*
D03*
X75924Y121994D02*
D03*
X66724Y111424D02*
D03*
Y108424D02*
D03*
X19255Y83924D02*
D03*
X10692Y113424D02*
D03*
X132755Y76324D02*
D03*
X145755Y62324D02*
D03*
X132755D02*
D03*
X132755Y38324D02*
D03*
X66724Y116424D02*
D03*
X12502Y125518D02*
D03*
X14502D02*
D03*
X10502D02*
D03*
X8501D02*
D03*
X16501D02*
D03*
X18501D02*
D03*
X20502D02*
D03*
D48*
X57024Y85724D02*
D03*
X49287Y85548D02*
D03*
X57124Y101604D02*
D03*
X49297Y101313D02*
D03*
X61105Y18924D02*
D03*
X75224Y30548D02*
D03*
D49*
X145247Y142447D02*
D03*
Y20400D02*
D03*
X23200D02*
D03*
Y142447D02*
D03*
D50*
X50224Y139569D02*
X50332D01*
X82724Y126113D02*
X83358Y126746D01*
X83547D01*
X88224Y131424D01*
X82724Y125778D02*
Y126113D01*
X56031Y137605D02*
X56212Y137424D01*
X52296Y137605D02*
X56031D01*
X50332Y139569D02*
X52296Y137605D01*
X50824Y148392D02*
X51654Y149223D01*
X113624Y146924D02*
Y153124D01*
Y146924D02*
X115124Y145424D01*
X91724Y146924D02*
X93224Y145424D01*
X91724Y146924D02*
Y153124D01*
X39129Y80424D02*
X43024Y84318D01*
X30090Y122105D02*
Y123424D01*
X82724Y135069D02*
Y142558D01*
X82724Y142558D01*
X73724Y134392D02*
X74062Y134731D01*
X82385D01*
X82724Y135069D01*
X67235Y137424D02*
X67417Y137242D01*
X70775D01*
X73625Y134392D01*
X73724D01*
X73196Y140983D02*
X73724Y140455D01*
X67417Y140983D02*
X73196D01*
X67235Y141164D02*
X67417Y140983D01*
X58724Y148392D02*
X73724D01*
X58724Y148392D02*
X58724Y148392D01*
X56212Y141164D02*
Y145979D01*
X58625Y148392D01*
X58724D01*
X56212Y128065D02*
Y133684D01*
Y128065D02*
X57755Y126522D01*
Y126424D02*
Y126522D01*
Y126424D02*
X65692D01*
X51692Y126325D02*
Y126424D01*
Y126325D02*
X55694Y122324D01*
X71755Y126325D02*
Y126424D01*
X67753Y122324D02*
X71755Y126325D01*
X55694Y122324D02*
X67753D01*
X67235Y133684D02*
X68220D01*
X68401Y133502D01*
Y129876D02*
Y133502D01*
Y129876D02*
X71755Y126522D01*
Y126424D02*
Y126522D01*
X51692Y126424D02*
Y130975D01*
X50224Y132443D02*
X51692Y130975D01*
X50224Y132443D02*
Y132778D01*
X42224Y126674D02*
X42349Y126549D01*
X51567D01*
X51692Y126424D01*
X57124Y153624D02*
X57893D01*
X51654Y149223D02*
X52723D01*
X57124Y153624D01*
X57893D02*
X58724Y154455D01*
X66224D01*
X31314Y127535D02*
X39974Y136195D01*
X31314Y124648D02*
Y127535D01*
X39974Y136195D02*
Y138674D01*
X41474Y140174D02*
X42224D01*
X39974Y138674D02*
X41474Y140174D01*
X30090Y123424D02*
X31314Y124648D01*
X43724Y141674D02*
Y148392D01*
X42224Y140174D02*
X43724Y141674D01*
X50824Y148392D02*
X51224D01*
X43724D02*
X50824D01*
X66224Y154455D02*
X66224Y154455D01*
X58725Y148392D02*
X58824D01*
X34124Y100074D02*
X37724Y103674D01*
X34124Y91642D02*
Y100074D01*
Y91642D02*
X38342Y87424D01*
X16224Y80215D02*
X16503Y80494D01*
X20494D02*
X23624Y83624D01*
X16503Y80494D02*
X20494D01*
X16224Y79231D02*
Y80215D01*
X23624Y83624D02*
Y92624D01*
X19255Y96992D02*
X23624Y92624D01*
X38342Y87424D02*
X38735D01*
X37724Y94674D02*
X43024Y89374D01*
X38735Y80424D02*
X39129D01*
X43024Y84318D02*
Y89374D01*
X37724Y94674D02*
Y95424D01*
X19255Y96992D02*
Y104424D01*
Y113424D01*
Y113522D01*
X26613Y120880D01*
X28865D01*
X30090Y122105D01*
D52*
X16224Y79231D02*
D03*
X12483Y67616D02*
D03*
X19964D02*
D03*
D53*
X114169Y59250D02*
D03*
Y57282D02*
D03*
Y55313D02*
D03*
Y53345D02*
D03*
Y51376D02*
D03*
Y49408D02*
D03*
Y47439D02*
D03*
Y45471D02*
D03*
Y43502D02*
D03*
Y41534D02*
D03*
Y39565D02*
D03*
Y37597D02*
D03*
X82279D02*
D03*
Y39565D02*
D03*
Y41534D02*
D03*
Y43502D02*
D03*
Y45471D02*
D03*
Y47439D02*
D03*
Y49408D02*
D03*
Y51376D02*
D03*
Y53345D02*
D03*
Y55313D02*
D03*
Y57282D02*
D03*
Y59250D02*
D03*
D54*
X109050Y32479D02*
D03*
X107082D02*
D03*
X105113D02*
D03*
X103145D02*
D03*
X101176D02*
D03*
X99208D02*
D03*
X97239D02*
D03*
X95271D02*
D03*
X93302D02*
D03*
X91334D02*
D03*
X89365D02*
D03*
X87397D02*
D03*
Y64368D02*
D03*
X89365D02*
D03*
X91334D02*
D03*
X93302D02*
D03*
X95271D02*
D03*
X97239D02*
D03*
X99208D02*
D03*
X101176D02*
D03*
X103145D02*
D03*
X105113D02*
D03*
X107082D02*
D03*
X109050D02*
D03*
D55*
X100224Y116290D02*
D03*
Y104558D02*
D03*
X113224D02*
D03*
Y116290D02*
D03*
X82724Y154290D02*
D03*
Y142558D02*
D03*
D56*
X105192Y74424D02*
D03*
X111255D02*
D03*
X111255Y81424D02*
D03*
X105192D02*
D03*
Y88424D02*
D03*
X111255D02*
D03*
X89755Y116424D02*
D03*
X83692D02*
D03*
X156255Y69324D02*
D03*
X150192D02*
D03*
X124192Y38324D02*
D03*
X130255D02*
D03*
X150192D02*
D03*
X156255D02*
D03*
X137192D02*
D03*
X143255D02*
D03*
X124192Y69324D02*
D03*
X130255D02*
D03*
X143255D02*
D03*
X137192D02*
D03*
X83692Y109424D02*
D03*
X89755D02*
D03*
X76755Y95424D02*
D03*
X70692D02*
D03*
X71755Y126424D02*
D03*
X65692D02*
D03*
X51692D02*
D03*
X57755D02*
D03*
X27192Y52424D02*
D03*
X33255D02*
D03*
X27192Y66424D02*
D03*
X33255D02*
D03*
X150192Y45324D02*
D03*
X156255D02*
D03*
X19255Y113424D02*
D03*
X13192D02*
D03*
X130255Y76324D02*
D03*
X124192D02*
D03*
X143255D02*
D03*
X137192D02*
D03*
X150192D02*
D03*
X156255D02*
D03*
X137192Y45324D02*
D03*
X143255D02*
D03*
Y55324D02*
D03*
X137192D02*
D03*
Y62324D02*
D03*
X143255D02*
D03*
X33255Y38424D02*
D03*
X27192D02*
D03*
X13192Y52424D02*
D03*
X19255D02*
D03*
X13192Y104424D02*
D03*
X19255D02*
D03*
X13192Y59424D02*
D03*
X19255D02*
D03*
X76755Y116424D02*
D03*
X70692D02*
D03*
X89755Y102424D02*
D03*
X83692D02*
D03*
X70692Y109424D02*
D03*
X76755D02*
D03*
X83692Y95424D02*
D03*
X89755D02*
D03*
X70692Y102424D02*
D03*
X76755D02*
D03*
X120255Y8424D02*
D03*
X114192D02*
D03*
Y22424D02*
D03*
X120255D02*
D03*
X107255Y8424D02*
D03*
X101192D02*
D03*
X88192Y22424D02*
D03*
X94255D02*
D03*
X88192Y15424D02*
D03*
X94255D02*
D03*
X107255Y22424D02*
D03*
X101192D02*
D03*
X114192Y15424D02*
D03*
X120255D02*
D03*
X101192D02*
D03*
X107255D02*
D03*
X33255Y45424D02*
D03*
X27192D02*
D03*
X33255Y73424D02*
D03*
X27192D02*
D03*
X33255Y59424D02*
D03*
X27192D02*
D03*
X156255Y62324D02*
D03*
X150192D02*
D03*
X94255Y8424D02*
D03*
X88192D02*
D03*
X150192Y55324D02*
D03*
X156255D02*
D03*
X130255Y62324D02*
D03*
X124192D02*
D03*
D57*
X99224Y141424D02*
D03*
X121124D02*
D03*
D58*
X91724Y153124D02*
D03*
X96724D02*
D03*
X101724D02*
D03*
X106724D02*
D03*
X91724Y129724D02*
D03*
X96724D02*
D03*
X101724D02*
D03*
X106724D02*
D03*
X128624D02*
D03*
X123624D02*
D03*
X118624D02*
D03*
X113624D02*
D03*
X128624Y153124D02*
D03*
X123624D02*
D03*
X118624D02*
D03*
X113624D02*
D03*
D59*
X82724Y135069D02*
D03*
Y125778D02*
D03*
X50224Y132778D02*
D03*
Y142069D02*
D03*
D60*
X42224Y126674D02*
D03*
Y140174D02*
D03*
D61*
X73724Y140455D02*
D03*
Y134392D02*
D03*
Y148392D02*
D03*
Y154455D02*
D03*
X66224Y154455D02*
D03*
Y148392D02*
D03*
X58724Y148392D02*
D03*
Y154455D02*
D03*
X51224Y148392D02*
D03*
Y154455D02*
D03*
X43724Y148392D02*
D03*
Y154455D02*
D03*
X73224Y67455D02*
D03*
Y61392D02*
D03*
D62*
X56212Y133684D02*
D03*
Y137424D02*
D03*
Y141164D02*
D03*
X67235D02*
D03*
Y137424D02*
D03*
Y133684D02*
D03*
D63*
X37724Y104424D02*
D03*
X28724D02*
D03*
X37724Y95424D02*
D03*
X28724D02*
D03*
D64*
X30090Y123424D02*
D03*
X18358D02*
D03*
D65*
X41806Y58924D02*
D03*
Y63924D02*
D03*
Y68924D02*
D03*
Y73924D02*
D03*
X64641Y58924D02*
D03*
Y63924D02*
D03*
Y68924D02*
D03*
X41806Y37924D02*
D03*
Y42924D02*
D03*
Y47924D02*
D03*
Y52924D02*
D03*
X64641Y37924D02*
D03*
Y42924D02*
D03*
Y47924D02*
D03*
X95641Y88924D02*
D03*
Y83924D02*
D03*
Y78924D02*
D03*
Y73924D02*
D03*
X72806Y88924D02*
D03*
Y83924D02*
D03*
Y78924D02*
D03*
D66*
X64641Y73924D02*
D03*
Y52924D02*
D03*
X72806Y73924D02*
D03*
D67*
X27712Y80424D02*
D03*
Y87424D02*
D03*
D68*
X38735Y80424D02*
D03*
Y87424D02*
D03*
D69*
X36728Y113424D02*
D03*
X29720D02*
D03*
D70*
X124074Y54654D02*
D03*
X130373Y45993D02*
D03*
X124074D02*
D03*
X130373Y54654D02*
D03*
D71*
X113948Y116014D02*
X115314D01*
X118624Y119324D01*
Y129724D01*
D72*
X98905Y116290D02*
X100224D01*
X96724Y118471D02*
X98905Y116290D01*
X96724Y118471D02*
Y129724D01*
D73*
X27722Y83924D02*
D03*
M02*
