G04*
G04 #@! TF.GenerationSoftware,Altium Limited,Altium Designer,20.0.2 (26)*
G04*
G04 Layer_Color=8421504*
%FSLAX25Y25*%
%MOIN*%
G70*
G01*
G75*
%ADD15O,0.02362X0.05976*%
%ADD16O,0.02362X0.05976*%
%ADD17R,0.15354X0.07087*%
%ADD18R,0.17717X0.05118*%
%ADD19R,0.11360X0.03920*%
%ADD20R,0.07150X0.03000*%
%ADD21R,0.03920X0.11360*%
%ADD22R,0.03000X0.07150*%
%ADD23O,0.11811X0.01575*%
%ADD24R,0.10000X0.06000*%
%ADD25R,0.06000X0.10000*%
G04:AMPARAMS|DCode=26|XSize=70mil|YSize=140mil|CornerRadius=17.5mil|HoleSize=0mil|Usage=FLASHONLY|Rotation=0.000|XOffset=0mil|YOffset=0mil|HoleType=Round|Shape=RoundedRectangle|*
%AMROUNDEDRECTD26*
21,1,0.07000,0.10500,0,0,0.0*
21,1,0.03500,0.14000,0,0,0.0*
1,1,0.03500,0.01750,-0.05250*
1,1,0.03500,-0.01750,-0.05250*
1,1,0.03500,-0.01750,0.05250*
1,1,0.03500,0.01750,0.05250*
%
%ADD26ROUNDEDRECTD26*%
%ADD27R,0.04134X0.02559*%
%ADD28R,0.08661X0.09843*%
%ADD29R,0.02362X0.05906*%
D15*
X71723Y95636D02*
D03*
X76723D02*
D03*
X81723D02*
D03*
X86723D02*
D03*
D16*
X71724Y117211D02*
D03*
X76724D02*
D03*
X81724D02*
D03*
X86724D02*
D03*
D17*
X14525Y89006D02*
D03*
Y124202D02*
D03*
D18*
X35391Y101604D02*
D03*
Y111604D02*
D03*
D19*
X18851Y80934D02*
D03*
X18851Y61684D02*
D03*
X19330Y37320D02*
D03*
X19330Y56570D02*
D03*
D20*
X32491Y68804D02*
D03*
Y73724D02*
D03*
X32970Y49360D02*
D03*
Y44440D02*
D03*
D21*
X73484Y13530D02*
D03*
X44314D02*
D03*
D22*
X61364Y27170D02*
D03*
X66284D02*
D03*
X56444D02*
D03*
X51524D02*
D03*
D23*
X105424Y74424D02*
D03*
Y71865D02*
D03*
Y69305D02*
D03*
Y66746D02*
D03*
Y64187D02*
D03*
Y61628D02*
D03*
Y59069D02*
D03*
Y56510D02*
D03*
Y53951D02*
D03*
Y51392D02*
D03*
Y48833D02*
D03*
Y46274D02*
D03*
Y43715D02*
D03*
Y41156D02*
D03*
Y38597D02*
D03*
D24*
X134224Y84715D02*
D03*
Y96132D02*
D03*
Y117132D02*
D03*
Y105715D02*
D03*
D25*
X110515Y86924D02*
D03*
X121932D02*
D03*
X110515Y114924D02*
D03*
X121932D02*
D03*
X110515Y100924D02*
D03*
X121932D02*
D03*
D26*
X158224Y87424D02*
D03*
X148224Y120424D02*
D03*
X158224D02*
D03*
X148224Y87424D02*
D03*
D27*
X99393Y14656D02*
D03*
X83055Y14656D02*
D03*
X99392Y6191D02*
D03*
X83054Y6191D02*
D03*
X125393Y14656D02*
D03*
X109055Y14656D02*
D03*
X125392Y6191D02*
D03*
X109054Y6191D02*
D03*
D28*
X97624Y94172D02*
D03*
Y112676D02*
D03*
X52224Y148676D02*
D03*
Y130172D02*
D03*
D29*
X71724Y126394D02*
D03*
X66724D02*
D03*
Y152453D02*
D03*
X71724D02*
D03*
X79724Y152453D02*
D03*
X84724D02*
D03*
Y126394D02*
D03*
X79724D02*
D03*
M02*
