G04*
G04 #@! TF.GenerationSoftware,Altium Limited,Altium Designer,20.0.2 (26)*
G04*
G04 Layer_Physical_Order=3*
G04 Layer_Color=16440176*
%FSLAX25Y25*%
%MOIN*%
G70*
G01*
G75*
%ADD47C,0.02400*%
%ADD48C,0.05000*%
%ADD51O,0.04000X0.02000*%
G36*
X139453Y159898D02*
X142109Y159370D01*
X144700Y158584D01*
X147202Y157548D01*
X149590Y156271D01*
X151841Y154767D01*
X153935Y153049D01*
X155849Y151135D01*
X157567Y149041D01*
X159071Y146790D01*
X160348Y144402D01*
X161384Y141900D01*
X162170Y139309D01*
X162698Y136653D01*
X162964Y133959D01*
Y132605D01*
Y115589D01*
Y115201D01*
X162812Y114441D01*
X162516Y113724D01*
X162085Y113079D01*
X161537Y112531D01*
X160892Y112100D01*
X160175Y111803D01*
X159415Y111652D01*
X147247D01*
X146861Y111633D01*
X146104Y111482D01*
X145391Y111187D01*
X144750Y110758D01*
X144204Y110213D01*
X143775Y109571D01*
X143480Y108858D01*
X143329Y108101D01*
X143310Y107715D01*
Y100132D01*
X143329Y99746D01*
X143480Y98989D01*
X143775Y98276D01*
X144204Y97635D01*
X144750Y97089D01*
X145391Y96660D01*
X146104Y96365D01*
X146861Y96214D01*
X147247Y96195D01*
X159415D01*
X160175Y96044D01*
X160892Y95747D01*
X161537Y95316D01*
X162085Y94768D01*
X162516Y94123D01*
X162812Y93407D01*
X162964Y92646D01*
Y92258D01*
Y30242D01*
Y28889D01*
X162698Y26194D01*
X162170Y23538D01*
X161384Y20947D01*
X160348Y18445D01*
X159071Y16057D01*
X157567Y13806D01*
X155849Y11713D01*
X153935Y9798D01*
X151841Y8080D01*
X149590Y6576D01*
X147202Y5299D01*
X144700Y4263D01*
X142109Y3477D01*
X139453Y2949D01*
X136759Y2684D01*
X31689D01*
X28994Y2949D01*
X26338Y3477D01*
X23747Y4263D01*
X21245Y5299D01*
X18857Y6576D01*
X16606Y8080D01*
X14513Y9798D01*
X12598Y11713D01*
X10880Y13806D01*
X9376Y16057D01*
X8099Y18445D01*
X7063Y20947D01*
X6277Y23538D01*
X5749Y26194D01*
X5483Y28889D01*
Y30242D01*
Y132605D01*
Y133959D01*
X5749Y136653D01*
X6277Y139309D01*
X7063Y141900D01*
X8099Y144402D01*
X9376Y146790D01*
X10880Y149041D01*
X12598Y151135D01*
X14513Y153049D01*
X16606Y154767D01*
X18857Y156271D01*
X21245Y157548D01*
X23747Y158584D01*
X26338Y159370D01*
X28994Y159898D01*
X31689Y160164D01*
X136759D01*
X139453Y159898D01*
D02*
G37*
%LPC*%
G36*
X70124Y158982D02*
X69499Y158858D01*
X68970Y158504D01*
X68616Y157975D01*
X68492Y157351D01*
X68616Y156727D01*
X68970Y156197D01*
X69499Y155844D01*
X70124Y155719D01*
X70748Y155844D01*
X71277Y156197D01*
X71631Y156727D01*
X71755Y157351D01*
X71631Y157975D01*
X71277Y158504D01*
X70748Y158858D01*
X70124Y158982D01*
D02*
G37*
G36*
X103724Y156755D02*
X103099Y156631D01*
X102570Y156277D01*
X102216Y155748D01*
X102092Y155124D01*
X102216Y154499D01*
X102570Y153970D01*
X103099Y153616D01*
X103724Y153492D01*
X104348Y153616D01*
X104877Y153970D01*
X105231Y154499D01*
X105355Y155124D01*
X105231Y155748D01*
X104877Y156277D01*
X104348Y156631D01*
X103724Y156755D01*
D02*
G37*
G36*
X98724D02*
X98099Y156631D01*
X97570Y156277D01*
X97216Y155748D01*
X97092Y155124D01*
X97216Y154499D01*
X97570Y153970D01*
X98099Y153616D01*
X98724Y153492D01*
X99348Y153616D01*
X99877Y153970D01*
X100231Y154499D01*
X100355Y155124D01*
X100231Y155748D01*
X99877Y156277D01*
X99348Y156631D01*
X98724Y156755D01*
D02*
G37*
G36*
X130624Y154755D02*
X129999Y154631D01*
X129470Y154277D01*
X129116Y153748D01*
X128992Y153124D01*
X129116Y152499D01*
X129470Y151970D01*
X129999Y151617D01*
X130624Y151492D01*
X131248Y151617D01*
X131777Y151970D01*
X132131Y152499D01*
X132255Y153124D01*
X132131Y153748D01*
X131777Y154277D01*
X131248Y154631D01*
X130624Y154755D01*
D02*
G37*
G36*
X125624D02*
X124999Y154631D01*
X124470Y154277D01*
X124117Y153748D01*
X123992Y153124D01*
X124117Y152499D01*
X124470Y151970D01*
X124999Y151617D01*
X125624Y151492D01*
X126248Y151617D01*
X126777Y151970D01*
X127131Y152499D01*
X127255Y153124D01*
X127131Y153748D01*
X126777Y154277D01*
X126248Y154631D01*
X125624Y154755D01*
D02*
G37*
G36*
X120624D02*
X119999Y154631D01*
X119470Y154277D01*
X119116Y153748D01*
X118992Y153124D01*
X119116Y152499D01*
X119470Y151970D01*
X119999Y151617D01*
X120624Y151492D01*
X121248Y151617D01*
X121777Y151970D01*
X122131Y152499D01*
X122255Y153124D01*
X122131Y153748D01*
X121777Y154277D01*
X121248Y154631D01*
X120624Y154755D01*
D02*
G37*
G36*
X108724Y151755D02*
X108099Y151631D01*
X107570Y151277D01*
X107217Y150748D01*
X107092Y150124D01*
X107217Y149499D01*
X107570Y148970D01*
X108099Y148617D01*
X108724Y148492D01*
X109348Y148617D01*
X109877Y148970D01*
X110231Y149499D01*
X110355Y150124D01*
X110231Y150748D01*
X109877Y151277D01*
X109348Y151631D01*
X108724Y151755D01*
D02*
G37*
G36*
X82924Y151584D02*
X82299Y151460D01*
X81770Y151107D01*
X81416Y150577D01*
X81292Y149953D01*
X81416Y149329D01*
X81770Y148800D01*
X82299Y148446D01*
X82924Y148322D01*
X83548Y148446D01*
X84077Y148800D01*
X84431Y149329D01*
X84555Y149953D01*
X84431Y150577D01*
X84077Y151107D01*
X83548Y151460D01*
X82924Y151584D01*
D02*
G37*
G36*
X77924D02*
X77299Y151460D01*
X76770Y151107D01*
X76416Y150577D01*
X76292Y149953D01*
X76416Y149329D01*
X76770Y148800D01*
X77299Y148446D01*
X77924Y148322D01*
X78548Y148446D01*
X79077Y148800D01*
X79431Y149329D01*
X79555Y149953D01*
X79431Y150577D01*
X79077Y151107D01*
X78548Y151460D01*
X77924Y151584D01*
D02*
G37*
G36*
X71724Y145555D02*
X71099Y145431D01*
X70570Y145077D01*
X70216Y144548D01*
X70092Y143924D01*
X70216Y143299D01*
X70570Y142770D01*
X71099Y142417D01*
X71724Y142292D01*
X72348Y142417D01*
X72877Y142770D01*
X73231Y143299D01*
X73355Y143924D01*
X73231Y144548D01*
X72877Y145077D01*
X72348Y145431D01*
X71724Y145555D01*
D02*
G37*
G36*
X145247Y154696D02*
X143331Y154545D01*
X141462Y154096D01*
X139686Y153361D01*
X138048Y152357D01*
X136586Y151108D01*
X135338Y149647D01*
X134334Y148008D01*
X133598Y146232D01*
X133149Y144363D01*
X132999Y142447D01*
X133149Y140531D01*
X133598Y138662D01*
X134334Y136886D01*
X135338Y135248D01*
X136586Y133786D01*
X138048Y132538D01*
X139686Y131534D01*
X141462Y130798D01*
X143331Y130349D01*
X145247Y130199D01*
X147163Y130349D01*
X149032Y130798D01*
X150808Y131534D01*
X152447Y132538D01*
X153908Y133786D01*
X155157Y135248D01*
X156161Y136886D01*
X156896Y138662D01*
X157345Y140531D01*
X157496Y142447D01*
X157345Y144363D01*
X156896Y146232D01*
X156161Y148008D01*
X155157Y149647D01*
X153908Y151108D01*
X152447Y152357D01*
X150808Y153361D01*
X149032Y154096D01*
X147163Y154545D01*
X145247Y154696D01*
D02*
G37*
G36*
X23200D02*
X21284Y154545D01*
X19415Y154096D01*
X17639Y153361D01*
X16000Y152357D01*
X14539Y151108D01*
X13291Y149647D01*
X12286Y148008D01*
X11551Y146232D01*
X11102Y144363D01*
X10951Y142447D01*
X11102Y140531D01*
X11551Y138662D01*
X12286Y136886D01*
X13291Y135248D01*
X14539Y133786D01*
X16000Y132538D01*
X17639Y131534D01*
X19415Y130798D01*
X21284Y130349D01*
X23200Y130199D01*
X25116Y130349D01*
X26985Y130798D01*
X28761Y131534D01*
X30400Y132538D01*
X31861Y133786D01*
X33110Y135248D01*
X34114Y136886D01*
X34849Y138662D01*
X35298Y140531D01*
X35449Y142447D01*
X35298Y144363D01*
X34849Y146232D01*
X34114Y148008D01*
X33110Y149647D01*
X31861Y151108D01*
X30400Y152357D01*
X28761Y153361D01*
X26985Y154096D01*
X25116Y154545D01*
X23200Y154696D01*
D02*
G37*
G36*
X88224Y133055D02*
X87599Y132931D01*
X87070Y132577D01*
X86716Y132048D01*
X86592Y131424D01*
X86716Y130799D01*
X87070Y130270D01*
X87599Y129917D01*
X88224Y129792D01*
X88848Y129917D01*
X89377Y130270D01*
X89731Y130799D01*
X89855Y131424D01*
X89731Y132048D01*
X89377Y132577D01*
X88848Y132931D01*
X88224Y133055D01*
D02*
G37*
G36*
X159724Y127555D02*
X159099Y127431D01*
X158974Y127347D01*
X158848Y127431D01*
X158224Y127555D01*
X157599Y127431D01*
X157474Y127347D01*
X157348Y127431D01*
X156724Y127555D01*
X156099Y127431D01*
X155570Y127077D01*
X155217Y126548D01*
X155092Y125924D01*
X155217Y125299D01*
X155300Y125174D01*
X155217Y125048D01*
X155092Y124424D01*
X155217Y123799D01*
X155570Y123270D01*
X156099Y122916D01*
X156724Y122792D01*
X157348Y122916D01*
X157474Y123001D01*
X157599Y122916D01*
X158224Y122792D01*
X158848Y122916D01*
X158974Y123001D01*
X159099Y122916D01*
X159724Y122792D01*
X160348Y122916D01*
X160877Y123270D01*
X161231Y123799D01*
X161355Y124424D01*
X161231Y125048D01*
X161147Y125174D01*
X161231Y125299D01*
X161355Y125924D01*
X161231Y126548D01*
X160877Y127077D01*
X160348Y127431D01*
X159724Y127555D01*
D02*
G37*
G36*
X149724D02*
X149099Y127431D01*
X148974Y127347D01*
X148848Y127431D01*
X148224Y127555D01*
X147599Y127431D01*
X147474Y127347D01*
X147348Y127431D01*
X146724Y127555D01*
X146099Y127431D01*
X145570Y127077D01*
X145217Y126548D01*
X145092Y125924D01*
X145217Y125299D01*
X145300Y125174D01*
X145217Y125048D01*
X145092Y124424D01*
X145217Y123799D01*
X145570Y123270D01*
X146099Y122916D01*
X146724Y122792D01*
X147348Y122916D01*
X147474Y123001D01*
X147599Y122916D01*
X148224Y122792D01*
X148848Y122916D01*
X148974Y123001D01*
X149099Y122916D01*
X149724Y122792D01*
X150348Y122916D01*
X150877Y123270D01*
X151231Y123799D01*
X151355Y124424D01*
X151231Y125048D01*
X151147Y125174D01*
X151231Y125299D01*
X151355Y125924D01*
X151231Y126548D01*
X150877Y127077D01*
X150348Y127431D01*
X149724Y127555D01*
D02*
G37*
G36*
X129624Y127455D02*
X128999Y127331D01*
X128624Y127080D01*
X128248Y127331D01*
X127624Y127455D01*
X126999Y127331D01*
X126470Y126977D01*
X126374Y126833D01*
X125874D01*
X125777Y126977D01*
X125248Y127331D01*
X124624Y127455D01*
X123999Y127331D01*
X123624Y127080D01*
X123248Y127331D01*
X122624Y127455D01*
X121999Y127331D01*
X121470Y126977D01*
X121116Y126448D01*
X120992Y125824D01*
X121116Y125199D01*
X121368Y124824D01*
X121116Y124448D01*
X120992Y123824D01*
X121116Y123199D01*
X121368Y122824D01*
X121116Y122448D01*
X120992Y121824D01*
X121116Y121199D01*
X121470Y120670D01*
X121999Y120317D01*
X122624Y120192D01*
X123248Y120317D01*
X123624Y120568D01*
X123999Y120317D01*
X124624Y120192D01*
X125248Y120317D01*
X125777Y120670D01*
X125874Y120814D01*
X126374D01*
X126470Y120670D01*
X126999Y120317D01*
X127624Y120192D01*
X128248Y120317D01*
X128624Y120568D01*
X128999Y120317D01*
X129624Y120192D01*
X130248Y120317D01*
X130777Y120670D01*
X131131Y121199D01*
X131255Y121824D01*
X131131Y122448D01*
X130880Y122824D01*
X131131Y123199D01*
X131255Y123824D01*
X131131Y124448D01*
X130880Y124824D01*
X131131Y125199D01*
X131255Y125824D01*
X131131Y126448D01*
X130777Y126977D01*
X130248Y127331D01*
X129624Y127455D01*
D02*
G37*
G36*
X114624D02*
X113999Y127331D01*
X113624Y127080D01*
X113248Y127331D01*
X112624Y127455D01*
X111999Y127331D01*
X111470Y126977D01*
X111117Y126448D01*
X110992Y125824D01*
X111117Y125199D01*
X111367Y124824D01*
X111117Y124448D01*
X110992Y123824D01*
X111117Y123199D01*
X111367Y122824D01*
X111117Y122448D01*
X110992Y121824D01*
X111117Y121199D01*
X111470Y120670D01*
X111999Y120317D01*
X112624Y120192D01*
X113248Y120317D01*
X113624Y120568D01*
X113999Y120317D01*
X114624Y120192D01*
X115248Y120317D01*
X115777Y120670D01*
X116131Y121199D01*
X116255Y121824D01*
X116131Y122448D01*
X115880Y122824D01*
X116131Y123199D01*
X116255Y123824D01*
X116131Y124448D01*
X115880Y124824D01*
X116131Y125199D01*
X116255Y125824D01*
X116131Y126448D01*
X115777Y126977D01*
X115248Y127331D01*
X114624Y127455D01*
D02*
G37*
G36*
X107724D02*
X107099Y127331D01*
X106724Y127080D01*
X106348Y127331D01*
X105724Y127455D01*
X105099Y127331D01*
X104570Y126977D01*
X104474Y126833D01*
X103974D01*
X103877Y126977D01*
X103348Y127331D01*
X102724Y127455D01*
X102099Y127331D01*
X101724Y127080D01*
X101348Y127331D01*
X100724Y127455D01*
X100099Y127331D01*
X99570Y126977D01*
X99216Y126448D01*
X99092Y125824D01*
X99216Y125199D01*
X99467Y124824D01*
X99216Y124448D01*
X99092Y123824D01*
X99216Y123199D01*
X99467Y122824D01*
X99216Y122448D01*
X99092Y121824D01*
X99216Y121199D01*
X99570Y120670D01*
X100099Y120317D01*
X100724Y120192D01*
X101348Y120317D01*
X101724Y120568D01*
X102099Y120317D01*
X102724Y120192D01*
X103348Y120317D01*
X103877Y120670D01*
X103974Y120814D01*
X104474D01*
X104570Y120670D01*
X105099Y120317D01*
X105724Y120192D01*
X106348Y120317D01*
X106724Y120568D01*
X107099Y120317D01*
X107724Y120192D01*
X108348Y120317D01*
X108877Y120670D01*
X109231Y121199D01*
X109355Y121824D01*
X109231Y122448D01*
X108980Y122824D01*
X109231Y123199D01*
X109355Y123824D01*
X109231Y124448D01*
X108980Y124824D01*
X109231Y125199D01*
X109355Y125824D01*
X109231Y126448D01*
X108877Y126977D01*
X108348Y127331D01*
X107724Y127455D01*
D02*
G37*
G36*
X92724D02*
X92099Y127331D01*
X91724Y127080D01*
X91348Y127331D01*
X90724Y127455D01*
X90099Y127331D01*
X89570Y126977D01*
X89216Y126448D01*
X89092Y125824D01*
X89216Y125199D01*
X89468Y124824D01*
X89216Y124448D01*
X89092Y123824D01*
X89216Y123199D01*
X89468Y122824D01*
X89216Y122448D01*
X89092Y121824D01*
X89216Y121199D01*
X89570Y120670D01*
X90099Y120317D01*
X90724Y120192D01*
X91348Y120317D01*
X91724Y120568D01*
X92099Y120317D01*
X92724Y120192D01*
X93348Y120317D01*
X93877Y120670D01*
X94231Y121199D01*
X94355Y121824D01*
X94231Y122448D01*
X93980Y122824D01*
X94231Y123199D01*
X94355Y123824D01*
X94231Y124448D01*
X93980Y124824D01*
X94231Y125199D01*
X94355Y125824D01*
X94231Y126448D01*
X93877Y126977D01*
X93348Y127331D01*
X92724Y127455D01*
D02*
G37*
G36*
X75724Y128025D02*
X75099Y127901D01*
X74570Y127548D01*
X74216Y127018D01*
X74092Y126394D01*
X74216Y125770D01*
X74570Y125241D01*
X75099Y124887D01*
X75724Y124763D01*
X75931Y124804D01*
X76365Y124424D01*
X76443Y124032D01*
X76079Y123609D01*
X76058Y123599D01*
X75924Y123626D01*
X75299Y123501D01*
X74770Y123148D01*
X74416Y122618D01*
X74292Y121994D01*
X74416Y121370D01*
X74770Y120841D01*
X75299Y120487D01*
X75924Y120363D01*
X76548Y120487D01*
X77077Y120841D01*
X77431Y121370D01*
X77555Y121994D01*
X77477Y122386D01*
X77840Y122809D01*
X77862Y122819D01*
X77996Y122792D01*
X78620Y122916D01*
X79150Y123270D01*
X79503Y123799D01*
X79627Y124424D01*
X79503Y125048D01*
X79150Y125577D01*
X78620Y125931D01*
X77996Y126055D01*
X77789Y126014D01*
X77355Y126394D01*
X77231Y127018D01*
X76877Y127548D01*
X76348Y127901D01*
X75724Y128025D01*
D02*
G37*
G36*
X159724Y118055D02*
X159099Y117931D01*
X158974Y117847D01*
X158848Y117931D01*
X158224Y118055D01*
X157599Y117931D01*
X157474Y117847D01*
X157348Y117931D01*
X156724Y118055D01*
X156099Y117931D01*
X155570Y117577D01*
X155217Y117048D01*
X155092Y116424D01*
X155217Y115799D01*
X155300Y115674D01*
X155217Y115548D01*
X155092Y114924D01*
X155217Y114299D01*
X155570Y113770D01*
X156099Y113417D01*
X156724Y113292D01*
X157348Y113417D01*
X157474Y113500D01*
X157599Y113417D01*
X158224Y113292D01*
X158848Y113417D01*
X158974Y113500D01*
X159099Y113417D01*
X159724Y113292D01*
X160348Y113417D01*
X160877Y113770D01*
X161231Y114299D01*
X161355Y114924D01*
X161231Y115548D01*
X161147Y115674D01*
X161231Y115799D01*
X161355Y116424D01*
X161231Y117048D01*
X160877Y117577D01*
X160348Y117931D01*
X159724Y118055D01*
D02*
G37*
G36*
X149724D02*
X149099Y117931D01*
X148974Y117847D01*
X148848Y117931D01*
X148224Y118055D01*
X147599Y117931D01*
X147474Y117847D01*
X147348Y117931D01*
X146724Y118055D01*
X146099Y117931D01*
X145570Y117577D01*
X145217Y117048D01*
X145092Y116424D01*
X145217Y115799D01*
X145300Y115674D01*
X145217Y115548D01*
X145092Y114924D01*
X145217Y114299D01*
X145570Y113770D01*
X146099Y113417D01*
X146724Y113292D01*
X147348Y113417D01*
X147474Y113500D01*
X147599Y113417D01*
X148224Y113292D01*
X148848Y113417D01*
X148974Y113500D01*
X149099Y113417D01*
X149724Y113292D01*
X150348Y113417D01*
X150877Y113770D01*
X151231Y114299D01*
X151355Y114924D01*
X151231Y115548D01*
X151147Y115674D01*
X151231Y115799D01*
X151355Y116424D01*
X151231Y117048D01*
X150877Y117577D01*
X150348Y117931D01*
X149724Y118055D01*
D02*
G37*
G36*
X66724D02*
X66099Y117931D01*
X65570Y117577D01*
X65216Y117048D01*
X65092Y116424D01*
X65216Y115799D01*
X65570Y115270D01*
X66099Y114917D01*
X66724Y114792D01*
X67348Y114917D01*
X67877Y115270D01*
X68231Y115799D01*
X68355Y116424D01*
X68231Y117048D01*
X67877Y117577D01*
X67348Y117931D01*
X66724Y118055D01*
D02*
G37*
G36*
X86724Y114355D02*
X86099Y114231D01*
X85570Y113877D01*
X85216Y113348D01*
X85092Y112724D01*
X85216Y112099D01*
X85570Y111570D01*
X86099Y111216D01*
X86724Y111092D01*
X87348Y111216D01*
X87877Y111570D01*
X88231Y112099D01*
X88355Y112724D01*
X88231Y113348D01*
X87877Y113877D01*
X87348Y114231D01*
X86724Y114355D01*
D02*
G37*
G36*
X66724Y110055D02*
X66099Y109931D01*
X65570Y109577D01*
X65216Y109048D01*
X65092Y108424D01*
X65216Y107799D01*
X65570Y107270D01*
X66099Y106916D01*
X66724Y106792D01*
X67348Y106916D01*
X67877Y107270D01*
X68231Y107799D01*
X68355Y108424D01*
X68231Y109048D01*
X67877Y109577D01*
X67348Y109931D01*
X66724Y110055D01*
D02*
G37*
G36*
X83692Y108555D02*
X83068Y108431D01*
X82539Y108077D01*
X82185Y107548D01*
X82061Y106924D01*
X82185Y106299D01*
X82539Y105770D01*
X83068Y105417D01*
X83692Y105292D01*
X84316Y105417D01*
X84846Y105770D01*
X85199Y106299D01*
X85324Y106924D01*
X85199Y107548D01*
X84846Y108077D01*
X84316Y108431D01*
X83692Y108555D01*
D02*
G37*
G36*
X86104Y104143D02*
X85479Y104019D01*
X84950Y103666D01*
X84597Y103136D01*
X84472Y102512D01*
X84597Y101888D01*
X84950Y101359D01*
X85479Y101005D01*
X86104Y100881D01*
X86728Y101005D01*
X87257Y101359D01*
X87611Y101888D01*
X87735Y102512D01*
X87611Y103136D01*
X87257Y103666D01*
X86728Y104019D01*
X86104Y104143D01*
D02*
G37*
G36*
X66724Y104055D02*
X66099Y103931D01*
X65570Y103577D01*
X65216Y103048D01*
X65092Y102424D01*
X65216Y101799D01*
X65570Y101270D01*
X66099Y100916D01*
X66724Y100792D01*
X67348Y100916D01*
X67877Y101270D01*
X68231Y101799D01*
X68355Y102424D01*
X68231Y103048D01*
X67877Y103577D01*
X67348Y103931D01*
X66724Y104055D01*
D02*
G37*
G36*
X57124Y104529D02*
X56367Y104429D01*
X55662Y104137D01*
X55056Y103672D01*
X54591Y103067D01*
X54299Y102361D01*
X54199Y101604D01*
X54299Y100847D01*
X54591Y100142D01*
X55056Y99536D01*
X55662Y99071D01*
X56367Y98779D01*
X57124Y98679D01*
X57881Y98779D01*
X58587Y99071D01*
X59193Y99536D01*
X59658Y100142D01*
X59950Y100847D01*
X60049Y101604D01*
X59950Y102361D01*
X59658Y103067D01*
X59193Y103672D01*
X58587Y104137D01*
X57881Y104429D01*
X57124Y104529D01*
D02*
G37*
G36*
X49297Y104238D02*
X48540Y104139D01*
X47834Y103847D01*
X47229Y103382D01*
X46764Y102776D01*
X46471Y102070D01*
X46372Y101313D01*
X46471Y100556D01*
X46764Y99851D01*
X47229Y99245D01*
X47834Y98780D01*
X48540Y98488D01*
X49297Y98388D01*
X50054Y98488D01*
X50759Y98780D01*
X51365Y99245D01*
X51830Y99851D01*
X52122Y100556D01*
X52222Y101313D01*
X52122Y102070D01*
X51830Y102776D01*
X51365Y103382D01*
X50759Y103847D01*
X50054Y104139D01*
X49297Y104238D01*
D02*
G37*
G36*
X85092Y99455D02*
X84468Y99331D01*
X83939Y98977D01*
X83585Y98448D01*
X83461Y97824D01*
X83464Y97810D01*
X83146Y97424D01*
X68224D01*
Y97235D01*
X67724Y96956D01*
X67224Y97055D01*
X66599Y96931D01*
X66070Y96577D01*
X65716Y96048D01*
X65592Y95424D01*
X65716Y94799D01*
X66070Y94270D01*
X66599Y93916D01*
X67224Y93792D01*
X67724Y93892D01*
X68224Y93612D01*
Y65424D01*
X76912D01*
X77192Y64924D01*
X77092Y64424D01*
X77216Y63799D01*
X77570Y63270D01*
X78099Y62916D01*
X78724Y62792D01*
X79348Y62916D01*
X79877Y63270D01*
X80231Y63799D01*
X80355Y64424D01*
X80256Y64924D01*
X80535Y65424D01*
X100224D01*
Y97424D01*
X87038D01*
X86721Y97810D01*
X86724Y97824D01*
X86599Y98448D01*
X86246Y98977D01*
X85716Y99331D01*
X85092Y99455D01*
D02*
G37*
G36*
X159724Y94555D02*
X159099Y94431D01*
X158974Y94347D01*
X158848Y94431D01*
X158224Y94555D01*
X157599Y94431D01*
X157474Y94347D01*
X157348Y94431D01*
X156724Y94555D01*
X156099Y94431D01*
X155570Y94077D01*
X155217Y93548D01*
X155092Y92924D01*
X155217Y92299D01*
X155300Y92174D01*
X155217Y92048D01*
X155092Y91424D01*
X155217Y90799D01*
X155570Y90270D01*
X156099Y89916D01*
X156724Y89792D01*
X157348Y89916D01*
X157474Y90000D01*
X157599Y89916D01*
X158224Y89792D01*
X158848Y89916D01*
X158974Y90000D01*
X159099Y89916D01*
X159724Y89792D01*
X160348Y89916D01*
X160877Y90270D01*
X161231Y90799D01*
X161355Y91424D01*
X161231Y92048D01*
X161147Y92174D01*
X161231Y92299D01*
X161355Y92924D01*
X161231Y93548D01*
X160877Y94077D01*
X160348Y94431D01*
X159724Y94555D01*
D02*
G37*
G36*
X149724D02*
X149099Y94431D01*
X148974Y94347D01*
X148848Y94431D01*
X148224Y94555D01*
X147599Y94431D01*
X147474Y94347D01*
X147348Y94431D01*
X146724Y94555D01*
X146099Y94431D01*
X145570Y94077D01*
X145217Y93548D01*
X145092Y92924D01*
X145217Y92299D01*
X145300Y92174D01*
X145217Y92048D01*
X145092Y91424D01*
X145217Y90799D01*
X145570Y90270D01*
X146099Y89916D01*
X146724Y89792D01*
X147348Y89916D01*
X147474Y90000D01*
X147599Y89916D01*
X148224Y89792D01*
X148848Y89916D01*
X148974Y90000D01*
X149099Y89916D01*
X149724Y89792D01*
X150348Y89916D01*
X150877Y90270D01*
X151231Y90799D01*
X151355Y91424D01*
X151231Y92048D01*
X151147Y92174D01*
X151231Y92299D01*
X151355Y92924D01*
X151231Y93548D01*
X150877Y94077D01*
X150348Y94431D01*
X149724Y94555D01*
D02*
G37*
G36*
X159724Y85055D02*
X159099Y84931D01*
X158974Y84847D01*
X158848Y84931D01*
X158224Y85055D01*
X157599Y84931D01*
X157474Y84847D01*
X157348Y84931D01*
X156724Y85055D01*
X156099Y84931D01*
X155570Y84577D01*
X155217Y84048D01*
X155092Y83424D01*
X155217Y82799D01*
X155300Y82674D01*
X155217Y82548D01*
X155092Y81924D01*
X155217Y81299D01*
X155570Y80770D01*
X156099Y80416D01*
X156724Y80292D01*
X157348Y80416D01*
X157474Y80501D01*
X157599Y80416D01*
X158224Y80292D01*
X158848Y80416D01*
X158974Y80501D01*
X159099Y80416D01*
X159724Y80292D01*
X160348Y80416D01*
X160877Y80770D01*
X161231Y81299D01*
X161355Y81924D01*
X161231Y82548D01*
X161147Y82674D01*
X161231Y82799D01*
X161355Y83424D01*
X161231Y84048D01*
X160877Y84577D01*
X160348Y84931D01*
X159724Y85055D01*
D02*
G37*
G36*
X149724D02*
X149099Y84931D01*
X148974Y84847D01*
X148848Y84931D01*
X148224Y85055D01*
X147599Y84931D01*
X147474Y84847D01*
X147348Y84931D01*
X146724Y85055D01*
X146099Y84931D01*
X145570Y84577D01*
X145217Y84048D01*
X145092Y83424D01*
X145217Y82799D01*
X145300Y82674D01*
X145217Y82548D01*
X145092Y81924D01*
X145217Y81299D01*
X145570Y80770D01*
X146099Y80416D01*
X146724Y80292D01*
X147348Y80416D01*
X147474Y80501D01*
X147599Y80416D01*
X148224Y80292D01*
X148848Y80416D01*
X148974Y80501D01*
X149099Y80416D01*
X149724Y80292D01*
X150348Y80416D01*
X150877Y80770D01*
X151231Y81299D01*
X151355Y81924D01*
X151231Y82548D01*
X151147Y82674D01*
X151231Y82799D01*
X151355Y83424D01*
X151231Y84048D01*
X150877Y84577D01*
X150348Y84931D01*
X149724Y85055D01*
D02*
G37*
G36*
X141724Y84055D02*
X141099Y83931D01*
X140974Y83847D01*
X140848Y83931D01*
X140224Y84055D01*
X139599Y83931D01*
X139474Y83847D01*
X139348Y83931D01*
X138724Y84055D01*
X138099Y83931D01*
X137570Y83577D01*
X137216Y83048D01*
X137092Y82424D01*
X137216Y81799D01*
X137301Y81674D01*
X137216Y81548D01*
X137092Y80924D01*
X137216Y80299D01*
X137570Y79770D01*
X138099Y79416D01*
X138724Y79292D01*
X139348Y79416D01*
X139474Y79501D01*
X139599Y79416D01*
X140224Y79292D01*
X140848Y79416D01*
X140974Y79501D01*
X141099Y79416D01*
X141724Y79292D01*
X142348Y79416D01*
X142877Y79770D01*
X143231Y80299D01*
X143355Y80924D01*
X143231Y81548D01*
X143147Y81674D01*
X143231Y81799D01*
X143355Y82424D01*
X143231Y83048D01*
X142877Y83577D01*
X142348Y83931D01*
X141724Y84055D01*
D02*
G37*
G36*
X105192Y86555D02*
X104568Y86431D01*
X104039Y86077D01*
X103685Y85548D01*
X103561Y84924D01*
X103685Y84299D01*
X104039Y83770D01*
X104568Y83416D01*
X105192Y83292D01*
X105816Y83416D01*
X106346Y83770D01*
X106699Y84299D01*
X106824Y84924D01*
X106699Y85548D01*
X106346Y86077D01*
X105816Y86431D01*
X105192Y86555D01*
D02*
G37*
G36*
X57024Y88649D02*
X56267Y88549D01*
X55561Y88257D01*
X54955Y87792D01*
X54491Y87186D01*
X54198Y86481D01*
X54099Y85724D01*
X54198Y84967D01*
X54491Y84261D01*
X54955Y83655D01*
X55561Y83191D01*
X56267Y82898D01*
X57024Y82799D01*
X57781Y82898D01*
X58486Y83191D01*
X59092Y83655D01*
X59557Y84261D01*
X59849Y84967D01*
X59949Y85724D01*
X59849Y86481D01*
X59557Y87186D01*
X59092Y87792D01*
X58486Y88257D01*
X57781Y88549D01*
X57024Y88649D01*
D02*
G37*
G36*
X49287Y88473D02*
X48530Y88373D01*
X47824Y88081D01*
X47218Y87616D01*
X46753Y87010D01*
X46461Y86305D01*
X46362Y85548D01*
X46461Y84791D01*
X46753Y84085D01*
X47218Y83480D01*
X47824Y83015D01*
X48530Y82723D01*
X49287Y82623D01*
X50044Y82723D01*
X50749Y83015D01*
X51355Y83480D01*
X51820Y84085D01*
X52112Y84791D01*
X52212Y85548D01*
X52112Y86305D01*
X51820Y87010D01*
X51355Y87616D01*
X50749Y88081D01*
X50044Y88373D01*
X49287Y88473D01*
D02*
G37*
G36*
X119424Y78614D02*
X118799Y78490D01*
X118270Y78136D01*
X117917Y77607D01*
X117792Y76983D01*
X117894Y76471D01*
X117676Y76155D01*
X117532Y76033D01*
X117424Y76055D01*
X116799Y75931D01*
X116270Y75577D01*
X115917Y75048D01*
X115792Y74424D01*
X115917Y73799D01*
X116270Y73270D01*
X116799Y72916D01*
X117424Y72792D01*
X117532Y72814D01*
X117676Y72692D01*
X117894Y72376D01*
X117792Y71865D01*
X117894Y71353D01*
X117676Y71037D01*
X117532Y70915D01*
X117424Y70937D01*
X116799Y70813D01*
X116270Y70459D01*
X115917Y69930D01*
X115792Y69305D01*
X115917Y68681D01*
X116270Y68152D01*
X116799Y67798D01*
X117424Y67674D01*
X117532Y67696D01*
X117676Y67574D01*
X117894Y67258D01*
X117792Y66746D01*
X117894Y66235D01*
X117676Y65919D01*
X117532Y65797D01*
X117424Y65819D01*
X116799Y65695D01*
X116270Y65341D01*
X115917Y64812D01*
X115792Y64187D01*
X115917Y63563D01*
X116270Y63034D01*
X116799Y62680D01*
X117424Y62556D01*
X118048Y62680D01*
X118577Y63034D01*
X118931Y63563D01*
X119055Y64187D01*
X118953Y64699D01*
X119171Y65015D01*
X119315Y65137D01*
X119424Y65115D01*
X120048Y65239D01*
X120577Y65593D01*
X120931Y66122D01*
X121055Y66746D01*
X120931Y67371D01*
X120577Y67900D01*
X120048Y68254D01*
X119424Y68378D01*
X119315Y68356D01*
X119171Y68478D01*
X118953Y68794D01*
X119055Y69305D01*
X118953Y69817D01*
X119171Y70133D01*
X119315Y70255D01*
X119424Y70233D01*
X120048Y70357D01*
X120577Y70711D01*
X120931Y71240D01*
X121055Y71865D01*
X120931Y72489D01*
X120577Y73018D01*
X120048Y73372D01*
X119424Y73496D01*
X119315Y73474D01*
X119171Y73596D01*
X118953Y73912D01*
X119055Y74424D01*
X118953Y74935D01*
X119171Y75251D01*
X119315Y75373D01*
X119424Y75351D01*
X120048Y75476D01*
X120577Y75829D01*
X120931Y76358D01*
X121055Y76983D01*
X120931Y77607D01*
X120577Y78136D01*
X120048Y78490D01*
X119424Y78614D01*
D02*
G37*
G36*
X60641Y75555D02*
X60017Y75431D01*
X59487Y75077D01*
X59134Y74548D01*
X59010Y73924D01*
X59134Y73299D01*
X59487Y72770D01*
X60017Y72416D01*
X60641Y72292D01*
X61265Y72416D01*
X61795Y72770D01*
X62148Y73299D01*
X62272Y73924D01*
X62148Y74548D01*
X61795Y75077D01*
X61265Y75431D01*
X60641Y75555D01*
D02*
G37*
G36*
X45806D02*
X45182Y75431D01*
X44653Y75077D01*
X44299Y74548D01*
X44175Y73924D01*
X44299Y73299D01*
X44653Y72770D01*
X45182Y72416D01*
X45806Y72292D01*
X46431Y72416D01*
X46960Y72770D01*
X47313Y73299D01*
X47438Y73924D01*
X47313Y74548D01*
X46960Y75077D01*
X46431Y75431D01*
X45806Y75555D01*
D02*
G37*
G36*
X14424Y69455D02*
X13799Y69331D01*
X13270Y68977D01*
X12916Y68448D01*
X12792Y67824D01*
X12916Y67199D01*
X13270Y66670D01*
X13799Y66316D01*
X14424Y66192D01*
X15048Y66316D01*
X15577Y66670D01*
X15931Y67199D01*
X16055Y67824D01*
X15931Y68448D01*
X15577Y68977D01*
X15048Y69331D01*
X14424Y69455D01*
D02*
G37*
G36*
X60641Y65555D02*
X60017Y65431D01*
X59487Y65077D01*
X59134Y64548D01*
X59010Y63924D01*
X59134Y63299D01*
X59487Y62770D01*
X60017Y62416D01*
X60641Y62292D01*
X61265Y62416D01*
X61795Y62770D01*
X62148Y63299D01*
X62272Y63924D01*
X62148Y64548D01*
X61795Y65077D01*
X61265Y65431D01*
X60641Y65555D01*
D02*
G37*
G36*
X46724Y63055D02*
X46099Y62931D01*
X45570Y62577D01*
X45216Y62048D01*
X45092Y61424D01*
X45216Y60799D01*
X45570Y60270D01*
X46099Y59916D01*
X46724Y59792D01*
X47348Y59916D01*
X47877Y60270D01*
X48231Y60799D01*
X48355Y61424D01*
X48231Y62048D01*
X47877Y62577D01*
X47348Y62931D01*
X46724Y63055D01*
D02*
G37*
G36*
X93724Y60055D02*
X93099Y59931D01*
X92570Y59577D01*
X92474Y59433D01*
X91974D01*
X91877Y59577D01*
X91348Y59931D01*
X90724Y60055D01*
X90099Y59931D01*
X89570Y59577D01*
X89474Y59433D01*
X88974D01*
X88877Y59577D01*
X88348Y59931D01*
X87724Y60055D01*
X87099Y59931D01*
X86570Y59577D01*
X86216Y59048D01*
X86092Y58424D01*
X86216Y57799D01*
X86570Y57270D01*
X87099Y56916D01*
X87724Y56792D01*
X88348Y56916D01*
X88877Y57270D01*
X88974Y57414D01*
X89474D01*
X89570Y57270D01*
X90099Y56916D01*
X90724Y56792D01*
X91348Y56916D01*
X91877Y57270D01*
X91974Y57414D01*
X92474D01*
X92570Y57270D01*
X93099Y56916D01*
X93724Y56792D01*
X94348Y56916D01*
X94877Y57270D01*
X95231Y57799D01*
X95355Y58424D01*
X95231Y59048D01*
X94877Y59577D01*
X94348Y59931D01*
X93724Y60055D01*
D02*
G37*
G36*
X150192Y61455D02*
X149568Y61331D01*
X149039Y60977D01*
X148685Y60448D01*
X148561Y59824D01*
X148685Y59199D01*
X149039Y58670D01*
X149568Y58316D01*
X150192Y58192D01*
X150816Y58316D01*
X151346Y58670D01*
X151699Y59199D01*
X151823Y59824D01*
X151699Y60448D01*
X151346Y60977D01*
X150816Y61331D01*
X150192Y61455D01*
D02*
G37*
G36*
X68641Y60555D02*
X68017Y60431D01*
X67487Y60077D01*
X67134Y59548D01*
X67010Y58924D01*
X67134Y58299D01*
X67487Y57770D01*
X68017Y57416D01*
X68641Y57292D01*
X69265Y57416D01*
X69794Y57770D01*
X70148Y58299D01*
X70174Y58431D01*
X70684D01*
X70716Y58268D01*
X71070Y57739D01*
X71599Y57385D01*
X72224Y57261D01*
X72848Y57385D01*
X73377Y57739D01*
X73731Y58268D01*
X73855Y58892D01*
X73731Y59516D01*
X73377Y60046D01*
X72848Y60399D01*
X72224Y60523D01*
X71599Y60399D01*
X71070Y60046D01*
X70716Y59516D01*
X70690Y59385D01*
X70180D01*
X70148Y59548D01*
X69794Y60077D01*
X69265Y60431D01*
X68641Y60555D01*
D02*
G37*
G36*
X97724Y60055D02*
X97099Y59931D01*
X96570Y59577D01*
X96216Y59048D01*
X96092Y58424D01*
X96216Y57799D01*
X96570Y57270D01*
X97099Y56916D01*
X97724Y56792D01*
X98348Y56916D01*
X98877Y57270D01*
X99231Y57799D01*
X99355Y58424D01*
X99231Y59048D01*
X98877Y59577D01*
X98348Y59931D01*
X97724Y60055D01*
D02*
G37*
G36*
X93724Y55055D02*
X93099Y54931D01*
X92570Y54577D01*
X92474Y54433D01*
X91974D01*
X91877Y54577D01*
X91348Y54931D01*
X90724Y55055D01*
X90099Y54931D01*
X89570Y54577D01*
X89216Y54048D01*
X89092Y53424D01*
X89216Y52799D01*
X89570Y52270D01*
X90099Y51916D01*
X90724Y51792D01*
X91348Y51916D01*
X91877Y52270D01*
X91974Y52414D01*
X92474D01*
X92570Y52270D01*
X93099Y51916D01*
X93724Y51792D01*
X94348Y51916D01*
X94877Y52270D01*
X95231Y52799D01*
X95355Y53424D01*
X95231Y54048D01*
X94877Y54577D01*
X94348Y54931D01*
X93724Y55055D01*
D02*
G37*
G36*
X47324Y57655D02*
X46699Y57531D01*
X46170Y57177D01*
X45816Y56648D01*
X45692Y56024D01*
X45816Y55399D01*
X46170Y54870D01*
X46699Y54516D01*
X47324Y54392D01*
X47948Y54516D01*
X48477Y54870D01*
X48831Y55399D01*
X48955Y56024D01*
X48831Y56648D01*
X48477Y57177D01*
X47948Y57531D01*
X47324Y57655D01*
D02*
G37*
G36*
X77279Y56945D02*
X76654Y56821D01*
X76125Y56467D01*
X75772Y55938D01*
X75647Y55313D01*
X75772Y54689D01*
X76125Y54160D01*
X76654Y53806D01*
X77279Y53682D01*
X77903Y53806D01*
X78432Y54160D01*
X78786Y54689D01*
X78910Y55313D01*
X78786Y55938D01*
X78432Y56467D01*
X77903Y56821D01*
X77279Y56945D01*
D02*
G37*
G36*
X68641Y54555D02*
X68017Y54431D01*
X67487Y54077D01*
X67134Y53548D01*
X67010Y52924D01*
X67134Y52299D01*
X67487Y51770D01*
X68017Y51416D01*
X68641Y51292D01*
X69265Y51416D01*
X69794Y51770D01*
X70148Y52299D01*
X70272Y52924D01*
X70148Y53548D01*
X69794Y54077D01*
X69265Y54431D01*
X68641Y54555D01*
D02*
G37*
G36*
Y49555D02*
X68017Y49431D01*
X67487Y49077D01*
X67134Y48548D01*
X67010Y47924D01*
X67134Y47299D01*
X67487Y46770D01*
X68017Y46416D01*
X68641Y46292D01*
X69265Y46416D01*
X69794Y46770D01*
X70148Y47299D01*
X70272Y47924D01*
X70148Y48548D01*
X69794Y49077D01*
X69265Y49431D01*
X68641Y49555D01*
D02*
G37*
G36*
X150192Y49455D02*
X149568Y49331D01*
X149039Y48977D01*
X148685Y48448D01*
X148561Y47824D01*
X148685Y47199D01*
X149039Y46670D01*
X149568Y46316D01*
X150192Y46192D01*
X150816Y46316D01*
X151346Y46670D01*
X151699Y47199D01*
X151823Y47824D01*
X151699Y48448D01*
X151346Y48977D01*
X150816Y49331D01*
X150192Y49455D01*
D02*
G37*
G36*
X87279Y51039D02*
X86654Y50915D01*
X86125Y50561D01*
X85772Y50032D01*
X85647Y49408D01*
X85772Y48784D01*
X86125Y48254D01*
X86654Y47901D01*
X87079Y47816D01*
X87328Y47321D01*
X87246Y47111D01*
X87208Y47088D01*
X86654Y46978D01*
X86125Y46624D01*
X85772Y46095D01*
X85647Y45471D01*
X85772Y44847D01*
X86125Y44317D01*
X86654Y43964D01*
X87279Y43839D01*
X87903Y43964D01*
X88432Y44317D01*
X88786Y44847D01*
X88891Y45375D01*
X89107Y45668D01*
X89134Y45694D01*
X89350Y45822D01*
X89903Y45932D01*
X90432Y46286D01*
X90786Y46815D01*
X90910Y47439D01*
X90786Y48064D01*
X90432Y48593D01*
X89903Y48946D01*
X89279Y49071D01*
X89253Y49066D01*
X89107Y49211D01*
X88891Y49503D01*
X88786Y50032D01*
X88432Y50561D01*
X87903Y50915D01*
X87279Y51039D01*
D02*
G37*
G36*
X71643Y46563D02*
X71018Y46439D01*
X70489Y46085D01*
X70135Y45556D01*
X70011Y44932D01*
X70135Y44308D01*
X70489Y43778D01*
X71018Y43425D01*
X71643Y43300D01*
X72267Y43425D01*
X72796Y43778D01*
X73150Y44308D01*
X73274Y44932D01*
X73150Y45556D01*
X72796Y46085D01*
X72267Y46439D01*
X71643Y46563D01*
D02*
G37*
G36*
X97325Y43211D02*
X96701Y43087D01*
X96172Y42733D01*
X95818Y42204D01*
X95715Y41685D01*
X95661Y41618D01*
X94985Y41575D01*
X94881Y41675D01*
X94785Y42159D01*
X94432Y42688D01*
X93902Y43042D01*
X93278Y43166D01*
X92654Y43042D01*
X92124Y42688D01*
X91771Y42159D01*
X91647Y41535D01*
X91556Y41444D01*
X90996Y41487D01*
X90891Y41629D01*
X90786Y42158D01*
X90432Y42687D01*
X89903Y43041D01*
X89279Y43165D01*
X88654Y43041D01*
X88125Y42687D01*
X87772Y42158D01*
X87666Y41629D01*
X87450Y41337D01*
X87305Y41192D01*
X87279Y41197D01*
X86654Y41072D01*
X86125Y40719D01*
X85772Y40190D01*
X85647Y39565D01*
X85772Y38941D01*
X86125Y38412D01*
X86654Y38058D01*
X87279Y37934D01*
X87903Y38058D01*
X88432Y38412D01*
X88786Y38941D01*
X88891Y39470D01*
X88952Y39553D01*
X89131Y39628D01*
X89427D01*
X89605Y39553D01*
X89666Y39470D01*
X89772Y38941D01*
X90125Y38412D01*
X90654Y38058D01*
X91279Y37934D01*
X91903Y38058D01*
X92432Y38412D01*
X92786Y38941D01*
X92910Y39565D01*
X93251Y39906D01*
X93514Y39800D01*
X93692Y39622D01*
X93816Y38998D01*
X94170Y38469D01*
X94699Y38115D01*
X95323Y37991D01*
X95947Y38115D01*
X96477Y38469D01*
X96830Y38998D01*
X96934Y39516D01*
X97279Y39946D01*
X97288Y39955D01*
X97325Y39948D01*
X97950Y40072D01*
X98479Y40426D01*
X98833Y40955D01*
X98957Y41579D01*
X98833Y42204D01*
X98479Y42733D01*
X97950Y43087D01*
X97325Y43211D01*
D02*
G37*
G36*
X119724Y41555D02*
X119099Y41431D01*
X118570Y41077D01*
X118217Y40548D01*
X118092Y39924D01*
X118217Y39299D01*
X118570Y38770D01*
X118714Y38674D01*
Y38174D01*
X118570Y38077D01*
X118217Y37548D01*
X118092Y36924D01*
X118217Y36299D01*
X118570Y35770D01*
X118714Y35674D01*
Y35174D01*
X118570Y35077D01*
X118217Y34548D01*
X118092Y33924D01*
X118217Y33299D01*
X118570Y32770D01*
X119099Y32416D01*
X119724Y32292D01*
X120348Y32416D01*
X120644Y32614D01*
X121194Y32413D01*
X121216Y32299D01*
X121570Y31770D01*
X122099Y31416D01*
X122724Y31292D01*
X123348Y31416D01*
X123877Y31770D01*
X124231Y32299D01*
X124355Y32924D01*
X124231Y33548D01*
X123877Y34077D01*
X123348Y34431D01*
X122724Y34555D01*
X122099Y34431D01*
X121803Y34233D01*
X121253Y34435D01*
X121231Y34548D01*
X120877Y35077D01*
X120733Y35174D01*
Y35674D01*
X120877Y35770D01*
X121231Y36299D01*
X121355Y36924D01*
X121231Y37548D01*
X120877Y38077D01*
X120733Y38174D01*
Y38674D01*
X120877Y38770D01*
X121231Y39299D01*
X121355Y39924D01*
X121231Y40548D01*
X120877Y41077D01*
X120348Y41431D01*
X119724Y41555D01*
D02*
G37*
G36*
X82279Y31555D02*
X81654Y31431D01*
X81125Y31077D01*
X80772Y30548D01*
X80647Y29924D01*
X80772Y29299D01*
X81125Y28770D01*
X81654Y28416D01*
X82279Y28292D01*
X82903Y28416D01*
X83432Y28770D01*
X83786Y29299D01*
X83910Y29924D01*
X83786Y30548D01*
X83432Y31077D01*
X82903Y31431D01*
X82279Y31555D01*
D02*
G37*
G36*
X75224Y33473D02*
X74467Y33373D01*
X73761Y33081D01*
X73155Y32616D01*
X72690Y32010D01*
X72398Y31305D01*
X72299Y30548D01*
X72398Y29791D01*
X72690Y29085D01*
X73155Y28480D01*
X73761Y28015D01*
X74467Y27723D01*
X75224Y27623D01*
X75981Y27723D01*
X76686Y28015D01*
X77292Y28480D01*
X77757Y29085D01*
X78049Y29791D01*
X78149Y30548D01*
X78049Y31305D01*
X77757Y32010D01*
X77292Y32616D01*
X76686Y33081D01*
X75981Y33373D01*
X75224Y33473D01*
D02*
G37*
G36*
X95224Y28555D02*
X94599Y28431D01*
X94070Y28077D01*
X93716Y27548D01*
X93592Y26924D01*
X93716Y26299D01*
X94070Y25770D01*
X94599Y25416D01*
X95224Y25292D01*
X95848Y25416D01*
X96377Y25770D01*
X96731Y26299D01*
X96855Y26924D01*
X96731Y27548D01*
X96377Y28077D01*
X95848Y28431D01*
X95224Y28555D01*
D02*
G37*
G36*
X113224Y32055D02*
X112599Y31931D01*
X112070Y31577D01*
X111716Y31048D01*
X111592Y30424D01*
X111716Y29799D01*
X112070Y29270D01*
X112599Y28916D01*
X113224Y28792D01*
X113848Y28916D01*
X114144Y29114D01*
X114694Y28913D01*
X114716Y28799D01*
X115070Y28270D01*
X115599Y27916D01*
X116224Y27792D01*
X116848Y27916D01*
X117144Y28114D01*
X117694Y27913D01*
X117717Y27799D01*
X118070Y27270D01*
X118599Y26916D01*
X119224Y26792D01*
X119848Y26916D01*
X120144Y27114D01*
X120694Y26913D01*
X120717Y26799D01*
X121070Y26270D01*
X121599Y25916D01*
X122224Y25792D01*
X122848Y25916D01*
X123144Y26114D01*
X123694Y25913D01*
X123716Y25799D01*
X124070Y25270D01*
X124599Y24916D01*
X125224Y24792D01*
X125848Y24916D01*
X126144Y25114D01*
X126694Y24913D01*
X126716Y24799D01*
X127070Y24270D01*
X127599Y23916D01*
X128224Y23792D01*
X128848Y23916D01*
X129377Y24270D01*
X129731Y24799D01*
X129855Y25424D01*
X129731Y26048D01*
X129377Y26577D01*
X128848Y26931D01*
X128224Y27055D01*
X127599Y26931D01*
X127303Y26733D01*
X126753Y26935D01*
X126731Y27048D01*
X126377Y27577D01*
X125848Y27931D01*
X125224Y28055D01*
X124599Y27931D01*
X124303Y27733D01*
X123753Y27935D01*
X123731Y28048D01*
X123377Y28577D01*
X122848Y28931D01*
X122224Y29055D01*
X121599Y28931D01*
X121303Y28733D01*
X120753Y28935D01*
X120731Y29048D01*
X120377Y29577D01*
X119848Y29931D01*
X119224Y30055D01*
X118599Y29931D01*
X118303Y29733D01*
X117753Y29935D01*
X117731Y30048D01*
X117377Y30577D01*
X116848Y30931D01*
X116224Y31055D01*
X115599Y30931D01*
X115303Y30733D01*
X114753Y30935D01*
X114731Y31048D01*
X114377Y31577D01*
X113848Y31931D01*
X113224Y32055D01*
D02*
G37*
G36*
X145247Y32649D02*
X143331Y32498D01*
X141462Y32049D01*
X139686Y31314D01*
X138048Y30310D01*
X136586Y29061D01*
X135338Y27600D01*
X134334Y25961D01*
X133598Y24185D01*
X133149Y22316D01*
X132999Y20400D01*
X133149Y18484D01*
X133598Y16615D01*
X134334Y14839D01*
X135338Y13200D01*
X136586Y11739D01*
X138048Y10491D01*
X139686Y9486D01*
X141462Y8751D01*
X143331Y8302D01*
X145247Y8151D01*
X147163Y8302D01*
X149032Y8751D01*
X150808Y9486D01*
X152447Y10491D01*
X153908Y11739D01*
X155157Y13200D01*
X156161Y14839D01*
X156896Y16615D01*
X157345Y18484D01*
X157496Y20400D01*
X157345Y22316D01*
X156896Y24185D01*
X156161Y25961D01*
X155157Y27600D01*
X153908Y29061D01*
X152447Y30310D01*
X150808Y31314D01*
X149032Y32049D01*
X147163Y32498D01*
X145247Y32649D01*
D02*
G37*
G36*
X23200D02*
X21284Y32498D01*
X19415Y32049D01*
X17639Y31314D01*
X16000Y30310D01*
X14539Y29061D01*
X13291Y27600D01*
X12286Y25961D01*
X11551Y24185D01*
X11102Y22316D01*
X10951Y20400D01*
X11102Y18484D01*
X11551Y16615D01*
X12286Y14839D01*
X13291Y13200D01*
X14539Y11739D01*
X16000Y10491D01*
X17639Y9486D01*
X19415Y8751D01*
X21284Y8302D01*
X23200Y8151D01*
X25116Y8302D01*
X26985Y8751D01*
X28761Y9486D01*
X30400Y10491D01*
X31861Y11739D01*
X33110Y13200D01*
X34114Y14839D01*
X34849Y16615D01*
X35298Y18484D01*
X35449Y20400D01*
X35298Y22316D01*
X34849Y24185D01*
X34114Y25961D01*
X33110Y27600D01*
X31861Y29061D01*
X30400Y30310D01*
X28761Y31314D01*
X26985Y32049D01*
X25116Y32498D01*
X23200Y32649D01*
D02*
G37*
G36*
X90692Y10055D02*
X90068Y9931D01*
X89539Y9577D01*
X89185Y9048D01*
X89061Y8424D01*
X89185Y7799D01*
X89539Y7270D01*
X90068Y6916D01*
X90692Y6792D01*
X91316Y6916D01*
X91846Y7270D01*
X92199Y7799D01*
X92323Y8424D01*
X92199Y9048D01*
X91846Y9577D01*
X91316Y9931D01*
X90692Y10055D01*
D02*
G37*
%LPD*%
D47*
X15417Y84724D02*
D03*
X15724Y59424D02*
D03*
X95323Y43547D02*
D03*
X46224Y154455D02*
D03*
X94224Y100924D02*
D03*
X95724Y99424D02*
D03*
X94224Y102424D02*
D03*
X95724D02*
D03*
X97224Y99424D02*
D03*
Y100924D02*
D03*
X94224Y103924D02*
D03*
X95724D02*
D03*
X98724Y99424D02*
D03*
Y100924D02*
D03*
X127824Y108624D02*
D03*
Y107124D02*
D03*
X126324D02*
D03*
Y108624D02*
D03*
X121824Y107124D02*
D03*
Y108624D02*
D03*
X123324D02*
D03*
Y107124D02*
D03*
X24696Y66419D02*
D03*
X17824Y67616D02*
D03*
X94224Y99424D02*
D03*
X95724Y100924D02*
D03*
X117590Y110424D02*
D03*
X119090D02*
D03*
Y108924D02*
D03*
X145755Y76324D02*
D03*
X124824Y108624D02*
D03*
Y107124D02*
D03*
X87724Y154290D02*
D03*
X73224Y64955D02*
D03*
X24692Y73424D02*
D03*
X23692Y99924D02*
D03*
Y101924D02*
D03*
Y113924D02*
D03*
Y111924D02*
D03*
Y103924D02*
D03*
Y105924D02*
D03*
X26912Y83224D02*
D03*
X24692Y59424D02*
D03*
Y52424D02*
D03*
X74822Y57238D02*
D03*
X143255Y47824D02*
D03*
Y52824D02*
D03*
X158755Y45324D02*
D03*
Y55324D02*
D03*
Y38324D02*
D03*
X145755D02*
D03*
X119424Y61628D02*
D03*
X112192Y24424D02*
D03*
X41806Y36124D02*
D03*
X97724Y18924D02*
D03*
X60641Y68924D02*
D03*
X23692Y107924D02*
D03*
Y109924D02*
D03*
X22192Y107924D02*
D03*
Y109924D02*
D03*
X16192D02*
D03*
Y107924D02*
D03*
X14692Y109924D02*
D03*
Y107924D02*
D03*
X13192Y109924D02*
D03*
Y107924D02*
D03*
X11692Y109924D02*
D03*
Y107924D02*
D03*
X8692Y109924D02*
D03*
X10192Y107924D02*
D03*
X8692D02*
D03*
X10192Y109924D02*
D03*
X10692Y104424D02*
D03*
X158755Y69324D02*
D03*
X89365Y37224D02*
D03*
X80355Y6191D02*
D03*
X111255Y77924D02*
D03*
X97641Y74924D02*
D03*
X50224Y139569D02*
D03*
X24692Y45424D02*
D03*
X122624Y6924D02*
D03*
X106282Y5924D02*
D03*
X96655Y6924D02*
D03*
X15724Y52424D02*
D03*
X18501Y37329D02*
D03*
X16501D02*
D03*
X14502D02*
D03*
X12502D02*
D03*
X10502D02*
D03*
X8501D02*
D03*
X48024Y142069D02*
D03*
X76224Y154455D02*
D03*
X93224Y143424D02*
D03*
X95224Y145424D02*
D03*
X93224Y141424D02*
D03*
Y139424D02*
D03*
X95224Y141424D02*
D03*
X97224Y137424D02*
D03*
X95224D02*
D03*
X99224D02*
D03*
X103224D02*
D03*
X101224D02*
D03*
X105224D02*
D03*
Y139424D02*
D03*
X97224D02*
D03*
Y141424D02*
D03*
X101224Y139424D02*
D03*
X99224Y141424D02*
D03*
X97224Y143424D02*
D03*
X99224Y145424D02*
D03*
X97224D02*
D03*
X101224Y141424D02*
D03*
Y143424D02*
D03*
X105224Y141424D02*
D03*
X103224D02*
D03*
Y145424D02*
D03*
X101224D02*
D03*
X105224Y143424D02*
D03*
Y145424D02*
D03*
X115124Y143424D02*
D03*
X117124Y145424D02*
D03*
X115124Y141424D02*
D03*
X117124Y137424D02*
D03*
X121124D02*
D03*
X119124D02*
D03*
X115124Y139424D02*
D03*
X117124Y141424D02*
D03*
X119124Y139424D02*
D03*
Y141424D02*
D03*
X123124Y137424D02*
D03*
Y139424D02*
D03*
X127124Y137424D02*
D03*
X125124D02*
D03*
Y141424D02*
D03*
X121124D02*
D03*
X127124Y139424D02*
D03*
Y141424D02*
D03*
X123124D02*
D03*
X119124Y143424D02*
D03*
X127124D02*
D03*
X123124D02*
D03*
X121124Y145424D02*
D03*
X119124D02*
D03*
X127124D02*
D03*
X123124D02*
D03*
X125124D02*
D03*
X115124D02*
D03*
X93224D02*
D03*
X73723Y98936D02*
D03*
X28412Y83224D02*
D03*
X26912Y84724D02*
D03*
X28412D02*
D03*
X20502Y37329D02*
D03*
X66724Y111424D02*
D03*
X19255Y83924D02*
D03*
X10692Y113424D02*
D03*
X132755Y76324D02*
D03*
X145755Y62324D02*
D03*
X132755D02*
D03*
X132755Y38324D02*
D03*
X12502Y125518D02*
D03*
X14502D02*
D03*
X10502D02*
D03*
X8501D02*
D03*
X16501D02*
D03*
X18501D02*
D03*
X20502D02*
D03*
D48*
X61105Y18924D02*
D03*
D51*
X99224Y74924D02*
D03*
M02*
