M48
;Layer_Color=9474304
;FILE_FORMAT=2:5
INCH,LZ
;TYPE=PLATED
T1F00S00C0.01200
T2F00S00C0.02800
T3F00S00C0.11811
%
T01
X0106282Y0005924
X0122624Y0006924
X0122224Y0027424
X0119224Y0028424
X0116224Y0029424
X0113224Y0030424
X0112192Y0024424
X0125224Y0026424
X0128224Y0025424
X0122724Y0032924
X0119724Y0033924
Y0036924
Y0039924
X0132755Y0038324
X0145755
X0143255Y0047824
Y0052824
X0150192Y0047824
X0158755Y0045324
Y0038324
Y0055324
X0150192Y0059824
X0145755Y0062324
X0132755
X0132755Y0076324
X0138724Y0080924
Y0082424
X0140224
X0141724
Y0080924
X0140224
X0146724Y0081924
Y0083424
X0148224
X0149724
Y0081924
X0148224
X0145755Y0076324
X0146724Y0091424
X0148224
Y0092924
X0149724
Y0091424
X0146724Y0092924
X0156724
X0158224
X0159724
Y0091424
X0158224
X0156724
Y0083424
X0158224
Y0081924
X0159724
Y0083424
X0156724Y0081924
X0158755Y0069324
X0117424Y0069305
X0119424Y0071865
X0117424Y0074424
X0119424Y0076983
X0111255Y0077924
X0105192Y0084924
X0119424Y0066746
X0117424Y0064187
X0119424Y0061628
X011909Y0108924
Y0110424
X011759
X0121824Y0108624
Y0107124
X0123324
Y0108624
X0124824
X0126324
X0127824
Y0107124
X0126324
X0124824
X0124624Y0121824
X0122624
Y0123824
X0124624
Y0125824
X0122624
X0127624
X0129624
Y0123824
Y0121824
X0127624
Y0123824
X0114624
X0112624
Y0121824
X0114624
Y0125824
X0112624
X0107724
X0105724
Y0123824
Y0121824
X0107724
Y0123824
X0102724
Y0125824
Y0121824
X0146724Y0124424
X0148224
Y0125924
X0149724
Y0124424
X0146724Y0125924
Y0116424
X0148224
X0149724
Y0114924
X0148224
X0146724
X0156724
X0158224
X0159724
Y0116424
X0158224
X0156724
Y0124424
Y0125924
X0158224
Y0124424
X0159724
Y0125924
X0100724Y0125824
Y0123824
Y0121824
X0092724
X0090724
Y0123824
X0092724
Y0125824
X0090724
X0088224Y0131424
X0077996Y0124424
X0075724Y0126394
X0075924Y0121994
X0066724Y0116424
Y0111424
Y0108424
Y0102424
X0067224Y0095424
X0073723Y0098936
X0085092Y0097824
X0086104Y0102512
X0083692Y0106924
X0086724Y0112724
X0094224Y0103924
Y0102424
Y0100924
Y0099424
X0095724
X0097224
Y0100924
X0098724
Y0099424
X0095724Y0100924
Y0102424
Y0103924
X0097641Y0074924
X0097724Y0058424
X0093724
X0090724
X0087724
X0090724Y0053424
X0093724
X0089279Y0047439
X0087279Y0049408
Y0045471
Y0039565
X0089279Y0041534
X0091279Y0039565
X0093278Y0041534
X0095323Y0039622
Y0043547
X0097325Y0041579
X0089365Y0037224
X0082279Y0029924
X0095224Y0026924
X0097724Y0018924
X0096655Y0006924
X0090692Y0008424
X0080355Y0006191
X0071643Y0044932
X0068641Y0047924
Y0052924
Y0058924
X0072224Y0058892
X0074822Y0057238
X0077279Y0055313
X0078724Y0064424
X0073224Y0064955
X0060641Y0063924
Y0068924
Y0073924
X0045806
X0046724Y0061424
X0047324Y0056024
X0041806Y0036124
X0020502Y0037329
X0018501
X0016501
X0014502
X0012502
X0010502
X0008501
X0015724Y0052424
Y0059424
X0024692
X0024696Y0066419
X0024692Y0073424
X0026912Y0083224
X0028412
Y0084724
X0026912
X0019255Y0083924
X0015417Y0084724
X0014424Y0067824
X0017824Y0067616
X0024692Y0052424
X0024692Y0045424
X0023692Y0099924
Y0101924
Y0103924
Y0105924
Y0107924
X0022192
Y0109924
X0023692
Y0111924
Y0113924
X0016192Y0109924
X0014692
X0013192
X0011692
X0010192
X0008692
Y0107924
X0010192
X0011692
X0013192
X0014692
X0016192
X0010692Y0104424
Y0113424
X0010502Y0125518
X0012502
X0014502
X0016501
X0018501
X0020502
X0008501
X0050224Y0139569
X0048024Y0142069
X0046224Y0154455
X0070124Y0157351
X0076224Y0154455
X0077924Y0149953
X0082924
X0087724Y015429
X0098724Y0155124
X0099224Y0145424
X0097224
X0095224
X0093224
Y0143424
Y0141424
Y0139424
X0095224Y0141424
X0097224
Y0139424
Y0137424
X0095224
X0099224
Y0141424
X0097224Y0143424
X0071724Y0143924
X0101224Y0143424
Y0141424
Y0139424
Y0137424
X0103224
X0105224
Y0139424
Y0141424
X0103224
Y0145424
X0101224
X0105224
Y0143424
X0115124
Y0141424
Y0139424
X0117124Y0137424
X0119124
X0121124
X0123124
Y0139424
Y0141424
X0125124
X0127124
Y0139424
Y0137424
X0125124
X0119124Y0139424
Y0141424
X0117124
Y0145424
X0119124
Y0143424
X0121124Y0141424
X0123124Y0143424
Y0145424
X0121124
X0125124
X0127124
Y0143424
X0125624Y0153124
X0120624
X0130624
X0115124Y0145424
X0108724Y0150124
X0103724Y0155124
T02
X0061105Y0018924
X0075224Y0030548
X0057024Y0085724
X0049287Y0085548
X0049297Y0101313
X0057124Y0101604
T03
X0145247Y00204
X00232
Y0142447
X0145247
M30
