G04*
G04 #@! TF.GenerationSoftware,Altium Limited,Altium Designer,20.0.2 (26)*
G04*
G04 Layer_Color=2752767*
%FSLAX25Y25*%
%MOIN*%
G70*
G01*
G75*
%ADD100C,0.00200*%
%ADD101C,0.00267*%
D100*
X14617Y83924D02*
Y85524D01*
X16217D01*
Y83924D01*
X14617D01*
X13624Y67024D02*
Y68624D01*
X15224D01*
Y67024D01*
X13624D01*
X14924Y58624D02*
Y60224D01*
X16524D01*
Y58624D01*
X14924D01*
X96924Y57624D02*
Y59224D01*
X98524D01*
Y57624D01*
X96924D01*
X94523Y42747D02*
Y44347D01*
X96123D01*
Y42747D01*
X94523D01*
X92924Y52624D02*
Y54224D01*
X94524D01*
Y52624D01*
X92924D01*
X96525Y40780D02*
Y42380D01*
X98125D01*
Y40780D01*
X96525D01*
X94523Y38822D02*
Y40422D01*
X96123D01*
Y38822D01*
X94523D01*
X92478Y40734D02*
Y42334D01*
X94078D01*
Y40734D01*
X92478D01*
X88479Y46639D02*
Y48239D01*
X90079D01*
Y46639D01*
X88479D01*
X86479Y48608D02*
Y50208D01*
X88079D01*
Y48608D01*
X86479D01*
X90479Y38765D02*
Y40365D01*
X92079D01*
Y38765D01*
X90479D01*
X137924Y80124D02*
Y81724D01*
X139524D01*
Y80124D01*
X137924D01*
Y81624D02*
Y83224D01*
X139524D01*
Y81624D01*
X137924D01*
X45424Y153655D02*
Y155255D01*
X47024D01*
Y153655D01*
X45424D01*
X93424Y100124D02*
Y101724D01*
X95024D01*
Y100124D01*
X93424D01*
X94924Y98624D02*
Y100224D01*
X96524D01*
Y98624D01*
X94924D01*
X93424Y101624D02*
Y103224D01*
X95024D01*
Y101624D01*
X93424D01*
X94924D02*
Y103224D01*
X96524D01*
Y101624D01*
X94924D01*
X96424Y98624D02*
Y100224D01*
X98024D01*
Y98624D01*
X96424D01*
Y100124D02*
Y101724D01*
X98024D01*
Y100124D01*
X96424D01*
X93424Y103124D02*
Y104724D01*
X95024D01*
Y103124D01*
X93424D01*
X94924D02*
Y104724D01*
X96524D01*
Y103124D01*
X94924D01*
X97924Y98624D02*
Y100224D01*
X99524D01*
Y98624D01*
X97924D01*
Y100124D02*
Y101724D01*
X99524D01*
Y100124D01*
X97924D01*
X145924Y81124D02*
Y82724D01*
X147524D01*
Y81124D01*
X145924D01*
Y82624D02*
Y84224D01*
X147524D01*
Y82624D01*
X145924D01*
X147424D02*
Y84224D01*
X149024D01*
Y82624D01*
X147424D01*
X148924D02*
Y84224D01*
X150524D01*
Y82624D01*
X148924D01*
X147424Y81124D02*
Y82724D01*
X149024D01*
Y81124D01*
X147424D01*
X148924D02*
Y82724D01*
X150524D01*
Y81124D01*
X148924D01*
X158924D02*
Y82724D01*
X160524D01*
Y81124D01*
X158924D01*
X157424D02*
Y82724D01*
X159024D01*
Y81124D01*
X157424D01*
X158924Y82624D02*
Y84224D01*
X160524D01*
Y82624D01*
X158924D01*
X157424D02*
Y84224D01*
X159024D01*
Y82624D01*
X157424D01*
X155924D02*
Y84224D01*
X157524D01*
Y82624D01*
X155924D01*
Y81124D02*
Y82724D01*
X157524D01*
Y81124D01*
X155924D01*
X118924Y39124D02*
Y40724D01*
X120524D01*
Y39124D01*
X118924D01*
Y33124D02*
Y34724D01*
X120524D01*
Y33124D01*
X118924D01*
X121924Y32124D02*
Y33724D01*
X123524D01*
Y32124D01*
X121924D01*
X118424Y27624D02*
Y29224D01*
X120024D01*
Y27624D01*
X118424D01*
X118924Y36124D02*
Y37724D01*
X120524D01*
Y36124D01*
X118924D01*
X118624Y76183D02*
Y77783D01*
X120224D01*
Y76183D01*
X118624D01*
X155924Y125124D02*
Y126724D01*
X157524D01*
Y125124D01*
X155924D01*
Y123624D02*
Y125224D01*
X157524D01*
Y123624D01*
X155924D01*
X157424D02*
Y125224D01*
X159024D01*
Y123624D01*
X157424D01*
X158924D02*
Y125224D01*
X160524D01*
Y123624D01*
X158924D01*
X157424Y125124D02*
Y126724D01*
X159024D01*
Y125124D01*
X157424D01*
X158924D02*
Y126724D01*
X160524D01*
Y125124D01*
X158924D01*
X148924D02*
Y126724D01*
X150524D01*
Y125124D01*
X148924D01*
X147424D02*
Y126724D01*
X149024D01*
Y125124D01*
X147424D01*
X148924Y123624D02*
Y125224D01*
X150524D01*
Y123624D01*
X148924D01*
X147424D02*
Y125224D01*
X149024D01*
Y123624D01*
X147424D01*
X145924D02*
Y125224D01*
X147524D01*
Y123624D01*
X145924D01*
Y125124D02*
Y126724D01*
X147524D01*
Y125124D01*
X145924D01*
X140924Y81624D02*
Y83224D01*
X142524D01*
Y81624D01*
X140924D01*
Y80124D02*
Y81724D01*
X142524D01*
Y80124D01*
X140924D01*
X139424D02*
Y81724D01*
X141024D01*
Y80124D01*
X139424D01*
Y81624D02*
Y83224D01*
X141024D01*
Y81624D01*
X139424D01*
X127024Y107824D02*
Y109424D01*
X128624D01*
Y107824D01*
X127024D01*
Y106324D02*
Y107924D01*
X128624D01*
Y106324D01*
X127024D01*
X125524D02*
Y107924D01*
X127124D01*
Y106324D01*
X125524D01*
Y107824D02*
Y109424D01*
X127124D01*
Y107824D01*
X125524D01*
X121024Y106324D02*
Y107924D01*
X122624D01*
Y106324D01*
X121024D01*
Y107824D02*
Y109424D01*
X122624D01*
Y107824D01*
X121024D01*
X122524D02*
Y109424D01*
X124124D01*
Y107824D01*
X122524D01*
Y106324D02*
Y107924D01*
X124124D01*
Y106324D01*
X122524D01*
X23896Y65619D02*
Y67219D01*
X25496D01*
Y65619D01*
X23896D01*
X17024Y66817D02*
Y68417D01*
X18624D01*
Y66817D01*
X17024D01*
X93424Y98624D02*
Y100224D01*
X95024D01*
Y98624D01*
X93424D01*
X94924Y100124D02*
Y101724D01*
X96524D01*
Y100124D01*
X94924D01*
X116790Y109624D02*
Y111224D01*
X118390D01*
Y109624D01*
X116790D01*
X118290D02*
Y111224D01*
X119890D01*
Y109624D01*
X118290D01*
Y108124D02*
Y109724D01*
X119890D01*
Y108124D01*
X118290D01*
X144955Y75524D02*
Y77124D01*
X146555D01*
Y75524D01*
X144955D01*
X124024Y107824D02*
Y109424D01*
X125624D01*
Y107824D01*
X124024D01*
Y106324D02*
Y107924D01*
X125624D01*
Y106324D01*
X124024D01*
X82892Y106124D02*
Y107724D01*
X84492D01*
Y106124D01*
X82892D01*
X85924Y111924D02*
Y113524D01*
X87524D01*
Y111924D01*
X85924D01*
X104924Y123024D02*
Y124624D01*
X106524D01*
Y123024D01*
X104924D01*
X101924Y125024D02*
Y126624D01*
X103524D01*
Y125024D01*
X101924D01*
X104924Y121024D02*
Y122624D01*
X106524D01*
Y121024D01*
X104924D01*
X101924D02*
Y122624D01*
X103524D01*
Y121024D01*
X101924D01*
X104924Y125024D02*
Y126624D01*
X106524D01*
Y125024D01*
X104924D01*
X101924Y123024D02*
Y124624D01*
X103524D01*
Y123024D01*
X101924D01*
X147424Y92124D02*
Y93724D01*
X149024D01*
Y92124D01*
X147424D01*
Y90624D02*
Y92224D01*
X149024D01*
Y90624D01*
X147424D01*
X148924Y92124D02*
Y93724D01*
X150524D01*
Y92124D01*
X148924D01*
Y90624D02*
Y92224D01*
X150524D01*
Y90624D01*
X148924D01*
X145924D02*
Y92224D01*
X147524D01*
Y90624D01*
X145924D01*
Y92124D02*
Y93724D01*
X147524D01*
Y92124D01*
X145924D01*
X126824Y125024D02*
Y126624D01*
X128424D01*
Y125024D01*
X126824D01*
X128824D02*
Y126624D01*
X130424D01*
Y125024D01*
X128824D01*
Y123024D02*
Y124624D01*
X130424D01*
Y123024D01*
X128824D01*
Y121024D02*
Y122624D01*
X130424D01*
Y121024D01*
X128824D01*
X126824D02*
Y122624D01*
X128424D01*
Y121024D01*
X126824D01*
Y123024D02*
Y124624D01*
X128424D01*
Y123024D01*
X126824D01*
X106924Y125024D02*
Y126624D01*
X108524D01*
Y125024D01*
X106924D01*
Y123024D02*
Y124624D01*
X108524D01*
Y123024D01*
X106924D01*
Y121024D02*
Y122624D01*
X108524D01*
Y121024D01*
X106924D01*
X158924Y92124D02*
Y93724D01*
X160524D01*
Y92124D01*
X158924D01*
X157424D02*
Y93724D01*
X159024D01*
Y92124D01*
X157424D01*
X155924D02*
Y93724D01*
X157524D01*
Y92124D01*
X155924D01*
Y90624D02*
Y92224D01*
X157524D01*
Y90624D01*
X155924D01*
X157424D02*
Y92224D01*
X159024D01*
Y90624D01*
X157424D01*
X158924D02*
Y92224D01*
X160524D01*
Y90624D01*
X158924D01*
X155924Y114124D02*
Y115724D01*
X157524D01*
Y114124D01*
X155924D01*
X157424D02*
Y115724D01*
X159024D01*
Y114124D01*
X157424D01*
X158924D02*
Y115724D01*
X160524D01*
Y114124D01*
X158924D01*
Y115624D02*
Y117224D01*
X160524D01*
Y115624D01*
X158924D01*
X157424D02*
Y117224D01*
X159024D01*
Y115624D01*
X157424D01*
X155924D02*
Y117224D01*
X157524D01*
Y115624D01*
X155924D01*
X89924Y123024D02*
Y124624D01*
X91524D01*
Y123024D01*
X89924D01*
Y121024D02*
Y122624D01*
X91524D01*
Y121024D01*
X89924D01*
X91924D02*
Y122624D01*
X93524D01*
Y121024D01*
X91924D01*
Y123024D02*
Y124624D01*
X93524D01*
Y123024D01*
X91924D01*
Y125024D02*
Y126624D01*
X93524D01*
Y125024D01*
X91924D01*
X89924D02*
Y126624D01*
X91524D01*
Y125024D01*
X89924D01*
X121824Y123024D02*
Y124624D01*
X123424D01*
Y123024D01*
X121824D01*
Y121024D02*
Y122624D01*
X123424D01*
Y121024D01*
X121824D01*
X123824D02*
Y122624D01*
X125424D01*
Y121024D01*
X123824D01*
Y123024D02*
Y124624D01*
X125424D01*
Y123024D01*
X123824D01*
Y125024D02*
Y126624D01*
X125424D01*
Y125024D01*
X123824D01*
X121824D02*
Y126624D01*
X123424D01*
Y125024D01*
X121824D01*
X111824Y123024D02*
Y124624D01*
X113424D01*
Y123024D01*
X111824D01*
Y121024D02*
Y122624D01*
X113424D01*
Y121024D01*
X111824D01*
X113824D02*
Y122624D01*
X115424D01*
Y121024D01*
X113824D01*
Y123024D02*
Y124624D01*
X115424D01*
Y123024D01*
X113824D01*
Y125024D02*
Y126624D01*
X115424D01*
Y125024D01*
X113824D01*
X111824D02*
Y126624D01*
X113424D01*
Y125024D01*
X111824D01*
X107924Y149324D02*
Y150924D01*
X109524D01*
Y149324D01*
X107924D01*
X102924Y154324D02*
Y155924D01*
X104524D01*
Y154324D01*
X102924D01*
X97924D02*
Y155924D01*
X99524D01*
Y154324D01*
X97924D01*
X86924Y153490D02*
Y155090D01*
X88524D01*
Y153490D01*
X86924D01*
X87424Y130624D02*
Y132224D01*
X89024D01*
Y130624D01*
X87424D01*
X82124Y149153D02*
Y150753D01*
X83724D01*
Y149153D01*
X82124D01*
X99924Y123024D02*
Y124624D01*
X101524D01*
Y123024D01*
X99924D01*
Y121024D02*
Y122624D01*
X101524D01*
Y121024D01*
X99924D01*
Y125024D02*
Y126624D01*
X101524D01*
Y125024D01*
X99924D01*
X77196Y123624D02*
Y125224D01*
X78796D01*
Y123624D01*
X77196D01*
X145924Y115624D02*
Y117224D01*
X147524D01*
Y115624D01*
X145924D01*
X147424D02*
Y117224D01*
X149024D01*
Y115624D01*
X147424D01*
X148924D02*
Y117224D01*
X150524D01*
Y115624D01*
X148924D01*
Y114124D02*
Y115724D01*
X150524D01*
Y114124D01*
X148924D01*
X147424D02*
Y115724D01*
X149024D01*
Y114124D01*
X147424D01*
X145924D02*
Y115724D01*
X147524D01*
Y114124D01*
X145924D01*
X72424Y64155D02*
Y65755D01*
X74024D01*
Y64155D01*
X72424D01*
X104392Y84124D02*
Y85724D01*
X105992D01*
Y84124D01*
X104392D01*
X23892Y72624D02*
Y74224D01*
X25492D01*
Y72624D01*
X23892D01*
X22892Y99124D02*
Y100724D01*
X24492D01*
Y99124D01*
X22892D01*
Y101124D02*
Y102724D01*
X24492D01*
Y101124D01*
X22892D01*
Y113124D02*
Y114724D01*
X24492D01*
Y113124D01*
X22892D01*
Y111124D02*
Y112724D01*
X24492D01*
Y111124D01*
X22892D01*
Y103124D02*
Y104724D01*
X24492D01*
Y103124D01*
X22892D01*
Y105124D02*
Y106724D01*
X24492D01*
Y105124D01*
X22892D01*
X45924Y60624D02*
Y62224D01*
X47524D01*
Y60624D01*
X45924D01*
X59841Y63124D02*
Y64724D01*
X61441D01*
Y63124D01*
X59841D01*
X45006Y73124D02*
Y74724D01*
X46606D01*
Y73124D01*
X45006D01*
X85304Y101712D02*
Y103312D01*
X86904D01*
Y101712D01*
X85304D01*
X59841Y73124D02*
Y74724D01*
X61441D01*
Y73124D01*
X59841D01*
X89892Y7624D02*
Y9224D01*
X91492D01*
Y7624D01*
X89892D01*
X26112Y82424D02*
Y84024D01*
X27712D01*
Y82424D01*
X26112D01*
X46524Y55224D02*
Y56824D01*
X48124D01*
Y55224D01*
X46524D01*
X23892Y58624D02*
Y60224D01*
X25492D01*
Y58624D01*
X23892D01*
Y51624D02*
Y53224D01*
X25492D01*
Y51624D01*
X23892D01*
X74022Y56438D02*
Y58038D01*
X75622D01*
Y56438D01*
X74022D01*
X67841Y58124D02*
Y59724D01*
X69441D01*
Y58124D01*
X67841D01*
X94424Y26124D02*
Y27724D01*
X96024D01*
Y26124D01*
X94424D01*
X74924Y125594D02*
Y127194D01*
X76524D01*
Y125594D01*
X74924D01*
X119824Y152324D02*
Y153924D01*
X121424D01*
Y152324D01*
X119824D01*
X70924Y143124D02*
Y144724D01*
X72524D01*
Y143124D01*
X70924D01*
X142455Y47024D02*
Y48624D01*
X144055D01*
Y47024D01*
X142455D01*
Y52024D02*
Y53624D01*
X144055D01*
Y52024D01*
X142455D01*
X157955Y44524D02*
Y46124D01*
X159555D01*
Y44524D01*
X157955D01*
Y54524D02*
Y56124D01*
X159555D01*
Y54524D01*
X157955D01*
Y37524D02*
Y39124D01*
X159555D01*
Y37524D01*
X157955D01*
X144955D02*
Y39124D01*
X146555D01*
Y37524D01*
X144955D01*
X77924Y63624D02*
Y65224D01*
X79524D01*
Y63624D01*
X77924D01*
X89924Y57624D02*
Y59224D01*
X91524D01*
Y57624D01*
X89924D01*
X86924D02*
Y59224D01*
X88524D01*
Y57624D01*
X86924D01*
X92924D02*
Y59224D01*
X94524D01*
Y57624D01*
X92924D01*
X66424Y94624D02*
Y96224D01*
X68024D01*
Y94624D01*
X66424D01*
X67841Y52124D02*
Y53724D01*
X69441D01*
Y52124D01*
X67841D01*
X121424Y26624D02*
Y28224D01*
X123024D01*
Y26624D01*
X121424D01*
X112424Y29624D02*
Y31224D01*
X114024D01*
Y29624D01*
X112424D01*
X115424Y28624D02*
Y30224D01*
X117024D01*
Y28624D01*
X115424D01*
X118624Y60828D02*
Y62428D01*
X120224D01*
Y60828D01*
X118624D01*
X129824Y152324D02*
Y153924D01*
X131424D01*
Y152324D01*
X129824D01*
X111392Y23624D02*
Y25224D01*
X112992D01*
Y23624D01*
X111392D01*
X127424Y24624D02*
Y26224D01*
X129024D01*
Y24624D01*
X127424D01*
X124424Y25624D02*
Y27224D01*
X126024D01*
Y25624D01*
X124424D01*
X124824Y152324D02*
Y153924D01*
X126424D01*
Y152324D01*
X124824D01*
X41006Y35324D02*
Y36924D01*
X42606D01*
Y35324D01*
X41006D01*
X96924Y18124D02*
Y19724D01*
X98524D01*
Y18124D01*
X96924D01*
X59841Y68124D02*
Y69724D01*
X61441D01*
Y68124D01*
X59841D01*
X65924Y101624D02*
Y103224D01*
X67524D01*
Y101624D01*
X65924D01*
X22892Y107124D02*
Y108724D01*
X24492D01*
Y107124D01*
X22892D01*
Y109124D02*
Y110724D01*
X24492D01*
Y109124D01*
X22892D01*
X21392Y107124D02*
Y108724D01*
X22992D01*
Y107124D01*
X21392D01*
Y109124D02*
Y110724D01*
X22992D01*
Y109124D01*
X21392D01*
X15392D02*
Y110724D01*
X16992D01*
Y109124D01*
X15392D01*
Y107124D02*
Y108724D01*
X16992D01*
Y107124D01*
X15392D01*
X13892Y109124D02*
Y110724D01*
X15492D01*
Y109124D01*
X13892D01*
Y107124D02*
Y108724D01*
X15492D01*
Y107124D01*
X13892D01*
X12392Y109124D02*
Y110724D01*
X13992D01*
Y109124D01*
X12392D01*
Y107124D02*
Y108724D01*
X13992D01*
Y107124D01*
X12392D01*
X10892Y109124D02*
Y110724D01*
X12492D01*
Y109124D01*
X10892D01*
Y107124D02*
Y108724D01*
X12492D01*
Y107124D01*
X10892D01*
X7892Y109124D02*
Y110724D01*
X9492D01*
Y109124D01*
X7892D01*
X9392Y107124D02*
Y108724D01*
X10992D01*
Y107124D01*
X9392D01*
X7892D02*
Y108724D01*
X9492D01*
Y107124D01*
X7892D01*
X9392Y109124D02*
Y110724D01*
X10992D01*
Y109124D01*
X9392D01*
X9892Y103624D02*
Y105224D01*
X11492D01*
Y103624D01*
X9892D01*
X157955Y68524D02*
Y70124D01*
X159555D01*
Y68524D01*
X157955D01*
X116624Y63387D02*
Y64987D01*
X118224D01*
Y63387D01*
X116624D01*
X149392Y59024D02*
Y60624D01*
X150992D01*
Y59024D01*
X149392D01*
X149392Y47024D02*
Y48624D01*
X150992D01*
Y47024D01*
X149392D01*
X88565Y36424D02*
Y38024D01*
X90165D01*
Y36424D01*
X88565D01*
X79555Y5391D02*
Y6991D01*
X81155D01*
Y5391D01*
X79555D01*
X81479Y29124D02*
Y30724D01*
X83079D01*
Y29124D01*
X81479D01*
X67841Y47124D02*
Y48724D01*
X69441D01*
Y47124D01*
X67841D01*
X76479Y54513D02*
Y56113D01*
X78079D01*
Y54513D01*
X76479D01*
X110455Y77124D02*
Y78724D01*
X112055D01*
Y77124D01*
X110455D01*
X71424Y58092D02*
Y59692D01*
X73024D01*
Y58092D01*
X71424D01*
X96841Y74124D02*
Y75724D01*
X98441D01*
Y74124D01*
X96841D01*
X77124Y149153D02*
Y150753D01*
X78724D01*
Y149153D01*
X77124D01*
X49424Y138769D02*
Y140369D01*
X51024D01*
Y138769D01*
X49424D01*
X23892Y44624D02*
Y46224D01*
X25492D01*
Y44624D01*
X23892D01*
X69324Y156551D02*
Y158151D01*
X70924D01*
Y156551D01*
X69324D01*
X121824Y6124D02*
Y7724D01*
X123424D01*
Y6124D01*
X121824D01*
X105482Y5124D02*
Y6724D01*
X107082D01*
Y5124D01*
X105482D01*
X95855Y6124D02*
Y7724D01*
X97455D01*
Y6124D01*
X95855D01*
X89924Y52624D02*
Y54224D01*
X91524D01*
Y52624D01*
X89924D01*
X70842Y44132D02*
Y45732D01*
X72443D01*
Y44132D01*
X70842D01*
X14924Y51624D02*
Y53224D01*
X16524D01*
Y51624D01*
X14924D01*
X17702Y36529D02*
Y38129D01*
X19301D01*
Y36529D01*
X17702D01*
X15701D02*
Y38129D01*
X17301D01*
Y36529D01*
X15701D01*
X13701D02*
Y38129D01*
X15302D01*
Y36529D01*
X13701D01*
X11701D02*
Y38129D01*
X13302D01*
Y36529D01*
X11701D01*
X9702D02*
Y38129D01*
X11302D01*
Y36529D01*
X9702D01*
X7701D02*
Y38129D01*
X9302D01*
Y36529D01*
X7701D01*
X47224Y141269D02*
Y142869D01*
X48824D01*
Y141269D01*
X47224D01*
X75424Y153655D02*
Y155255D01*
X77024D01*
Y153655D01*
X75424D01*
X92424Y142624D02*
Y144224D01*
X94024D01*
Y142624D01*
X92424D01*
X94424Y144624D02*
Y146224D01*
X96024D01*
Y144624D01*
X94424D01*
X92424Y140624D02*
Y142224D01*
X94024D01*
Y140624D01*
X92424D01*
Y138624D02*
Y140224D01*
X94024D01*
Y138624D01*
X92424D01*
X94424Y140624D02*
Y142224D01*
X96024D01*
Y140624D01*
X94424D01*
X96424Y136624D02*
Y138224D01*
X98024D01*
Y136624D01*
X96424D01*
X94424D02*
Y138224D01*
X96024D01*
Y136624D01*
X94424D01*
X98424D02*
Y138224D01*
X100024D01*
Y136624D01*
X98424D01*
X102424D02*
Y138224D01*
X104024D01*
Y136624D01*
X102424D01*
X100424D02*
Y138224D01*
X102024D01*
Y136624D01*
X100424D01*
X104424D02*
Y138224D01*
X106024D01*
Y136624D01*
X104424D01*
Y138624D02*
Y140224D01*
X106024D01*
Y138624D01*
X104424D01*
X96424D02*
Y140224D01*
X98024D01*
Y138624D01*
X96424D01*
Y140624D02*
Y142224D01*
X98024D01*
Y140624D01*
X96424D01*
X100424Y138624D02*
Y140224D01*
X102024D01*
Y138624D01*
X100424D01*
X98424Y140624D02*
Y142224D01*
X100024D01*
Y140624D01*
X98424D01*
X96424Y142624D02*
Y144224D01*
X98024D01*
Y142624D01*
X96424D01*
X98424Y144624D02*
Y146224D01*
X100024D01*
Y144624D01*
X98424D01*
X96424D02*
Y146224D01*
X98024D01*
Y144624D01*
X96424D01*
X100424Y140624D02*
Y142224D01*
X102024D01*
Y140624D01*
X100424D01*
Y142624D02*
Y144224D01*
X102024D01*
Y142624D01*
X100424D01*
X104424Y140624D02*
Y142224D01*
X106024D01*
Y140624D01*
X104424D01*
X102424D02*
Y142224D01*
X104024D01*
Y140624D01*
X102424D01*
Y144624D02*
Y146224D01*
X104024D01*
Y144624D01*
X102424D01*
X100424D02*
Y146224D01*
X102024D01*
Y144624D01*
X100424D01*
X104424Y142624D02*
Y144224D01*
X106024D01*
Y142624D01*
X104424D01*
Y144624D02*
Y146224D01*
X106024D01*
Y144624D01*
X104424D01*
X114324Y142624D02*
Y144224D01*
X115924D01*
Y142624D01*
X114324D01*
X116324Y144624D02*
Y146224D01*
X117924D01*
Y144624D01*
X116324D01*
X114324Y140624D02*
Y142224D01*
X115924D01*
Y140624D01*
X114324D01*
X116324Y136624D02*
Y138224D01*
X117924D01*
Y136624D01*
X116324D01*
X120324D02*
Y138224D01*
X121924D01*
Y136624D01*
X120324D01*
X118324D02*
Y138224D01*
X119924D01*
Y136624D01*
X118324D01*
X114324Y138624D02*
Y140224D01*
X115924D01*
Y138624D01*
X114324D01*
X116324Y140624D02*
Y142224D01*
X117924D01*
Y140624D01*
X116324D01*
X118324Y138624D02*
Y140224D01*
X119924D01*
Y138624D01*
X118324D01*
Y140624D02*
Y142224D01*
X119924D01*
Y140624D01*
X118324D01*
X122324Y136624D02*
Y138224D01*
X123924D01*
Y136624D01*
X122324D01*
Y138624D02*
Y140224D01*
X123924D01*
Y138624D01*
X122324D01*
X126324Y136624D02*
Y138224D01*
X127924D01*
Y136624D01*
X126324D01*
X124324D02*
Y138224D01*
X125924D01*
Y136624D01*
X124324D01*
Y140624D02*
Y142224D01*
X125924D01*
Y140624D01*
X124324D01*
X120324D02*
Y142224D01*
X121924D01*
Y140624D01*
X120324D01*
X126324Y138624D02*
Y140224D01*
X127924D01*
Y138624D01*
X126324D01*
Y140624D02*
Y142224D01*
X127924D01*
Y140624D01*
X126324D01*
X122324D02*
Y142224D01*
X123924D01*
Y140624D01*
X122324D01*
X118324Y142624D02*
Y144224D01*
X119924D01*
Y142624D01*
X118324D01*
X126324D02*
Y144224D01*
X127924D01*
Y142624D01*
X126324D01*
X122324D02*
Y144224D01*
X123924D01*
Y142624D01*
X122324D01*
X120324Y144624D02*
Y146224D01*
X121924D01*
Y144624D01*
X120324D01*
X118324D02*
Y146224D01*
X119924D01*
Y144624D01*
X118324D01*
X126324D02*
Y146224D01*
X127924D01*
Y144624D01*
X126324D01*
X122324D02*
Y146224D01*
X123924D01*
Y144624D01*
X122324D01*
X124324D02*
Y146224D01*
X125924D01*
Y144624D01*
X124324D01*
X114324D02*
Y146224D01*
X115924D01*
Y144624D01*
X114324D01*
X92424D02*
Y146224D01*
X94024D01*
Y144624D01*
X92424D01*
X72923Y98136D02*
Y99736D01*
X74523D01*
Y98136D01*
X72923D01*
X86479Y38765D02*
Y40365D01*
X88079D01*
Y38765D01*
X86479D01*
Y44671D02*
Y46271D01*
X88079D01*
Y44671D01*
X86479D01*
X116624Y68506D02*
Y70105D01*
X118224D01*
Y68506D01*
X116624D01*
X118624Y65947D02*
Y67546D01*
X120224D01*
Y65947D01*
X118624D01*
X88479Y40734D02*
Y42334D01*
X90079D01*
Y40734D01*
X88479D01*
X116624Y73624D02*
Y75224D01*
X118224D01*
Y73624D01*
X116624D01*
X118624Y71065D02*
Y72665D01*
X120224D01*
Y71065D01*
X118624D01*
X27612Y82424D02*
Y84024D01*
X29212D01*
Y82424D01*
X27612D01*
X26112Y83924D02*
Y85524D01*
X27712D01*
Y83924D01*
X26112D01*
X27612D02*
Y85524D01*
X29212D01*
Y83924D01*
X27612D01*
X19702Y36529D02*
Y38129D01*
X21302D01*
Y36529D01*
X19702D01*
X84292Y97024D02*
Y98624D01*
X85892D01*
Y97024D01*
X84292D01*
X75124Y121194D02*
Y122794D01*
X76724D01*
Y121194D01*
X75124D01*
X65924Y110624D02*
Y112224D01*
X67524D01*
Y110624D01*
X65924D01*
Y107624D02*
Y109224D01*
X67524D01*
Y107624D01*
X65924D01*
X18455Y83124D02*
Y84724D01*
X20055D01*
Y83124D01*
X18455D01*
X9892Y112624D02*
Y114224D01*
X11492D01*
Y112624D01*
X9892D01*
X131955Y75524D02*
Y77124D01*
X133555D01*
Y75524D01*
X131955D01*
X144955Y61524D02*
Y63124D01*
X146555D01*
Y61524D01*
X144955D01*
X131955D02*
Y63124D01*
X133555D01*
Y61524D01*
X131955D01*
X131955Y37524D02*
Y39124D01*
X133555D01*
Y37524D01*
X131955D01*
X65924Y115624D02*
Y117224D01*
X67524D01*
Y115624D01*
X65924D01*
X11701Y124718D02*
Y126318D01*
X13302D01*
Y124718D01*
X11701D01*
X13701D02*
Y126318D01*
X15302D01*
Y124718D01*
X13701D01*
X9702D02*
Y126318D01*
X11302D01*
Y124718D01*
X9702D01*
X7701D02*
Y126318D01*
X9302D01*
Y124718D01*
X7701D01*
X15701D02*
Y126318D01*
X17301D01*
Y124718D01*
X15701D01*
X17702D02*
Y126318D01*
X19301D01*
Y124718D01*
X17702D01*
X19702D02*
Y126318D01*
X21302D01*
Y124718D01*
X19702D01*
X145247Y141647D02*
X144447Y143247D01*
X146047D01*
X145247Y141647D01*
Y19600D02*
X144447Y21200D01*
X146047D01*
X145247Y19600D01*
X23200D02*
X22400Y21200D01*
X24000D01*
X23200Y19600D01*
Y141647D02*
X22400Y143247D01*
X24000D01*
X23200Y141647D01*
D101*
X57824Y85724D02*
G03*
X57824Y85724I-800J0D01*
G01*
X50087Y85548D02*
G03*
X50087Y85548I-800J0D01*
G01*
X57924Y101604D02*
G03*
X57924Y101604I-800J0D01*
G01*
X50097Y101313D02*
G03*
X50097Y101313I-800J0D01*
G01*
X61905Y18924D02*
G03*
X61905Y18924I-800J0D01*
G01*
X76024Y30548D02*
G03*
X76024Y30548I-800J0D01*
G01*
M02*
