G04*
G04 #@! TF.GenerationSoftware,Altium Limited,Altium Designer,20.0.2 (26)*
G04*
G04 Layer_Color=255*
%FSLAX25Y25*%
%MOIN*%
G70*
G01*
G75*
%ADD25R,0.06000X0.10000*%
%ADD52R,0.02559X0.04528*%
%ADD53O,0.07087X0.01181*%
%ADD54O,0.01181X0.07087*%
%ADD55R,0.07087X0.04449*%
%ADD56R,0.03661X0.03858*%
%ADD57R,0.15748X0.11810*%
%ADD58O,0.02362X0.07079*%
%ADD59R,0.03268X0.03937*%
%ADD60R,0.06500X0.05000*%
%ADD61R,0.03858X0.03661*%
%ADD62R,0.04331X0.02362*%
%ADD63R,0.04000X0.05500*%
%ADD64R,0.04449X0.07087*%
%ADD65O,0.06496X0.02362*%
%ADD66R,0.06496X0.02362*%
%ADD67R,0.03937X0.03150*%
G04:AMPARAMS|DCode=68|XSize=39.37mil|YSize=31.5mil|CornerRadius=0mil|HoleSize=0mil|Usage=FLASHONLY|Rotation=0.000|XOffset=0mil|YOffset=0mil|HoleType=Round|Shape=Octagon|*
%AMOCTAGOND68*
4,1,8,0.01968,-0.00787,0.01968,0.00787,0.01181,0.01575,-0.01181,0.01575,-0.01968,0.00787,-0.01968,-0.00787,-0.01181,-0.01575,0.01181,-0.01575,0.01968,-0.00787,0.0*
%
%ADD68OCTAGOND68*%

%ADD69R,0.04567X0.05787*%
%ADD70R,0.04528X0.05512*%
D25*
X136432Y86924D02*
D03*
X125015D02*
D03*
X136432Y100924D02*
D03*
X125015D02*
D03*
X136432Y114924D02*
D03*
X125015D02*
D03*
D52*
X16224Y79231D02*
D03*
X12483Y67616D02*
D03*
X19964D02*
D03*
D53*
X114169Y59250D02*
D03*
Y57282D02*
D03*
Y55313D02*
D03*
Y53345D02*
D03*
Y51376D02*
D03*
Y49408D02*
D03*
Y47439D02*
D03*
Y45471D02*
D03*
Y43502D02*
D03*
Y41534D02*
D03*
Y39565D02*
D03*
Y37597D02*
D03*
X82279D02*
D03*
Y39565D02*
D03*
Y41534D02*
D03*
Y43502D02*
D03*
Y45471D02*
D03*
Y47439D02*
D03*
Y49408D02*
D03*
Y51376D02*
D03*
Y53345D02*
D03*
Y55313D02*
D03*
Y57282D02*
D03*
Y59250D02*
D03*
D54*
X109050Y32479D02*
D03*
X107082D02*
D03*
X105113D02*
D03*
X103145D02*
D03*
X101176D02*
D03*
X99208D02*
D03*
X97239D02*
D03*
X95271D02*
D03*
X93302D02*
D03*
X91334D02*
D03*
X89365D02*
D03*
X87397D02*
D03*
Y64368D02*
D03*
X89365D02*
D03*
X91334D02*
D03*
X93302D02*
D03*
X95271D02*
D03*
X97239D02*
D03*
X99208D02*
D03*
X101176D02*
D03*
X103145D02*
D03*
X105113D02*
D03*
X107082D02*
D03*
X109050D02*
D03*
D55*
X100224Y116290D02*
D03*
Y104558D02*
D03*
X113224D02*
D03*
Y116290D02*
D03*
X82724Y154290D02*
D03*
Y142558D02*
D03*
D56*
X105192Y74424D02*
D03*
X111255D02*
D03*
X111255Y81424D02*
D03*
X105192D02*
D03*
Y88424D02*
D03*
X111255D02*
D03*
X89755Y116424D02*
D03*
X83692D02*
D03*
X156255Y69324D02*
D03*
X150192D02*
D03*
X124192Y38324D02*
D03*
X130255D02*
D03*
X150192D02*
D03*
X156255D02*
D03*
X137192D02*
D03*
X143255D02*
D03*
X124192Y69324D02*
D03*
X130255D02*
D03*
X143255D02*
D03*
X137192D02*
D03*
X83692Y109424D02*
D03*
X89755D02*
D03*
X76755Y95424D02*
D03*
X70692D02*
D03*
X71755Y126424D02*
D03*
X65692D02*
D03*
X51692D02*
D03*
X57755D02*
D03*
X27192Y52424D02*
D03*
X33255D02*
D03*
X27192Y66424D02*
D03*
X33255D02*
D03*
X150192Y45324D02*
D03*
X156255D02*
D03*
X19255Y113424D02*
D03*
X13192D02*
D03*
X130255Y76324D02*
D03*
X124192D02*
D03*
X143255D02*
D03*
X137192D02*
D03*
X150192D02*
D03*
X156255D02*
D03*
X137192Y45324D02*
D03*
X143255D02*
D03*
Y55324D02*
D03*
X137192D02*
D03*
Y62324D02*
D03*
X143255D02*
D03*
X33255Y38424D02*
D03*
X27192D02*
D03*
X13192Y52424D02*
D03*
X19255D02*
D03*
X13192Y104424D02*
D03*
X19255D02*
D03*
X13192Y59424D02*
D03*
X19255D02*
D03*
X76755Y116424D02*
D03*
X70692D02*
D03*
X89755Y102424D02*
D03*
X83692D02*
D03*
X70692Y109424D02*
D03*
X76755D02*
D03*
X83692Y95424D02*
D03*
X89755D02*
D03*
X70692Y102424D02*
D03*
X76755D02*
D03*
X120255Y8424D02*
D03*
X114192D02*
D03*
Y22424D02*
D03*
X120255D02*
D03*
X107255Y8424D02*
D03*
X101192D02*
D03*
X88192Y22424D02*
D03*
X94255D02*
D03*
X88192Y15424D02*
D03*
X94255D02*
D03*
X107255Y22424D02*
D03*
X101192D02*
D03*
X114192Y15424D02*
D03*
X120255D02*
D03*
X101192D02*
D03*
X107255D02*
D03*
X33255Y45424D02*
D03*
X27192D02*
D03*
X33255Y73424D02*
D03*
X27192D02*
D03*
X33255Y59424D02*
D03*
X27192D02*
D03*
X156255Y62324D02*
D03*
X150192D02*
D03*
X94255Y8424D02*
D03*
X88192D02*
D03*
X150192Y55324D02*
D03*
X156255D02*
D03*
X130255Y62324D02*
D03*
X124192D02*
D03*
D57*
X99224Y141424D02*
D03*
X121124D02*
D03*
D58*
X91724Y153124D02*
D03*
X96724D02*
D03*
X101724D02*
D03*
X106724D02*
D03*
X91724Y129724D02*
D03*
X96724D02*
D03*
X101724D02*
D03*
X106724D02*
D03*
X128624D02*
D03*
X123624D02*
D03*
X118624D02*
D03*
X113624D02*
D03*
X128624Y153124D02*
D03*
X123624D02*
D03*
X118624D02*
D03*
X113624D02*
D03*
D59*
X82724Y135069D02*
D03*
Y125778D02*
D03*
X50224Y132778D02*
D03*
Y142069D02*
D03*
D60*
X42224Y126674D02*
D03*
Y140174D02*
D03*
D61*
X73724Y140455D02*
D03*
Y134392D02*
D03*
Y148392D02*
D03*
Y154455D02*
D03*
X66224Y154455D02*
D03*
Y148392D02*
D03*
X58724Y148392D02*
D03*
Y154455D02*
D03*
X51224Y148392D02*
D03*
Y154455D02*
D03*
X43724Y148392D02*
D03*
Y154455D02*
D03*
X73224Y67455D02*
D03*
Y61392D02*
D03*
D62*
X56212Y133684D02*
D03*
Y137424D02*
D03*
Y141164D02*
D03*
X67235D02*
D03*
Y137424D02*
D03*
Y133684D02*
D03*
D63*
X37724Y104424D02*
D03*
X28724D02*
D03*
X37724Y95424D02*
D03*
X28724D02*
D03*
D64*
X30090Y123424D02*
D03*
X18358D02*
D03*
D65*
X41806Y58924D02*
D03*
Y63924D02*
D03*
Y68924D02*
D03*
Y73924D02*
D03*
X64641Y58924D02*
D03*
Y63924D02*
D03*
Y68924D02*
D03*
X41806Y37924D02*
D03*
Y42924D02*
D03*
Y47924D02*
D03*
Y52924D02*
D03*
X64641Y37924D02*
D03*
Y42924D02*
D03*
Y47924D02*
D03*
X95641Y88924D02*
D03*
Y83924D02*
D03*
Y78924D02*
D03*
Y73924D02*
D03*
X72806Y88924D02*
D03*
Y83924D02*
D03*
Y78924D02*
D03*
D66*
X64641Y73924D02*
D03*
Y52924D02*
D03*
X72806Y73924D02*
D03*
D67*
X27712Y80424D02*
D03*
Y87424D02*
D03*
D68*
X38735Y80424D02*
D03*
Y87424D02*
D03*
D69*
X36728Y113424D02*
D03*
X29720D02*
D03*
D70*
X124074Y54654D02*
D03*
X130373Y45993D02*
D03*
X124074D02*
D03*
X130373Y54654D02*
D03*
M02*
