G04*
G04 #@! TF.GenerationSoftware,Altium Limited,Altium Designer,20.0.2 (26)*
G04*
G04 Layer_Color=32896*
%FSLAX25Y25*%
%MOIN*%
G70*
G01*
G75*
%ADD10C,0.01000*%
%ADD11C,0.00600*%
%ADD12C,0.00984*%
%ADD13C,0.00800*%
%ADD14C,0.00787*%
%ADD93C,0.02362*%
%ADD94C,0.01181*%
%ADD95C,0.00500*%
%ADD96C,0.00700*%
D10*
X51255Y75479D02*
G03*
X55192Y75479I1969J0D01*
G01*
X64641Y77447D02*
G03*
X64641Y77447I-394J0D01*
G01*
X51255Y54479D02*
G03*
X55192Y54479I1969J0D01*
G01*
X64641Y56447D02*
G03*
X64641Y56447I-394J0D01*
G01*
X86192Y72369D02*
G03*
X82255Y72369I-1969J0D01*
G01*
X73594Y70400D02*
G03*
X73594Y70400I-394J0D01*
G01*
X120684Y80623D02*
X128224D01*
X133224D02*
X140763D01*
X133224Y93224D02*
X140763D01*
X120684D02*
X128224D01*
X120684Y80624D02*
Y93224D01*
X140763Y80624D02*
Y93224D01*
X120684Y94623D02*
X128224D01*
X133224D02*
X140763D01*
X133224Y107224D02*
X140763D01*
X120684D02*
X128224D01*
X120684Y94624D02*
Y107224D01*
X140763Y94624D02*
Y107224D01*
X120684Y108623D02*
X128224D01*
X133224D02*
X140763D01*
X133224Y121224D02*
X140763D01*
X120684D02*
X128224D01*
X120684Y108624D02*
Y121224D01*
X140763Y108624D02*
Y121224D01*
X89624Y134224D02*
Y148424D01*
X89724Y134224D02*
X108624D01*
Y148424D01*
X89624D02*
X108624D01*
X111524D02*
X130524D01*
Y134224D02*
Y148424D01*
X111624Y134224D02*
X130524D01*
X111524D02*
Y148424D01*
X46724Y122924D02*
Y126924D01*
X37724Y122924D02*
X46724D01*
X37724D02*
Y126924D01*
Y128924D02*
Y137924D01*
X46724Y128924D02*
Y137924D01*
Y139924D02*
Y143924D01*
X37724D02*
X46724D01*
X37724Y139924D02*
Y143924D01*
X63692Y131912D02*
Y142935D01*
X59755Y131912D02*
Y142935D01*
X63692D01*
X59755Y131912D02*
X63692D01*
X37724Y107924D02*
X40724D01*
Y100924D02*
Y107924D01*
X37724Y100924D02*
X40724D01*
X27224D02*
X33224D01*
Y107924D02*
X37724D01*
X25724D02*
X28724D01*
X25724Y100924D02*
Y107924D01*
Y100924D02*
X28224D01*
X59523Y57762D02*
Y75479D01*
X46924Y57762D02*
X59523D01*
X46924D02*
Y75479D01*
X51255D01*
X55192D02*
X59523D01*
Y36762D02*
Y54479D01*
X46924Y36762D02*
X59523D01*
X46924D02*
Y54479D01*
X51255D01*
X55192D02*
X59523D01*
X32624Y81124D02*
X32724Y79424D01*
X32624Y81124D02*
X33324Y80524D01*
X33124Y79924D02*
X33324Y80524D01*
X32624Y88124D02*
X32724Y86424D01*
X32624Y88124D02*
X33324Y87524D01*
X33124Y86924D02*
X33324Y87524D01*
X37724Y98924D02*
X40724D01*
Y91924D02*
Y98924D01*
X37724Y91924D02*
X40724D01*
X27224D02*
X33224D01*
Y98924D02*
X37724D01*
X25724D02*
X28724D01*
X25724Y91924D02*
Y98924D01*
Y91924D02*
X28224D01*
X77924Y72369D02*
Y90085D01*
X90523D01*
Y72369D02*
Y90085D01*
X86192Y72369D02*
X90523D01*
X77924D02*
X82255D01*
D11*
X128724Y86924D02*
X130224D01*
X131224D02*
X132724D01*
X131224Y84424D02*
Y89424D01*
X130224Y84424D02*
Y89424D01*
X128724Y100924D02*
X130224D01*
X131224D02*
X132724D01*
X131224Y98424D02*
Y103424D01*
X130224Y98424D02*
Y103424D01*
X128724Y114924D02*
X130224D01*
X131224D02*
X132724D01*
X131224Y112424D02*
Y117424D01*
X130224Y112424D02*
Y117424D01*
X32324Y78724D02*
X33924Y80324D01*
Y78424D02*
Y82424D01*
X32324Y82224D02*
X33924Y80524D01*
X32324Y78724D02*
Y82224D01*
Y85724D02*
X33924Y87324D01*
Y85424D02*
Y89424D01*
X32324Y89224D02*
X33924Y87524D01*
X32324Y85724D02*
Y89224D01*
D12*
X23901Y67616D02*
G03*
X23901Y67616I-492J0D01*
G01*
X114661Y62006D02*
G03*
X114661Y62006I-492J0D01*
G01*
X55917Y130534D02*
G03*
X55917Y130534I-492J0D01*
G01*
D13*
X120531Y42056D02*
Y58591D01*
Y42056D02*
X133916D01*
X120531Y58591D02*
X133916D01*
Y42056D02*
Y58591D01*
D14*
X103755Y84534D02*
G03*
X102180Y82959I0J-1575D01*
G01*
X102180Y79888D02*
G03*
X103755Y78313I1575J0D01*
G01*
X112692Y78313D02*
G03*
X114267Y79888I-0J1575D01*
G01*
Y82959D02*
G03*
X112692Y84534I-1575J0D01*
G01*
X114267Y89959D02*
G03*
X112692Y91534I-1575J0D01*
G01*
Y85313D02*
G03*
X114267Y86888I-0J1575D01*
G01*
X102180Y86888D02*
G03*
X103755Y85313I1575J0D01*
G01*
X103755Y91534D02*
G03*
X102180Y89959I0J-1575D01*
G01*
X148755Y72434D02*
G03*
X147180Y70859I0J-1575D01*
G01*
X147180Y67788D02*
G03*
X148755Y66213I1575J0D01*
G01*
X157692Y66213D02*
G03*
X159267Y67788I-0J1575D01*
G01*
Y70859D02*
G03*
X157692Y72434I-1575J0D01*
G01*
X159267Y39859D02*
G03*
X157692Y41434I-1575J0D01*
G01*
Y35213D02*
G03*
X159267Y36788I-0J1575D01*
G01*
X147180Y36788D02*
G03*
X148755Y35213I1575J0D01*
G01*
X148755Y41434D02*
G03*
X147180Y39859I0J-1575D01*
G01*
X146267Y39859D02*
G03*
X144692Y41434I-1575J0D01*
G01*
Y35213D02*
G03*
X146267Y36788I-0J1575D01*
G01*
X134180Y36788D02*
G03*
X135755Y35213I1575J0D01*
G01*
X135755Y41434D02*
G03*
X134180Y39859I0J-1575D01*
G01*
X133267Y70859D02*
G03*
X131692Y72434I-1575J0D01*
G01*
Y66213D02*
G03*
X133267Y67788I-0J1575D01*
G01*
X121180Y67788D02*
G03*
X122755Y66213I1575J0D01*
G01*
X122755Y72434D02*
G03*
X121180Y70859I0J-1575D01*
G01*
X134180Y67788D02*
G03*
X135755Y66213I1575J0D01*
G01*
Y72434D02*
G03*
X134180Y70859I0J-1575D01*
G01*
X146267Y70859D02*
G03*
X144692Y72434I-1575J0D01*
G01*
X144692Y66213D02*
G03*
X146267Y67788I-0J1575D01*
G01*
X62680Y124888D02*
G03*
X64255Y123313I1575J0D01*
G01*
Y129534D02*
G03*
X62680Y127959I0J-1575D01*
G01*
X74767Y127959D02*
G03*
X73192Y129534I-1575J0D01*
G01*
X73192Y123313D02*
G03*
X74767Y124888I-0J1575D01*
G01*
X57188Y157467D02*
G03*
X55613Y155892I0J-1575D01*
G01*
X61834D02*
G03*
X60259Y157467I-1575J-0D01*
G01*
X60259Y145380D02*
G03*
X61834Y146955I0J1575D01*
G01*
X55613Y146955D02*
G03*
X57188Y145380I1575J0D01*
G01*
X49688Y157467D02*
G03*
X48113Y155892I0J-1575D01*
G01*
X54334D02*
G03*
X52759Y157467I-1575J-0D01*
G01*
X52759Y145380D02*
G03*
X54334Y146955I0J1575D01*
G01*
X48113Y146955D02*
G03*
X49688Y145380I1575J0D01*
G01*
X42188Y157467D02*
G03*
X40613Y155892I0J-1575D01*
G01*
X46834D02*
G03*
X45259Y157467I-1575J-0D01*
G01*
X45259Y145380D02*
G03*
X46834Y146955I0J1575D01*
G01*
X40613Y146955D02*
G03*
X42188Y145380I1575J0D01*
G01*
X60767Y127959D02*
G03*
X59192Y129534I-1575J0D01*
G01*
Y123313D02*
G03*
X60767Y124888I-0J1575D01*
G01*
X48680Y124888D02*
G03*
X50255Y123313I1575J0D01*
G01*
X50255Y129534D02*
G03*
X48680Y127959I0J-1575D01*
G01*
X34692Y49313D02*
G03*
X36267Y50888I-0J1575D01*
G01*
X36267Y53959D02*
G03*
X34692Y55534I-1575J0D01*
G01*
X25755Y55534D02*
G03*
X24180Y53959I0J-1575D01*
G01*
Y50888D02*
G03*
X25755Y49313I1575J0D01*
G01*
X34692Y63313D02*
G03*
X36267Y64888I-0J1575D01*
G01*
X36267Y67959D02*
G03*
X34692Y69534I-1575J0D01*
G01*
X25755Y69534D02*
G03*
X24180Y67959I0J-1575D01*
G01*
Y64888D02*
G03*
X25755Y63313I1575J0D01*
G01*
X159267Y46859D02*
G03*
X157692Y48434I-1575J0D01*
G01*
Y42213D02*
G03*
X159267Y43788I-0J1575D01*
G01*
X147180Y43788D02*
G03*
X148755Y42213I1575J0D01*
G01*
X148755Y48434D02*
G03*
X147180Y46859I0J-1575D01*
G01*
X10180Y111888D02*
G03*
X11755Y110313I1575J0D01*
G01*
Y116534D02*
G03*
X10180Y114959I0J-1575D01*
G01*
X22267Y114959D02*
G03*
X20692Y116534I-1575J0D01*
G01*
X20692Y110313D02*
G03*
X22267Y111888I-0J1575D01*
G01*
X121180Y74788D02*
G03*
X122755Y73213I1575J0D01*
G01*
Y79434D02*
G03*
X121180Y77859I0J-1575D01*
G01*
X133267Y77859D02*
G03*
X131692Y79434I-1575J0D01*
G01*
X131692Y73213D02*
G03*
X133267Y74788I-0J1575D01*
G01*
X146267Y46859D02*
G03*
X144692Y48434I-1575J0D01*
G01*
Y42213D02*
G03*
X146267Y43788I-0J1575D01*
G01*
X134180Y43788D02*
G03*
X135755Y42213I1575J0D01*
G01*
X135755Y48434D02*
G03*
X134180Y46859I0J-1575D01*
G01*
X146267Y63859D02*
G03*
X144692Y65434I-1575J0D01*
G01*
Y59213D02*
G03*
X146267Y60788I-0J1575D01*
G01*
X134180Y60788D02*
G03*
X135755Y59213I1575J0D01*
G01*
X135755Y65434D02*
G03*
X134180Y63859I0J-1575D01*
G01*
X14952Y120274D02*
G03*
X16527Y118699I1575J0D01*
G01*
Y128148D02*
G03*
X14952Y126573I0J-1575D01*
G01*
X33495D02*
G03*
X31920Y128148I-1575J0D01*
G01*
Y118699D02*
G03*
X33495Y120274I0J1575D01*
G01*
X85873Y139152D02*
G03*
X87448Y140727I-0J1575D01*
G01*
X77999D02*
G03*
X79574Y139152I1575J0D01*
G01*
Y157695D02*
G03*
X77999Y156121I0J-1575D01*
G01*
X87448D02*
G03*
X85873Y157695I-1575J0D01*
G01*
X20692Y49313D02*
G03*
X22267Y50888I-0J1575D01*
G01*
X22267Y53959D02*
G03*
X20692Y55534I-1575J0D01*
G01*
X11755Y55534D02*
G03*
X10180Y53959I0J-1575D01*
G01*
Y50888D02*
G03*
X11755Y49313I1575J0D01*
G01*
X20692Y101313D02*
G03*
X22267Y102888I-0J1575D01*
G01*
X22267Y105959D02*
G03*
X20692Y107534I-1575J0D01*
G01*
X11755Y107534D02*
G03*
X10180Y105959I0J-1575D01*
G01*
Y102888D02*
G03*
X11755Y101313I1575J0D01*
G01*
X20692Y56313D02*
G03*
X22267Y57888I-0J1575D01*
G01*
X22267Y60959D02*
G03*
X20692Y62534I-1575J0D01*
G01*
X11755Y62534D02*
G03*
X10180Y60959I0J-1575D01*
G01*
Y57888D02*
G03*
X11755Y56313I1575J0D01*
G01*
X91192Y92313D02*
G03*
X92767Y93888I-0J1575D01*
G01*
X92767Y96959D02*
G03*
X91192Y98534I-1575J0D01*
G01*
X82255Y98534D02*
G03*
X80680Y96959I0J-1575D01*
G01*
Y93888D02*
G03*
X82255Y92313I1575J0D01*
G01*
X112755Y11534D02*
G03*
X111180Y9959I0J-1575D01*
G01*
X111180Y6888D02*
G03*
X112755Y5313I1575J0D01*
G01*
X121692Y5313D02*
G03*
X123267Y6888I-0J1575D01*
G01*
Y9959D02*
G03*
X121692Y11534I-1575J0D01*
G01*
X121692Y19313D02*
G03*
X123267Y20888I-0J1575D01*
G01*
X123267Y23959D02*
G03*
X121692Y25534I-1575J0D01*
G01*
X112755Y25534D02*
G03*
X111180Y23959I0J-1575D01*
G01*
Y20888D02*
G03*
X112755Y19313I1575J0D01*
G01*
X99755Y11534D02*
G03*
X98180Y9959I0J-1575D01*
G01*
X98180Y6888D02*
G03*
X99755Y5313I1575J0D01*
G01*
X108692Y5313D02*
G03*
X110267Y6888I-0J1575D01*
G01*
Y9959D02*
G03*
X108692Y11534I-1575J0D01*
G01*
X99755Y25534D02*
G03*
X98180Y23959I0J-1575D01*
G01*
X98180Y20888D02*
G03*
X99755Y19313I1575J0D01*
G01*
X108692Y19313D02*
G03*
X110267Y20888I-0J1575D01*
G01*
Y23959D02*
G03*
X108692Y25534I-1575J0D01*
G01*
X25755Y76534D02*
G03*
X24180Y74959I0J-1575D01*
G01*
X24180Y71888D02*
G03*
X25755Y70313I1575J0D01*
G01*
X34692Y70313D02*
G03*
X36267Y71888I-0J1575D01*
G01*
Y74959D02*
G03*
X34692Y76534I-1575J0D01*
G01*
X25755Y62534D02*
G03*
X24180Y60959I0J-1575D01*
G01*
X24180Y57888D02*
G03*
X25755Y56313I1575J0D01*
G01*
X34692Y56313D02*
G03*
X36267Y57888I-0J1575D01*
G01*
Y60959D02*
G03*
X34692Y62534I-1575J0D01*
G01*
X70113Y59955D02*
G03*
X71688Y58380I1575J0D01*
G01*
X74759Y58380D02*
G03*
X76334Y59955I0J1575D01*
G01*
X76334Y68892D02*
G03*
X74759Y70467I-1575J-0D01*
G01*
X71688D02*
G03*
X70113Y68892I0J-1575D01*
G01*
X135755Y58434D02*
G03*
X134180Y56859I0J-1575D01*
G01*
X134180Y53788D02*
G03*
X135755Y52213I1575J0D01*
G01*
X144692Y52213D02*
G03*
X146267Y53788I-0J1575D01*
G01*
Y56859D02*
G03*
X144692Y58434I-1575J0D01*
G01*
X86755Y11534D02*
G03*
X85180Y9959I0J-1575D01*
G01*
X85180Y6888D02*
G03*
X86755Y5313I1575J0D01*
G01*
X95692Y5313D02*
G03*
X97267Y6888I-0J1575D01*
G01*
Y9959D02*
G03*
X95692Y11534I-1575J0D01*
G01*
X157692Y52213D02*
G03*
X159267Y53788I-0J1575D01*
G01*
X159267Y56859D02*
G03*
X157692Y58434I-1575J0D01*
G01*
X148755Y58434D02*
G03*
X147180Y56859I0J-1575D01*
G01*
Y53788D02*
G03*
X148755Y52213I1575J0D01*
G01*
X122755Y65434D02*
G03*
X121180Y63859I0J-1575D01*
G01*
X121180Y60788D02*
G03*
X122755Y59213I1575J0D01*
G01*
X131692Y59213D02*
G03*
X133267Y60788I-0J1575D01*
G01*
Y63859D02*
G03*
X131692Y65434I-1575J0D01*
G01*
X10121Y76967D02*
X13369D01*
X10121Y71455D02*
Y76967D01*
X19078D02*
X22326D01*
Y71455D02*
Y76967D01*
X109050Y37597D02*
Y59250D01*
X87397Y37597D02*
Y59250D01*
X109050D01*
X87397Y37597D02*
X109050D01*
X95499Y101152D02*
Y106487D01*
X104948Y101152D02*
Y106487D01*
Y114361D02*
Y119695D01*
X95499D02*
X104948D01*
X95499Y101152D02*
X104948D01*
X95499Y114361D02*
Y119695D01*
X108499Y114361D02*
Y119695D01*
Y101152D02*
X117948D01*
X108499Y119695D02*
X117948D01*
Y114361D02*
Y119695D01*
Y101152D02*
Y106487D01*
X108499Y101152D02*
Y106487D01*
X102180Y71313D02*
X106649D01*
X114267D02*
Y77534D01*
X102180Y71313D02*
Y77534D01*
X109798Y71313D02*
X114267D01*
X102180Y77534D02*
X106649D01*
X109798D02*
X114267D01*
X109798Y84534D02*
X112692D01*
X102180Y79888D02*
Y82959D01*
X114267Y79888D02*
Y82959D01*
X103755Y84534D02*
X106649D01*
X103755Y78313D02*
X106649D01*
X109798Y78313D02*
X112692D01*
X109798Y85313D02*
X112692D01*
X103755Y85313D02*
X106649D01*
X103755Y91534D02*
X106649D01*
X114267Y86888D02*
Y89959D01*
X102180Y86888D02*
Y89959D01*
X109798Y91534D02*
X112692D01*
X88298Y119534D02*
X92767D01*
X80680D02*
X85149D01*
X88298Y113313D02*
X92767D01*
X80680D02*
Y119534D01*
X92767Y113313D02*
Y119534D01*
X80680Y113313D02*
X85149D01*
X154798Y72434D02*
X157692D01*
X147180Y67788D02*
Y70859D01*
X159267Y67788D02*
Y70859D01*
X148755Y72434D02*
X151649D01*
X148755Y66213D02*
X151649D01*
X154798Y66213D02*
X157692D01*
X121180Y35213D02*
X125649D01*
X128798D02*
X133267D01*
X121180Y41434D02*
X125649D01*
X133267Y35213D02*
Y41434D01*
X121180Y35213D02*
Y41434D01*
X128798D02*
X133267D01*
X154798Y35213D02*
X157692D01*
X148755Y35213D02*
X151649D01*
X148755Y41434D02*
X151649D01*
X159267Y36788D02*
Y39859D01*
X147180Y36788D02*
Y39859D01*
X154798Y41434D02*
X157692D01*
X141798Y35213D02*
X144692D01*
X135755Y35213D02*
X138649D01*
X135755Y41434D02*
X138649D01*
X146267Y36788D02*
Y39859D01*
X134180Y36788D02*
Y39859D01*
X141798Y41434D02*
X144692D01*
X128798Y66213D02*
X131692D01*
X122755Y66213D02*
X125649D01*
X122755Y72434D02*
X125649D01*
X133267Y67788D02*
Y70859D01*
X121180Y67788D02*
Y70859D01*
X128798Y72434D02*
X131692D01*
X135755D02*
X138649D01*
X141798Y72434D02*
X144692D01*
X141798Y66213D02*
X144692D01*
X134180Y67788D02*
Y70859D01*
X146267Y67788D02*
Y70859D01*
X135755Y66213D02*
X138649D01*
X80680Y106313D02*
X85149D01*
X88298D02*
X92767D01*
X80680Y112534D02*
X85149D01*
X92767Y106313D02*
Y112534D01*
X80680Y106313D02*
Y112534D01*
X88298D02*
X92767D01*
X75298Y98534D02*
X79767D01*
X67680D02*
X72149D01*
X75298Y92313D02*
X79767D01*
X67680D02*
Y98534D01*
X79767Y92313D02*
Y98534D01*
X67680Y92313D02*
X72149D01*
X80361Y128849D02*
Y131998D01*
X85086Y128849D02*
Y131998D01*
X80361Y130935D02*
X85086D01*
X80361Y131998D02*
X85086D01*
X80361Y128849D02*
X85086D01*
X52586Y135849D02*
Y138998D01*
X47861Y135849D02*
Y138998D01*
Y136912D02*
X52586D01*
X47861Y135849D02*
X52586D01*
X47861Y138998D02*
X52586D01*
X70613Y138998D02*
Y143467D01*
Y131380D02*
Y135849D01*
X76834Y138998D02*
Y143467D01*
X70613Y131380D02*
X76834D01*
X70613Y143467D02*
X76834D01*
Y131380D02*
Y135849D01*
Y145380D02*
Y149849D01*
Y152998D02*
Y157467D01*
X70613Y145380D02*
Y149849D01*
Y157467D02*
X76834D01*
X70613Y145380D02*
X76834D01*
X70613Y152998D02*
Y157467D01*
X63113Y152998D02*
Y157467D01*
Y145380D02*
Y149849D01*
X69334Y152998D02*
Y157467D01*
X63113Y145380D02*
X69334D01*
X63113Y157467D02*
X69334D01*
Y145380D02*
Y149849D01*
X64255Y129534D02*
X67149D01*
X70298Y129534D02*
X73192D01*
X70298Y123313D02*
X73192D01*
X62680Y124888D02*
Y127959D01*
X74767Y124888D02*
Y127959D01*
X64255Y123313D02*
X67149D01*
X61834Y152998D02*
Y155892D01*
X61834Y146955D02*
Y149849D01*
X55613Y146955D02*
Y149849D01*
X57188Y157467D02*
X60259D01*
X57188Y145380D02*
X60259D01*
X55613Y152998D02*
Y155892D01*
X54334Y152998D02*
Y155892D01*
X54334Y146955D02*
Y149849D01*
X48113Y146955D02*
Y149849D01*
X49688Y157467D02*
X52759D01*
X49688Y145380D02*
X52759D01*
X48113Y152998D02*
Y155892D01*
X46834Y152998D02*
Y155892D01*
X46834Y146955D02*
Y149849D01*
X40613Y146955D02*
Y149849D01*
X42188Y157467D02*
X45259D01*
X42188Y145380D02*
X45259D01*
X40613Y152998D02*
Y155892D01*
X56298Y123313D02*
X59192D01*
X50255Y123313D02*
X53149D01*
X50255Y129534D02*
X53149D01*
X60767Y124888D02*
Y127959D01*
X48680Y124888D02*
Y127959D01*
X56298Y129534D02*
X59192D01*
X25755Y49313D02*
X28649D01*
X36267Y50888D02*
Y53959D01*
X24180Y50888D02*
Y53959D01*
X31798Y49313D02*
X34692D01*
X31798Y55534D02*
X34692D01*
X25755Y55534D02*
X28649D01*
X25755Y63313D02*
X28649D01*
X36267Y64888D02*
Y67959D01*
X24180Y64888D02*
Y67959D01*
X31798Y63313D02*
X34692D01*
X31798Y69534D02*
X34692D01*
X25755Y69534D02*
X28649D01*
X154798Y42213D02*
X157692D01*
X148755Y42213D02*
X151649D01*
X148755Y48434D02*
X151649D01*
X159267Y43788D02*
Y46859D01*
X147180Y43788D02*
Y46859D01*
X154798Y48434D02*
X157692D01*
X11755Y116534D02*
X14649D01*
X17798Y116534D02*
X20692D01*
X17798Y110313D02*
X20692D01*
X10180Y111888D02*
Y114959D01*
X22267Y111888D02*
Y114959D01*
X11755Y110313D02*
X14649D01*
X122755Y79434D02*
X125649D01*
X128798Y79434D02*
X131692D01*
X128798Y73213D02*
X131692D01*
X121180Y74788D02*
Y77859D01*
X133267Y74788D02*
Y77859D01*
X122755Y73213D02*
X125649D01*
X141798Y79434D02*
X146267D01*
X134180D02*
X138649D01*
X141798Y73213D02*
X146267D01*
X134180D02*
Y79434D01*
X146267Y73213D02*
Y79434D01*
X134180Y73213D02*
X138649D01*
X147180D02*
X151649D01*
X154798D02*
X159267D01*
X147180Y79434D02*
X151649D01*
X159267Y73213D02*
Y79434D01*
X147180Y73213D02*
Y79434D01*
X154798D02*
X159267D01*
X141798Y42213D02*
X144692D01*
X135755Y42213D02*
X138649D01*
X135755Y48434D02*
X138649D01*
X146267Y43788D02*
Y46859D01*
X134180Y43788D02*
Y46859D01*
X141798Y48434D02*
X144692D01*
X141798Y58434D02*
X144692D01*
X134180Y53788D02*
Y56859D01*
X146267Y53788D02*
Y56859D01*
X135755Y58434D02*
X138649D01*
X135755Y52213D02*
X138649D01*
X141798Y52213D02*
X144692D01*
X141798Y59213D02*
X144692D01*
X135755Y59213D02*
X138649D01*
X135755Y65434D02*
X138649D01*
X146267Y60788D02*
Y63859D01*
X134180Y60788D02*
Y63859D01*
X141798Y65434D02*
X144692D01*
X14952Y120274D02*
Y126573D01*
X33495Y120274D02*
Y126573D01*
X16527Y118699D02*
X20287D01*
X28161D02*
X31920D01*
X28161Y128148D02*
X31920D01*
X16527D02*
X20287D01*
X79574Y139152D02*
X85873D01*
X79574Y157695D02*
X85873D01*
X87448Y140727D02*
Y144487D01*
Y152361D02*
Y156121D01*
X77999Y152361D02*
Y156121D01*
Y140727D02*
Y144487D01*
X31798Y41534D02*
X36267D01*
X24180Y35313D02*
Y41534D01*
X36267Y35313D02*
Y41534D01*
X24180D02*
X28649D01*
X31798Y35313D02*
X36267D01*
X24180D02*
X28649D01*
X11755Y49313D02*
X14649D01*
X22267Y50888D02*
Y53959D01*
X10180Y50888D02*
Y53959D01*
X17798Y49313D02*
X20692D01*
X17798Y55534D02*
X20692D01*
X11755Y55534D02*
X14649D01*
X11755Y101313D02*
X14649D01*
X22267Y102888D02*
Y105959D01*
X10180Y102888D02*
Y105959D01*
X17798Y101313D02*
X20692D01*
X17798Y107534D02*
X20692D01*
X11755Y107534D02*
X14649D01*
X11755Y56313D02*
X14649D01*
X22267Y57888D02*
Y60959D01*
X10180Y57888D02*
Y60959D01*
X17798Y56313D02*
X20692D01*
X17798Y62534D02*
X20692D01*
X11755Y62534D02*
X14649D01*
X75298Y119534D02*
X79767D01*
X67680Y113313D02*
Y119534D01*
X79767Y113313D02*
Y119534D01*
X67680D02*
X72149D01*
X75298Y113313D02*
X79767D01*
X67680D02*
X72149D01*
X88298Y105534D02*
X92767D01*
X80680Y99313D02*
Y105534D01*
X92767Y99313D02*
Y105534D01*
X80680D02*
X85149D01*
X88298Y99313D02*
X92767D01*
X80680D02*
X85149D01*
X67680Y106313D02*
X72149D01*
X79767D02*
Y112534D01*
X67680Y106313D02*
Y112534D01*
X75298Y106313D02*
X79767D01*
X67680Y112534D02*
X72149D01*
X75298D02*
X79767D01*
X82255Y92313D02*
X85149D01*
X92767Y93888D02*
Y96959D01*
X80680Y93888D02*
Y96959D01*
X88298Y92313D02*
X91192D01*
X88298Y98534D02*
X91192D01*
X82255Y98534D02*
X85149D01*
X67680Y99313D02*
X72149D01*
X79767D02*
Y105534D01*
X67680Y99313D02*
Y105534D01*
X75298Y99313D02*
X79767D01*
X67680Y105534D02*
X72149D01*
X75298D02*
X79767D01*
X118798Y11534D02*
X121692D01*
X111180Y6888D02*
Y9959D01*
X123267Y6888D02*
Y9959D01*
X112755Y11534D02*
X115649D01*
X112755Y5313D02*
X115649D01*
X118798Y5313D02*
X121692D01*
X112755Y19313D02*
X115649D01*
X123267Y20888D02*
Y23959D01*
X111180Y20888D02*
Y23959D01*
X118798Y19313D02*
X121692D01*
X118798Y25534D02*
X121692D01*
X112755Y25534D02*
X115649D01*
X105798Y11534D02*
X108692D01*
X98180Y6888D02*
Y9959D01*
X110267Y6888D02*
Y9959D01*
X99755Y11534D02*
X102649D01*
X99755Y5313D02*
X102649D01*
X105798Y5313D02*
X108692D01*
X85180Y19313D02*
X89649D01*
X97267D02*
Y25534D01*
X85180Y19313D02*
Y25534D01*
X92798Y19313D02*
X97267D01*
X85180Y25534D02*
X89649D01*
X92798D02*
X97267D01*
X85180Y12313D02*
X89649D01*
X97267D02*
Y18534D01*
X85180Y12313D02*
Y18534D01*
X92798Y12313D02*
X97267D01*
X85180Y18534D02*
X89649D01*
X92798D02*
X97267D01*
X105798Y25534D02*
X108692D01*
X98180Y20888D02*
Y23959D01*
X110267Y20888D02*
Y23959D01*
X99755Y25534D02*
X102649D01*
X99755Y19313D02*
X102649D01*
X105798Y19313D02*
X108692D01*
X111180Y12313D02*
X115649D01*
X123267D02*
Y18534D01*
X111180Y12313D02*
Y18534D01*
X118798Y12313D02*
X123267D01*
X111180Y18534D02*
X115649D01*
X118798D02*
X123267D01*
X98180Y12313D02*
X102649D01*
X110267D02*
Y18534D01*
X98180Y12313D02*
Y18534D01*
X105798Y12313D02*
X110267D01*
X98180Y18534D02*
X102649D01*
X105798D02*
X110267D01*
X26255Y109349D02*
X31452D01*
X34995D02*
X40192D01*
X34995Y117498D02*
X40192D01*
X26255D02*
X31452D01*
X26255Y109349D02*
Y117498D01*
X40192Y109349D02*
Y117498D01*
X31798Y48534D02*
X36267D01*
X24180Y42313D02*
Y48534D01*
X36267Y42313D02*
Y48534D01*
X24180D02*
X28649D01*
X31798Y42313D02*
X36267D01*
X24180D02*
X28649D01*
X31798Y76534D02*
X34692D01*
X24180Y71888D02*
Y74959D01*
X36267Y71888D02*
Y74959D01*
X25755Y76534D02*
X28649D01*
X25755Y70313D02*
X28649D01*
X31798Y70313D02*
X34692D01*
X31798Y62534D02*
X34692D01*
X24180Y57888D02*
Y60959D01*
X36267Y57888D02*
Y60959D01*
X25755Y62534D02*
X28649D01*
X25755Y56313D02*
X28649D01*
X31798Y56313D02*
X34692D01*
X70113Y65998D02*
Y68892D01*
X71688Y58380D02*
X74759D01*
X71688Y70467D02*
X74759D01*
X70113Y59955D02*
Y62849D01*
X76334Y59955D02*
Y62849D01*
X76334Y65998D02*
Y68892D01*
X154798Y65434D02*
X159267D01*
X147180Y59213D02*
Y65434D01*
X159267Y59213D02*
Y65434D01*
X147180D02*
X151649D01*
X154798Y59213D02*
X159267D01*
X147180D02*
X151649D01*
X92798Y11534D02*
X95692D01*
X85180Y6888D02*
Y9959D01*
X97267Y6888D02*
Y9959D01*
X86755Y11534D02*
X89649D01*
X86755Y5313D02*
X89649D01*
X92798Y5313D02*
X95692D01*
X148755Y52213D02*
X151649D01*
X159267Y53788D02*
Y56859D01*
X147180Y53788D02*
Y56859D01*
X154798Y52213D02*
X157692D01*
X154798Y58434D02*
X157692D01*
X148755Y58434D02*
X151649D01*
X128798Y65434D02*
X131692D01*
X121180Y60788D02*
Y63859D01*
X133267Y60788D02*
Y63859D01*
X122755Y65434D02*
X125649D01*
X122755Y59213D02*
X125649D01*
X128798Y59213D02*
X131692D01*
D93*
X106295Y55313D02*
G03*
X106295Y55313I-1181J0D01*
G01*
D94*
X88634Y150324D02*
G03*
X88624Y150324I-5J591D01*
G01*
X110534D02*
G03*
X110524Y150324I-5J591D01*
G01*
X119153Y42843D02*
G03*
X119153Y42843I-591J0D01*
G01*
D95*
X35157Y104196D02*
G03*
X33224Y104424I-993J-114D01*
G01*
X31291Y104651D02*
G03*
X33224Y104424I993J114D01*
G01*
X35157Y95196D02*
G03*
X33224Y95424I-993J-114D01*
G01*
X31291Y95651D02*
G03*
X33224Y95424I993J114D01*
G01*
D96*
X41524Y79224D02*
Y81724D01*
X39824Y83424D02*
X41524Y81724D01*
X36624Y83424D02*
X39824D01*
X36624Y77424D02*
X39724D01*
X41524Y79224D01*
X24924Y77424D02*
X30124D01*
X24924Y83424D02*
X30124D01*
X24924Y77424D02*
Y83424D01*
X41524Y86224D02*
Y88724D01*
X39824Y90424D02*
X41524Y88724D01*
X36624Y90424D02*
X39824D01*
X36624Y84424D02*
X39724D01*
X41524Y86224D01*
X24924Y84424D02*
X30124D01*
X24924Y90424D02*
X30124D01*
X24924Y84424D02*
Y90424D01*
M02*
